<?xml version="1.0" encoding="UTF-8"?><svg id="Calque_1" xmlns="http://www.w3.org/2000/svg" viewBox="0 0 66.76 78.82"><defs><style>.cls-1{fill:#000116;}.cls-2{fill:#fff;opacity:.7;}</style></defs><path class="cls-2" d="M59.62,49.92c-2.49-11.45-17.44-12.4-26.9-15.16-.59-.17-1.18-.33-1.77-.48-4.97-1.28-10.07-3.26-9.53-9.45,.79-13.08,26.9-14.22,30.29-1.85h7.3C55.82,6.6,31.04,5.06,20.04,13.1c-7.32,5.16-8.28,15.66-2.72,22.25,6.28,6.98,18.63,7.34,27.64,10.3,4.21,1.14,8.02,4.28,7.85,9.01-1.1,14.6-30.49,13.7-32.66-.15v-4.96H6.72v1.96c3.21,0,5.04,1.37,6.09,2.99,2.73,25.47,52.3,22.17,46.82-4.59Z"/><path class="cls-1" d="M59.62,48.45c-2.49-11.45-17.44-12.4-26.9-15.16-.59-.17-1.18-.33-1.77-.48-4.97-1.28-10.07-3.26-9.53-9.45,.79-13.08,26.9-14.22,30.29-1.85h7.3C55.82,5.14,31.04,3.59,20.04,11.64c-7.32,5.16-8.28,15.66-2.72,22.25,6.28,6.98,18.63,7.34,27.64,10.3,4.21,1.14,8.02,4.28,7.85,9.01-1.1,14.6-30.49,13.7-32.66-.15v-4.96H6.72v1.96c3.21,0,5.04,1.37,6.09,2.99,2.73,25.47,52.3,22.17,46.82-4.59Z"/></svg>