<?xml version="1.0" encoding="UTF-8"?><svg id="Calque_1" xmlns="http://www.w3.org/2000/svg" viewBox="0 0 977.56 237.33"><defs><style>.cls-1{fill:#000000;}</style></defs><path class="cls-1" d="M749.78,210.16h22.12L692.53,27.34h-39.83v5.76c9.4,0,14.78,4.03,17.86,8.79l-73.05,168.27h21.82l65.22-150.24,65.22,150.24Z"/><path class="cls-1" d="M347.73,210.16h22.12L290.48,27.34h-39.83v5.76c9.4,0,14.78,4.03,17.86,8.79l-73.05,168.27h21.82L282.51,59.92l65.22,150.24Z"/><path class="cls-1" d="M535.51,27.18v5.76c20.37,0,21.87,18.91,21.96,23.09V210.16h21.51V27.18h-43.47Z"/><path class="cls-1" d="M925.56,27.19V175.61L807.56,27.28v-.09h-.08s0,0,0,0h-38.55v5.77c16,0,20.38,11.64,21.57,18.7V210.16h17.07V61.9l117.94,148.26,.06-.04v.04h17.07V27.19h-17.07Z"/><path class="cls-1" d="M505.35,41.11c-10.07-9.3-22.93-13.95-38.57-13.95h-100.41v5.77c20.35,0,21.92,18.83,22.01,23.12V210.16h21.53v-81.13h51.63c19.81,0,34.58-4.86,44.32-14.59,9.74-9.73,14.61-22.18,14.61-37.37s-5.04-26.66-15.1-35.96Zm-16.98,60.66c-6.08,5.72-14.77,8.58-26.09,8.58h-52.37V46.36h50.63c24.63,0,36.95,10.24,36.95,30.71,0,10.75-3.04,18.99-9.11,24.7Z"/><path class="cls-1" d="M187.29,146.82c-7.18-32.98-50.23-35.72-77.47-43.65-1.69-.49-3.39-.95-5.09-1.39-14.31-3.69-29-9.4-27.44-27.22,2.28-37.67,77.48-40.96,87.25-5.34h21.02c-9.21-47.15-80.58-51.6-112.25-28.43-21.09,14.85-23.84,45.12-7.82,64.07,18.1,20.12,53.66,21.15,79.59,29.68,12.12,3.3,23.08,12.33,22.6,25.95-3.18,42.05-87.82,39.45-94.06-.44v-14.27H34.93v5.65c9.23,0,14.51,3.96,17.53,8.62,7.86,73.35,150.64,63.85,134.83-13.22Z"/></svg>