<svg width="122" height="122" viewBox="0 0 122 122" fill="none" xmlns="http://www.w3.org/2000/svg">
<path d="M81.1493 25.9413C80.2549 24.373 94.611 20.9789 97.2846 19.2849C85.3567 19.6766 75.5628 18.2425 75.5628 18.2425C75.234 18.1013 72.7463 15.5199 71.0558 14.9561C70.9619 13.454 71.8072 11.7169 68.2393 13.6416C49.1214 11.1755 31.8559 25.2475 35.0958 47.1613C35.4772 49.1695 35.6588 48.2872 35.4711 52.2304C35.2835 56.1736 37.7092 61.4476 39.571 63.4817C41.2969 65.3676 41.0421 66.0476 41.2297 67.4567C41.4174 68.865 44.3905 75.1555 48.9604 76.0008C49.0232 76.439 49.7429 78.2853 51.1511 78.974C51.3078 81.7594 52.6531 82.2914 53.2479 82.2914C53.2479 82.2914 53.4692 83.2133 54.014 84.254C39.9945 83.2503 34.5553 102.332 46.601 109C56.9743 114.289 69.6019 109.5 73.404 95.7024C74.9732 89.423 75.1419 80.9512 70.0564 76.5362C69.805 75.1134 68.7988 69.2618 68.9563 67.7098C69.3385 64.8064 69.5985 59.4472 67.301 56.1271C61.3229 47.4892 61.6345 46.0612 62.7002 47.1139C67.5825 51.9334 71.0566 51.9963 71.3854 58.3996C71.6514 63.5841 75.1023 63.263 77.4927 61.6671C79.883 60.0712 79.6102 60.9863 81.1975 60.2115C84.4271 58.6363 85.8138 57.3538 85.188 55.188C77.1991 39.9884 87.5164 41.6015 81.151 25.9413H81.1493Z" fill="#C6C6C6"/>
<path d="M36.656 51.1517C35.9131 57.5602 58.6506 61.3812 60.9739 66.9255C57.8441 64.672 53.1812 62.5123 51.773 62.8411C50.3648 63.1699 53.6977 64.8132 53.6977 64.8132C53.6977 64.8132 47.031 63.5926 41.6795 59.6485C38.8165 57.1608 38.863 60.8699 39.8021 62.0432C40.7412 63.2164 43.3227 67.1132 55.7171 70.1182C53.5574 70.1655 48.3936 69.5079 43.7462 66.9255C47.4863 74.991 61.2846 71.5935 68.9309 75.8802C69.0368 72.821 67.3789 70.7526 67.125 70.4461C57.5944 57.9399 44.4779 59.6726 36.6577 51.1509L36.656 51.1517Z" fill="#020204"/>
<path d="M43.6982 69.1163C46.0146 75.9389 56.146 76.7532 62.9108 77.0656C63.2904 77.379 54.7782 78.4429 50.2712 75.9389C51.3626 82.486 66.2111 74.8689 70.2696 86.2665C66.6699 79.1298 56.7847 81.2516 52.2114 79.3183C52.399 80.8204 53.4629 81.3842 54.0896 81.509C54.0457 81.8137 54.6525 83.3855 55.3102 84.4434C67.0805 86.2656 70.0682 103.037 59.7165 108.834C71.8965 104.66 75.1813 90.6797 71.269 80.8324C67.1846 71.2141 50.5061 77.7086 43.6991 69.1155L43.6982 69.1163Z" fill="#020204"/>
<path d="M80.6446 40.8233C81.4425 40.1037 82.3816 35.941 81.7713 32.8895C80.4698 26.3794 77.4373 25.263 79.3302 24.3927C82.6175 22.8804 87.8605 21.201 91.2158 20.3617C81.86 20.1844 75.2458 19.8857 74.7758 19.3692C73.5552 18.0075 70.9264 15.989 70.6449 16.1301C70.3634 16.2713 69.5182 21.4816 69.2367 21.6228C68.9552 21.7639 69.2367 18.3363 68.6737 18.5239C68.1108 18.7116 66.1387 23.3125 66.1852 22.8898C66.2326 22.4672 67.2646 17.0684 67.6873 15.754C68.1099 14.4396 67.1243 15.4251 66.7017 15.754C66.279 16.0828 60.7864 19.791 59.9885 19.3219C61.3502 18.4301 64.9646 15.754 66.1387 14.8149C66.1387 14.8149 64.0556 14.6289 60.9895 14.9242C50.2367 15.958 40.8964 23.0706 37.2751 33.2484C33.7183 43.2447 36.4444 53.9442 50.7248 57.9115C35.5148 50.9633 36.3928 38.6171 37.8552 34.5413C34.4569 54.2205 54.155 54.0862 67.4953 68.5852C68.3234 64.9389 67.7346 63.0288 67.7346 63.0288C67.1717 65.0009 66.0449 65.7515 65.6223 65.4227C67.8775 61.451 67.5909 58.5407 63.9326 53.5456C58.6534 47.5451 56.6977 37.9483 61.7255 31.7627C60.0823 38.711 60.2235 43.7336 69.284 51.4333C69.284 51.4333 71.4472 53.2478 72.0222 55.5022C72.4293 57.0981 72.8046 60.3845 72.8046 60.3845C73.5096 62.3876 77.3409 60.4783 78.0623 59.7648C77.9211 59.4136 76.2314 57.5362 76.654 57.2547C77.0767 56.9733 77.2686 56.5506 77.2686 56.5506C77.2686 56.5506 78.2972 58.9444 79.0487 59.1794C79.8002 59.4144 82.6631 58.4125 83.5557 56.4568C84.4475 54.5011 80.2701 51.2516 80.6454 40.8242L80.6446 40.8233ZM40.4591 42.7015C38.7203 37.0884 40.021 35.3522 42.2039 35.9771C40.1862 27.6155 47.2455 16.8291 62.0431 16.7576C62.0621 16.7576 62.0664 16.7843 62.0483 16.7886C51.5089 19.1282 39.4795 26.0532 45.3389 41.1952C42.9588 37.2838 40.9282 36.819 40.9282 38.4295C41.2992 45.9036 46.4897 51.361 49.159 53.7841C47.7344 53.2332 42.642 49.753 40.4582 42.7015H40.4591ZM51.7732 40.7295C50.0835 36.9739 48.9094 35.6595 47.2197 35.0957C46.9847 37.8657 49.332 47.4892 57.172 53.8271C48.1596 50.8875 40.528 27.0921 48.6752 33.2648C49.1444 33.171 50.1773 24.6734 58.0173 20.6836C54.074 24.6269 48.8629 30.636 51.7732 40.7295ZM59.144 46.8324C58.0646 45.8468 56.7115 44.0512 56.7115 44.0512C56.7115 44.0512 57.0153 47.2301 60.6461 52.1374C66.3204 59.8069 60.6934 64.8597 51.7026 51.2921C55.6226 55.2827 60.1296 57.5827 60.2235 55.0003C59.8327 51.7578 53.9234 46.7119 54.8711 40.4945C54.8711 40.4945 55.0855 41.6712 55.7629 41.4801C55.0114 38.476 55.0588 32.373 59.472 27.6783C58.0164 30.0257 53.932 37.6307 59.1432 46.8324H59.144ZM75.4343 37.7254C75.0116 37.3027 73.8849 38.8521 74.5425 37.7254C75.2002 36.5986 71.7261 30.9183 71.7261 30.9183C73.1343 32.608 76.0919 35.4718 76.2331 35.0492C76.3743 34.6266 76.5619 32.843 76.6557 33.3595C76.7969 34.9554 77.1722 34.3924 77.266 36.2698C77.3599 38.148 75.8578 38.148 75.4352 37.7254H75.4343Z" fill="#020204"/>
<path d="M52.9481 109.054C59.3422 109.054 64.5256 103.87 64.5256 97.4764C64.5256 91.0823 59.3422 85.8989 52.9481 85.8989C46.554 85.8989 41.3706 91.0823 41.3706 97.4764C41.3706 103.87 46.554 109.054 52.9481 109.054Z" fill="#020204"/>
<path d="M59.2347 100.092C58.5676 97.0279 54.5685 96.774 52.0369 96.0363C51.8794 95.9907 51.7219 95.9476 51.5635 95.9072C50.2336 95.5646 48.8692 95.0335 49.0138 93.3782C49.2256 89.8783 56.2117 89.5727 57.1198 92.8824H59.0729C58.2173 88.5019 51.5867 88.0887 48.6446 90.2407C46.6854 91.6205 46.4298 94.4327 47.9181 96.1929C49.6 98.0617 52.9028 98.1581 55.313 98.95C56.4389 99.2565 57.4581 100.096 57.4125 101.361C57.1172 105.267 49.2531 105.026 48.6738 101.321V99.995H45.0801V100.52C45.9374 100.52 46.4281 100.888 46.7087 101.321C47.4386 108.135 60.7041 107.253 59.2356 100.092H59.2347Z" fill="#C6C6C6"/>
</svg>
