<svg width="121" height="128" viewBox="0 0 121 128" fill="none" xmlns="http://www.w3.org/2000/svg">
<path d="M49.5137 61.195L46.2552 56.2283C46.2552 56.2283 45.8962 55.6218 45.1414 55.6218V55.4105H53.9322V58.5991H53.702C53.3568 56.3615 51.6723 55.6402 50.2824 55.6402H47.8246L50.8715 60.3312C51.1016 59.9729 51.2489 59.4491 51.2489 58.9896H51.5112V63.6623H51.2489C51.2489 62.4356 50.3974 61.4569 49.0075 61.4569H48.2849V65.9504C48.2849 67.0117 49.1547 67.145 49.8911 67.145V67.3563H45.146V67.145C45.7351 67.145 46.5681 66.9153 46.5681 65.9366V61.1996H49.5137V61.195Z" fill="url(#paint0_linear_1_1235)"/>
<path d="M46.025 39.3665L46.0296 37.8087L44.8191 38.3969L46.025 39.3665Z" fill="url(#paint1_linear_1_1235)"/>
<path d="M44.2346 39.6833L44.6673 40.7448L45.8823 39.6373L44.2346 39.6833Z" fill="url(#paint2_linear_1_1235)"/>
<path d="M46.071 40.1014L46.0387 39.7292L45.1274 40.5564L46.071 40.1014Z" fill="url(#paint3_linear_1_1235)"/>
<path d="M44.6949 38.5162L44.2439 39.5088L45.8732 39.4675L44.6949 38.5162Z" fill="url(#paint4_linear_1_1235)"/>
<path d="M46.7476 40.6389L46.2229 41.2639L46.8811 41.0663L46.7476 40.6389Z" fill="url(#paint5_linear_1_1235)"/>
<path d="M46.2275 40.2852L46.0986 41.1399L46.6463 40.4919L46.2275 40.2852Z" fill="url(#paint6_linear_1_1235)"/>
<path d="M44.8467 40.8825L45.9007 41.3053L46.0525 40.3035L44.8467 40.8825Z" fill="url(#paint7_linear_1_1235)"/>
<path d="M46.8948 40.5333L47.0144 40.9193L47.3044 40.4689L46.8948 40.5333Z" fill="url(#paint8_linear_1_1235)"/>
<path d="M47.5024 39.0815L47.53 38.1257L46.8442 39.0356L47.5024 39.0815Z" fill="url(#paint9_linear_1_1235)"/>
<path d="M47.7048 38.0246L47.6726 39.054L48.6345 38.7277L47.7048 38.0246Z" fill="url(#paint10_linear_1_1235)"/>
<path d="M47.4701 37.9236L46.2458 37.7719L46.7015 38.9345L47.4701 37.9236Z" fill="url(#paint11_linear_1_1235)"/>
<path d="M48.8508 40.4322H49.463L49.3709 39.9911L48.8508 40.4322Z" fill="url(#paint12_linear_1_1235)"/>
<path d="M46.1999 38.1211L46.1953 39.371L46.5773 39.0815L46.1999 38.1211Z" fill="url(#paint13_linear_1_1235)"/>
<path d="M48.5471 39.9038L48.6622 40.3633L49.1961 39.913L48.5471 39.9038Z" fill="url(#paint14_linear_1_1235)"/>
<path d="M49.279 39.7431L48.8371 38.9619L48.5564 39.7339L49.279 39.7431Z" fill="url(#paint15_linear_1_1235)"/>
<path d="M48.3952 39.6788L48.6759 38.8976L47.7646 39.2009L48.3952 39.6788Z" fill="url(#paint16_linear_1_1235)"/>
<path d="M48.8325 40.6068L49.1685 40.9192L49.3986 40.6068H48.8325Z" fill="url(#paint17_linear_1_1235)"/>
<path d="M49.486 41.3374V40.7814L49.2881 41.0479L49.486 41.3374Z" fill="url(#paint18_linear_1_1235)"/>
<path d="M49.5734 45.5876V44.3146L48.6345 43.9654L49.5734 45.5876Z" fill="url(#paint19_linear_1_1235)"/>
<path d="M49.5735 44.1311V42.5503L48.5793 43.7635L49.5735 44.1311Z" fill="url(#paint20_linear_1_1235)"/>
<path d="M49.7439 44.3146V45.5876L50.6828 43.9654L49.7439 44.3146Z" fill="url(#paint21_linear_1_1235)"/>
<path d="M49.7439 42.5503V44.1311L50.7334 43.7635L49.7439 42.5503Z" fill="url(#paint22_linear_1_1235)"/>
<path d="M46.927 42.2746L47.3044 42.7204L47.576 42.1L46.927 42.2746Z" fill="url(#paint23_linear_1_1235)"/>
<path d="M47.5621 41.898L47.2768 41.25L46.9224 41.5947L47.5621 41.898Z" fill="url(#paint24_linear_1_1235)"/>
<path d="M47.7464 41.7692L47.5071 41.4889L47.682 41.8841L47.7464 41.7692Z" fill="url(#paint25_linear_1_1235)"/>
<path d="M46.8811 41.7003V42.169L47.5116 41.999L46.8811 41.7003Z" fill="url(#paint26_linear_1_1235)"/>
<path d="M48.1698 41.6314L48.2756 41.5073L48.0869 41.3419L48.1698 41.6314Z" fill="url(#paint27_linear_1_1235)"/>
<path d="M47.9764 41.3878L47.8936 41.7003L48.0685 41.6957L47.9764 41.3878Z" fill="url(#paint28_linear_1_1235)"/>
<path d="M47.9027 41.2316L47.4241 41.2133L47.7877 41.6452L47.9027 41.2316Z" fill="url(#paint29_linear_1_1235)"/>
<path d="M48.3215 41.6313L48.2295 41.737L48.3492 41.8106L48.3215 41.6313Z" fill="url(#paint30_linear_1_1235)"/>
<path d="M47.9167 42.4033L48.0226 42.849L48.1653 42.4906L47.9167 42.4033Z" fill="url(#paint31_linear_1_1235)"/>
<path d="M48.2665 42.5549L48.1008 42.9547L48.5795 42.8444L48.2665 42.5549Z" fill="url(#paint32_linear_1_1235)"/>
<path d="M47.4287 42.803L47.9304 42.9547L47.8061 42.4262L47.4287 42.803Z" fill="url(#paint33_linear_1_1235)"/>
<path d="M49.1776 42.4171L49.2743 42.2792L49.0671 42.1919L49.1776 42.4171Z" fill="url(#paint34_linear_1_1235)"/>
<path d="M47.7693 42.3022L47.6819 42.1459L47.4932 42.5733L47.7693 42.3022Z" fill="url(#paint35_linear_1_1235)"/>
<path d="M48.8279 42.3205L49.0488 42.4124L48.9337 42.1827L48.8279 42.3205Z" fill="url(#paint36_linear_1_1235)"/>
<path d="M48.7634 42.7571L49.0534 42.5411L48.7864 42.4262L48.7634 42.7571Z" fill="url(#paint37_linear_1_1235)"/>
<path d="M48.6484 42.7525L48.6714 42.417L48.3584 42.4905L48.6484 42.7525Z" fill="url(#paint38_linear_1_1235)"/>
<path d="M49.2513 42.0311L49.104 42.0816L49.2789 42.1597L49.2513 42.0311Z" fill="url(#paint39_linear_1_1235)"/>
<path d="M49.4446 41.93L49.3572 41.9805L49.3802 42.0724L49.4446 41.93Z" fill="url(#paint40_linear_1_1235)"/>
<path d="M52.0128 42.7204L52.3902 42.2746L51.7412 42.1L52.0128 42.7204Z" fill="url(#paint41_linear_1_1235)"/>
<path d="M52.0405 41.25L51.7551 41.898L52.3949 41.5947L52.0405 41.25Z" fill="url(#paint42_linear_1_1235)"/>
<path d="M51.571 41.7692L51.6355 41.8841L51.8104 41.4889L51.571 41.7692Z" fill="url(#paint43_linear_1_1235)"/>
<path d="M52.4316 42.169L52.4362 41.7003L51.8057 41.999L52.4316 42.169Z" fill="url(#paint44_linear_1_1235)"/>
<path d="M51.2304 41.3419L51.0371 41.5073L51.1476 41.6314L51.2304 41.3419Z" fill="url(#paint45_linear_1_1235)"/>
<path d="M51.3362 41.3878L51.2488 41.6957L51.4237 41.7003L51.3362 41.3878Z" fill="url(#paint46_linear_1_1235)"/>
<path d="M51.8932 41.2133L51.4146 41.2316L51.525 41.6452L51.8932 41.2133Z" fill="url(#paint47_linear_1_1235)"/>
<path d="M50.968 41.8106L51.0877 41.737L50.9956 41.6313L50.968 41.8106Z" fill="url(#paint48_linear_1_1235)"/>
<path d="M51.1477 42.4906L51.295 42.849L51.3962 42.4033L51.1477 42.4906Z" fill="url(#paint49_linear_1_1235)"/>
<path d="M50.738 42.8444L51.2121 42.9547L51.051 42.5549L50.738 42.8444Z" fill="url(#paint50_linear_1_1235)"/>
<path d="M51.387 42.9547L51.8886 42.803L51.5112 42.4262L51.387 42.9547Z" fill="url(#paint51_linear_1_1235)"/>
<path d="M50.2501 42.1919L50.043 42.2792L50.1396 42.4171L50.2501 42.1919Z" fill="url(#paint52_linear_1_1235)"/>
<path d="M51.8242 42.5733L51.6355 42.1459L51.5481 42.3022L51.8242 42.5733Z" fill="url(#paint53_linear_1_1235)"/>
<path d="M50.2686 42.4124L50.4895 42.3205L50.3836 42.1827L50.2686 42.4124Z" fill="url(#paint54_linear_1_1235)"/>
<path d="M50.5539 42.7571L50.5309 42.4262L50.2639 42.5411L50.5539 42.7571Z" fill="url(#paint55_linear_1_1235)"/>
<path d="M50.9544 42.4905L50.646 42.417L50.669 42.7525L50.9544 42.4905Z" fill="url(#paint56_linear_1_1235)"/>
<path d="M50.0659 42.0311L50.0383 42.1597L50.2132 42.0816L50.0659 42.0311Z" fill="url(#paint57_linear_1_1235)"/>
<path d="M49.9603 41.9805L49.8728 41.93L49.9372 42.0724L49.9603 41.9805Z" fill="url(#paint58_linear_1_1235)"/>
<path d="M54.4937 38.3969L53.2878 37.8087L53.2924 39.3665L54.4937 38.3969Z" fill="url(#paint59_linear_1_1235)"/>
<path d="M53.4351 39.6373L54.6501 40.7448L55.0782 39.6833L53.4351 39.6373Z" fill="url(#paint60_linear_1_1235)"/>
<path d="M53.2786 39.7292L53.2463 40.1014L54.1899 40.5564L53.2786 39.7292Z" fill="url(#paint61_linear_1_1235)"/>
<path d="M55.0736 39.5088L54.6226 38.5162L53.4443 39.4675L55.0736 39.5088Z" fill="url(#paint62_linear_1_1235)"/>
<path d="M53.0944 41.2639L52.5698 40.6389L52.4363 41.0663L53.0944 41.2639Z" fill="url(#paint63_linear_1_1235)"/>
<path d="M52.6711 40.4919L53.2142 41.1399L53.0854 40.2852L52.6711 40.4919Z" fill="url(#paint64_linear_1_1235)"/>
<path d="M53.4165 41.3053L54.4705 40.8825L53.2646 40.3035L53.4165 41.3053Z" fill="url(#paint65_linear_1_1235)"/>
<path d="M52.0129 40.4689L52.3029 40.9193L52.4226 40.5333L52.0129 40.4689Z" fill="url(#paint66_linear_1_1235)"/>
<path d="M52.4731 39.0356L51.7827 38.1257L51.8149 39.0815L52.4731 39.0356Z" fill="url(#paint67_linear_1_1235)"/>
<path d="M51.6447 39.054L51.6079 38.0246L50.6782 38.7277L51.6447 39.054Z" fill="url(#paint68_linear_1_1235)"/>
<path d="M51.8472 37.9236L52.6112 38.9345L53.0668 37.7719L51.8472 37.9236Z" fill="url(#paint69_linear_1_1235)"/>
<path d="M49.9417 39.9911L49.8496 40.4322H50.4663L49.9417 39.9911Z" fill="url(#paint70_linear_1_1235)"/>
<path d="M53.1174 39.371V38.1211L52.74 39.0815L53.1174 39.371Z" fill="url(#paint71_linear_1_1235)"/>
<path d="M50.1213 39.913L50.6506 40.3633L50.7703 39.9038L50.1213 39.913Z" fill="url(#paint72_linear_1_1235)"/>
<path d="M50.4802 38.9619L50.0383 39.7431L50.7609 39.7339L50.4802 38.9619Z" fill="url(#paint73_linear_1_1235)"/>
<path d="M50.6414 38.8976L50.9221 39.6788L51.5527 39.2009L50.6414 38.8976Z" fill="url(#paint74_linear_1_1235)"/>
<path d="M49.9141 40.6068L50.1442 40.9192L50.4848 40.6068H49.9141Z" fill="url(#paint75_linear_1_1235)"/>
<path d="M49.8313 40.7814V41.3374L50.0292 41.0479L49.8313 40.7814Z" fill="url(#paint76_linear_1_1235)"/>
<path d="M49.5736 39.3984V35.6309L48.0317 35.1484L49.5736 39.3984Z" fill="url(#paint77_linear_1_1235)"/>
<path d="M49.7439 35.6309V39.3984L51.2857 35.1484L49.7439 35.6309Z" fill="url(#paint78_linear_1_1235)"/>
<path d="M49.5735 35.4519V34.1193C48.943 34.1468 48.3815 34.4547 48.0271 34.974L49.5735 35.4565V35.4519Z" fill="url(#paint79_linear_1_1235)"/>
<path d="M49.7439 34.1146V35.4473L51.2903 34.9648C50.9313 34.4455 50.3744 34.1376 49.7439 34.11V34.1146Z" fill="url(#paint80_linear_1_1235)"/>
<path d="M70.63 65.1416C70.584 64.6546 69.9949 64.31 69.392 64.0389C69.0192 63.8689 68.6418 63.7311 68.3886 63.6024C68.3196 63.5657 68.2459 63.5289 68.1723 63.4922C67.4037 63.1062 66.3267 62.5641 65.71 61.8381C64.9275 60.9146 65.0196 60.0554 65.8757 60.4C65.328 60.1014 65.0426 60.2254 64.9552 60.5333C64.748 61.2638 65.4936 62.1873 66.0045 62.6514C66.7639 63.3359 67.5095 63.653 68.3012 63.97C68.3978 64.0113 68.4991 64.0481 68.5957 64.0895C68.7798 64.163 68.9639 64.2411 69.1526 64.3238C69.5254 64.4846 70.2388 64.774 70.3263 65.1967C70.4137 65.6011 69.8706 65.8538 69.5899 65.5184C69.9489 66.0789 70.6761 65.7159 70.6254 65.1416H70.63Z" fill="url(#paint81_linear_1_1235)"/>
<path d="M76.6501 60.5288C76.5626 60.221 76.2773 60.0969 75.7296 60.3956C76.5856 60.051 76.6777 60.9102 75.8953 61.8337C75.2785 62.5596 74.1969 63.1064 73.4283 63.4923C73.3547 63.5291 73.281 63.5658 73.2166 63.598C72.9681 63.7266 72.5907 63.8645 72.2179 64.0299C71.6149 64.3009 71.0212 64.6455 70.9752 65.1372C70.9246 65.7115 71.6471 66.0744 72.0061 65.5139C71.73 65.8493 71.1823 65.5966 71.2697 65.1923C71.3618 64.765 72.0752 64.4801 72.4434 64.3193C72.6321 64.2366 72.8208 64.1585 73.0003 64.085C73.0969 64.0436 73.1936 64.0069 73.2902 63.9655C74.0819 63.6439 74.8275 63.3269 75.5915 62.6423C76.107 62.1783 76.848 61.2547 76.6409 60.5242L76.6501 60.5288Z" fill="url(#paint82_linear_1_1235)"/>
<path d="M69.4656 63.8968C69.4196 63.8738 69.3735 63.8463 69.3321 63.8233C68.9041 63.5844 68.5221 63.3592 68.1861 63.1433C68.1401 63.1157 68.0986 63.0881 68.0572 63.0606C65.3187 61.2733 65.7053 60.359 66.4279 60.7909C65.6363 59.849 64.1681 61.2457 68.1263 63.3087C68.4899 63.4971 68.8949 63.69 69.3551 63.8922C69.507 63.9565 69.6635 64.0254 69.8292 64.0898C69.7049 64.0254 69.5899 63.9611 69.4748 63.8968H69.4656Z" fill="url(#paint83_linear_1_1235)"/>
<path d="M75.1818 60.7907C75.909 60.3588 76.2957 61.2777 73.548 63.065C73.5065 63.0926 73.4605 63.1201 73.4191 63.1477C73.0877 63.359 72.7103 63.5842 72.2823 63.8231C72.2362 63.8461 72.1902 63.8736 72.1488 63.8966C72.0337 63.9609 71.9141 64.0253 71.7898 64.0896C71.9555 64.0207 72.112 63.9563 72.2685 63.8874C72.7241 63.6899 73.1245 63.4969 73.4881 63.3085C77.4509 61.2455 75.9781 59.8442 75.1864 60.7861L75.1818 60.7907Z" fill="url(#paint84_linear_1_1235)"/>
<path d="M69.185 56.968H68.2415V59.0677L69.185 62.3253V56.968Z" fill="url(#paint85_linear_1_1235)"/>
<path d="M73.3688 56.968H72.4207V62.3253L73.3688 59.0677V56.968Z" fill="url(#paint86_linear_1_1235)"/>
<path d="M69.1849 62.771L68.2414 59.5134L67.5004 56.968H66.5522L68.1861 62.9869C68.1861 62.9869 68.223 63.0099 68.2414 63.0237C68.3334 63.0834 68.4301 63.1385 68.5267 63.1983C68.7753 63.3499 69.0422 63.5061 69.3322 63.6669C69.3782 63.6899 69.4242 63.7174 69.4656 63.7404L69.1849 62.771Z" fill="url(#paint87_linear_1_1235)"/>
<path d="M74.1096 56.968L73.3639 59.5272L72.4204 62.7847L72.1443 63.7358C72.1903 63.7128 72.2363 63.6853 72.2778 63.6623C72.7012 63.428 73.0786 63.2028 73.4146 62.9869L75.0485 56.968H74.105H74.1096Z" fill="url(#paint88_linear_1_1235)"/>
<path d="M70.1514 59.4032C70.2572 59.2975 70.2894 59.2837 70.3355 59.3343C70.3677 59.3664 70.4413 59.348 70.4966 59.2929C70.5932 59.201 70.6254 59.1872 70.7129 59.2653C70.7635 59.3113 70.8463 59.3113 70.8924 59.2653C70.9108 59.247 70.92 59.224 70.9246 59.201C70.9246 59.201 70.9246 59.1964 70.9246 59.1918C70.9246 59.1918 70.9246 59.1826 70.9246 59.178V59.1688C70.9246 59.1688 70.9246 59.1642 70.9246 59.1596C70.9246 59.1596 70.9246 59.155 70.9246 59.1504C70.9246 59.1504 70.9246 59.1504 70.9246 59.1458C70.9246 59.1458 70.9246 59.1413 70.92 59.1367C70.92 59.1367 70.9154 59.1321 70.9108 59.1275C70.897 59.1137 70.8832 59.1045 70.8648 59.0999C70.8279 59.0907 70.7911 59.0953 70.7635 59.1183C70.7635 59.1183 70.7543 59.1229 70.7497 59.1275C70.7405 59.1367 70.7313 59.1459 70.7221 59.1504C70.6438 59.2148 70.6116 59.2102 70.5564 59.1596C70.5564 59.1596 70.5472 59.155 70.5426 59.1504C70.5426 59.1504 70.5426 59.1504 70.538 59.1504C70.538 59.1504 70.5334 59.1504 70.5288 59.1504C70.5288 59.1504 70.5242 59.1504 70.5196 59.1504C70.5196 59.1504 70.515 59.1504 70.5104 59.1504C70.5104 59.1504 70.5058 59.1504 70.5012 59.1504C70.5012 59.1504 70.4966 59.1504 70.492 59.1504C70.492 59.1504 70.4874 59.1504 70.4827 59.1504C70.4827 59.1504 70.4781 59.1504 70.4735 59.1504C70.4735 59.1504 70.4689 59.1504 70.4643 59.155C70.4643 59.155 70.4551 59.155 70.4551 59.1596C70.4551 59.1596 70.4505 59.1596 70.4459 59.1642C70.4459 59.1642 70.4367 59.1688 70.4367 59.1734C70.4367 59.1734 70.4321 59.178 70.4275 59.1826C70.4275 59.1826 70.4229 59.1872 70.4183 59.1918C70.3217 59.2883 70.2894 59.3067 70.2526 59.2745C70.2434 59.2653 70.1928 59.3067 70.1376 59.3618C70.0823 59.417 70.0409 59.4629 70.0501 59.4767C70.0639 59.4905 70.1238 59.4629 70.179 59.4032H70.1514Z" fill="url(#paint89_linear_1_1235)"/>
<path d="M70.0822 60.5243C70.1144 60.4921 70.096 60.4186 70.0408 60.3634C70.0132 60.3358 69.9855 60.3221 69.9579 60.3129C69.9579 60.3129 69.9487 60.3129 69.9441 60.3129C69.9441 60.3129 69.9395 60.3129 69.9349 60.3129C69.9349 60.3129 69.9257 60.3129 69.9211 60.3129C69.9211 60.3129 69.9211 60.3129 69.9165 60.3129H69.9073C69.9073 60.3129 69.9073 60.3129 69.9027 60.3129C69.8981 60.3129 69.8935 60.3175 69.8889 60.3221C69.8843 60.3266 69.8797 60.3358 69.8797 60.3404C69.8705 60.3726 69.8935 60.4232 69.9395 60.4645C70.0408 60.5656 70.0408 60.607 70.0224 60.6253C70.004 60.6483 70.0546 60.6851 70.1098 60.7402C70.165 60.7954 70.2157 60.8367 70.2249 60.8275C70.2387 60.8138 70.2111 60.754 70.1512 60.6943C70.0454 60.5886 70.0316 60.5564 70.0822 60.5105V60.5243Z" fill="url(#paint90_linear_1_1235)"/>
<path d="M70.0132 60.1476C70.0546 60.1017 70.0592 60.0144 70.0132 59.9684C69.9396 59.8857 69.9442 59.8489 70.0408 59.7524C70.1421 59.6467 70.1789 59.6421 70.2571 59.7202C70.3032 59.7662 70.386 59.7616 70.4458 59.7019C70.5517 59.5962 70.5977 59.5916 70.699 59.6881C70.7542 59.7432 70.8555 59.7432 70.9107 59.6881C70.9337 59.6697 70.9429 59.6421 70.9475 59.6191C70.9475 59.6145 70.9475 59.61 70.9475 59.6054C70.9475 59.6054 70.9475 59.5962 70.9475 59.5916C70.9475 59.5916 70.9475 59.5916 70.9475 59.587V59.5778C70.9475 59.5778 70.9475 59.5778 70.9475 59.5732C70.9475 59.5686 70.9475 59.564 70.9475 59.5594C70.9475 59.5548 70.9475 59.5502 70.9429 59.5456C70.9429 59.5456 70.9429 59.541 70.9383 59.5364C70.9383 59.5364 70.9383 59.5364 70.9383 59.5318C70.9383 59.5318 70.9383 59.5272 70.9337 59.5226C70.9337 59.5226 70.9245 59.5135 70.9245 59.5089C70.9245 59.5089 70.9153 59.5043 70.9153 59.4997C70.9061 59.4951 70.9015 59.4905 70.8923 59.4859C70.8923 59.4859 70.8831 59.4859 70.8785 59.4813C70.8417 59.4675 70.8002 59.4675 70.7634 59.4813C70.7496 59.4859 70.7358 59.4951 70.7266 59.5089C70.722 59.5135 70.7128 59.5226 70.7082 59.5272C70.7082 59.5272 70.7082 59.5272 70.7036 59.5318C70.6253 59.6008 70.5839 59.61 70.5195 59.5594C70.5195 59.5594 70.5103 59.5548 70.5103 59.5502C70.5103 59.5502 70.5103 59.5502 70.5057 59.5502C70.5011 59.5456 70.4965 59.541 70.4919 59.5364C70.4689 59.5135 70.4412 59.5089 70.409 59.5135C70.4044 59.5135 70.3998 59.5135 70.3906 59.5135C70.386 59.5135 70.3814 59.5134 70.3768 59.518C70.3538 59.5272 70.3354 59.541 70.3124 59.5594C70.294 59.5778 70.2802 59.5916 70.2663 59.6054C70.2157 59.6513 70.1835 59.6605 70.1467 59.6421C70.1329 59.6375 70.1237 59.6237 70.1099 59.61C70.0822 59.5824 70.0178 59.61 69.9626 59.6605C69.9074 59.7157 69.8889 59.7754 69.912 59.8076C69.9718 59.8719 69.9672 59.9087 69.8797 60.0006C69.8383 60.0465 69.8337 60.1154 69.8797 60.1614C69.9258 60.2074 69.9948 60.2165 70.0408 60.1706L70.0132 60.1476Z" fill="url(#paint91_linear_1_1235)"/>
<path d="M71.2007 60.7677H71.1915H71.1823C71.1823 60.7677 71.1731 60.7677 71.1685 60.7723C71.1685 60.7723 71.1639 60.7723 71.1593 60.7769C71.1547 60.7769 71.1501 60.7815 71.1455 60.7861C71.1455 60.7861 71.1409 60.7861 71.1362 60.7907C71.127 60.7953 71.1224 60.8045 71.1132 60.8091C71.0488 60.8734 71.012 60.8964 70.9706 60.8826C70.9614 60.8826 70.9522 60.8734 70.9383 60.8688C70.9383 60.8688 70.9337 60.8688 70.9291 60.8642C70.9291 60.8642 70.9291 60.8642 70.9245 60.8642C70.9153 60.8597 70.9107 60.8505 70.9015 60.8413C70.8923 60.8321 70.8785 60.8229 70.8647 60.8183C70.8647 60.8183 70.8647 60.8183 70.8601 60.8183C70.8141 60.7999 70.7588 60.8091 70.722 60.8459C70.6438 60.9194 70.6024 60.9148 70.5057 60.8183C70.4919 60.8045 70.4781 60.7953 70.4597 60.7861C70.4229 60.7632 70.3814 60.7586 70.3584 60.7723C70.3538 60.7723 70.3492 60.7769 70.3446 60.7815C70.3354 60.7861 70.3354 60.7953 70.3308 60.8091C70.3308 60.8091 70.3308 60.8367 70.34 60.8505C70.3492 60.8734 70.3722 60.901 70.3952 60.9286C70.4505 60.9791 70.5103 61.0021 70.5379 60.9745C70.6024 60.9148 70.6392 60.9194 70.7312 61.0067C70.7773 61.0481 70.8463 61.0481 70.8923 61.0067C70.9844 60.9194 71.0212 60.9148 71.0856 60.9745C71.1132 61.0021 71.1777 60.9791 71.2283 60.9286C71.2835 60.8734 71.3111 60.8137 71.2789 60.7815C71.2651 60.7677 71.2375 60.7631 71.2053 60.7677H71.2007Z" fill="url(#paint92_linear_1_1235)"/>
<path d="M71.7529 59.9775C71.6885 59.9086 71.6701 59.8718 71.6885 59.8305C71.6885 59.8305 71.6885 59.8305 71.6885 59.8259C71.6885 59.8259 71.6885 59.8213 71.6931 59.8167C71.6931 59.8167 71.6931 59.8121 71.6977 59.8075C71.6977 59.8075 71.7069 59.7983 71.7069 59.7937C71.7161 59.7845 71.7161 59.7753 71.7207 59.7661C71.7207 59.7569 71.7207 59.7477 71.7207 59.7386C71.7207 59.7294 71.7161 59.7202 71.7115 59.711C71.7023 59.6926 71.6839 59.6696 71.6655 59.6512C71.6563 59.642 71.6471 59.6329 71.6333 59.6237C71.6241 59.6191 71.6195 59.6145 71.6102 59.6099C71.601 59.6053 71.5918 59.6007 71.5872 59.5961C71.5596 59.5823 71.532 59.5823 71.5182 59.5961C71.5182 59.5961 71.5136 59.6053 71.509 59.6099C71.509 59.6099 71.509 59.6099 71.509 59.6145C71.509 59.6145 71.509 59.6237 71.509 59.6283C71.5044 59.665 71.5228 59.7202 71.5642 59.7569C71.6609 59.858 71.6517 59.9086 71.5918 59.9729C71.532 60.0372 71.5458 60.1062 71.5918 60.1521C71.6379 60.1981 71.7069 60.1889 71.7529 60.1429C71.7989 60.097 71.7943 60.0281 71.7529 59.9821V59.9775Z" fill="url(#paint93_linear_1_1235)"/>
<path d="M70.2525 60.5335C70.2525 60.5335 70.2525 60.5335 70.2525 60.5381C70.2525 60.5427 70.2617 60.5519 70.2663 60.5565C70.2663 60.5611 70.2755 60.5657 70.2801 60.5703C70.2847 60.5749 70.294 60.5841 70.2986 60.5887C70.2986 60.5887 70.3032 60.5887 70.3078 60.5933C70.3078 60.5933 70.3124 60.5933 70.317 60.5979C70.3308 60.6024 70.34 60.607 70.3538 60.6116C70.3584 60.6116 70.363 60.6116 70.3676 60.6116C70.3722 60.6116 70.3814 60.6116 70.386 60.6116C70.409 60.6116 70.432 60.6024 70.4458 60.5887C70.5333 60.5013 70.5793 60.5059 70.6852 60.607C70.7404 60.6622 70.8278 60.6622 70.8831 60.607C70.9383 60.5519 70.9429 60.4646 70.8877 60.4094C70.8325 60.3543 70.7358 60.3543 70.676 60.4094C70.5747 60.5059 70.5287 60.5059 70.4228 60.3957C70.317 60.29 70.3124 60.244 70.409 60.1429C70.4642 60.0878 70.4642 59.9913 70.409 59.9315C70.3952 59.9177 70.3768 59.9085 70.363 59.8994C70.3584 59.8994 70.3538 59.8994 70.3492 59.8994C70.3446 59.8994 70.3354 59.8994 70.3308 59.8994C70.3262 59.8994 70.3216 59.8994 70.3124 59.8994C70.3078 59.8994 70.2986 59.8994 70.294 59.8994C70.2894 59.8994 70.2847 59.8994 70.2801 59.904C70.2755 59.904 70.2709 59.9085 70.2617 59.9131C70.2571 59.9131 70.2525 59.9177 70.2479 59.9223C70.2433 59.9223 70.2387 59.9315 70.2341 59.9361C70.2341 59.9361 70.2295 59.9453 70.2249 59.9453C70.1881 59.9913 70.1835 60.051 70.2111 60.1016C70.2157 60.1153 70.2249 60.1245 70.2341 60.1337C70.2387 60.1383 70.2479 60.1475 70.2525 60.1521C70.2525 60.1521 70.2525 60.1521 70.2571 60.1567C70.2571 60.1567 70.2663 60.1659 70.2663 60.1705C70.2663 60.1705 70.2663 60.1705 70.2709 60.1751C70.2709 60.1751 70.2755 60.1843 70.2801 60.1843C70.2801 60.1843 70.2802 60.1843 70.2848 60.1889C70.2848 60.1889 70.2848 60.1935 70.2894 60.1981C70.3262 60.2578 70.3124 60.2992 70.2479 60.3681C70.2157 60.4003 70.2157 60.4554 70.2433 60.5013C70.2433 60.5013 70.2433 60.5014 70.2433 60.5059L70.2525 60.5335Z" fill="url(#paint94_linear_1_1235)"/>
<path d="M71.1592 59.4859C71.1592 59.4859 71.15 59.4997 71.1408 59.5043C71.1316 59.5089 71.127 59.5181 71.1224 59.5273C71.104 59.5549 71.0994 59.587 71.1086 59.6146C71.1086 59.6146 71.1086 59.6238 71.1086 59.6284C71.1178 59.6514 71.1362 59.6743 71.1546 59.6973C71.1592 59.7019 71.1684 59.7111 71.173 59.7157C71.173 59.7157 71.173 59.7157 71.1776 59.7157C71.1822 59.7157 71.1914 59.7249 71.196 59.7249C71.2052 59.7249 71.2099 59.7295 71.2191 59.7341C71.2191 59.7341 71.2191 59.7341 71.2237 59.7341C71.2283 59.7341 71.2375 59.7341 71.2421 59.7341C71.2421 59.7341 71.2421 59.7341 71.2467 59.7341C71.2559 59.7341 71.2605 59.7341 71.2697 59.7341C71.2697 59.7341 71.2789 59.7341 71.2835 59.7341C71.3019 59.7341 71.3203 59.7203 71.3341 59.7065C71.3801 59.6606 71.3617 59.5824 71.3065 59.5273C71.2006 59.4216 71.1914 59.3848 71.2559 59.3205C71.3019 59.2745 71.3341 59.2883 71.44 59.3894C71.4952 59.4446 71.5596 59.4721 71.5688 59.4629C71.5827 59.4492 71.5366 59.4032 71.4814 59.3481C71.4262 59.2929 71.3755 59.2516 71.3663 59.2608C71.3341 59.2883 71.3019 59.2745 71.2006 59.178C71.1914 59.1688 71.1868 59.1642 71.1776 59.1597C71.173 59.1597 71.1684 59.1505 71.1638 59.1459C71.1592 59.1459 71.15 59.1367 71.1454 59.1367C71.1454 59.1367 71.1454 59.1367 71.1408 59.1367C71.1408 59.1367 71.1316 59.1367 71.127 59.1321C71.127 59.1321 71.127 59.1321 71.1224 59.1321H71.1132C71.1132 59.1321 71.1132 59.1321 71.1086 59.1321C71.1086 59.1321 71.104 59.1321 71.0994 59.1321C71.0994 59.1321 71.0994 59.1321 71.0948 59.1321C71.0948 59.1321 71.0902 59.1321 71.0856 59.1321C71.0856 59.1321 71.0764 59.1321 71.0718 59.1413C71.0396 59.1688 71.0534 59.2424 71.104 59.2929C71.196 59.3848 71.2006 59.4354 71.1546 59.4905L71.1592 59.4859Z" fill="url(#paint95_linear_1_1235)"/>
<path d="M70.8784 59.9223C70.8416 59.9039 70.8001 59.8993 70.7587 59.9085C70.7357 59.9177 70.7127 59.9269 70.6943 59.9453C70.6943 59.9453 70.6851 59.9545 70.6805 59.9591C70.6805 59.9591 70.6759 59.9683 70.6713 59.9683C70.6713 59.9729 70.6667 59.9775 70.6621 59.9866C70.6621 59.9912 70.6621 59.9958 70.6575 60.005C70.6575 60.005 70.6575 60.005 70.6575 60.0096C70.6575 60.0096 70.6575 60.0188 70.6575 60.0234C70.6575 60.0234 70.6575 60.0234 70.6575 60.028C70.6575 60.0326 70.6575 60.0418 70.6575 60.0464C70.6575 60.051 70.6575 60.0556 70.6575 60.0648C70.6575 60.0648 70.6575 60.0648 70.6575 60.0694C70.6575 60.0694 70.6575 60.0786 70.6575 60.0832C70.6621 60.1107 70.6759 60.1337 70.6989 60.1521C70.7587 60.2118 70.8554 60.2118 70.9152 60.1521C71.0257 60.0418 71.0717 60.0418 71.1775 60.1521C71.2328 60.2072 71.3202 60.2026 71.3709 60.1475C71.3893 60.1291 71.4031 60.1015 71.4077 60.0786C71.4077 60.0694 71.4077 60.0648 71.4077 60.0556C71.4077 60.0556 71.4077 60.0556 71.4077 60.051C71.4077 60.0418 71.4077 60.0372 71.4077 60.028C71.4077 60.0188 71.4077 60.0142 71.4031 60.0096C71.4031 60.0004 71.3985 59.9958 71.3939 59.9866C71.3893 59.9775 71.3847 59.9729 71.3801 59.9683C71.3709 59.9591 71.3571 59.9499 71.3478 59.9407C71.3294 59.9315 71.3064 59.9223 71.2834 59.9223C71.2466 59.9223 71.2144 59.9361 71.1868 59.9637C71.0809 60.0694 71.0349 60.0694 70.9244 59.9637C70.9152 59.9545 70.9014 59.9453 70.8922 59.9361L70.8784 59.9223Z" fill="url(#paint96_linear_1_1235)"/>
<path d="M71.7299 60.3634C71.7299 60.3634 71.7299 60.3588 71.7299 60.3542C71.7299 60.3542 71.7299 60.3542 71.7299 60.3496C71.7299 60.3496 71.7299 60.3496 71.7299 60.345C71.7299 60.345 71.7299 60.3404 71.7253 60.3359C71.7253 60.3359 71.7161 60.3313 71.7115 60.3267H71.7023C71.6977 60.3267 71.6931 60.3267 71.6839 60.3267C71.6793 60.3267 71.6747 60.3267 71.6701 60.3267C71.6701 60.3267 71.6701 60.3267 71.6655 60.3267C71.6609 60.3267 71.6563 60.3267 71.6517 60.3267C71.6471 60.3267 71.6425 60.3313 71.6333 60.3359C71.6195 60.345 71.601 60.3542 71.5872 60.368C71.4998 60.4553 71.4584 60.4737 71.4031 60.4278C71.4031 60.4278 71.3985 60.4232 71.3939 60.4186C71.3939 60.4186 71.3939 60.4186 71.3893 60.4186C71.3847 60.414 71.3801 60.4094 71.3755 60.4048C71.3295 60.3588 71.2467 60.3634 71.1868 60.4232C71.127 60.4829 71.1224 60.5702 71.1684 60.6116C71.1684 60.6116 71.173 60.6162 71.1776 60.6208C71.1776 60.6208 71.1776 60.6208 71.1822 60.6208C71.1822 60.6208 71.1822 60.6208 71.1868 60.6208C71.1868 60.6208 71.1868 60.6208 71.1914 60.6208C71.1914 60.6208 71.1914 60.6208 71.196 60.6208C71.196 60.6208 71.196 60.6208 71.2006 60.6208C71.2006 60.6208 71.2006 60.6208 71.2052 60.6208C71.2052 60.6208 71.2052 60.6208 71.2098 60.6208C71.2098 60.6208 71.2098 60.6208 71.2144 60.6208C71.2144 60.6208 71.2144 60.6208 71.219 60.6208C71.219 60.6208 71.219 60.6208 71.2236 60.6208C71.2236 60.6208 71.2236 60.6208 71.2282 60.6208C71.2605 60.6162 71.2927 60.5978 71.3203 60.5702C71.4262 60.4645 71.463 60.4553 71.5228 60.5197C71.5688 60.5702 71.532 60.6254 71.4538 60.7035C71.3755 60.7816 71.3709 60.823 71.3801 60.8367C71.3939 60.8505 71.44 60.8046 71.4952 60.7494C71.5504 60.6943 71.5918 60.6437 71.5826 60.63C71.5504 60.5978 71.5688 60.5656 71.6701 60.4645C71.6885 60.4461 71.7069 60.4232 71.7161 60.4002C71.7161 60.4002 71.7161 60.3956 71.7161 60.391C71.7161 60.391 71.7161 60.3864 71.7161 60.3818C71.7161 60.3818 71.7161 60.3772 71.7161 60.3726C71.7161 60.3726 71.7161 60.368 71.7161 60.3634H71.7299Z" fill="url(#paint97_linear_1_1235)"/>
<path d="M77.4326 23.3174C81.6899 23.3174 85.4318 23.8504 87.3556 24.1812C85.9058 30.9582 86.7389 36.8851 87.8665 44.8843C88.2209 47.4067 88.5891 50.0118 88.9343 52.9661C90.4025 65.5323 77.0276 73.4946 70.5979 77.3219C65.9033 80.1154 62.6723 82.6884 60.6196 85.2889C58.5669 82.6884 55.3359 80.1154 50.6414 77.3219C44.2117 73.4946 30.8368 65.5323 32.305 52.9661C32.6502 50.0118 33.0184 47.4067 33.3728 44.8843C34.5004 36.8851 35.3334 30.9582 33.8836 24.1812C35.8075 23.8504 39.5493 23.3174 43.8067 23.3174C50.6598 23.3174 56.0539 24.6268 59.8418 27.2136L60.6196 27.7466L61.3974 27.2136C65.1853 24.6268 70.5795 23.3174 77.4326 23.3174ZM36.6405 51.5786H60.3343V79.4676L62.5619 77.7446C64.2694 76.426 66.2071 75.1257 68.4807 73.7703C72.333 71.4776 76.7284 68.7301 80.1389 65.1325C82.4539 62.6928 85.4548 58.8288 84.8288 53.444C84.7874 53.104 84.7506 52.764 84.7092 52.4332L84.5619 51.2202H60.9142V32.9522L60.3113 32.5433L57.5083 30.6273C54.4661 28.5506 49.7301 27.4525 43.8113 27.4525C42.5824 27.4525 41.2983 27.503 40.0004 27.5949L38.638 27.696L38.7209 29.056C39.0477 34.3214 38.3159 39.4811 37.4736 45.4632C37.2711 46.9013 37.0548 48.4405 36.8477 50.021L36.6405 51.5786ZM77.4326 21.939C71.8728 21.939 65.397 22.812 60.615 26.0787C55.833 22.812 49.3619 21.939 43.7974 21.939C37.3954 21.939 32.2037 23.0969 32.2037 23.0969C34.574 32.3136 32.4569 39.7016 30.9288 52.8099C29.3962 65.9182 42.564 74.1241 49.9326 78.5119C56.238 82.2657 59.1514 85.2383 60.6196 87.7194C62.0832 85.2383 65.0012 82.2657 71.3066 78.5119C78.6753 74.1241 91.8385 65.9182 90.3104 52.8099C88.7778 39.7016 86.6652 32.3136 89.0355 23.0969C89.0355 23.0969 83.8439 21.939 77.4418 21.939H77.4326ZM38.2146 50.2002C38.4217 48.6243 38.6334 47.1218 38.8405 45.6562C39.6966 39.5776 40.4284 34.3765 40.097 28.9733C41.2477 28.8906 42.4995 28.8309 43.8067 28.8309C49.4447 28.8309 53.9138 29.8463 56.7259 31.7668L59.5288 33.6827V50.2002H38.2192H38.2146ZM61.715 76.6603V52.6032H83.333C83.3744 52.934 83.4113 53.2694 83.4527 53.6094C84.0142 58.4199 81.2573 61.9531 79.1355 64.1906C75.8447 67.6595 71.546 70.3428 67.7719 72.5895C65.4661 73.9633 63.4594 75.3095 61.715 76.6557V76.6603Z" fill="url(#paint98_linear_1_1235)"/>
<path d="M71.1363 34.3949C69.7463 33.3428 71.0488 37.3998 72.5861 37.9006C71.2467 36.8209 70.8463 35.1806 70.8877 34.7074C71.1777 34.8038 71.3756 35.029 71.6656 35.6676C71.1685 33.9493 72.0568 32.9247 72.7333 32.2493C71.394 32.9293 71.2191 34.3766 71.1363 34.3949Z" fill="url(#paint99_linear_1_1235)"/>
<path d="M76.6823 33.1498C76.5304 32.8833 78.979 32.3044 79.4392 32.0149C77.4049 32.0838 75.7296 31.8357 75.7296 31.8357C75.6744 31.8128 75.2509 31.3717 74.961 31.2752C74.9472 31.0179 75.0898 30.7238 74.4823 31.0501C71.2191 30.6319 68.2689 33.0257 68.8258 36.7611C68.8903 37.1011 68.9225 36.9541 68.8903 37.6249C68.858 38.2957 69.2723 39.1962 69.5898 39.5408C69.8844 39.8624 69.843 39.9773 69.8752 40.2162C69.9074 40.4551 70.4137 41.5303 71.1961 41.6727C71.2053 41.7462 71.3296 42.0632 71.5689 42.1781C71.5965 42.6513 71.8267 42.7432 71.9279 42.7432C71.9279 42.7432 71.9647 42.8994 72.0568 43.0786C69.6635 42.9086 68.7338 46.1616 70.7911 47.2964C72.5631 48.197 74.717 47.3837 75.366 45.0313C75.6329 43.9608 75.6606 42.5181 74.7953 41.7646C74.7539 41.5211 74.579 40.524 74.6066 40.2622C74.671 39.7659 74.717 38.8516 74.3258 38.2865C73.3041 36.8162 73.3593 36.5727 73.5388 36.7519C74.3719 37.5743 74.9656 37.5835 75.0208 38.677C75.0668 39.5592 75.656 39.5041 76.0656 39.233C76.4752 38.9619 76.4292 39.1181 76.6961 38.9849C77.2484 38.7184 77.4832 38.4978 77.3773 38.1303C76.015 35.5389 77.7731 35.8146 76.6869 33.1452L76.6823 33.1498ZM71.8681 47.3148C70.7773 47.3148 69.8936 46.4327 69.8936 45.3438C69.8936 44.2548 70.7773 43.3727 71.8681 43.3727C72.9589 43.3727 73.8426 44.2548 73.8426 45.3438C73.8426 46.4327 72.9589 47.3148 71.8681 47.3148ZM74.9978 42.5043C75.6652 44.1813 75.1037 46.5659 73.0233 47.2781C74.7907 46.2902 74.2798 43.4324 72.2731 43.12C72.1627 42.9408 72.0568 42.6697 72.066 42.6192C71.9601 42.5962 71.776 42.4997 71.7438 42.247C72.5263 42.5778 74.2108 42.2148 74.8275 43.4324C74.1325 41.4889 71.6011 42.7892 71.4124 41.6727C72.1811 42.1 73.6355 41.9162 73.571 41.8657C72.4158 41.8105 70.6852 41.6727 70.2894 40.5103C71.4493 41.9759 74.2982 40.8686 74.9978 42.5089V42.5043ZM74.5974 41.6589C73.2903 40.9284 70.9384 41.5073 70.2986 40.1335C71.0903 40.5746 71.9739 40.6849 72.3421 40.6757C70.225 40.1657 69.7832 39.4995 69.6267 39.2973C69.4656 39.0951 69.4564 38.4657 69.9488 38.8884C70.8647 39.5592 72.0016 39.7705 72.0016 39.7705C72.0016 39.7705 71.4309 39.4903 71.6748 39.4351C71.9141 39.38 72.7104 39.7476 73.2442 40.1335C72.8484 39.187 68.9639 38.5392 69.0928 37.4457C70.4275 38.8976 72.6689 38.6035 74.2936 40.7354C74.335 40.7859 74.6204 41.1397 74.602 41.6635L74.5974 41.6589ZM77.0965 38.3462C76.9447 38.6816 76.4568 38.8516 76.3279 38.8103C76.1991 38.7689 76.0242 38.36 76.0242 38.36C76.0242 38.36 75.9919 38.4335 75.9183 38.4795C75.8447 38.5254 76.1346 38.847 76.1576 38.9068C76.0334 39.0262 75.3798 39.3524 75.2601 39.0124C75.2601 39.0124 75.1957 38.4519 75.1267 38.1808C75.03 37.7949 74.6572 37.487 74.6572 37.487C73.1108 36.173 73.0878 35.3184 73.3685 34.133C72.5078 35.1852 72.8438 36.8208 73.7459 37.8454C74.3719 38.6954 74.4179 39.1916 74.0359 39.8716C74.1095 39.9268 74.2982 39.7981 74.3949 39.4627C74.3949 39.4627 74.4961 39.7889 74.3534 40.4092C72.0752 37.9373 68.7108 37.9603 69.2953 34.6062C69.0468 35.3 68.8949 37.4043 71.4907 38.5897C69.0514 37.9143 68.5865 36.0903 69.194 34.3857C69.8108 32.649 71.4078 31.4406 73.2442 31.2614C73.7689 31.2109 74.1233 31.243 74.1233 31.243C73.9208 31.4038 73.3041 31.8587 73.074 32.0103C73.212 32.0884 74.1463 31.459 74.22 31.4038C74.2936 31.3487 74.4593 31.1787 74.3903 31.4038C74.3166 31.629 74.1417 32.5479 74.1325 32.6214C74.1233 32.6949 74.4593 31.9092 74.556 31.8771C74.6526 31.8449 74.602 32.4284 74.6526 32.4055C74.6986 32.3825 74.8459 31.4911 74.8919 31.4682C74.938 31.4452 75.389 31.7898 75.5961 32.0195C75.6744 32.1068 76.8066 32.1573 78.4037 32.1895C77.8329 32.3319 76.9355 32.6168 76.374 32.8787C76.0518 33.0257 76.5673 33.2187 76.7928 34.326C76.8986 34.8452 76.7375 35.5573 76.5995 35.6768C76.535 37.4549 77.2484 38.0062 77.0965 38.3416V38.3462Z" fill="url(#paint100_linear_1_1235)"/>
<path d="M72.3469 35.7962C72.2318 35.8284 72.195 35.6262 72.195 35.6262C72.0339 36.6876 73.0419 37.5468 73.1109 38.0981C73.0925 38.5392 72.3239 38.144 71.6565 37.464C73.1891 39.7751 74.1511 38.9159 73.1845 37.6065C72.5632 36.7703 72.5126 36.2281 72.5126 36.2281C72.5126 36.2281 72.7427 36.5359 72.9268 36.7013C72.0385 35.1346 72.7335 33.8389 72.982 33.4392C72.2272 34.2387 72.2226 35.2816 72.3469 35.7916V35.7962Z" fill="url(#paint101_linear_1_1235)"/>
<path d="M69.8154 35.2771C69.8154 35.0014 70.1606 35.0795 70.5702 35.7503C69.5715 33.1682 71.6242 31.9874 73.4238 31.5922V31.5876C70.897 31.6014 69.6911 33.4393 70.0363 34.8636C69.6635 34.7579 69.4426 35.052 69.7372 36.0076C70.11 37.2114 70.9799 37.8041 71.2238 37.896C70.7681 37.4825 69.8798 36.5544 69.82 35.2771H69.8154Z" fill="url(#paint102_linear_1_1235)"/>
<path d="M75.9138 34.4133C75.9 34.326 75.8678 34.6293 75.8402 34.7029C75.8171 34.7764 75.3109 34.2847 75.0715 33.9998C75.0715 33.9998 75.6653 34.9694 75.5502 35.1624C75.4351 35.3554 75.6284 35.0889 75.7021 35.1624C75.7757 35.2359 76.0289 35.2359 76.015 34.9142C76.0012 34.5926 75.9368 34.6891 75.9092 34.4179L75.9138 34.4133Z" fill="url(#paint103_linear_1_1235)"/>
<path d="M72.9404 45.7848C72.8254 45.261 72.1442 45.2197 71.7116 45.0956C71.684 45.0865 71.6564 45.0819 71.6287 45.0727C71.4032 45.0129 71.1685 44.9256 71.1915 44.6408C71.2283 44.0435 72.4204 43.993 72.5769 44.5581H72.9082C72.761 43.8092 71.6287 43.7402 71.1271 44.1078C70.7911 44.3421 70.7497 44.82 71.0028 45.1232C71.2882 45.4402 71.8543 45.4586 72.2639 45.5919C72.4572 45.6424 72.6321 45.7848 72.6229 46.0008C72.5722 46.667 71.2283 46.6256 71.1317 45.9916V45.7665H70.5195V45.8537C70.6668 45.8537 70.7497 45.9181 70.7957 45.9916C70.92 47.154 73.1844 47.0024 72.9358 45.7802L72.9404 45.7848Z" fill="url(#paint104_linear_1_1235)"/>
<path d="M99.299 62.238C103.303 58.691 101.784 56.0491 101.784 56.0491C105.015 56.2375 104.468 58.4612 104.468 58.4612C106.967 55.3921 104.909 53.1132 104.909 53.1132C107.538 53.7564 108.081 55.1118 108.246 56.3385C108.997 61.9439 96.4362 66.4879 90.5588 68.0271C94.2731 65.3761 98.94 62.5504 99.2944 62.238H99.299Z" fill="url(#paint105_linear_1_1235)"/>
<path d="M93.8129 73.1179L97.6606 73.0398C97.6606 73.0398 95.4514 78.9025 91.5301 76.6925C91.5301 76.6925 93.0121 78.8795 89.8087 80.3038C89.8087 80.3038 90.2506 82.2841 87.0334 81.9578C84.456 81.696 81.1284 82.5827 77.9573 83.8922C77.9573 83.8922 83.4573 73.2603 93.8175 73.1133L93.8129 73.1179ZM92.1376 75.2728C92.1376 75.2728 92.7405 75.2038 92.9937 74.7628C92.9937 74.7628 89.3577 74.3906 82.4907 80.2854C82.4907 80.2854 87.0058 76.6695 92.1422 75.2728H92.1376Z" fill="url(#paint106_linear_1_1235)"/>
<path d="M105.931 68.9277C104.251 69.2493 98.6778 67.439 90.1677 70.6644C93.0121 68.7531 97.7573 67.0347 102.986 67.4069C104.721 67.5309 107.956 67.3517 109.733 66.3915C109.733 66.3915 109.65 71.1606 105.384 71.9141L102.042 71.0596C100.155 70.4439 97.2464 70.4485 95.0234 70.8712C91.4841 71.5466 87.6318 73.0536 86.4719 73.8301C94.1903 67.825 101.711 70.0855 105.931 68.9277Z" fill="url(#paint107_linear_1_1235)"/>
<path d="M108.882 49.194C103.731 47.7835 101.591 51.8267 101.591 51.8267C99.9941 50.7424 100.095 48.5967 100.68 48.2292C98.5167 48.6794 96.8322 45.8216 96.8322 45.8216C97.7757 45.1049 98.4661 44.8246 99.4787 44.6914C96.8276 44.3789 95.6816 42.5779 95.2167 40.7538C94.6828 38.6771 94.7979 37.5882 95.028 36.5636C95.3916 34.9555 96.3167 34.712 96.8414 35.0795C97.2096 35.3368 97.0807 36.0811 96.5423 36.3936C95.9577 36.7336 95.8795 37.2528 95.8381 37.7949C95.6908 39.7568 97.6837 41.6773 99.2531 41.9668C99.2531 41.9668 96.7218 40.3311 96.9059 37.9006C97.3523 38.5163 98.3418 38.8563 99.6766 38.7C103.359 38.2727 105.135 40.1427 105.135 40.1427C103.754 38.8654 103.851 36.5728 103.851 36.5728C112.195 36.5728 116.126 39.3708 116.996 50.7378C116.062 46.7819 114.478 43.3451 110.488 40.0554C110.488 40.0554 115.914 45.8354 116.476 53.104C116.278 53.6508 116.038 54.1837 115.749 54.7121C115.776 47.9397 110.792 41.7003 105.83 40.5838C105.83 40.5838 110.944 42.6146 113.406 48.73C116.457 56.3018 113.337 60.6437 105.987 64.2137L105.517 63.8553C115.666 58.7415 113.631 50.5035 108.891 49.2032L108.882 49.194Z" fill="url(#paint108_linear_1_1235)"/>
<path d="M91.8385 6.72184C91.8385 6.72184 97.3524 4.09375 99.7365 7.62697C100.045 8.08183 99.939 9.06966 98.6825 8.98696C98.8436 7.92102 95.5804 5.45834 91.1528 9.22588C91.1528 9.22588 93.4678 7.45697 95.9946 8.15535C94.2503 9.20291 94.3699 13.021 92.0779 14.7485C89.5603 16.6507 87.9172 22.0953 92.308 25.3206C92.308 25.3206 87.9494 18.6172 95.272 15.4883C95.272 15.4883 93.6151 16.4715 95.4147 18.6861C95.4147 18.6861 98.6503 20.965 98.3327 22.9774C98.3327 22.9774 99.1611 21.6542 101.021 21.2958C101.021 21.2958 98.9862 24.3696 101.568 26.3223C103.819 28.0222 112.849 32.8328 115.15 41.7968C111.703 33.6092 104.684 31.923 104.684 31.923C104.104 31.7163 103.501 31.5463 102.875 31.4314C101.785 31.2293 100.841 31.0684 100.003 30.926C93.5875 29.7085 89.2519 26.3452 87.19 21.4199C85.2431 16.7564 84.1938 10.3929 91.8339 6.71725L91.8385 6.72184ZM97.9921 27.4158C101.062 28.8401 105.25 30.2552 107.326 31.8403C101.007 27.085 95.7691 26.6852 93.9419 22.2147C93.9419 22.2147 94.2549 25.679 97.9921 27.4112V27.4158ZM88.7226 22.348C88.7226 22.348 86.877 18.1485 88.7825 12.2859C88.7825 12.2859 85.5745 16.7058 88.7226 22.348Z" fill="url(#paint109_linear_1_1235)"/>
<path d="M21.7006 62.238C17.6965 58.691 19.2153 56.0491 19.2153 56.0491C15.9843 56.2375 16.532 58.4612 16.532 58.4612C14.0329 55.3921 16.0902 53.1132 16.0902 53.1132C13.4622 53.7564 12.9191 55.1118 12.7534 56.3385C12.0032 61.9439 24.5634 66.4879 30.4408 68.0271C26.7266 65.3761 22.0596 62.5504 21.7053 62.238H21.7006Z" fill="url(#paint110_linear_1_1235)"/>
<path d="M43.0471 83.8922C39.876 82.5781 36.5437 81.696 33.9709 81.9578C30.7492 82.2841 31.1956 80.3038 31.1956 80.3038C27.9923 78.8795 29.4743 76.6925 29.4743 76.6925C25.553 78.9025 23.3438 73.0398 23.3438 73.0398L27.1914 73.1179C37.5517 73.2603 43.0517 83.8968 43.0517 83.8968L43.0471 83.8922ZM38.509 80.2808C31.6375 74.386 28.0061 74.7582 28.0061 74.7582C28.2592 75.1992 28.8622 75.2682 28.8622 75.2682C33.9986 76.6649 38.5136 80.2808 38.5136 80.2808H38.509Z" fill="url(#paint111_linear_1_1235)"/>
<path d="M15.0639 68.9277C16.7438 69.2493 22.3175 67.439 30.8275 70.6644C27.9832 68.7531 23.238 67.0347 18.0095 67.4069C16.2744 67.5309 13.0388 67.3517 11.2668 66.3915C11.2668 66.3915 11.3497 71.1606 15.6162 71.9141L18.9576 71.0596C20.8447 70.4439 23.7535 70.4485 25.9765 70.8712C29.5158 71.5466 33.3681 73.0536 34.5279 73.8301C26.8095 67.825 19.289 70.0855 15.0685 68.9277H15.0639Z" fill="url(#paint112_linear_1_1235)"/>
<path d="M12.1137 49.194C17.2639 47.7835 19.4041 51.8267 19.4041 51.8267C21.0012 50.7424 20.8999 48.5967 20.3154 48.2292C22.4786 48.6794 24.1631 45.8216 24.1631 45.8216C23.2196 45.1049 22.5292 44.8246 21.5167 44.6914C24.1677 44.3789 25.3137 42.5779 25.7786 40.7538C26.3125 38.6771 26.1974 37.5882 25.9673 36.5636C25.6037 34.9555 24.6786 34.712 24.1539 35.0795C23.7857 35.3368 23.9146 36.0811 24.4531 36.3936C25.0376 36.7336 25.1158 37.2528 25.1573 37.7949C25.3045 39.7568 23.3116 41.6773 21.7422 41.9668C21.7422 41.9668 24.2736 40.3311 24.0895 37.9006C23.643 38.5163 22.6535 38.8563 21.3188 38.7C17.6368 38.2727 15.8602 40.1427 15.8602 40.1427C17.2409 38.8654 17.1443 36.5728 17.1443 36.5728C8.79993 36.5728 4.86939 39.3708 3.99951 50.7378C4.93382 46.7819 6.51709 43.3451 10.5075 40.0554C10.5075 40.0554 5.0811 45.8354 4.5196 53.104C4.7175 53.6508 4.95683 54.1837 5.24679 54.7121C5.21918 47.9397 10.2037 41.7003 15.1652 40.5838C15.1652 40.5838 10.0518 42.6146 7.58947 48.73C4.53801 56.3018 7.65851 60.6437 15.0041 64.2137L15.4736 63.8553C5.32504 58.7415 7.35935 50.5035 12.0999 49.2032L12.1137 49.194Z" fill="url(#paint113_linear_1_1235)"/>
<path d="M33.8055 21.4245C31.7481 26.3499 27.408 29.7085 20.9921 30.9306C20.1544 31.0731 19.2109 31.2339 18.1201 31.436C17.4942 31.5509 16.8912 31.7209 16.3113 31.9322C16.3113 31.9322 9.2925 33.6185 5.84521 41.806C8.14647 32.842 17.1766 28.0315 19.4272 26.3315C22.0092 24.3788 19.9749 21.305 19.9749 21.305C21.8343 21.6634 22.6628 22.9866 22.6628 22.9866C22.3498 20.9742 25.5808 18.6953 25.5808 18.6953C27.385 16.4761 25.7235 15.4975 25.7235 15.4975C33.0461 18.6218 28.6875 25.3299 28.6875 25.3299C33.0783 22.0999 31.4306 16.6599 28.9176 14.7578C26.6256 13.0256 26.7452 9.20753 25.0009 8.16456C27.523 7.46619 29.8427 9.2351 29.8427 9.2351C25.4151 5.46296 22.1519 7.93024 22.313 8.99618C21.0565 9.07888 20.9507 8.09105 21.259 7.63619C23.6431 4.10297 29.1569 6.73106 29.1569 6.73106C36.7971 10.4021 35.7477 16.7656 33.8009 21.4337L33.8055 21.4245ZM27.0582 22.2193C25.231 26.6898 19.9933 27.0896 13.6741 31.845C15.7498 30.2598 19.9381 28.8447 23.008 27.4204C26.7452 25.6836 27.0582 22.2239 27.0582 22.2239V22.2193ZM32.2176 12.2905C34.123 18.1531 32.2774 22.3526 32.2774 22.3526C35.4302 16.7105 32.2176 12.2905 32.2176 12.2905Z" fill="url(#paint114_linear_1_1235)"/>
<path d="M88.0276 114.4H90.3611L81.9891 95.1534H77.787V95.7599C78.7812 95.7599 79.3473 96.1826 79.6694 96.6834L71.9648 114.4H74.2661L81.1469 98.581L88.0276 114.4Z" fill="url(#paint115_linear_1_1235)"/>
<path d="M45.6245 114.4H47.958L39.586 95.1534H35.3839V95.7599C36.3781 95.7599 36.9442 96.1826 37.2664 96.6834L29.5618 114.4H31.863L38.7438 98.581L45.6245 114.4Z" fill="url(#paint116_linear_1_1235)"/>
<path d="M65.4292 95.1351V95.7416C67.5786 95.7416 67.7351 97.731 67.7443 98.1721V114.4H70.0133V95.1351H65.4292Z" fill="url(#paint117_linear_1_1235)"/>
<path d="M106.567 95.1351V110.761L94.1213 95.1443V95.1351H94.1121H90.0481V95.7416C91.7372 95.7416 92.1975 96.9683 92.3217 97.708V114.396H94.1213V98.7878L106.562 114.396H106.567H108.366V95.1305H106.567V95.1351Z" fill="url(#paint118_linear_1_1235)"/>
<path d="M62.2442 96.6008C61.181 95.6221 59.8279 95.1305 58.1756 95.1305H47.5852V95.737C49.73 95.737 49.8957 97.7172 49.9049 98.1721V114.396H52.1739V105.854H57.6187C59.7082 105.854 61.2639 105.344 62.2902 104.32C63.3166 103.295 63.8321 101.986 63.8321 100.387C63.8321 98.7878 63.3028 97.5794 62.2396 96.6008H62.2442ZM60.4538 102.987C59.8141 103.589 58.8936 103.888 57.7015 103.888H52.1785V97.1521H57.5174C60.1132 97.1521 61.4158 98.2318 61.4158 100.387C61.4158 101.517 61.0936 102.385 60.4538 102.987Z" fill="url(#paint119_linear_1_1235)"/>
<path d="M28.7012 107.733C27.9418 104.26 23.4037 103.97 20.5317 103.139C20.3522 103.088 20.1727 103.038 19.9932 102.992C18.4836 102.606 16.9326 102.004 17.0983 100.125C17.3376 96.1596 25.2677 95.8104 26.2987 99.5642H28.5171C27.546 94.6021 20.0209 94.1334 16.6794 96.5685C14.4564 98.1307 14.1665 101.319 15.8556 103.313C17.7656 105.431 21.5167 105.542 24.2506 106.438C25.5301 106.787 26.6853 107.733 26.6347 109.171C26.2987 113.596 17.3744 113.325 16.7163 109.125V107.623H12.6384V108.22C13.6142 108.22 14.1665 108.638 14.4886 109.13C15.3171 116.854 30.3765 115.852 28.7104 107.738L28.7012 107.733Z" fill="url(#paint120_linear_1_1235)"/>
<path d="M27.4954 120.8C27.4954 120.056 28.0615 119.5 28.8255 119.5C29.1891 119.5 29.5159 119.615 29.7368 119.854L29.6217 119.973C29.4008 119.757 29.1339 119.67 28.8347 119.67C28.1765 119.67 27.6841 120.152 27.6841 120.796C27.6841 121.439 28.1811 121.921 28.8347 121.921C29.1339 121.921 29.4008 121.83 29.6217 121.614L29.7368 121.733C29.5113 121.972 29.1891 122.091 28.8255 122.091C28.0615 122.091 27.4954 121.54 27.4954 120.791V120.8Z" fill="url(#paint121_linear_1_1235)"/>
<path d="M28.8302 122.215C28.0063 122.215 27.385 121.609 27.385 120.8C27.385 119.992 28.0063 119.385 28.8302 119.385C29.2352 119.385 29.5896 119.523 29.8289 119.776L29.9026 119.854L29.6264 120.134L29.5436 120.051C29.3595 119.868 29.1248 119.78 28.8348 119.78C28.2457 119.78 27.7992 120.217 27.7992 120.791C27.7992 121.365 28.2457 121.802 28.8348 121.802C29.1248 121.802 29.3549 121.71 29.5436 121.526L29.6264 121.444L29.9026 121.724L29.8289 121.802C29.5896 122.055 29.2352 122.197 28.8302 122.197V122.215Z" fill="url(#paint122_linear_1_1235)"/>
<path d="M32.5168 122.082L31.9046 121.228C31.8218 121.237 31.7435 121.246 31.6561 121.246H30.9243V122.082H30.7356V119.523H31.6561C32.3004 119.523 32.6917 119.845 32.6917 120.387C32.6917 120.791 32.4707 121.076 32.0887 121.186L32.7285 122.082H32.5168ZM31.6561 121.081C32.2038 121.081 32.4984 120.823 32.4984 120.387C32.4984 119.95 32.2038 119.693 31.6561 119.693H30.9243V121.085H31.6561V121.081Z" fill="url(#paint123_linear_1_1235)"/>
<path d="M32.9541 122.197H32.457L31.8495 121.347C31.785 121.352 31.7206 121.356 31.6562 121.356H31.0394V122.192H30.6206V119.404H31.6562C32.365 119.404 32.8068 119.78 32.8068 120.382C32.8068 120.777 32.6135 121.085 32.2729 121.237L32.9587 122.192L32.9541 122.197ZM31.0394 120.966H31.6562C31.9876 120.966 32.3834 120.865 32.3834 120.387C32.3834 120.001 32.1394 119.808 31.6562 119.808H31.0394V120.97V120.966Z" fill="url(#paint124_linear_1_1235)"/>
<path d="M34.4958 121.2V122.082H34.307V121.2L33.2715 119.518H33.4786L34.4037 121.026L35.3288 119.518H35.5221L34.4865 121.2H34.4958Z" fill="url(#paint125_linear_1_1235)"/>
<path d="M34.6109 122.197H34.1921V121.232L33.0691 119.408H33.5431L34.4084 120.81L35.2691 119.408H35.7339L34.6109 121.232V122.197Z" fill="url(#paint126_linear_1_1235)"/>
<path d="M38.2515 120.387C38.2515 120.924 37.8649 121.246 37.2159 121.246H36.4841V122.082H36.2954V119.523H37.2159C37.8603 119.523 38.2515 119.845 38.2515 120.387ZM38.0628 120.387C38.0628 119.946 37.7682 119.693 37.2205 119.693H36.4887V121.081H37.2205C37.7682 121.081 38.0628 120.828 38.0628 120.387Z" fill="url(#paint127_linear_1_1235)"/>
<path d="M36.5992 122.197H36.1804V119.408H37.216C37.9248 119.408 38.3666 119.785 38.3666 120.387C38.3666 120.989 37.9248 121.361 37.216 121.361H36.5992V122.197ZM36.5992 120.961H37.216C37.5474 120.961 37.9432 120.86 37.9432 120.382C37.9432 119.996 37.6992 119.803 37.216 119.803H36.5992V120.961Z" fill="url(#paint128_linear_1_1235)"/>
<path d="M39.6507 119.688H38.7256V119.518H40.7599V119.688H39.8348V122.082H39.6461V119.688H39.6507Z" fill="url(#paint129_linear_1_1235)"/>
<path d="M39.9546 122.197H39.5357V119.803H38.6152V119.408H40.8797V119.803H39.9546V122.197Z" fill="url(#paint130_linear_1_1235)"/>
<path d="M41.3076 120.8C41.3076 120.056 41.8737 119.5 42.6423 119.5C43.411 119.5 43.9771 120.051 43.9771 120.8C43.9771 121.549 43.4064 122.101 42.6423 122.101C41.8783 122.101 41.3076 121.545 41.3076 120.8ZM43.7838 120.8C43.7838 120.152 43.2913 119.675 42.6423 119.675C41.9934 119.675 41.4963 120.152 41.4963 120.8C41.4963 121.448 41.9888 121.926 42.6423 121.926C43.2959 121.926 43.7838 121.448 43.7838 120.8Z" fill="url(#paint131_linear_1_1235)"/>
<path d="M42.6424 122.215C41.814 122.215 41.1926 121.609 41.1926 120.8C41.1926 119.992 41.814 119.385 42.6424 119.385C43.4709 119.385 44.0922 119.992 44.0922 120.8C44.0922 121.609 43.4709 122.215 42.6424 122.215ZM42.6424 119.79C42.0441 119.79 41.6115 120.217 41.6115 120.8C41.6115 121.384 42.0441 121.811 42.6424 121.811C43.2407 121.811 43.6688 121.384 43.6688 120.8C43.6688 120.217 43.2361 119.79 42.6424 119.79Z" fill="url(#paint132_linear_1_1235)"/>
<path d="M47.4197 122.082V119.891L46.3427 121.742H46.2506L45.1782 119.9V122.082H44.9941V119.523H45.1506L46.2966 121.503L47.4427 119.523H47.5946V122.082H47.4151H47.4197Z" fill="url(#paint133_linear_1_1235)"/>
<path d="M47.7189 122.197H47.3047L47.3001 120.318L46.4072 121.857H46.1817L45.2888 120.327V122.197H44.8792V119.408H45.2151L46.2967 121.274L47.3783 119.408H47.7143L47.7189 122.197Z" fill="url(#paint134_linear_1_1235)"/>
<path d="M48.6162 120.8C48.6162 120.056 49.1823 119.5 49.9509 119.5C50.7196 119.5 51.2857 120.051 51.2857 120.8C51.2857 121.549 50.715 122.101 49.9509 122.101C49.1869 122.101 48.6162 121.545 48.6162 120.8ZM51.0924 120.8C51.0924 120.152 50.5999 119.675 49.9509 119.675C49.302 119.675 48.8049 120.152 48.8049 120.8C48.8049 121.448 49.2974 121.926 49.9509 121.926C50.6045 121.926 51.0924 121.448 51.0924 120.8Z" fill="url(#paint135_linear_1_1235)"/>
<path d="M49.951 122.215C49.1226 122.215 48.5012 121.609 48.5012 120.8C48.5012 119.992 49.1226 119.385 49.951 119.385C50.7795 119.385 51.4008 119.992 51.4008 120.8C51.4008 121.609 50.7795 122.215 49.951 122.215ZM49.951 119.79C49.3527 119.79 48.9201 120.217 48.9201 120.8C48.9201 121.384 49.3527 121.811 49.951 121.811C50.5493 121.811 50.9774 121.375 50.9774 120.8C50.9774 120.226 50.5447 119.79 49.951 119.79Z" fill="url(#paint136_linear_1_1235)"/>
<path d="M54.3925 119.523V122.082H54.2406L52.4917 119.858V122.082H52.303V119.523H52.4595L54.2038 121.747V119.523H54.3925Z" fill="url(#paint137_linear_1_1235)"/>
<path d="M54.5077 122.197H54.1809L52.6022 120.189V122.197H52.188V119.408H52.5148L54.0888 121.411V119.408H54.5077V122.197Z" fill="url(#paint138_linear_1_1235)"/>
<path d="M55.6536 119.523H55.8423V122.082H55.6536V119.523Z" fill="url(#paint139_linear_1_1235)"/>
<path d="M55.9574 119.408H55.5386V122.197H55.9574V119.408Z" fill="url(#paint140_linear_1_1235)"/>
<path d="M58.6866 121.361H57.1999L56.8732 122.082H56.6707L57.8489 119.523H58.0376L59.2158 122.082H59.0133L58.682 121.361H58.6866ZM58.6175 121.205L57.9409 119.725L57.269 121.205H58.6129H58.6175Z" fill="url(#paint141_linear_1_1235)"/>
<path d="M59.3954 122.197H58.9397L58.6083 121.476H57.269L56.9422 122.197H56.4866L57.7707 119.408H58.1067L59.3908 122.197H59.3954ZM57.4485 121.09H58.438L57.941 120.005L57.4485 121.09Z" fill="url(#paint142_linear_1_1235)"/>
<path d="M60.0491 119.523H60.2378V121.917H61.7152V122.087H60.0491V119.528V119.523Z" fill="url(#paint143_linear_1_1235)"/>
<path d="M61.8303 122.197H59.9341V119.408H60.3529V121.802H61.8303V122.197Z" fill="url(#paint144_linear_1_1235)"/>
<path d="M65.6411 121.917V122.087H63.8691V119.528H65.5859V119.698H64.0578V120.708H65.4248V120.874H64.0578V121.926H65.6411V121.917Z" fill="url(#paint145_linear_1_1235)"/>
<path d="M65.7562 122.197H63.7542V119.408H65.701V119.803H64.173V120.584H65.5399V120.98H64.173V121.802H65.7562V122.197Z" fill="url(#paint146_linear_1_1235)"/>
<path d="M68.7753 119.523V122.082H68.6235L66.8745 119.858V122.082H66.6858V119.523H66.8423L68.5866 121.747V119.523H68.7753Z" fill="url(#paint147_linear_1_1235)"/>
<path d="M68.8905 122.197H68.5683L66.9897 120.189V122.197H66.5754V119.408H66.9022L68.4763 121.411V119.408H68.8905V122.197Z" fill="url(#paint148_linear_1_1235)"/>
<path d="M71.8729 120.814H72.0524V121.774C71.8222 121.995 71.4862 122.105 71.1365 122.105C70.3632 122.105 69.7971 121.554 69.7971 120.805C69.7971 120.056 70.3632 119.505 71.1411 119.505C71.5093 119.505 71.836 119.62 72.0662 119.854L71.9511 119.978C71.7256 119.757 71.4586 119.675 71.1503 119.675C70.4829 119.675 69.9904 120.157 69.9904 120.8C69.9904 121.444 70.4875 121.926 71.1503 121.926C71.4218 121.926 71.6703 121.862 71.8775 121.692V120.81L71.8729 120.814Z" fill="url(#paint149_linear_1_1235)"/>
<path d="M71.1365 122.215C70.308 122.215 69.6775 121.609 69.6775 120.8C69.6775 119.992 70.3034 119.385 71.1365 119.385C71.5507 119.385 71.8959 119.518 72.1444 119.771L72.2227 119.849L71.9511 120.139L71.8683 120.056C71.6796 119.872 71.4495 119.785 71.1457 119.785C70.5382 119.785 70.1009 120.212 70.1009 120.796C70.1009 121.379 70.552 121.807 71.1457 121.807C71.3942 121.807 71.5921 121.747 71.7578 121.632V120.69H72.1674V121.811L72.1306 121.843C71.8867 122.078 71.5323 122.206 71.1365 122.206V122.215Z" fill="url(#paint150_linear_1_1235)"/>
<path d="M73.2397 119.523H73.4284V122.082H73.2397V119.523Z" fill="url(#paint151_linear_1_1235)"/>
<path d="M73.5436 119.408H73.1248V122.197H73.5436V119.408Z" fill="url(#paint152_linear_1_1235)"/>
<path d="M76.7746 119.523V122.082H76.6227L74.8738 119.858V122.082H74.6851V119.523H74.8415L76.5859 121.747V119.523H76.7746Z" fill="url(#paint153_linear_1_1235)"/>
<path d="M76.8897 122.197H76.5676L74.9889 120.189V122.197H74.5701V119.408H74.9014L76.4755 121.411V119.408H76.8897V122.197Z" fill="url(#paint154_linear_1_1235)"/>
<path d="M79.8076 121.917V122.087H78.0356V119.528H79.7524V119.698H78.2243V120.708H79.5913V120.874H78.2243V121.926H79.8076V121.917Z" fill="url(#paint155_linear_1_1235)"/>
<path d="M79.9227 122.197H77.9207V119.408H79.8675V119.803H78.3395V120.584H79.7064V120.98H78.3395V121.802H79.9227V122.197Z" fill="url(#paint156_linear_1_1235)"/>
<path d="M82.6243 121.917V122.087H80.8523V119.528H82.569V119.698H81.041V120.708H82.4079V120.874H81.041V121.926H82.6243V121.917Z" fill="url(#paint157_linear_1_1235)"/>
<path d="M82.7394 122.197H80.7419V119.408H82.6842V119.803H81.1562V120.584H82.5231V120.98H81.1562V121.802H82.7394V122.197Z" fill="url(#paint158_linear_1_1235)"/>
<path d="M85.4548 122.082L84.8426 121.228C84.7598 121.237 84.6815 121.246 84.5941 121.246H83.8623V122.082H83.6736V119.523H84.5941C85.2384 119.523 85.6297 119.845 85.6297 120.387C85.6297 120.791 85.4087 121.076 85.0267 121.186L85.6665 122.082H85.4548ZM84.5941 121.081C85.1418 121.081 85.4363 120.823 85.4363 120.387C85.4363 119.95 85.1418 119.693 84.5941 119.693H83.8623V121.085H84.5941V121.081Z" fill="url(#paint159_linear_1_1235)"/>
<path d="M85.8921 122.197H85.395L84.7875 121.347C84.723 121.352 84.6586 121.356 84.5942 121.356H83.9774V122.192H83.5586V119.404H84.5942C85.3029 119.404 85.7448 119.78 85.7448 120.382C85.7448 120.777 85.5515 121.085 85.2109 121.237L85.8967 122.192L85.8921 122.197ZM83.9774 120.966H84.5942C84.9255 120.966 85.3214 120.865 85.3214 120.387C85.3214 120.001 85.0774 119.808 84.5942 119.808H83.9774V120.97V120.966Z" fill="url(#paint160_linear_1_1235)"/>
<path d="M86.679 119.523H86.8677V122.082H86.679V119.523Z" fill="url(#paint161_linear_1_1235)"/>
<path d="M86.9828 119.408H86.564V122.197H86.9828V119.408Z" fill="url(#paint162_linear_1_1235)"/>
<path d="M90.2185 119.523V122.082H90.0666L88.3176 119.858V122.082H88.1289V119.523H88.2854L90.0297 121.747V119.523H90.2185Z" fill="url(#paint163_linear_1_1235)"/>
<path d="M90.3336 122.197H90.0068L88.4281 120.189V122.197H88.0139V119.408H88.3407L89.9148 121.411V119.408H90.3336V122.197Z" fill="url(#paint164_linear_1_1235)"/>
<path d="M93.3113 120.814H93.4908V121.774C93.2607 121.995 92.9247 122.105 92.5749 122.105C91.8017 122.105 91.2356 121.554 91.2356 120.805C91.2356 120.056 91.8017 119.505 92.5795 119.505C92.9477 119.505 93.2745 119.62 93.5046 119.854L93.3896 119.978C93.1641 119.757 92.8971 119.675 92.5887 119.675C91.9214 119.675 91.4289 120.157 91.4289 120.8C91.4289 121.444 91.926 121.926 92.5887 121.926C92.8603 121.926 93.1088 121.862 93.3159 121.692V120.81L93.3113 120.814Z" fill="url(#paint165_linear_1_1235)"/>
<path d="M92.575 122.215C91.7465 122.215 91.116 121.609 91.116 120.8C91.116 119.992 91.7419 119.385 92.575 119.385C92.9892 119.385 93.3344 119.518 93.5829 119.771L93.6612 119.849L93.3896 120.139L93.3068 120.056C93.1181 119.872 92.8879 119.785 92.5842 119.785C91.9766 119.785 91.5394 120.212 91.5394 120.796C91.5394 121.379 91.9904 121.807 92.5842 121.807C92.8327 121.807 93.0306 121.747 93.1963 121.632V120.69H93.6059V121.811L93.5691 121.843C93.3252 122.078 92.9708 122.206 92.575 122.206V122.215Z" fill="url(#paint166_linear_1_1235)"/>
<path d="M23.8732 120.341H10.6824V121.26H23.8732V120.341Z" fill="url(#paint167_linear_1_1235)"/>
<path d="M110.318 120.341H97.1267V121.26H110.318V120.341Z" fill="url(#paint168_linear_1_1235)"/>
<path d="M46.269 89.2816H10.6824V90.2007H46.269V89.2816Z" fill="url(#paint169_linear_1_1235)"/>
<path d="M110.318 89.2816H74.731V90.2007H110.318V89.2816Z" fill="url(#paint170_linear_1_1235)"/>
<defs>
<linearGradient id="paint0_linear_1_1235" x1="1.93759" y1="11.2842" x2="109.413" y2="124.795" gradientUnits="userSpaceOnUse">
<stop stop-color="#DEC28F"/>
<stop offset="1" stop-color="#B2925D"/>
</linearGradient>
<linearGradient id="paint1_linear_1_1235" x1="11.4186" y1="2.30007" x2="118.91" y2="115.816" gradientUnits="userSpaceOnUse">
<stop stop-color="#DEC28F"/>
<stop offset="1" stop-color="#B2925D"/>
</linearGradient>
<linearGradient id="paint2_linear_1_1235" x1="10.2957" y1="3.36585" x2="117.787" y2="116.882" gradientUnits="userSpaceOnUse">
<stop stop-color="#DEC28F"/>
<stop offset="1" stop-color="#B2925D"/>
</linearGradient>
<linearGradient id="paint3_linear_1_1235" x1="10.4798" y1="3.18673" x2="117.975" y2="116.703" gradientUnits="userSpaceOnUse">
<stop stop-color="#DEC28F"/>
<stop offset="1" stop-color="#B2925D"/>
</linearGradient>
<linearGradient id="paint4_linear_1_1235" x1="10.5351" y1="3.14097" x2="118.026" y2="116.652" gradientUnits="userSpaceOnUse">
<stop stop-color="#DEC28F"/>
<stop offset="1" stop-color="#B2925D"/>
</linearGradient>
<linearGradient id="paint5_linear_1_1235" x1="10.5534" y1="3.12213" x2="118.045" y2="116.638" gradientUnits="userSpaceOnUse">
<stop stop-color="#DEC28F"/>
<stop offset="1" stop-color="#B2925D"/>
</linearGradient>
<linearGradient id="paint6_linear_1_1235" x1="10.5628" y1="3.11302" x2="118.054" y2="116.629" gradientUnits="userSpaceOnUse">
<stop stop-color="#DEC28F"/>
<stop offset="1" stop-color="#B2925D"/>
</linearGradient>
<linearGradient id="paint7_linear_1_1235" x1="10.1852" y1="3.46686" x2="117.676" y2="116.983" gradientUnits="userSpaceOnUse">
<stop stop-color="#DEC28F"/>
<stop offset="1" stop-color="#B2925D"/>
</linearGradient>
<linearGradient id="paint8_linear_1_1235" x1="11.0366" y1="2.66282" x2="118.527" y2="116.179" gradientUnits="userSpaceOnUse">
<stop stop-color="#DEC28F"/>
<stop offset="1" stop-color="#B2925D"/>
</linearGradient>
<linearGradient id="paint9_linear_1_1235" x1="12.1091" y1="1.64756" x2="119.6" y2="115.163" gradientUnits="userSpaceOnUse">
<stop stop-color="#DEC28F"/>
<stop offset="1" stop-color="#B2925D"/>
</linearGradient>
<linearGradient id="paint10_linear_1_1235" x1="12.4635" y1="1.31205" x2="119.954" y2="114.828" gradientUnits="userSpaceOnUse">
<stop stop-color="#DEC28F"/>
<stop offset="1" stop-color="#B2925D"/>
</linearGradient>
<linearGradient id="paint11_linear_1_1235" x1="12.1275" y1="1.62918" x2="119.623" y2="115.145" gradientUnits="userSpaceOnUse">
<stop stop-color="#DEC28F"/>
<stop offset="1" stop-color="#B2925D"/>
</linearGradient>
<linearGradient id="paint12_linear_1_1235" x1="12.3022" y1="1.46336" x2="119.798" y2="114.98" gradientUnits="userSpaceOnUse">
<stop stop-color="#DEC28F"/>
<stop offset="1" stop-color="#B2925D"/>
</linearGradient>
<linearGradient id="paint13_linear_1_1235" x1="11.5018" y1="2.22188" x2="118.998" y2="115.737" gradientUnits="userSpaceOnUse">
<stop stop-color="#DEC28F"/>
<stop offset="1" stop-color="#B2925D"/>
</linearGradient>
<linearGradient id="paint14_linear_1_1235" x1="12.2472" y1="1.51851" x2="119.738" y2="115.034" gradientUnits="userSpaceOnUse">
<stop stop-color="#DEC28F"/>
<stop offset="1" stop-color="#B2925D"/>
</linearGradient>
<linearGradient id="paint15_linear_1_1235" x1="12.5187" y1="1.26139" x2="120.01" y2="114.777" gradientUnits="userSpaceOnUse">
<stop stop-color="#DEC28F"/>
<stop offset="1" stop-color="#B2925D"/>
</linearGradient>
<linearGradient id="paint16_linear_1_1235" x1="12.4173" y1="1.3579" x2="119.908" y2="114.87" gradientUnits="userSpaceOnUse">
<stop stop-color="#DEC28F"/>
<stop offset="1" stop-color="#B2925D"/>
</linearGradient>
<linearGradient id="paint17_linear_1_1235" x1="12.109" y1="1.64701" x2="119.6" y2="115.159" gradientUnits="userSpaceOnUse">
<stop stop-color="#DEC28F"/>
<stop offset="1" stop-color="#B2925D"/>
</linearGradient>
<linearGradient id="paint18_linear_1_1235" x1="12.0768" y1="1.67921" x2="119.568" y2="115.191" gradientUnits="userSpaceOnUse">
<stop stop-color="#DEC28F"/>
<stop offset="1" stop-color="#B2925D"/>
</linearGradient>
<linearGradient id="paint19_linear_1_1235" x1="10.1759" y1="3.47542" x2="117.667" y2="116.992" gradientUnits="userSpaceOnUse">
<stop stop-color="#DEC28F"/>
<stop offset="1" stop-color="#B2925D"/>
</linearGradient>
<linearGradient id="paint20_linear_1_1235" x1="10.8112" y1="2.87365" x2="118.307" y2="116.39" gradientUnits="userSpaceOnUse">
<stop stop-color="#DEC28F"/>
<stop offset="1" stop-color="#B2925D"/>
</linearGradient>
<linearGradient id="paint21_linear_1_1235" x1="10.5995" y1="3.07562" x2="118.095" y2="116.587" gradientUnits="userSpaceOnUse">
<stop stop-color="#DEC28F"/>
<stop offset="1" stop-color="#B2925D"/>
</linearGradient>
<linearGradient id="paint22_linear_1_1235" x1="11.0736" y1="2.6301" x2="118.565" y2="116.142" gradientUnits="userSpaceOnUse">
<stop stop-color="#DEC28F"/>
<stop offset="1" stop-color="#B2925D"/>
</linearGradient>
<linearGradient id="paint23_linear_1_1235" x1="10.3231" y1="3.33767" x2="117.815" y2="116.854" gradientUnits="userSpaceOnUse">
<stop stop-color="#DEC28F"/>
<stop offset="1" stop-color="#B2925D"/>
</linearGradient>
<linearGradient id="paint24_linear_1_1235" x1="10.6408" y1="3.03922" x2="118.132" y2="116.555" gradientUnits="userSpaceOnUse">
<stop stop-color="#DEC28F"/>
<stop offset="1" stop-color="#B2925D"/>
</linearGradient>
<linearGradient id="paint25_linear_1_1235" x1="10.7701" y1="2.91514" x2="118.261" y2="116.431" gradientUnits="userSpaceOnUse">
<stop stop-color="#DEC28F"/>
<stop offset="1" stop-color="#B2925D"/>
</linearGradient>
<linearGradient id="paint26_linear_1_1235" x1="10.3601" y1="3.30129" x2="117.851" y2="116.818" gradientUnits="userSpaceOnUse">
<stop stop-color="#DEC28F"/>
<stop offset="1" stop-color="#B2925D"/>
</linearGradient>
<linearGradient id="paint27_linear_1_1235" x1="11.1567" y1="2.5478" x2="118.652" y2="116.063" gradientUnits="userSpaceOnUse">
<stop stop-color="#DEC28F"/>
<stop offset="1" stop-color="#B2925D"/>
</linearGradient>
<linearGradient id="paint28_linear_1_1235" x1="11.0178" y1="2.68082" x2="118.509" y2="116.194" gradientUnits="userSpaceOnUse">
<stop stop-color="#DEC28F"/>
<stop offset="1" stop-color="#B2925D"/>
</linearGradient>
<linearGradient id="paint29_linear_1_1235" x1="11.0274" y1="2.67161" x2="118.519" y2="116.188" gradientUnits="userSpaceOnUse">
<stop stop-color="#DEC28F"/>
<stop offset="1" stop-color="#B2925D"/>
</linearGradient>
<linearGradient id="paint30_linear_1_1235" x1="11.1283" y1="2.57518" x2="118.619" y2="116.092" gradientUnits="userSpaceOnUse">
<stop stop-color="#DEC28F"/>
<stop offset="1" stop-color="#B2925D"/>
</linearGradient>
<linearGradient id="paint31_linear_1_1235" x1="10.5397" y1="3.13099" x2="118.031" y2="116.647" gradientUnits="userSpaceOnUse">
<stop stop-color="#DEC28F"/>
<stop offset="1" stop-color="#B2925D"/>
</linearGradient>
<linearGradient id="paint32_linear_1_1235" x1="10.5535" y1="3.11745" x2="118.044" y2="116.634" gradientUnits="userSpaceOnUse">
<stop stop-color="#DEC28F"/>
<stop offset="1" stop-color="#B2925D"/>
</linearGradient>
<linearGradient id="paint33_linear_1_1235" x1="10.3142" y1="3.34694" x2="117.81" y2="116.858" gradientUnits="userSpaceOnUse">
<stop stop-color="#DEC28F"/>
<stop offset="1" stop-color="#B2925D"/>
</linearGradient>
<linearGradient id="paint34_linear_1_1235" x1="11.2946" y1="2.41895" x2="118.785" y2="115.93" gradientUnits="userSpaceOnUse">
<stop stop-color="#DEC28F"/>
<stop offset="1" stop-color="#B2925D"/>
</linearGradient>
<linearGradient id="paint35_linear_1_1235" x1="10.4292" y1="3.24134" x2="117.92" y2="116.753" gradientUnits="userSpaceOnUse">
<stop stop-color="#DEC28F"/>
<stop offset="1" stop-color="#B2925D"/>
</linearGradient>
<linearGradient id="paint36_linear_1_1235" x1="11.1607" y1="2.54283" x2="118.656" y2="116.06" gradientUnits="userSpaceOnUse">
<stop stop-color="#DEC28F"/>
<stop offset="1" stop-color="#B2925D"/>
</linearGradient>
<linearGradient id="paint37_linear_1_1235" x1="10.9765" y1="2.71736" x2="118.472" y2="116.234" gradientUnits="userSpaceOnUse">
<stop stop-color="#DEC28F"/>
<stop offset="1" stop-color="#B2925D"/>
</linearGradient>
<linearGradient id="paint38_linear_1_1235" x1="10.8709" y1="2.81833" x2="118.362" y2="116.334" gradientUnits="userSpaceOnUse">
<stop stop-color="#DEC28F"/>
<stop offset="1" stop-color="#B2925D"/>
</linearGradient>
<linearGradient id="paint39_linear_1_1235" x1="11.4189" y1="2.30408" x2="118.91" y2="115.815" gradientUnits="userSpaceOnUse">
<stop stop-color="#DEC28F"/>
<stop offset="1" stop-color="#B2925D"/>
</linearGradient>
<linearGradient id="paint40_linear_1_1235" x1="11.5655" y1="2.16179" x2="119.056" y2="115.679" gradientUnits="userSpaceOnUse">
<stop stop-color="#DEC28F"/>
<stop offset="1" stop-color="#B2925D"/>
</linearGradient>
<linearGradient id="paint41_linear_1_1235" x1="12.7855" y1="1.0032" x2="120.282" y2="114.52" gradientUnits="userSpaceOnUse">
<stop stop-color="#DEC28F"/>
<stop offset="1" stop-color="#B2925D"/>
</linearGradient>
<linearGradient id="paint42_linear_1_1235" x1="13.0987" y1="0.70935" x2="120.59" y2="114.225" gradientUnits="userSpaceOnUse">
<stop stop-color="#DEC28F"/>
<stop offset="1" stop-color="#B2925D"/>
</linearGradient>
<linearGradient id="paint43_linear_1_1235" x1="12.9424" y1="0.861003" x2="120.434" y2="114.372" gradientUnits="userSpaceOnUse">
<stop stop-color="#DEC28F"/>
<stop offset="1" stop-color="#B2925D"/>
</linearGradient>
<linearGradient id="paint44_linear_1_1235" x1="13.0709" y1="0.737069" x2="120.562" y2="114.253" gradientUnits="userSpaceOnUse">
<stop stop-color="#DEC28F"/>
<stop offset="1" stop-color="#B2925D"/>
</linearGradient>
<linearGradient id="paint45_linear_1_1235" x1="12.7582" y1="1.03133" x2="120.253" y2="114.547" gradientUnits="userSpaceOnUse">
<stop stop-color="#DEC28F"/>
<stop offset="1" stop-color="#B2925D"/>
</linearGradient>
<linearGradient id="paint46_linear_1_1235" x1="12.7897" y1="1.0035" x2="120.281" y2="114.521" gradientUnits="userSpaceOnUse">
<stop stop-color="#DEC28F"/>
<stop offset="1" stop-color="#B2925D"/>
</linearGradient>
<linearGradient id="paint47_linear_1_1235" x1="13.0618" y1="0.741543" x2="120.558" y2="114.258" gradientUnits="userSpaceOnUse">
<stop stop-color="#DEC28F"/>
<stop offset="1" stop-color="#B2925D"/>
</linearGradient>
<linearGradient id="paint48_linear_1_1235" x1="12.5321" y1="1.24711" x2="120.023" y2="114.759" gradientUnits="userSpaceOnUse">
<stop stop-color="#DEC28F"/>
<stop offset="1" stop-color="#B2925D"/>
</linearGradient>
<linearGradient id="paint49_linear_1_1235" x1="12.2748" y1="1.49044" x2="119.766" y2="115.007" gradientUnits="userSpaceOnUse">
<stop stop-color="#DEC28F"/>
<stop offset="1" stop-color="#B2925D"/>
</linearGradient>
<linearGradient id="paint50_linear_1_1235" x1="11.9987" y1="1.75262" x2="119.489" y2="115.264" gradientUnits="userSpaceOnUse">
<stop stop-color="#DEC28F"/>
<stop offset="1" stop-color="#B2925D"/>
</linearGradient>
<linearGradient id="paint51_linear_1_1235" x1="12.3026" y1="1.46283" x2="119.794" y2="114.979" gradientUnits="userSpaceOnUse">
<stop stop-color="#DEC28F"/>
<stop offset="1" stop-color="#B2925D"/>
</linearGradient>
<linearGradient id="paint52_linear_1_1235" x1="11.8286" y1="1.91346" x2="119.319" y2="115.424" gradientUnits="userSpaceOnUse">
<stop stop-color="#DEC28F"/>
<stop offset="1" stop-color="#B2925D"/>
</linearGradient>
<linearGradient id="paint53_linear_1_1235" x1="12.6018" y1="1.17801" x2="120.097" y2="114.694" gradientUnits="userSpaceOnUse">
<stop stop-color="#DEC28F"/>
<stop offset="1" stop-color="#B2925D"/>
</linearGradient>
<linearGradient id="paint54_linear_1_1235" x1="11.8978" y1="1.84433" x2="119.393" y2="115.359" gradientUnits="userSpaceOnUse">
<stop stop-color="#DEC28F"/>
<stop offset="1" stop-color="#B2925D"/>
</linearGradient>
<linearGradient id="paint55_linear_1_1235" x1="11.8469" y1="1.89478" x2="119.338" y2="115.41" gradientUnits="userSpaceOnUse">
<stop stop-color="#DEC28F"/>
<stop offset="1" stop-color="#B2925D"/>
</linearGradient>
<linearGradient id="paint56_linear_1_1235" x1="11.9942" y1="1.75678" x2="119.486" y2="115.268" gradientUnits="userSpaceOnUse">
<stop stop-color="#DEC28F"/>
<stop offset="1" stop-color="#B2925D"/>
</linearGradient>
<linearGradient id="paint57_linear_1_1235" x1="11.8838" y1="1.86292" x2="119.374" y2="115.374" gradientUnits="userSpaceOnUse">
<stop stop-color="#DEC28F"/>
<stop offset="1" stop-color="#B2925D"/>
</linearGradient>
<linearGradient id="paint58_linear_1_1235" x1="11.8372" y1="1.90445" x2="119.327" y2="115.422" gradientUnits="userSpaceOnUse">
<stop stop-color="#DEC28F"/>
<stop offset="1" stop-color="#B2925D"/>
</linearGradient>
<linearGradient id="paint59_linear_1_1235" x1="15.4874" y1="-1.55087" x2="122.978" y2="111.965" gradientUnits="userSpaceOnUse">
<stop stop-color="#DEC28F"/>
<stop offset="1" stop-color="#B2925D"/>
</linearGradient>
<linearGradient id="paint60_linear_1_1235" x1="15.2895" y1="-1.36281" x2="122.781" y2="112.149" gradientUnits="userSpaceOnUse">
<stop stop-color="#DEC28F"/>
<stop offset="1" stop-color="#B2925D"/>
</linearGradient>
<linearGradient id="paint61_linear_1_1235" x1="14.6682" y1="-0.779083" x2="122.164" y2="112.737" gradientUnits="userSpaceOnUse">
<stop stop-color="#DEC28F"/>
<stop offset="1" stop-color="#B2925D"/>
</linearGradient>
<linearGradient id="paint62_linear_1_1235" x1="15.5058" y1="-1.56929" x2="122.997" y2="111.947" gradientUnits="userSpaceOnUse">
<stop stop-color="#DEC28F"/>
<stop offset="1" stop-color="#B2925D"/>
</linearGradient>
<linearGradient id="paint63_linear_1_1235" x1="13.7706" y1="0.0753796" x2="121.262" y2="113.591" gradientUnits="userSpaceOnUse">
<stop stop-color="#DEC28F"/>
<stop offset="1" stop-color="#B2925D"/>
</linearGradient>
<linearGradient id="paint64_linear_1_1235" x1="14.1803" y1="-0.315139" x2="121.671" y2="113.201" gradientUnits="userSpaceOnUse">
<stop stop-color="#DEC28F"/>
<stop offset="1" stop-color="#B2925D"/>
</linearGradient>
<linearGradient id="paint65_linear_1_1235" x1="14.4057" y1="-0.526532" x2="121.897" y2="112.985" gradientUnits="userSpaceOnUse">
<stop stop-color="#DEC28F"/>
<stop offset="1" stop-color="#B2925D"/>
</linearGradient>
<linearGradient id="paint66_linear_1_1235" x1="13.7569" y1="0.0848113" x2="121.247" y2="113.601" gradientUnits="userSpaceOnUse">
<stop stop-color="#DEC28F"/>
<stop offset="1" stop-color="#B2925D"/>
</linearGradient>
<linearGradient id="paint67_linear_1_1235" x1="14.5254" y1="-0.640942" x2="122.016" y2="112.875" gradientUnits="userSpaceOnUse">
<stop stop-color="#DEC28F"/>
<stop offset="1" stop-color="#B2925D"/>
</linearGradient>
<linearGradient id="paint68_linear_1_1235" x1="14.2908" y1="-0.420413" x2="121.786" y2="113.096" gradientUnits="userSpaceOnUse">
<stop stop-color="#DEC28F"/>
<stop offset="1" stop-color="#B2925D"/>
</linearGradient>
<linearGradient id="paint69_linear_1_1235" x1="15.1974" y1="-1.27512" x2="122.688" y2="112.236" gradientUnits="userSpaceOnUse">
<stop stop-color="#DEC28F"/>
<stop offset="1" stop-color="#B2925D"/>
</linearGradient>
<linearGradient id="paint70_linear_1_1235" x1="12.7441" y1="1.04519" x2="120.235" y2="114.562" gradientUnits="userSpaceOnUse">
<stop stop-color="#DEC28F"/>
<stop offset="1" stop-color="#B2925D"/>
</linearGradient>
<linearGradient id="paint71_linear_1_1235" x1="15.1187" y1="-1.20168" x2="122.61" y2="112.311" gradientUnits="userSpaceOnUse">
<stop stop-color="#DEC28F"/>
<stop offset="1" stop-color="#B2925D"/>
</linearGradient>
<linearGradient id="paint72_linear_1_1235" x1="13.1587" y1="0.654574" x2="120.65" y2="114.17" gradientUnits="userSpaceOnUse">
<stop stop-color="#DEC28F"/>
<stop offset="1" stop-color="#B2925D"/>
</linearGradient>
<linearGradient id="paint73_linear_1_1235" x1="13.3379" y1="0.484772" x2="120.829" y2="113.996" gradientUnits="userSpaceOnUse">
<stop stop-color="#DEC28F"/>
<stop offset="1" stop-color="#B2925D"/>
</linearGradient>
<linearGradient id="paint74_linear_1_1235" x1="13.8074" y1="0.0390206" x2="121.298" y2="113.555" gradientUnits="userSpaceOnUse">
<stop stop-color="#DEC28F"/>
<stop offset="1" stop-color="#B2925D"/>
</linearGradient>
<linearGradient id="paint75_linear_1_1235" x1="12.6612" y1="1.12313" x2="120.157" y2="114.64" gradientUnits="userSpaceOnUse">
<stop stop-color="#DEC28F"/>
<stop offset="1" stop-color="#B2925D"/>
</linearGradient>
<linearGradient id="paint76_linear_1_1235" x1="12.261" y1="1.50459" x2="119.752" y2="115.021" gradientUnits="userSpaceOnUse">
<stop stop-color="#DEC28F"/>
<stop offset="1" stop-color="#B2925D"/>
</linearGradient>
<linearGradient id="paint77_linear_1_1235" x1="13.8949" y1="-0.0367456" x2="121.366" y2="113.478" gradientUnits="userSpaceOnUse">
<stop stop-color="#DEC28F"/>
<stop offset="1" stop-color="#B2925D"/>
</linearGradient>
<linearGradient id="paint78_linear_1_1235" x1="14.5117" y1="-0.620257" x2="121.982" y2="112.895" gradientUnits="userSpaceOnUse">
<stop stop-color="#DEC28F"/>
<stop offset="1" stop-color="#B2925D"/>
</linearGradient>
<linearGradient id="paint79_linear_1_1235" x1="14.9765" y1="-1.0676" x2="122.467" y2="112.448" gradientUnits="userSpaceOnUse">
<stop stop-color="#DEC28F"/>
<stop offset="1" stop-color="#B2925D"/>
</linearGradient>
<linearGradient id="paint80_linear_1_1235" x1="15.5564" y1="-1.61457" x2="123.048" y2="111.897" gradientUnits="userSpaceOnUse">
<stop stop-color="#DEC28F"/>
<stop offset="1" stop-color="#B2925D"/>
</linearGradient>
<linearGradient id="paint81_linear_1_1235" x1="10.6225" y1="3.05985" x2="118.093" y2="116.575" gradientUnits="userSpaceOnUse">
<stop stop-color="#DEC28F"/>
<stop offset="1" stop-color="#B2925D"/>
</linearGradient>
<linearGradient id="paint82_linear_1_1235" x1="13.9363" y1="-0.078086" x2="121.412" y2="113.437" gradientUnits="userSpaceOnUse">
<stop stop-color="#DEC28F"/>
<stop offset="1" stop-color="#B2925D"/>
</linearGradient>
<linearGradient id="paint83_linear_1_1235" x1="10.825" y1="2.8717" x2="118.296" y2="116.387" gradientUnits="userSpaceOnUse">
<stop stop-color="#DEC28F"/>
<stop offset="1" stop-color="#B2925D"/>
</linearGradient>
<linearGradient id="paint84_linear_1_1235" x1="14.2814" y1="-0.404363" x2="121.757" y2="113.111" gradientUnits="userSpaceOnUse">
<stop stop-color="#DEC28F"/>
<stop offset="1" stop-color="#B2925D"/>
</linearGradient>
<linearGradient id="paint85_linear_1_1235" x1="13.1493" y1="0.666241" x2="120.625" y2="114.181" gradientUnits="userSpaceOnUse">
<stop stop-color="#DEC28F"/>
<stop offset="1" stop-color="#B2925D"/>
</linearGradient>
<linearGradient id="paint86_linear_1_1235" x1="15.1057" y1="-1.18077" x2="122.576" y2="112.334" gradientUnits="userSpaceOnUse">
<stop stop-color="#DEC28F"/>
<stop offset="1" stop-color="#B2925D"/>
</linearGradient>
<linearGradient id="paint87_linear_1_1235" x1="12.2796" y1="1.49323" x2="119.75" y2="115.008" gradientUnits="userSpaceOnUse">
<stop stop-color="#DEC28F"/>
<stop offset="1" stop-color="#B2925D"/>
</linearGradient>
<linearGradient id="paint88_linear_1_1235" x1="15.1238" y1="-1.19919" x2="122.595" y2="112.316" gradientUnits="userSpaceOnUse">
<stop stop-color="#DEC28F"/>
<stop offset="1" stop-color="#B2925D"/>
</linearGradient>
<linearGradient id="paint89_linear_1_1235" x1="13.9959" y1="-0.143424" x2="121.486" y2="113.373" gradientUnits="userSpaceOnUse">
<stop stop-color="#DEC28F"/>
<stop offset="1" stop-color="#B2925D"/>
</linearGradient>
<linearGradient id="paint90_linear_1_1235" x1="13.163" y1="0.646568" x2="120.654" y2="114.163" gradientUnits="userSpaceOnUse">
<stop stop-color="#DEC28F"/>
<stop offset="1" stop-color="#B2925D"/>
</linearGradient>
<linearGradient id="paint91_linear_1_1235" x1="13.6971" y1="0.141067" x2="121.188" y2="113.652" gradientUnits="userSpaceOnUse">
<stop stop-color="#DEC28F"/>
<stop offset="1" stop-color="#B2925D"/>
</linearGradient>
<linearGradient id="paint92_linear_1_1235" x1="13.4162" y1="0.407808" x2="120.906" y2="113.924" gradientUnits="userSpaceOnUse">
<stop stop-color="#DEC28F"/>
<stop offset="1" stop-color="#B2925D"/>
</linearGradient>
<linearGradient id="paint93_linear_1_1235" x1="14.3183" y1="-0.446813" x2="121.809" y2="113.069" gradientUnits="userSpaceOnUse">
<stop stop-color="#DEC28F"/>
<stop offset="1" stop-color="#B2925D"/>
</linearGradient>
<linearGradient id="paint94_linear_1_1235" x1="13.4669" y1="0.356555" x2="120.963" y2="113.872" gradientUnits="userSpaceOnUse">
<stop stop-color="#DEC28F"/>
<stop offset="1" stop-color="#B2925D"/>
</linearGradient>
<linearGradient id="paint95_linear_1_1235" x1="14.3413" y1="-0.470037" x2="121.832" y2="113.046" gradientUnits="userSpaceOnUse">
<stop stop-color="#DEC28F"/>
<stop offset="1" stop-color="#B2925D"/>
</linearGradient>
<linearGradient id="paint96_linear_1_1235" x1="13.9181" y1="-0.0658503" x2="121.409" y2="113.445" gradientUnits="userSpaceOnUse">
<stop stop-color="#DEC28F"/>
<stop offset="1" stop-color="#B2925D"/>
</linearGradient>
<linearGradient id="paint97_linear_1_1235" x1="13.9222" y1="-0.0751956" x2="121.418" y2="113.441" gradientUnits="userSpaceOnUse">
<stop stop-color="#DEC28F"/>
<stop offset="1" stop-color="#B2925D"/>
</linearGradient>
<linearGradient id="paint98_linear_1_1235" x1="16.7439" y1="-2.73379" x2="124.215" y2="110.781" gradientUnits="userSpaceOnUse">
<stop stop-color="#DEC28F"/>
<stop offset="1" stop-color="#B2925D"/>
</linearGradient>
<linearGradient id="paint99_linear_1_1235" x1="27.2007" y1="-12.635" x2="134.671" y2="100.88" gradientUnits="userSpaceOnUse">
<stop stop-color="#DEC28F"/>
<stop offset="1" stop-color="#B2925D"/>
</linearGradient>
<linearGradient id="paint100_linear_1_1235" x1="26.225" y1="-11.7116" x2="133.7" y2="101.799" gradientUnits="userSpaceOnUse">
<stop stop-color="#DEC28F"/>
<stop offset="1" stop-color="#B2925D"/>
</linearGradient>
<linearGradient id="paint101_linear_1_1235" x1="26.8603" y1="-12.3135" x2="134.331" y2="101.201" gradientUnits="userSpaceOnUse">
<stop stop-color="#DEC28F"/>
<stop offset="1" stop-color="#B2925D"/>
</linearGradient>
<linearGradient id="paint102_linear_1_1235" x1="27.21" y1="-12.6442" x2="134.681" y2="100.871" gradientUnits="userSpaceOnUse">
<stop stop-color="#DEC28F"/>
<stop offset="1" stop-color="#B2925D"/>
</linearGradient>
<linearGradient id="paint103_linear_1_1235" x1="29.0095" y1="-14.3575" x2="136.501" y2="99.1587" gradientUnits="userSpaceOnUse">
<stop stop-color="#DEC28F"/>
<stop offset="1" stop-color="#B2925D"/>
</linearGradient>
<linearGradient id="paint104_linear_1_1235" x1="21.7237" y1="-7.45238" x2="129.199" y2="106.063" gradientUnits="userSpaceOnUse">
<stop stop-color="#DEC28F"/>
<stop offset="1" stop-color="#B2925D"/>
</linearGradient>
<linearGradient id="paint105_linear_1_1235" x1="28.0567" y1="-13.4437" x2="135.527" y2="100.071" gradientUnits="userSpaceOnUse">
<stop stop-color="#DEC28F"/>
<stop offset="1" stop-color="#B2925D"/>
</linearGradient>
<linearGradient id="paint106_linear_1_1235" x1="13.5405" y1="0.298652" x2="121.016" y2="113.809" gradientUnits="userSpaceOnUse">
<stop stop-color="#DEC28F"/>
<stop offset="1" stop-color="#B2925D"/>
</linearGradient>
<linearGradient id="paint107_linear_1_1235" x1="23.1414" y1="-8.78941" x2="130.612" y2="104.721" gradientUnits="userSpaceOnUse">
<stop stop-color="#DEC28F"/>
<stop offset="1" stop-color="#B2925D"/>
</linearGradient>
<linearGradient id="paint108_linear_1_1235" x1="38.3251" y1="-23.1658" x2="145.796" y2="90.3492" gradientUnits="userSpaceOnUse">
<stop stop-color="#DEC28F"/>
<stop offset="1" stop-color="#B2925D"/>
</linearGradient>
<linearGradient id="paint109_linear_1_1235" x1="48.1653" y1="-32.4836" x2="155.636" y2="81.0314" gradientUnits="userSpaceOnUse">
<stop stop-color="#DEC28F"/>
<stop offset="1" stop-color="#B2925D"/>
</linearGradient>
<linearGradient id="paint110_linear_1_1235" x1="-13.7019" y1="26.0879" x2="93.7734" y2="139.603" gradientUnits="userSpaceOnUse">
<stop stop-color="#DEC28F"/>
<stop offset="1" stop-color="#B2925D"/>
</linearGradient>
<linearGradient id="paint111_linear_1_1235" x1="-15.1839" y1="27.4939" x2="92.2868" y2="141.009" gradientUnits="userSpaceOnUse">
<stop stop-color="#DEC28F"/>
<stop offset="1" stop-color="#B2925D"/>
</linearGradient>
<linearGradient id="paint112_linear_1_1235" x1="-17.0478" y1="29.2582" x2="90.4229" y2="142.773" gradientUnits="userSpaceOnUse">
<stop stop-color="#DEC28F"/>
<stop offset="1" stop-color="#B2925D"/>
</linearGradient>
<linearGradient id="paint113_linear_1_1235" x1="-8.25237" y1="20.9329" x2="99.2183" y2="134.443" gradientUnits="userSpaceOnUse">
<stop stop-color="#DEC28F"/>
<stop offset="1" stop-color="#B2925D"/>
</linearGradient>
<linearGradient id="paint114_linear_1_1235" x1="3.96739" y1="9.36374" x2="111.438" y2="122.879" gradientUnits="userSpaceOnUse">
<stop stop-color="#DEC28F"/>
<stop offset="1" stop-color="#B2925D"/>
</linearGradient>
<linearGradient id="paint115_linear_1_1235" x1="-5.32052" y1="18.1531" x2="102.155" y2="131.668" gradientUnits="userSpaceOnUse">
<stop stop-color="#DEC28F"/>
<stop offset="1" stop-color="#B2925D"/>
</linearGradient>
<linearGradient id="paint116_linear_1_1235" x1="-27.6428" y1="39.2881" x2="79.8279" y2="152.803" gradientUnits="userSpaceOnUse">
<stop stop-color="#DEC28F"/>
<stop offset="1" stop-color="#B2925D"/>
</linearGradient>
<linearGradient id="paint117_linear_1_1235" x1="-9.57785" y1="22.1871" x2="97.8929" y2="135.702" gradientUnits="userSpaceOnUse">
<stop stop-color="#DEC28F"/>
<stop offset="1" stop-color="#B2925D"/>
</linearGradient>
<linearGradient id="paint118_linear_1_1235" x1="6.98658" y1="6.50594" x2="114.457" y2="120.016" gradientUnits="userSpaceOnUse">
<stop stop-color="#DEC28F"/>
<stop offset="1" stop-color="#B2925D"/>
</linearGradient>
<linearGradient id="paint119_linear_1_1235" x1="-16.6797" y1="28.909" x2="90.791" y2="142.424" gradientUnits="userSpaceOnUse">
<stop stop-color="#DEC28F"/>
<stop offset="1" stop-color="#B2925D"/>
</linearGradient>
<linearGradient id="paint120_linear_1_1235" x1="-34.4361" y1="45.7205" x2="73.0393" y2="159.235" gradientUnits="userSpaceOnUse">
<stop stop-color="#DEC28F"/>
<stop offset="1" stop-color="#B2925D"/>
</linearGradient>
<linearGradient id="paint121_linear_1_1235" x1="-38.6887" y1="49.7498" x2="68.7823" y2="163.26" gradientUnits="userSpaceOnUse">
<stop stop-color="#DEC28F"/>
<stop offset="1" stop-color="#B2925D"/>
</linearGradient>
<linearGradient id="paint122_linear_1_1235" x1="-38.6886" y1="49.7499" x2="68.7821" y2="163.26" gradientUnits="userSpaceOnUse">
<stop stop-color="#DEC28F"/>
<stop offset="1" stop-color="#B2925D"/>
</linearGradient>
<linearGradient id="paint123_linear_1_1235" x1="-37.2941" y1="48.4271" x2="70.1807" y2="161.942" gradientUnits="userSpaceOnUse">
<stop stop-color="#DEC28F"/>
<stop offset="1" stop-color="#B2925D"/>
</linearGradient>
<linearGradient id="paint124_linear_1_1235" x1="-37.3079" y1="48.4452" x2="70.1626" y2="161.956" gradientUnits="userSpaceOnUse">
<stop stop-color="#DEC28F"/>
<stop offset="1" stop-color="#B2925D"/>
</linearGradient>
<linearGradient id="paint125_linear_1_1235" x1="-35.4762" y1="46.7086" x2="71.9942" y2="160.219" gradientUnits="userSpaceOnUse">
<stop stop-color="#DEC28F"/>
<stop offset="1" stop-color="#B2925D"/>
</linearGradient>
<linearGradient id="paint126_linear_1_1235" x1="-35.4531" y1="46.6857" x2="72.0172" y2="160.196" gradientUnits="userSpaceOnUse">
<stop stop-color="#DEC28F"/>
<stop offset="1" stop-color="#B2925D"/>
</linearGradient>
<linearGradient id="paint127_linear_1_1235" x1="-34.3623" y1="45.6519" x2="73.1079" y2="159.167" gradientUnits="userSpaceOnUse">
<stop stop-color="#DEC28F"/>
<stop offset="1" stop-color="#B2925D"/>
</linearGradient>
<linearGradient id="paint128_linear_1_1235" x1="-34.3807" y1="45.6703" x2="73.0896" y2="159.185" gradientUnits="userSpaceOnUse">
<stop stop-color="#DEC28F"/>
<stop offset="1" stop-color="#B2925D"/>
</linearGradient>
<linearGradient id="paint129_linear_1_1235" x1="-32.6915" y1="44.0713" x2="74.7789" y2="157.586" gradientUnits="userSpaceOnUse">
<stop stop-color="#DEC28F"/>
<stop offset="1" stop-color="#B2925D"/>
</linearGradient>
<linearGradient id="paint130_linear_1_1235" x1="-32.6914" y1="44.0714" x2="74.7788" y2="157.586" gradientUnits="userSpaceOnUse">
<stop stop-color="#DEC28F"/>
<stop offset="1" stop-color="#B2925D"/>
</linearGradient>
<linearGradient id="paint131_linear_1_1235" x1="-31.4075" y1="42.8581" x2="76.0633" y2="156.368" gradientUnits="userSpaceOnUse">
<stop stop-color="#DEC28F"/>
<stop offset="1" stop-color="#B2925D"/>
</linearGradient>
<linearGradient id="paint132_linear_1_1235" x1="-31.4074" y1="42.8581" x2="76.0634" y2="156.368" gradientUnits="userSpaceOnUse">
<stop stop-color="#DEC28F"/>
<stop offset="1" stop-color="#B2925D"/>
</linearGradient>
<linearGradient id="paint133_linear_1_1235" x1="-29.4883" y1="41.0344" x2="77.9865" y2="154.549" gradientUnits="userSpaceOnUse">
<stop stop-color="#DEC28F"/>
<stop offset="1" stop-color="#B2925D"/>
</linearGradient>
<linearGradient id="paint134_linear_1_1235" x1="-29.4882" y1="41.0344" x2="77.9866" y2="154.549" gradientUnits="userSpaceOnUse">
<stop stop-color="#DEC28F"/>
<stop offset="1" stop-color="#B2925D"/>
</linearGradient>
<linearGradient id="paint135_linear_1_1235" x1="-27.56" y1="39.2146" x2="79.9108" y2="152.725" gradientUnits="userSpaceOnUse">
<stop stop-color="#DEC28F"/>
<stop offset="1" stop-color="#B2925D"/>
</linearGradient>
<linearGradient id="paint136_linear_1_1235" x1="-27.5599" y1="39.2146" x2="79.9109" y2="152.725" gradientUnits="userSpaceOnUse">
<stop stop-color="#DEC28F"/>
<stop offset="1" stop-color="#B2925D"/>
</linearGradient>
<linearGradient id="paint137_linear_1_1235" x1="-25.774" y1="37.5242" x2="81.6962" y2="151.035" gradientUnits="userSpaceOnUse">
<stop stop-color="#DEC28F"/>
<stop offset="1" stop-color="#B2925D"/>
</linearGradient>
<linearGradient id="paint138_linear_1_1235" x1="-25.7739" y1="37.5242" x2="81.6963" y2="151.035" gradientUnits="userSpaceOnUse">
<stop stop-color="#DEC28F"/>
<stop offset="1" stop-color="#B2925D"/>
</linearGradient>
<linearGradient id="paint139_linear_1_1235" x1="-24.5137" y1="36.325" x2="82.9565" y2="149.841" gradientUnits="userSpaceOnUse">
<stop stop-color="#DEC28F"/>
<stop offset="1" stop-color="#B2925D"/>
</linearGradient>
<linearGradient id="paint140_linear_1_1235" x1="-24.5132" y1="36.325" x2="82.957" y2="149.84" gradientUnits="userSpaceOnUse">
<stop stop-color="#DEC28F"/>
<stop offset="1" stop-color="#B2925D"/>
</linearGradient>
<linearGradient id="paint141_linear_1_1235" x1="-23.6663" y1="35.5256" x2="83.8086" y2="149.036" gradientUnits="userSpaceOnUse">
<stop stop-color="#DEC28F"/>
<stop offset="1" stop-color="#B2925D"/>
</linearGradient>
<linearGradient id="paint142_linear_1_1235" x1="-23.6938" y1="35.5485" x2="83.7765" y2="149.063" gradientUnits="userSpaceOnUse">
<stop stop-color="#DEC28F"/>
<stop offset="1" stop-color="#B2925D"/>
</linearGradient>
<linearGradient id="paint143_linear_1_1235" x1="-22.1977" y1="34.1333" x2="85.2773" y2="147.648" gradientUnits="userSpaceOnUse">
<stop stop-color="#DEC28F"/>
<stop offset="1" stop-color="#B2925D"/>
</linearGradient>
<linearGradient id="paint144_linear_1_1235" x1="-22.1976" y1="34.1334" x2="85.2772" y2="147.648" gradientUnits="userSpaceOnUse">
<stop stop-color="#DEC28F"/>
<stop offset="1" stop-color="#B2925D"/>
</linearGradient>
<linearGradient id="paint145_linear_1_1235" x1="-19.7813" y1="31.8494" x2="87.6896" y2="145.364" gradientUnits="userSpaceOnUse">
<stop stop-color="#DEC28F"/>
<stop offset="1" stop-color="#B2925D"/>
</linearGradient>
<linearGradient id="paint146_linear_1_1235" x1="-19.7812" y1="31.8499" x2="87.689" y2="145.365" gradientUnits="userSpaceOnUse">
<stop stop-color="#DEC28F"/>
<stop offset="1" stop-color="#B2925D"/>
</linearGradient>
<linearGradient id="paint147_linear_1_1235" x1="-18.2028" y1="30.3521" x2="89.272" y2="143.867" gradientUnits="userSpaceOnUse">
<stop stop-color="#DEC28F"/>
<stop offset="1" stop-color="#B2925D"/>
</linearGradient>
<linearGradient id="paint148_linear_1_1235" x1="-18.2028" y1="30.3521" x2="89.2721" y2="143.867" gradientUnits="userSpaceOnUse">
<stop stop-color="#DEC28F"/>
<stop offset="1" stop-color="#B2925D"/>
</linearGradient>
<linearGradient id="paint149_linear_1_1235" x1="-16.4126" y1="28.6609" x2="91.0581" y2="142.171" gradientUnits="userSpaceOnUse">
<stop stop-color="#DEC28F"/>
<stop offset="1" stop-color="#B2925D"/>
</linearGradient>
<linearGradient id="paint150_linear_1_1235" x1="-16.4124" y1="28.6562" x2="91.0583" y2="142.171" gradientUnits="userSpaceOnUse">
<stop stop-color="#DEC28F"/>
<stop offset="1" stop-color="#B2925D"/>
</linearGradient>
<linearGradient id="paint151_linear_1_1235" x1="-15.2502" y1="27.5586" x2="92.2202" y2="141.071" gradientUnits="userSpaceOnUse">
<stop stop-color="#DEC28F"/>
<stop offset="1" stop-color="#B2925D"/>
</linearGradient>
<linearGradient id="paint152_linear_1_1235" x1="-15.2515" y1="27.5586" x2="92.2188" y2="141.072" gradientUnits="userSpaceOnUse">
<stop stop-color="#DEC28F"/>
<stop offset="1" stop-color="#B2925D"/>
</linearGradient>
<linearGradient id="paint153_linear_1_1235" x1="-13.9914" y1="26.364" x2="93.4835" y2="139.879" gradientUnits="userSpaceOnUse">
<stop stop-color="#DEC28F"/>
<stop offset="1" stop-color="#B2925D"/>
</linearGradient>
<linearGradient id="paint154_linear_1_1235" x1="-13.9913" y1="26.364" x2="93.4789" y2="139.879" gradientUnits="userSpaceOnUse">
<stop stop-color="#DEC28F"/>
<stop offset="1" stop-color="#B2925D"/>
</linearGradient>
<linearGradient id="paint155_linear_1_1235" x1="-12.3252" y1="24.7876" x2="95.1456" y2="138.302" gradientUnits="userSpaceOnUse">
<stop stop-color="#DEC28F"/>
<stop offset="1" stop-color="#B2925D"/>
</linearGradient>
<linearGradient id="paint156_linear_1_1235" x1="-12.3252" y1="24.7881" x2="95.1451" y2="138.303" gradientUnits="userSpaceOnUse">
<stop stop-color="#DEC28F"/>
<stop offset="1" stop-color="#B2925D"/>
</linearGradient>
<linearGradient id="paint157_linear_1_1235" x1="-10.8391" y1="23.3816" x2="96.6318" y2="136.897" gradientUnits="userSpaceOnUse">
<stop stop-color="#DEC28F"/>
<stop offset="1" stop-color="#B2925D"/>
</linearGradient>
<linearGradient id="paint158_linear_1_1235" x1="-10.8391" y1="23.3822" x2="96.6312" y2="136.897" gradientUnits="userSpaceOnUse">
<stop stop-color="#DEC28F"/>
<stop offset="1" stop-color="#B2925D"/>
</linearGradient>
<linearGradient id="paint159_linear_1_1235" x1="-9.42143" y1="22.0406" x2="98.0488" y2="135.556" gradientUnits="userSpaceOnUse">
<stop stop-color="#DEC28F"/>
<stop offset="1" stop-color="#B2925D"/>
</linearGradient>
<linearGradient id="paint160_linear_1_1235" x1="-9.43977" y1="22.0541" x2="98.0307" y2="135.569" gradientUnits="userSpaceOnUse">
<stop stop-color="#DEC28F"/>
<stop offset="1" stop-color="#B2925D"/>
</linearGradient>
<linearGradient id="paint161_linear_1_1235" x1="-8.17964" y1="20.8598" x2="99.2951" y2="134.376" gradientUnits="userSpaceOnUse">
<stop stop-color="#DEC28F"/>
<stop offset="1" stop-color="#B2925D"/>
</linearGradient>
<linearGradient id="paint162_linear_1_1235" x1="-8.17909" y1="20.8597" x2="99.2957" y2="134.375" gradientUnits="userSpaceOnUse">
<stop stop-color="#DEC28F"/>
<stop offset="1" stop-color="#B2925D"/>
</linearGradient>
<linearGradient id="paint163_linear_1_1235" x1="-6.91311" y1="19.6652" x2="100.557" y2="133.18" gradientUnits="userSpaceOnUse">
<stop stop-color="#DEC28F"/>
<stop offset="1" stop-color="#B2925D"/>
</linearGradient>
<linearGradient id="paint164_linear_1_1235" x1="-6.91303" y1="19.6652" x2="100.557" y2="133.18" gradientUnits="userSpaceOnUse">
<stop stop-color="#DEC28F"/>
<stop offset="1" stop-color="#B2925D"/>
</linearGradient>
<linearGradient id="paint165_linear_1_1235" x1="-5.12733" y1="17.9739" x2="102.343" y2="131.489" gradientUnits="userSpaceOnUse">
<stop stop-color="#DEC28F"/>
<stop offset="1" stop-color="#B2925D"/>
</linearGradient>
<linearGradient id="paint166_linear_1_1235" x1="-5.12711" y1="17.9739" x2="102.344" y2="131.484" gradientUnits="userSpaceOnUse">
<stop stop-color="#DEC28F"/>
<stop offset="1" stop-color="#B2925D"/>
</linearGradient>
<linearGradient id="paint167_linear_1_1235" x1="-44.7641" y1="55.4861" x2="62.727" y2="169.002" gradientUnits="userSpaceOnUse">
<stop stop-color="#DEC28F"/>
<stop offset="1" stop-color="#B2925D"/>
</linearGradient>
<linearGradient id="paint168_linear_1_1235" x1="0.745518" y1="12.3951" x2="108.237" y2="125.907" gradientUnits="userSpaceOnUse">
<stop stop-color="#DEC28F"/>
<stop offset="1" stop-color="#B2925D"/>
</linearGradient>
<linearGradient id="paint169_linear_1_1235" x1="-23.3348" y1="35.1985" x2="84.1609" y2="148.715" gradientUnits="userSpaceOnUse">
<stop stop-color="#DEC28F"/>
<stop offset="1" stop-color="#B2925D"/>
</linearGradient>
<linearGradient id="paint170_linear_1_1235" x1="10.3879" y1="3.26967" x2="117.879" y2="116.786" gradientUnits="userSpaceOnUse">
<stop stop-color="#DEC28F"/>
<stop offset="1" stop-color="#B2925D"/>
</linearGradient>
</defs>
</svg>
