<?xml version="1.0" encoding="UTF-8"?><svg id="Layer_2" xmlns="http://www.w3.org/2000/svg" viewBox="0 0 276.15 276.15"><defs><style>.cls-1{fill:#050509;}</style></defs><g><path class="cls-1" d="M114.21,132.1l-7.08-10.81s-.78-1.32-2.42-1.32v-.46h19.1v6.94h-.5c-.75-4.87-4.41-6.44-7.43-6.44h-5.34l6.62,10.21c.5-.78,.82-1.92,.82-2.92h.57v10.17h-.57c0-2.67-1.85-4.8-4.87-4.8h-1.57v9.78c0,2.31,1.89,2.6,3.49,2.6v.46h-10.31v-.46c1.28,0,3.09-.5,3.09-2.63v-10.31h6.4Z"/><g><polygon class="cls-1" points="106.63 84.59 106.64 81.19 104.01 82.48 106.63 84.59"/><polygon class="cls-1" points="102.74 85.27 103.68 87.58 106.32 85.18 102.74 85.27"/><polygon class="cls-1" points="106.73 86.19 106.66 85.37 104.68 87.18 106.73 86.19"/><polygon class="cls-1" points="103.74 82.74 102.76 84.9 106.3 84.81 103.74 82.74"/><polygon class="cls-1" points="108.2 87.36 107.06 88.71 108.48 88.28 108.2 87.36"/><polygon class="cls-1" points="107.07 86.58 106.79 88.44 107.98 87.04 107.07 86.58"/><polygon class="cls-1" points="104.07 87.89 106.36 88.81 106.69 86.62 104.07 87.89"/><polygon class="cls-1" points="108.52 87.12 108.78 87.97 109.41 86.98 108.52 87.12"/><polygon class="cls-1" points="109.83 83.97 109.9 81.89 108.41 83.86 109.83 83.97"/><polygon class="cls-1" points="110.28 81.67 110.21 83.9 112.3 83.2 110.28 81.67"/><polygon class="cls-1" points="109.76 81.45 107.11 81.12 108.1 83.65 109.76 81.45"/><polygon class="cls-1" points="112.76 86.91 114.1 86.91 113.9 85.94 112.76 86.91"/><polygon class="cls-1" points="107.01 81.88 107 84.6 107.82 83.96 107.01 81.88"/><polygon class="cls-1" points="112.11 85.76 112.36 86.76 113.52 85.78 112.11 85.76"/><polygon class="cls-1" points="113.7 85.41 112.74 83.71 112.13 85.39 113.7 85.41"/><polygon class="cls-1" points="111.78 85.27 112.39 83.56 110.41 84.23 111.78 85.27"/><polygon class="cls-1" points="112.73 87.28 113.46 87.96 113.96 87.28 112.73 87.28"/><polygon class="cls-1" points="114.14 88.87 114.14 87.67 113.72 88.25 114.14 88.87"/><polygon class="cls-1" points="114.34 98.13 114.34 95.36 112.3 94.6 114.34 98.13"/><polygon class="cls-1" points="114.34 94.96 114.34 91.52 112.18 94.16 114.34 94.96"/><polygon class="cls-1" points="114.71 95.36 114.71 98.13 116.75 94.6 114.71 95.36"/><polygon class="cls-1" points="114.71 91.52 114.71 94.96 116.86 94.16 114.71 91.52"/><polygon class="cls-1" points="108.59 90.92 109.41 91.89 110 90.54 108.59 90.92"/><polygon class="cls-1" points="109.97 90.1 109.35 88.69 108.58 89.43 109.97 90.1"/><polygon class="cls-1" points="110.37 89.82 109.85 89.21 110.23 90.07 110.37 89.82"/><polygon class="cls-1" points="108.49 89.67 108.49 90.68 109.86 90.32 108.49 89.67"/><polygon class="cls-1" points="111.29 89.52 111.52 89.25 111.11 88.89 111.29 89.52"/><polygon class="cls-1" points="110.87 88.98 110.69 89.67 111.07 89.65 110.87 88.98"/><polygon class="cls-1" points="110.71 88.64 109.67 88.61 110.46 89.54 110.71 88.64"/><polygon class="cls-1" points="111.62 89.52 111.42 89.74 111.68 89.91 111.62 89.52"/><polygon class="cls-1" points="110.74 91.2 110.97 92.16 111.28 91.39 110.74 91.2"/><polygon class="cls-1" points="111.49 91.53 111.14 92.4 112.17 92.16 111.49 91.53"/><polygon class="cls-1" points="109.68 92.06 110.77 92.39 110.5 91.25 109.68 92.06"/><polygon class="cls-1" points="113.47 91.22 113.68 90.93 113.24 90.73 113.47 91.22"/><polygon class="cls-1" points="110.42 90.98 110.23 90.63 109.82 91.57 110.42 90.98"/><polygon class="cls-1" points="112.71 91.01 113.2 91.22 112.95 90.71 112.71 91.01"/><polygon class="cls-1" points="112.58 91.96 113.21 91.5 112.63 91.25 112.58 91.96"/><polygon class="cls-1" points="112.33 91.96 112.38 91.22 111.7 91.38 112.33 91.96"/><polygon class="cls-1" points="113.64 90.38 113.32 90.49 113.7 90.66 113.64 90.38"/><polygon class="cls-1" points="114.05 90.17 113.87 90.28 113.91 90.48 114.05 90.17"/><polygon class="cls-1" points="119.64 91.89 120.45 90.92 119.05 90.54 119.64 91.89"/><polygon class="cls-1" points="119.7 88.69 119.08 90.1 120.47 89.43 119.7 88.69"/><polygon class="cls-1" points="118.68 89.82 118.82 90.07 119.2 89.21 118.68 89.82"/><polygon class="cls-1" points="120.55 90.68 120.56 89.67 119.19 90.32 120.55 90.68"/><polygon class="cls-1" points="117.94 88.89 117.52 89.25 117.76 89.52 117.94 88.89"/><polygon class="cls-1" points="118.17 88.98 117.98 89.65 118.36 89.67 118.17 88.98"/><polygon class="cls-1" points="119.38 88.61 118.34 88.64 118.58 89.54 119.38 88.61"/><polygon class="cls-1" points="117.37 89.91 117.63 89.74 117.43 89.52 117.37 89.91"/><polygon class="cls-1" points="117.76 91.39 118.08 92.16 118.3 91.2 117.76 91.39"/><polygon class="cls-1" points="116.87 92.16 117.9 92.4 117.55 91.53 116.87 92.16"/><polygon class="cls-1" points="118.28 92.39 119.37 92.06 118.55 91.25 118.28 92.39"/><polygon class="cls-1" points="115.81 90.73 115.36 90.93 115.57 91.22 115.81 90.73"/><polygon class="cls-1" points="119.23 91.57 118.82 90.63 118.63 90.98 119.23 91.57"/><polygon class="cls-1" points="115.85 91.22 116.33 91.01 116.09 90.71 115.85 91.22"/><polygon class="cls-1" points="116.47 91.96 116.42 91.25 115.84 91.5 116.47 91.96"/><polygon class="cls-1" points="117.34 91.38 116.67 91.22 116.72 91.96 117.34 91.38"/><polygon class="cls-1" points="115.41 90.38 115.35 90.66 115.73 90.49 115.41 90.38"/><polygon class="cls-1" points="115.17 90.28 114.99 90.17 115.13 90.48 115.17 90.28"/><polygon class="cls-1" points="125.03 82.48 122.41 81.19 122.42 84.59 125.03 82.48"/><polygon class="cls-1" points="122.73 85.18 125.37 87.58 126.3 85.27 122.73 85.18"/><polygon class="cls-1" points="122.39 85.37 122.32 86.19 124.37 87.18 122.39 85.37"/><polygon class="cls-1" points="126.28 84.9 125.31 82.74 122.74 84.81 126.28 84.9"/><polygon class="cls-1" points="121.99 88.71 120.85 87.36 120.56 88.28 121.99 88.71"/><polygon class="cls-1" points="121.07 87.04 122.25 88.44 121.97 86.58 121.07 87.04"/><polygon class="cls-1" points="122.69 88.81 124.98 87.89 122.36 86.62 122.69 88.81"/><polygon class="cls-1" points="119.63 86.98 120.27 87.97 120.53 87.12 119.63 86.98"/><polygon class="cls-1" points="120.64 83.86 119.14 81.89 119.21 83.97 120.64 83.86"/><polygon class="cls-1" points="118.84 83.9 118.76 81.67 116.74 83.2 118.84 83.9"/><polygon class="cls-1" points="119.28 81.45 120.94 83.65 121.93 81.12 119.28 81.45"/><polygon class="cls-1" points="115.14 85.94 114.94 86.91 116.28 86.91 115.14 85.94"/><polygon class="cls-1" points="122.04 84.6 122.04 81.88 121.22 83.96 122.04 84.6"/><polygon class="cls-1" points="115.53 85.78 116.68 86.76 116.94 85.76 115.53 85.78"/><polygon class="cls-1" points="116.31 83.71 115.35 85.41 116.91 85.39 116.31 83.71"/><polygon class="cls-1" points="116.66 83.56 117.27 85.27 118.64 84.23 116.66 83.56"/><polygon class="cls-1" points="115.08 87.28 115.58 87.96 116.32 87.28 115.08 87.28"/><polygon class="cls-1" points="114.9 87.67 114.9 88.87 115.33 88.25 114.9 87.67"/><polygon class="cls-1" points="114.34 84.66 114.34 76.45 110.99 75.41 114.34 84.66"/><polygon class="cls-1" points="114.71 76.45 114.71 84.66 118.06 75.41 114.71 76.45"/><path class="cls-1" d="M114.34,76.06v-2.9c-1.37,.06-2.59,.73-3.36,1.86l3.36,1.05Z"/><path class="cls-1" d="M114.71,73.16v2.9l3.36-1.05c-.78-1.13-1.99-1.8-3.36-1.86Z"/></g><g id="logo_BG_White"><g id="_2"><path class="cls-1" d="M160.09,140.68c-.1-1.06-1.38-1.81-2.69-2.4-.81-.37-1.63-.67-2.18-.95-.15-.08-.31-.16-.47-.24-1.67-.84-4.01-2.02-5.35-3.6-1.7-2.01-1.5-3.88,.36-3.13-1.19-.65-1.81-.38-2,.29-.45,1.59,1.17,3.6,2.28,4.61,1.65,1.49,3.27,2.18,4.99,2.87,.21,.09,.43,.17,.64,.26,.4,.16,.8,.33,1.21,.51,.81,.35,2.36,.98,2.55,1.9,.19,.88-.99,1.43-1.6,.7,.78,1.22,2.36,.43,2.25-.82Z"/><path class="cls-1" d="M173.17,130.65c-.19-.67-.81-.94-2-.29,1.86-.75,2.06,1.12,.36,3.13-1.34,1.58-3.69,2.77-5.36,3.61-.16,.08-.32,.16-.46,.23-.54,.28-1.36,.58-2.17,.94-1.31,.59-2.6,1.34-2.7,2.41-.11,1.25,1.46,2.04,2.24,.82-.6,.73-1.79,.18-1.6-.7,.2-.93,1.75-1.55,2.55-1.9,.41-.18,.82-.35,1.21-.51,.21-.09,.42-.17,.63-.26,1.72-.7,3.34-1.39,5-2.88,1.12-1.01,2.73-3.02,2.28-4.61Z"/></g><g id="_1"><path class="cls-1" d="M157.56,137.98c-.1-.05-.2-.11-.29-.16-.93-.52-1.76-1.01-2.49-1.48-.1-.06-.19-.12-.28-.18-5.95-3.89-5.11-5.88-3.54-4.94-1.72-2.05-4.91,.99,3.69,5.48,.79,.41,1.67,.83,2.67,1.27,.33,.14,.67,.29,1.03,.43-.27-.14-.52-.28-.77-.42Z"/><path class="cls-1" d="M169.98,131.21c1.58-.94,2.42,1.06-3.55,4.95-.09,.06-.19,.12-.28,.18-.72,.46-1.54,.95-2.47,1.47-.1,.05-.2,.11-.29,.16-.25,.14-.51,.28-.78,.42,.36-.15,.7-.29,1.04-.44,.99-.43,1.86-.85,2.65-1.26,8.61-4.49,5.41-7.54,3.69-5.49Z"/></g><g id="WH"><g id="_2-2"><polygon class="cls-1" points="156.95 122.9 154.89 122.9 154.89 127.47 156.95 134.56 156.95 122.9"/><polygon class="cls-1" points="166.04 122.9 163.98 122.9 163.98 134.56 166.04 127.47 166.04 122.9"/></g><g id="_1-2"><path class="cls-1" d="M156.95,135.53l-2.05-7.09-1.61-5.54h-2.06l3.55,13.1s.08,.05,.12,.08c.2,.13,.41,.25,.62,.38,.54,.33,1.12,.67,1.75,1.02,.1,.05,.2,.11,.29,.16l-.61-2.11Z"/><path class="cls-1" d="M167.65,122.9l-1.62,5.57-2.05,7.09-.6,2.07c.1-.05,.2-.11,.29-.16,.92-.51,1.74-1,2.47-1.47l3.55-13.1h-2.05Z"/></g></g><g id="Boule"><path class="cls-1" d="M159.05,128.19c.23-.23,.3-.26,.4-.15,.07,.07,.23,.03,.35-.09,.21-.2,.28-.23,.47-.06,.11,.1,.29,.1,.39,0,.04-.04,.06-.09,.07-.14,0,0,0,0,0,0,0,0,0,0,0,0,0,0,0-.01,0-.02,0,0,0,0,0,0,0,0,0-.02,0-.03,0,0,0,0,0,0,0,0,0-.02,0-.02,0,0,0,0,0,0,0,0,0-.01,0-.02,0,0,0,0,0,0,0,0,0-.01,0-.02,0,0,0,0,0,0,0,0,0,0,0-.01,0,0,0,0,0,0,0,0,0-.01-.01-.02,0,0,0,0,0,0,0,0-.01-.01-.02-.02-.03-.03-.06-.05-.1-.06-.08-.02-.16-.01-.22,.04,0,0-.02,.01-.03,.02-.02,.02-.04,.04-.06,.05-.17,.14-.24,.13-.36,.02,0,0-.02-.01-.03-.02,0,0,0,0-.01,0,0,0-.01,0-.02,0,0,0-.01,0-.02,0,0,0-.01,0-.02,0,0,0-.01,0-.02,0,0,0-.01,0-.02,0,0,0-.01,0-.02,0,0,0-.01,0-.02,0,0,0-.01,0-.02,.01,0,0-.02,0-.02,.01,0,0-.01,0-.02,.01,0,0-.02,.01-.02,.02,0,0-.01,.01-.02,.02,0,0-.01,.01-.02,.02,0,0,0,0,0,0,0,0,0,0,0,0-.21,.21-.28,.25-.36,.18-.02-.02-.13,.07-.25,.19-.12,.12-.21,.22-.19,.25,.03,.03,.16-.03,.28-.16Z"/><path class="cls-1" d="M158.9,130.64c.07-.07,.03-.23-.09-.35-.06-.06-.12-.09-.18-.11,0,0,0,0,0,0,0,0,0,0,0,0,0,0-.02,0-.03,0,0,0-.01,0-.02,0,0,0-.02,0-.03,0,0,0,0,0-.01,0,0,0-.02,0-.02,0,0,0,0,0-.01,0-.01,0-.02,.01-.03,.02-.01,.01-.02,.03-.02,.04-.02,.07,.03,.18,.13,.27,0,0,0,0,0,0,.22,.22,.22,.31,.18,.35-.04,.05,.07,.13,.19,.25,.12,.12,.23,.21,.25,.19,.03-.03-.03-.16-.16-.29-.23-.23-.26-.3-.15-.4Z"/><path class="cls-1" d="M158.75,129.81c.09-.1,.1-.29,0-.39-.16-.18-.15-.26,.06-.47,.22-.23,.3-.24,.47-.07,.1,.1,.28,.09,.41-.04,.23-.23,.33-.24,.55-.03,.12,.12,.34,.12,.46,0,.05-.04,.07-.1,.08-.15,0,0,0,0,0,0,0,0,0,0,0,0,0-.01,0-.02,0-.03,0,0,0,0,0,0,0,0,0-.02,0-.03,0,0,0,0,0-.01,0,0,0-.02,0-.02,0,0,0,0,0-.01,0-.01,0-.02,0-.03,0,0,0,0,0,0,0-.01,0-.02-.01-.03,0,0,0,0,0,0,0,0,0-.01-.01-.02,0,0,0,0,0-.01,0,0,0-.01-.01-.02,0,0,0,0,0,0,0,0-.02-.02-.02-.03,0,0-.02-.01-.02-.02-.02-.01-.03-.02-.05-.03,0,0-.02,0-.03-.01-.08-.03-.17-.03-.25,0-.03,.01-.06,.03-.08,.06-.01,.01-.03,.03-.04,.04,0,0,0,0-.01,.01-.17,.15-.26,.17-.4,.06,0,0-.02-.01-.02-.02,0,0,0,0-.01,0-.01-.01-.02-.02-.03-.03,0,0,0,0,0,0-.05-.05-.11-.06-.18-.05-.01,0-.02,0-.04,0-.01,0-.02,0-.03,.01-.05,.02-.09,.05-.14,.09-.04,.04-.07,.07-.1,.1-.11,.1-.18,.12-.26,.08-.03-.01-.05-.04-.08-.07-.06-.06-.2,0-.32,.11-.12,.12-.16,.25-.11,.32,.13,.14,.12,.22-.07,.42-.09,.1-.1,.25,0,.35,.1,.1,.25,.12,.35,.02Z"/><path class="cls-1" d="M161.32,131.17s0,0,0,0c0,0-.02,0-.02,0,0,0-.02,0-.02,0,0,0-.02,0-.03,.01,0,0-.01,0-.02,.01-.01,0-.02,.01-.03,.02,0,0-.01,0-.02,.01-.02,.01-.03,.03-.05,.04-.14,.14-.22,.19-.31,.16-.02,0-.04-.02-.07-.03,0,0-.01,0-.02-.01,0,0,0,0-.01,0,0,0,0,0,0,0-.02-.01-.03-.03-.05-.05-.02-.02-.05-.04-.08-.05,0,0,0,0-.01,0-.1-.04-.22-.02-.3,.06-.17,.16-.26,.15-.47-.06-.03-.03-.06-.05-.1-.07-.08-.05-.17-.06-.22-.03-.01,0-.02,.01-.03,.02-.02,.01-.02,.03-.03,.06,0,0,0,0,0,0h0s0,.06,.02,.09c.02,.05,.07,.11,.12,.17h0s0,0,0,0c.12,.11,.25,.16,.31,.1,.14-.13,.22-.12,.42,.07,.1,.09,.25,.09,.35,0,.2-.19,.28-.2,.42-.07,.06,.06,.2,.01,.31-.1,.12-.12,.18-.25,.11-.32-.03-.03-.09-.04-.16-.03Z"/><path class="cls-1" d="M162.52,129.44c-.14-.15-.18-.23-.14-.32,0,0,0,0,0-.01,0,0,0,0,0,0,0,0,0-.01,.01-.02,0,0,0,0,0,0,0,0,0-.01,.01-.02,0,0,0,0,0,0,0,0,.02-.02,.02-.03,.02-.02,.02-.04,.03-.06,0-.02,0-.04,0-.06,0-.02-.01-.04-.02-.06,0,0,0,0,0,0-.02-.04-.06-.09-.1-.13-.02-.02-.04-.04-.07-.06-.02-.01-.03-.02-.05-.03-.02-.01-.04-.02-.05-.03-.06-.03-.12-.03-.15,0,0,0-.01,.02-.02,.03,0,0,0,0,0,.01,0,0,0,.02,0,.03,0,0,0,0,0,0,0,0,0,0,0,0-.01,.08,.03,.2,.12,.28,.21,.22,.19,.33,.06,.47s-.1,.29,0,.39c.1,.1,.25,.08,.35-.02,.1-.1,.09-.25,0-.35Z"/><path class="cls-1" d="M159.27,130.66s0,0,0,.01c0,0,0,0,0,0,0,.01,.02,.03,.03,.04,0,.01,.02,.02,.03,.03,.01,.01,.03,.03,.04,.04,0,0,0,0,0,0,0,0,0,0,0,0,0,0,.01,0,.02,.01,0,0,0,0,0,0,0,0,.01,0,.02,.01,0,0,0,0,0,0,.03,.01,.05,.02,.08,.03,0,0,0,0,0,0,.01,0,.02,0,.03,0,.01,0,.03,0,.04,0,0,0,0,0,0,0,.05,0,.1-.02,.13-.05,.19-.19,.29-.18,.52,.04,.12,.12,.31,.12,.43,0,.12-.12,.13-.31,.01-.43-.12-.12-.33-.12-.46,0-.22,.21-.32,.21-.55-.03-.23-.23-.24-.33-.03-.55,.12-.12,.12-.33,0-.46-.03-.03-.07-.05-.1-.07,0,0,0,0,0,0,0,0,0,0,0,0-.01,0-.02,0-.03,0,0,0,0,0,0,0-.01,0-.03,0-.04,0,0,0,0,0,0,0-.01,0-.02,0-.04,0,0,0,0,0,0,0-.01,0-.03,0-.04,0,0,0,0,0,0,0-.01,0-.02,0-.03,.01,0,0,0,0,0,0-.01,0-.02,.01-.04,.02,0,0,0,0,0,0-.01,0-.02,.01-.03,.02,0,0,0,0,0,0-.01,0-.02,.02-.03,.03,0,0-.01,.02-.02,.02-.08,.1-.09,.23-.03,.34,.01,.03,.03,.05,.05,.07,.01,.01,.03,.03,.04,.04,0,0,0,0,.01,.01,0,0,.02,.02,.02,.03,0,0,0,0,.01,.01,0,0,.01,.02,.02,.02,0,0,0,0,.01,.01,0,0,0,.01,.01,.02,.08,.13,.05,.22-.09,.37-.07,.07-.07,.19-.01,.29,0,0,0,0,0,0,0,0,0,0,0,.01Z"/><path class="cls-1" d="M161.24,128.38s-.02,.03-.04,.04c-.02,.01-.03,.03-.04,.05-.04,.06-.05,.13-.03,.19,0,0,0,.02,0,.03,.02,.05,.06,.1,.1,.15,0,0,0,0,0,0,.01,.01,.03,.03,.04,.04,0,0,0,0,.01,0,.01,0,.03,.02,.04,.02,0,0,0,0,0,0,.02,0,.03,.01,.05,.02,0,0,0,0,.01,0,.01,0,.03,0,.04,0,0,0,0,0,.01,0,.02,0,.03,0,.05,0,0,0,0,0,0,0,0,0,.02,0,.03,0,0,0,0,0,0,0,.04,0,.08-.03,.11-.06,.1-.1,.06-.27-.06-.39-.23-.23-.25-.31-.11-.45,.1-.1,.17-.07,.4,.15,.12,.12,.26,.18,.28,.16,.03-.03-.07-.13-.19-.25-.12-.12-.23-.21-.25-.19-.07,.06-.14,.03-.36-.18-.02-.02-.03-.03-.05-.04,0,0,0,0,0,0-.01,0-.02-.02-.03-.03,0,0,0,0,0,0-.01,0-.03-.02-.04-.02,0,0,0,0-.01,0,0,0-.02,0-.03-.01,0,0,0,0-.01,0,0,0-.02,0-.02,0,0,0,0,0-.01,0,0,0-.01,0-.02,0,0,0,0,0-.01,0,0,0-.01,0-.02,0,0,0,0,0,0,0,0,0-.02,0-.03,.02-.07,.06-.04,.22,.07,.33,.2,.2,.21,.31,.11,.43Z"/><path class="cls-1" d="M160.63,129.33c-.08-.04-.17-.05-.26-.03-.05,.02-.1,.04-.14,.08,0,0,0,0,0,0,0,0-.02,.02-.03,.03,0,0,0,0,0,0,0,0-.01,.02-.02,.02,0,0,0,0,0,0,0,.01-.01,.02-.02,.04,0,0,0,0,0,0,0,.01,0,.02-.01,.04,0,0,0,0,0,.01,0,0,0,.02,0,.03,0,0,0,0,0,.01,0,.01,0,.03,0,.04,0,0,0,0,0,0,0,.01,0,.02,0,.04,0,0,0,0,0,.01,0,0,0,.02,0,.03,0,0,0,0,0,0,0,0,0,0,0,0,.01,.06,.04,.11,.09,.15,.13,.13,.34,.13,.47,0,.24-.24,.34-.24,.57,0,.12,.12,.31,.11,.42-.01,.04-.04,.07-.1,.08-.15,0,0,0,0,0,0,0,0,0,0,0,0,0,0,0,0,0,0,0-.02,0-.03,0-.05,0,0,0,0,0-.01,0-.02,0-.03,0-.05,0,0,0,0,0,0,0-.02,0-.03-.01-.04,0,0,0,0,0,0,0-.02-.01-.03-.02-.05,0,0,0,0,0,0-.01-.02-.02-.03-.03-.04-.02-.02-.05-.04-.07-.06-.04-.02-.09-.04-.14-.04-.08,0-.15,.03-.21,.09-.23,.23-.33,.23-.57,0-.02-.02-.05-.04-.07-.06Z"/><path class="cls-1" d="M162.48,130.28s0-.01,0-.02c0,0,0,0,0,0,0,0,0,0,0-.01,0,0,0,0,0,0,0,0,0,0,0-.01,0,0,0,0,0,0,0,0,0-.01-.01-.02,0,0-.02-.01-.03-.02,0,0,0,0,0,0,0,0-.02,0-.02,0,0,0,0,0,0,0-.01,0-.02,0-.04,0,0,0,0,0,0,0-.01,0-.02,0-.03,0,0,0,0,0-.01,0-.01,0-.02,0-.03,0,0,0,0,0,0,0-.01,0-.02,.01-.04,.02,0,0,0,0,0,0-.03,.02-.07,.04-.1,.07-.19,.19-.28,.23-.4,.13,0,0-.01-.01-.02-.02,0,0,0,0-.01,0-.01-.01-.02-.02-.03-.03-.1-.1-.28-.09-.41,.04-.13,.13-.14,.32-.04,.41,0,0,.01,.01,.02,.02,0,0,0,0,0,0,0,0,0,0,.01,0,0,0,0,0,0,0,0,0,0,0,.01,0,0,0,0,0,0,0,0,0,0,0,.01,0,0,0,0,0,.01,0,0,0,0,0,.01,0,0,0,0,0,.01,0,0,0,0,0,.01,0,0,0,0,0,.01,0,0,0,0,0,.01,0,0,0,0,0,.01,0,0,0,0,0,.01,0,0,0,0,0,0,0,0,0,0,0,0,0,.07-.01,.14-.05,.2-.11,.23-.23,.31-.25,.44-.11,.1,.11,.02,.23-.15,.4-.17,.17-.18,.26-.16,.29,.03,.03,.13-.07,.25-.19,.12-.12,.21-.23,.19-.26-.07-.07-.03-.14,.19-.36,.04-.04,.08-.09,.1-.14,0,0,0,0,0,0,0,0,0,0,0,0,0,0,0-.01,0-.02,0,0,0,0,0,0,0,0,0-.01,0-.02,0,0,0,0,0,0,0,0,0-.01,0-.02,0,0,0,0,0,0,0,0,0-.01,0-.02,0,0,0,0,0,0Z"/></g></g><path class="cls-1" d="M174.86,49.66c9.25,0,17.38,1.16,21.56,1.88-3.15,14.75-1.34,27.65,1.11,45.06,.77,5.49,1.57,11.16,2.32,17.59,3.19,27.35-25.87,44.68-39.84,53.01-10.2,6.08-17.22,11.68-21.68,17.34-4.46-5.66-11.48-11.26-21.68-17.34-13.97-8.33-43.03-25.66-39.84-53.01,.75-6.43,1.55-12.1,2.32-17.59,2.45-17.41,4.26-30.31,1.11-45.06,4.18-.72,12.31-1.88,21.56-1.88,14.89,0,26.61,2.85,34.84,8.48l1.69,1.16,1.69-1.16c8.23-5.63,19.95-8.48,34.84-8.48h0Zm-88.63,61.51h51.48v60.7l4.84-3.75c3.71-2.87,7.92-5.7,12.86-8.65,8.37-4.99,17.92-10.97,25.33-18.8,5.03-5.31,11.55-13.72,10.19-25.44-.09-.74-.17-1.48-.26-2.2l-.32-2.64h-51.38v-39.76l-1.31-.89-6.09-4.17c-6.61-4.52-16.9-6.91-29.76-6.91-2.67,0-5.46,.11-8.28,.31l-2.96,.22,.18,2.96c.71,11.46-.88,22.69-2.71,35.71-.44,3.13-.91,6.48-1.36,9.92l-.45,3.39h0ZM174.86,46.66c-12.08,0-26.15,1.9-36.54,9.01h0c-10.39-7.11-24.45-9.01-36.54-9.01-13.91,0-25.19,2.52-25.19,2.52,5.15,20.06,.55,36.14-2.77,64.67-3.33,28.53,25.28,46.39,41.29,55.94,13.7,8.17,20.03,14.64,23.22,20.04,3.18-5.4,9.52-11.87,23.22-20.04,16.01-9.55,44.61-27.41,41.29-55.94-3.33-28.53-7.92-44.61-2.77-64.67,0,0-11.28-2.52-25.19-2.52h0Zm-85.21,61.51c.45-3.43,.91-6.7,1.36-9.89,1.86-13.23,3.45-24.55,2.73-36.31,2.5-.18,5.22-.31,8.06-.31,12.25,0,21.96,2.21,28.07,6.39l6.09,4.17v35.95h-46.3Zm51.06,57.59v-52.36h46.97c.09,.72,.17,1.45,.26,2.19,1.22,10.47-4.77,18.16-9.38,23.03-7.15,7.55-16.49,13.39-24.69,18.28-5.01,2.99-9.37,5.92-13.16,8.85h0Z"/><g><g><path class="cls-1" d="M161.19,73.77c-3.02-2.29-.19,6.54,3.15,7.63-2.91-2.35-3.78-5.92-3.69-6.95,.63,.21,1.06,.7,1.69,2.09-1.08-3.74,.85-5.97,2.32-7.44-2.91,1.48-3.29,4.63-3.47,4.67Z"/><path class="cls-1" d="M173.23,71.05c-.33-.58,4.99-1.84,5.99-2.47-4.42,.15-8.06-.39-8.06-.39-.12-.05-1.04-1.01-1.67-1.22-.03-.56,.28-1.2-1.04-.49-7.09-.91-13.5,4.3-12.29,12.43,.14,.74,.21,.42,.14,1.88-.07,1.46,.83,3.42,1.52,4.17,.64,.7,.55,.95,.62,1.47,.07,.52,1.17,2.86,2.87,3.17,.02,.16,.29,.85,.81,1.1,.06,1.03,.56,1.23,.78,1.23,0,0,.08,.34,.28,.73-5.2-.37-7.22,6.71-2.75,9.18,3.85,1.96,8.53,.19,9.94-4.93,.58-2.33,.64-5.47-1.24-7.11-.09-.53-.47-2.7-.41-3.27,.14-1.08,.24-3.07-.61-4.3-2.22-3.2-2.1-3.73-1.71-3.34,1.81,1.79,3.1,1.81,3.22,4.19,.1,1.92,1.38,1.8,2.27,1.21s.79-.25,1.37-.54c1.2-.58,1.71-1.06,1.48-1.86-2.96-5.64,.86-5.04-1.5-10.85Zm-10.46,30.83c-2.37,0-4.29-1.92-4.29-4.29s1.92-4.29,4.29-4.29,4.29,1.92,4.29,4.29-1.92,4.29-4.29,4.29Zm6.8-10.47c1.45,3.65,.23,8.84-4.29,10.39,3.84-2.15,2.73-8.37-1.63-9.05-.24-.39-.47-.98-.45-1.09-.23-.05-.63-.26-.7-.81,1.7,.72,5.36-.07,6.7,2.58-1.51-4.23-7.01-1.4-7.42-3.83,1.67,.93,4.83,.53,4.69,.42-2.51-.12-6.27-.42-7.13-2.95,2.52,3.19,8.71,.78,10.23,4.35Zm-.87-1.84c-2.84-1.59-7.95-.33-9.34-3.32,1.72,.96,3.64,1.2,4.44,1.18-4.6-1.11-5.56-2.56-5.9-3-.35-.44-.37-1.81,.7-.89,1.99,1.46,4.46,1.92,4.46,1.92,0,0-1.24-.61-.71-.73,.52-.12,2.25,.68,3.41,1.52-.86-2.06-9.3-3.47-9.02-5.85,2.9,3.16,7.77,2.52,11.3,7.16,.09,.11,.71,.88,.67,2.02Zm5.43-7.21c-.33,.73-1.39,1.1-1.67,1.01-.28-.09-.66-.98-.66-.98,0,0-.07,.16-.23,.26-.16,.1,.47,.8,.52,.93-.27,.26-1.69,.97-1.95,.23,0,0-.14-1.22-.29-1.81-.21-.84-1.02-1.51-1.02-1.51-3.36-2.86-3.41-4.72-2.8-7.3-1.87,2.29-1.14,5.85,.82,8.08,1.36,1.85,1.46,2.93,.63,4.41,.16,.12,.57-.16,.78-.89,0,0,.22,.71-.09,2.06-4.95-5.38-12.26-5.33-10.99-12.63-.54,1.51-.87,6.09,4.77,8.67-5.3-1.47-6.31-5.44-4.99-9.15,1.34-3.78,4.81-6.41,8.8-6.8,1.14-.11,1.91-.04,1.91-.04-.44,.35-1.78,1.34-2.28,1.67,.3,.17,2.33-1.2,2.49-1.32s.52-.49,.37,0c-.16,.49-.54,2.49-.56,2.65-.02,.16,.71-1.55,.92-1.62,.21-.07,.1,1.2,.21,1.15,.1-.05,.42-1.99,.52-2.04,.1-.05,1.08,.7,1.53,1.2,.17,.19,2.63,.3,6.1,.37-1.24,.31-3.19,.93-4.41,1.5-.7,.32,.42,.74,.91,3.15,.23,1.13-.12,2.68-.42,2.94-.14,3.87,1.41,5.07,1.08,5.8Z"/><path class="cls-1" d="M163.82,76.82c-.25,.07-.33-.37-.33-.37-.35,2.31,1.84,4.18,1.99,5.38-.04,.96-1.71,.1-3.16-1.38,3.33,5.03,5.42,3.16,3.32,.31-1.35-1.82-1.46-3-1.46-3,0,0,.5,.67,.9,1.03-1.93-3.41-.42-6.23,.12-7.1-1.64,1.74-1.65,4.01-1.38,5.12Z"/><path class="cls-1" d="M158.32,75.69c0-.6,.75-.43,1.64,1.03-2.17-5.62,2.29-8.19,6.2-9.05,0,0,0-.01,0-.01-5.49,.03-8.11,4.03-7.36,7.13-.81-.23-1.29,.41-.65,2.49,.81,2.62,2.7,3.91,3.23,4.11-.99-.9-2.92-2.92-3.05-5.7Z"/><path class="cls-1" d="M171.57,73.81c-.03-.19-.1,.47-.16,.63-.05,.16-1.15-.91-1.67-1.53,0,0,1.29,2.11,1.04,2.53s.17-.16,.33,0c.16,.16,.71,.16,.68-.54-.03-.7-.17-.49-.23-1.08Z"/></g><path class="cls-1" d="M165.11,98.56c-.25-1.14-1.73-1.23-2.67-1.5-.06-.02-.12-.03-.18-.05-.49-.13-1-.32-.95-.94,.08-1.3,2.67-1.41,3.01-.18h.72c-.32-1.63-2.78-1.78-3.87-.98-.73,.51-.82,1.55-.27,2.21,.62,.69,1.85,.73,2.74,1.02,.42,.11,.8,.42,.78,.89-.11,1.45-3.03,1.36-3.24-.02v-.49h-1.33v.19c.32,0,.5,.14,.6,.3,.27,2.53,5.19,2.2,4.65-.46Z"/></g></g><g><g><path class="cls-1" d="M222.38,134.37c8.7-7.72,5.4-13.47,5.4-13.47,7.02,.41,5.83,5.25,5.83,5.25,5.43-6.68,.96-11.64,.96-11.64,5.71,1.4,6.89,4.35,7.25,7.02,1.63,12.2-25.66,22.09-38.43,25.44,8.07-5.77,18.21-11.92,18.98-12.6Z"/><path class="cls-1" d="M210.46,158.04l8.36-.17s-4.8,12.76-13.32,7.95c0,0,3.22,4.76-3.74,7.86,0,0,.96,4.31-6.03,3.6-5.6-.57-12.83,1.36-19.72,4.21,0,0,11.95-23.14,34.46-23.46Zm-3.64,4.69s1.31-.15,1.86-1.11c0,0-7.9-.81-22.82,12.02,0,0,9.81-7.87,20.97-10.91Z"/><path class="cls-1" d="M236.79,148.92c-3.65,.7-15.76-3.24-34.25,3.78,6.18-4.16,16.49-7.9,27.85-7.09,3.77,.27,10.8-.12,14.66-2.21,0,0-.18,10.38-9.45,12.02l-7.26-1.86c-4.1-1.34-10.42-1.33-15.25-.41-7.69,1.47-16.06,4.75-18.58,6.44,16.77-13.07,33.11-8.15,42.28-10.67Z"/><path class="cls-1" d="M243.2,105.98c-11.19-3.07-15.84,5.73-15.84,5.73-3.47-2.36-3.25-7.03-1.98-7.83-4.7,.98-8.36-5.24-8.36-5.24,2.05-1.56,3.55-2.17,5.75-2.46-5.76-.68-8.25-4.6-9.26-8.57h0c-1.16-4.52-.91-6.89-.41-9.12,.79-3.5,2.8-4.03,3.94-3.23,.8,.56,.52,2.18-.65,2.86-1.27,.74-1.44,1.87-1.53,3.05-.32,4.27,4.01,8.45,7.42,9.08,0,0-5.5-3.56-5.1-8.85,.97,1.34,3.12,2.08,6.02,1.74,8-.93,11.86,3.14,11.86,3.14-3-2.78-2.79-7.77-2.79-7.77,18.13,0,26.67,6.09,28.56,30.83-2.03-8.61-5.47-16.09-14.14-23.25,0,0,11.79,12.58,13.01,28.4-.43,1.19-.95,2.35-1.58,3.5,.06-14.74-10.77-28.32-21.55-30.75,0,0,11.11,4.42,16.46,17.73,6.63,16.48-.15,25.93-16.12,33.7l-1.02-.78c22.05-11.13,17.63-29.06,7.33-31.89Z"/><path class="cls-1" d="M206.17,13.54s11.98-5.72,17.16,1.97c.67,.99,.44,3.14-2.29,2.96,.35-2.32-6.74-7.68-16.36,.52,0,0,5.03-3.85,10.52-2.33-3.79,2.28-3.53,10.59-8.51,14.35-5.47,4.14-9.04,15.99,.5,23.01,0,0-9.47-14.59,6.44-21.4,0,0-3.6,2.14,.31,6.96,0,0,7.03,4.96,6.34,9.34,0,0,1.8-2.88,5.84-3.66,0,0-4.42,6.69,1.19,10.94,4.89,3.7,24.51,14.17,29.51,33.68-7.49-17.82-22.74-21.49-22.74-21.49h0c-1.26-.45-2.57-.82-3.93-1.07-2.37-.44-4.42-.79-6.24-1.1-13.94-2.65-23.36-9.97-27.84-20.69-4.23-10.15-6.51-24,10.09-32Zm13.37,45.04c6.67,3.1,15.77,6.18,20.28,9.63-13.73-10.35-25.11-11.22-29.08-20.95,0,0,.68,7.54,8.8,11.31Zm-20.14-11.03s-4.01-9.14,.13-21.9c0,0-6.97,9.62-.13,21.9Z"/></g><g><path class="cls-1" d="M53.78,134.37c-8.7-7.72-5.4-13.47-5.4-13.47-7.02,.41-5.83,5.25-5.83,5.25-5.43-6.68-.96-11.64-.96-11.64-5.71,1.4-6.89,4.35-7.25,7.02-1.63,12.2,25.66,22.09,38.43,25.44-8.07-5.77-18.21-11.92-18.98-12.6Z"/><path class="cls-1" d="M100.16,181.5c-6.89-2.86-14.13-4.78-19.72-4.21-7,.71-6.03-3.6-6.03-3.6-6.96-3.1-3.74-7.86-3.74-7.86-8.52,4.81-13.32-7.95-13.32-7.95l8.36,.17c22.51,.31,34.46,23.46,34.46,23.46Zm-9.86-7.86c-14.93-12.83-22.82-12.02-22.82-12.02,.55,.96,1.86,1.11,1.86,1.11,11.16,3.04,20.97,10.91,20.97,10.91Z"/><path class="cls-1" d="M39.36,148.92c3.65,.7,15.76-3.24,34.25,3.78-6.18-4.16-16.49-7.9-27.85-7.09-3.77,.27-10.8-.12-14.65-2.21,0,0,.18,10.38,9.45,12.02l7.26-1.86c4.1-1.34,10.42-1.33,15.25-.41,7.69,1.47,16.06,4.75,18.58,6.44-16.77-13.07-33.11-8.15-42.28-10.67Z"/><path class="cls-1" d="M32.95,105.98c11.19-3.07,15.84,5.73,15.84,5.73,3.47-2.36,3.25-7.03,1.98-7.83,4.7,.98,8.36-5.24,8.36-5.24-2.05-1.56-3.55-2.17-5.75-2.46,5.76-.68,8.25-4.6,9.26-8.57h0c1.16-4.52,.91-6.89,.41-9.12-.79-3.5-2.8-4.03-3.94-3.23-.8,.56-.52,2.18,.65,2.86,1.27,.74,1.44,1.87,1.53,3.05,.32,4.27-4.01,8.45-7.42,9.08,0,0,5.5-3.56,5.1-8.85-.97,1.34-3.12,2.08-6.02,1.74-8-.93-11.86,3.14-11.86,3.14,3-2.78,2.79-7.77,2.79-7.77-18.13,0-26.67,6.09-28.56,30.83,2.03-8.61,5.47-16.09,14.14-23.25,0,0-11.79,12.58-13.01,28.4,.43,1.19,.95,2.35,1.58,3.5-.06-14.74,10.77-28.32,21.55-30.75,0,0-11.11,4.42-16.46,17.73-6.63,16.48,.15,25.93,16.11,33.7l1.02-.78c-22.05-11.13-17.63-29.06-7.33-31.89Z"/><path class="cls-1" d="M80.08,45.54c-4.47,10.72-13.9,18.03-27.84,20.69-1.82,.31-3.87,.66-6.24,1.1-1.36,.25-2.67,.62-3.93,1.08h0s-15.25,3.67-22.74,21.49c5-19.51,24.62-29.98,29.51-33.68,5.61-4.25,1.19-10.94,1.19-10.94,4.04,.78,5.84,3.66,5.84,3.66-.68-4.38,6.34-9.34,6.34-9.34,3.92-4.83,.31-6.96,.31-6.96,15.91,6.8,6.44,21.4,6.44,21.4,9.54-7.03,5.96-18.87,.5-23.01-4.98-3.77-4.72-12.08-8.51-14.35,5.48-1.52,10.52,2.33,10.52,2.33-9.62-8.21-16.71-2.84-16.36-.52-2.73,.18-2.96-1.97-2.29-2.96,5.18-7.69,17.16-1.97,17.16-1.97,16.6,7.99,14.32,21.84,10.09,32Zm-14.66,1.73c-3.97,9.73-15.35,10.6-29.08,20.95,4.51-3.45,13.61-6.53,20.28-9.63,8.12-3.78,8.8-11.31,8.8-11.31Zm11.21-21.61c4.14,12.76,.13,21.9,.13,21.9,6.85-12.28-.13-21.9-.13-21.9Z"/></g></g><g><path class="cls-1" d="M197.89,247.9h5.07l-18.19-41.89h-9.13v1.32c2.16,0,3.39,.92,4.09,2.01l-16.74,38.56h5l14.95-34.43,14.95,34.43Z"/><path class="cls-1" d="M105.76,247.9h5.07l-18.19-41.89h-9.13v1.32c2.16,0,3.39,.92,4.09,2.01l-16.74,38.56h5l14.95-34.43,14.95,34.43Z"/><path class="cls-1" d="M148.78,205.97v1.32c4.67,0,5.01,4.33,5.03,5.29v35.32h4.93v-41.93h-9.96Z"/><path class="cls-1" d="M238.17,205.97v34.01l-27.04-33.99v-.02h-.02s0,0,0,0h-8.83v1.32c3.67,0,4.67,2.67,4.94,4.28v36.32h3.91v-33.97l27.03,33.97h.01s0,0,0,0h3.91v-41.93h-3.91Z"/><path class="cls-1" d="M141.87,209.16c-2.31-2.13-5.25-3.2-8.84-3.2h-23.01v1.32c4.66,0,5.02,4.31,5.04,5.3v35.31h4.93v-18.59h11.83c4.54,0,7.92-1.11,10.15-3.34,2.23-2.23,3.35-5.08,3.35-8.56s-1.15-6.11-3.46-8.24Zm-3.89,13.9c-1.39,1.31-3.39,1.96-5.98,1.96h-12v-14.66h11.6c5.64,0,8.47,2.35,8.47,7.04,0,2.46-.7,4.35-2.09,5.66Z"/><path class="cls-1" d="M68.99,233.38c-1.65-7.56-11.51-8.19-17.75-10-.39-.11-.78-.22-1.17-.32-3.28-.84-6.65-2.15-6.29-6.24,.52-8.63,17.75-9.39,19.99-1.22h4.82c-2.11-10.8-18.46-11.82-25.72-6.52-4.83,3.4-5.46,10.34-1.79,14.68,4.15,4.61,12.3,4.85,18.24,6.8,2.78,.76,5.29,2.82,5.18,5.95-.73,9.63-20.12,9.04-21.55-.1v-3.27h-8.86v1.3c2.12,0,3.32,.91,4.02,1.98,1.8,16.81,34.52,14.63,30.9-3.03Z"/></g><g><path class="cls-1" d="M69.28,259.63c.63,0,1.13,.19,1.54,.59l.18,.18,.6-.61-.16-.17c-.52-.55-1.28-.85-2.17-.85-1.79,0-3.14,1.32-3.14,3.08s1.35,3.08,3.14,3.08c.88,0,1.65-.3,2.17-.86l.16-.17-.6-.62-.18,.18c-.41,.4-.91,.6-1.54,.6-1.28,0-2.25-.95-2.25-2.2s.97-2.2,2.25-2.2Z"/><path class="cls-1" d="M77.9,260.92c0-1.31-.96-2.13-2.5-2.13h-2.25v6.07h.91v-1.82h1.34c.15,0,.29,0,.42-.02l1.32,1.85h1.08l-1.49-2.08c.74-.34,1.16-1,1.16-1.86Zm-3.84-1.26h1.34c1.05,0,1.58,.42,1.58,1.26,0,1.04-.86,1.26-1.58,1.26h-1.34v-2.53Z"/><polygon class="cls-1" points="81.39 261.85 79.51 258.79 78.48 258.79 80.92 262.77 80.92 264.87 81.83 264.87 81.83 262.77 84.27 258.79 83.26 258.79 81.39 261.85"/><path class="cls-1" d="M87.49,258.79h-2.25v6.07h.91v-1.82h1.34c1.54,0,2.5-.81,2.5-2.12s-.96-2.13-2.5-2.13Zm0,3.38h-1.34v-2.52h1.34c1.05,0,1.58,.42,1.58,1.26,0,1.04-.86,1.25-1.58,1.25Z"/><polygon class="cls-1" points="90.53 259.66 92.53 259.66 92.53 264.87 93.44 264.87 93.44 259.66 95.45 259.66 95.45 258.79 90.53 258.79 90.53 259.66"/><path class="cls-1" d="M99.28,258.75c-1.8,0-3.15,1.32-3.15,3.08s1.35,3.08,3.15,3.08,3.15-1.32,3.15-3.08-1.35-3.08-3.15-3.08Zm0,5.28c-1.3,0-2.24-.93-2.24-2.2s.94-2.2,2.24-2.2,2.23,.93,2.23,2.2-.94,2.2-2.23,2.2Z"/><polygon class="cls-1" points="109.57 258.79 107.22 262.85 104.87 258.79 104.14 258.79 104.14 264.87 105.03 264.87 105.03 260.79 106.97 264.13 107.46 264.13 109.4 260.78 109.41 264.87 110.31 264.87 110.3 258.79 109.57 258.79"/><path class="cls-1" d="M115.16,258.75c-1.8,0-3.15,1.32-3.15,3.08s1.35,3.08,3.15,3.08,3.15-1.32,3.15-3.08-1.35-3.08-3.15-3.08Zm0,5.28c-1.3,0-2.24-.93-2.24-2.2s.94-2.2,2.24-2.2,2.23,.93,2.23,2.2-.96,2.2-2.23,2.2Z"/><polygon class="cls-1" points="124.15 263.16 120.73 258.79 120.02 258.79 120.02 264.87 120.92 264.87 120.92 260.5 124.35 264.87 125.06 264.87 125.06 258.79 124.15 258.79 124.15 263.16"/><rect class="cls-1" x="127.29" y="258.79" width=".91" height="6.07"/><path class="cls-1" d="M132.16,258.79l-2.79,6.07h.99l.71-1.57h2.91l.72,1.57h.99l-2.79-6.07h-.73Zm-.71,3.66l1.07-2.36,1.08,2.36h-2.15Z"/><polygon class="cls-1" points="137.76 258.79 136.85 258.79 136.85 264.87 140.97 264.87 140.97 264 137.76 264 137.76 258.79"/><polygon class="cls-1" points="146.06 262.22 149.03 262.22 149.03 261.36 146.06 261.36 146.06 259.66 149.38 259.66 149.38 258.79 145.15 258.79 145.15 264.87 149.5 264.87 149.5 264 146.06 264 146.06 262.22"/><polygon class="cls-1" points="155.41 263.16 151.99 258.79 151.27 258.79 151.27 264.87 152.18 264.87 152.18 260.5 155.61 264.87 156.31 264.87 156.31 258.79 155.41 258.79 155.41 263.16"/><path class="cls-1" d="M161.2,259.63c.66,0,1.16,.19,1.57,.59l.18,.18,.59-.63-.17-.17c-.53-.55-1.29-.84-2.19-.84-1.81,0-3.17,1.32-3.17,3.08s1.36,3.08,3.17,3.08c.86,0,1.63-.28,2.16-.79l.08-.07v-2.44h-.89v2.05c-.36,.26-.8,.38-1.33,.38-1.3,0-2.27-.95-2.27-2.2s.96-2.2,2.27-2.2Z"/><rect class="cls-1" x="165.51" y="258.79" width=".91" height="6.07"/><polygon class="cls-1" points="172.78 263.16 169.37 258.79 168.65 258.79 168.65 264.87 169.56 264.87 169.56 260.5 172.98 264.87 173.69 264.87 173.69 258.79 172.78 258.79 172.78 263.16"/><polygon class="cls-1" points="176.84 262.22 179.81 262.22 179.81 261.36 176.84 261.36 176.84 259.66 180.16 259.66 180.16 258.79 175.93 258.79 175.93 264.87 180.28 264.87 180.28 264 176.84 264 176.84 262.22"/><polygon class="cls-1" points="182.96 262.22 185.93 262.22 185.93 261.36 182.96 261.36 182.96 259.66 186.28 259.66 186.28 258.79 182.05 258.79 182.05 264.87 186.4 264.87 186.4 264 182.96 264 182.96 262.22"/><path class="cls-1" d="M192.92,260.92c0-1.31-.96-2.13-2.5-2.13h-2.25v6.07h.91v-1.82h1.34c.15,0,.29,0,.42-.02l1.32,1.85h1.08l-1.49-2.08c.74-.34,1.16-1,1.16-1.86Zm-3.84-1.26h1.34c1.05,0,1.58,.42,1.58,1.26,0,1.04-.86,1.26-1.58,1.26h-1.34v-2.53Z"/><rect class="cls-1" x="194.71" y="258.79" width=".91" height="6.07"/><polygon class="cls-1" points="201.99 263.16 198.57 258.79 197.86 258.79 197.86 264.87 198.76 264.87 198.76 260.5 202.19 264.87 202.89 264.87 202.89 258.79 201.99 258.79 201.99 263.16"/><path class="cls-1" d="M209.12,263.65c-.36,.26-.8,.38-1.33,.38-1.3,0-2.27-.95-2.27-2.2s.96-2.2,2.27-2.2c.66,0,1.16,.19,1.57,.59l.18,.18,.59-.63-.17-.17c-.53-.55-1.29-.84-2.19-.84-1.81,0-3.17,1.32-3.17,3.08s1.36,3.08,3.17,3.08c.86,0,1.63-.28,2.16-.79l.08-.07v-2.44h-.89v2.05Z"/></g><g><rect class="cls-1" x="29.84" y="260.83" width="28.66" height="2"/><rect class="cls-1" x="217.66" y="260.83" width="28.66" height="2"/></g><g><rect class="cls-1" x="29.84" y="193.23" width="77.32" height="2"/><rect class="cls-1" x="169" y="193.23" width="77.32" height="2"/></g></svg>