<svg width="196" height="70" viewBox="0 0 196 70" fill="none" xmlns="http://www.w3.org/2000/svg">
<path d="M30.8011 26.2942L22.8224 14.1841C22.8224 14.1841 21.9433 12.7103 20.0979 12.7103V12.1902H41.6252V19.9591H41.0615C40.2227 14.5042 36.089 12.7503 32.6868 12.7503H26.6742L34.1296 24.1803C34.6932 23.3067 35.0489 22.0263 35.0489 20.9127H35.6931V32.3026H35.0489C35.0489 29.3151 32.9619 26.9277 29.5597 26.9277H27.7948V37.8842C27.7948 40.4716 29.9221 40.7917 31.7205 40.7917V41.3118H20.0979V40.7917C21.5407 40.7917 23.5874 40.2315 23.5874 37.8442V26.2942H30.8011Z" fill="#000006"/>
<path d="M72.7283 32.6627V41.3052H50.0401V40.745C51.6439 40.745 53.5699 40.705 53.5699 37.9175V15.6178C53.5699 12.8704 51.3621 12.7103 50.0401 12.7103V12.1902H60.7836V12.7503C59.0993 12.7503 57.8981 12.9904 57.8981 15.7379V37.9642C57.8981 40.0782 59.3811 40.7917 60.8239 40.7917C63.8302 40.7917 69.8428 40.9117 71.8895 32.6694H72.7283V32.6627Z" fill="#000006"/>
<path d="M94.175 17.3716L87.639 34.023C85.3977 39.558 89.2428 40.7916 91.1285 40.7916V41.3118H81.15V40.7916C84.2368 40.7916 85.438 37.6041 86.3573 35.4168C86.6391 34.7433 93.8932 16.6981 93.6919 16.338C92.9671 14.9443 91.8062 14.8242 91.8062 14.8242C94.8125 14.184 96.4969 12.1568 96.4969 12.1568C96.4969 12.1568 106.274 36.9706 106.355 37.1306C107.757 40.3182 108.119 40.7916 109.683 40.7916V41.3118H99.5434V40.7916C101.671 40.7916 102.671 39.3579 101.946 37.204L94.1683 17.365L94.175 17.3716Z" fill="#000006"/>
<path d="M175.902 12.7103C174.661 12.7103 172.775 13.1905 172.775 15.6578V37.8842C172.775 40.3516 174.661 40.7917 175.902 40.7917V41.3118H165.601V40.7917C167.165 40.7917 168.688 40.4316 168.688 37.9242V15.6178C168.688 13.0704 167.165 12.7103 165.601 12.7103V12.1902H175.902V12.7103ZM151.214 37.8842V15.6178C151.214 13.1505 149.409 12.7103 148.208 12.7103V12.1902H158.428V12.7103C156.864 12.7103 155.301 13.0704 155.301 15.5778V23.3067C155.301 24.4203 155.704 25.1806 156.301 25.614C157.462 26.4476 159.428 26.8877 160.951 27.0878V27.3679C159.468 27.5279 157.502 27.928 156.301 28.7616C155.697 29.2017 155.301 30.0353 155.301 31.1089V37.9175C155.301 40.4249 156.784 40.785 158.347 40.785V41.3052H148.127V40.785C149.329 40.785 151.214 40.3449 151.214 37.8775V37.8842Z" fill="#000006"/>
<path d="M138.303 27.2411C137.941 26.701 137.525 26.1808 137.022 25.694C135.257 24.0202 133.176 22.9466 131.049 21.7929C129.204 20.7993 127.365 19.4856 126.761 17.4117C126.238 15.6978 126.681 13.3505 128.284 12.4702C130.808 11.1565 137.344 12.8303 137.786 19.4789H138.31V13.0037C136.726 12.3569 131.754 10.603 127.405 12.1568C125.278 12.9104 123.439 14.9443 123.359 17.1382C123.278 20.0457 125.084 22.8332 127.687 24.2669C130.412 25.8207 133.78 27.3745 135.545 30.0019C135.948 30.6021 136.189 31.3156 136.303 32.0758L138.31 32.6027L139.632 32.9494C139.941 31.1689 139.525 29.075 138.31 27.2478L138.303 27.2411Z" fill="#000006"/>
<path d="M131.767 29.3551C130.002 27.6413 127.922 26.5676 125.795 25.414C124.191 24.5404 122.587 23.42 121.829 21.7862C120.869 21.5729 119.903 21.3261 118.943 21.0594C118.662 20.9794 118.38 20.9127 118.105 20.8326C118.085 22.033 118.4 23.2067 118.943 24.2803C119.708 25.7741 120.936 27.0611 122.433 27.9213C125.198 29.4351 128.526 31.0289 130.291 33.6163C131.895 36.0036 131.016 40.1115 128.244 41.0251C125.6 41.8987 119.708 39.9514 119.427 33.7763H118.943V40.2582C120.863 40.9984 127.325 43.1323 132.049 40.3449C135.136 38.511 135.538 32.8961 131.767 29.3551Z" fill="#000006"/>
<path d="M81.2171 50.3277C81.8143 50.341 82.3713 50.4411 82.8813 50.6278C83.096 50.7011 83.3107 50.8012 83.5255 50.9279C83.7402 51.0479 83.9415 51.2013 84.1294 51.388C84.3173 51.5747 84.4851 51.7881 84.626 52.0349C84.7669 52.2816 84.8743 52.575 84.9414 52.9018H84.1361C84.0623 52.6484 83.955 52.4283 83.8275 52.2482C83.7 52.0682 83.559 51.9081 83.4114 51.7748C83.2638 51.6414 83.1027 51.5347 82.935 51.448C82.7672 51.3613 82.5994 51.2946 82.4384 51.2413C82.0559 51.1146 81.6465 51.0479 81.2171 51.0546C80.1702 51.0546 79.3717 51.3413 78.8214 51.9148C78.2712 52.4883 77.996 53.3152 77.996 54.3955C77.996 55.4758 78.2712 56.3094 78.8214 56.8829C79.3717 57.4564 80.1702 57.7431 81.2171 57.7431C81.7002 57.7431 82.1364 57.6765 82.5189 57.5498C82.9014 57.4231 83.2302 57.2363 83.5054 56.9963C83.7805 56.7562 83.9952 56.4695 84.1428 56.136C84.2972 55.8026 84.3844 55.4225 84.3978 55.009H81.2104V54.2755H85.2367C85.2501 54.3689 85.2635 54.4956 85.2635 54.6689C85.2635 54.8357 85.2568 55.029 85.23 55.2424C85.2031 55.4558 85.1561 55.6826 85.0823 55.9226C85.0152 56.1627 84.9146 56.4028 84.7803 56.6428C84.4515 57.2297 83.9818 57.6831 83.3779 57.9966C82.7739 58.31 82.0492 58.47 81.2037 58.47C80.5594 58.47 79.9823 58.3767 79.4723 58.1966C78.9624 58.0166 78.5329 57.7498 78.1839 57.3964C77.835 57.0496 77.5666 56.6228 77.3787 56.116C77.1908 55.6092 77.1035 55.0357 77.1035 54.3955C77.1035 53.7553 77.1975 53.1818 77.3787 52.6817C77.5666 52.1816 77.8283 51.7548 78.1839 51.408C78.5329 51.0612 78.9624 50.7945 79.4723 50.6078C79.9823 50.4211 80.5594 50.3344 81.2037 50.3344L81.2171 50.3277Z" fill="#000116"/>
<path d="M90.0481 50.3877C90.444 50.3877 90.8198 50.421 91.1822 50.4944C91.5445 50.5677 91.8666 50.6944 92.1552 50.8878C92.437 51.0746 92.6652 51.328 92.8397 51.6481C93.0074 51.9681 93.0946 52.3816 93.0946 52.8751C93.0946 53.2685 93.041 53.602 92.9403 53.882C92.8397 54.1621 92.692 54.3955 92.5041 54.5889C92.3162 54.7823 92.1015 54.929 91.8599 55.0424C91.6116 55.1557 91.3499 55.2358 91.0614 55.2891L93.3027 58.4233H92.3297L90.1487 55.3691H87.5719V58.4233H86.7063V50.3944H90.0548L90.0481 50.3877ZM90.0011 54.6356C90.2628 54.6356 90.5245 54.6156 90.7862 54.5756C91.0479 54.5355 91.2828 54.4555 91.4976 54.3288C91.7123 54.2021 91.88 54.0221 92.0143 53.7953C92.1418 53.5686 92.2089 53.2619 92.2089 52.8751C92.2089 52.4883 92.1418 52.1882 92.0143 51.9548C91.88 51.7281 91.7123 51.548 91.4976 51.428C91.2828 51.308 91.0479 51.2213 90.7862 51.1813C90.5245 51.1412 90.2628 51.1212 90.0011 51.1212H87.5652V54.6356H90.0011Z" fill="#000116"/>
<path d="M94.2086 54.4022C94.2086 53.762 94.3025 53.1885 94.4837 52.6884C94.6649 52.1882 94.9333 51.7614 95.289 51.408C95.6379 51.0546 96.0674 50.7878 96.5774 50.6078C97.0874 50.4277 97.6645 50.3344 98.3087 50.3344C98.9529 50.3344 99.53 50.4277 100.033 50.6078C100.537 50.7945 100.966 51.0612 101.315 51.408C101.664 51.7614 101.932 52.1882 102.12 52.6884C102.308 53.1885 102.395 53.762 102.395 54.4022C102.395 55.0424 102.301 55.6159 102.12 56.1227C101.939 56.6295 101.671 57.0563 101.315 57.403C100.966 57.7498 100.537 58.0165 100.033 58.2033C99.53 58.39 98.9529 58.4767 98.3087 58.4767C97.6645 58.4767 97.0874 58.3833 96.5774 58.2033C96.0674 58.0232 95.6379 57.7565 95.289 57.403C94.94 57.0496 94.6716 56.6295 94.4837 56.1227C94.2958 55.6159 94.2086 55.0424 94.2086 54.4022ZM98.3087 57.7431C99.3488 57.7431 100.141 57.4564 100.691 56.8896C101.241 56.3227 101.516 55.4892 101.516 54.4022C101.516 53.3152 101.241 52.4883 100.691 51.9148C100.141 51.348 99.3488 51.0612 98.3087 51.0612C97.2686 51.0612 96.4633 51.348 95.913 51.9148C95.3628 52.4816 95.0877 53.3152 95.0877 54.4022C95.0877 55.4892 95.3628 56.3161 95.913 56.8896C96.4633 57.4564 97.2619 57.7431 98.3087 57.7431Z" fill="#000116"/>
<path d="M103.852 50.3877H104.731L104.717 54.4822C104.717 54.9623 104.751 55.4091 104.818 55.8092C104.885 56.2094 105.019 56.5561 105.207 56.8362C105.395 57.1163 105.657 57.3363 105.985 57.4964C106.314 57.6564 106.737 57.7298 107.254 57.7298C107.77 57.7298 108.2 57.6498 108.529 57.4964C108.858 57.343 109.113 57.123 109.3 56.8362C109.488 56.5561 109.616 56.2094 109.69 55.8092C109.757 55.4091 109.79 54.969 109.79 54.4822L109.81 50.3877H110.69L110.676 54.5756C110.676 55.1557 110.616 55.6892 110.502 56.1627C110.388 56.6428 110.193 57.0496 109.931 57.3964C109.67 57.7431 109.314 58.0032 108.878 58.1966C108.442 58.3833 107.898 58.4767 107.247 58.4767C106.596 58.4767 106.059 58.3833 105.623 58.1966C105.187 58.0099 104.838 57.7431 104.57 57.3964C104.301 57.0496 104.113 56.6428 103.999 56.1627C103.885 55.6825 103.825 55.1557 103.825 54.5756L103.838 50.3877H103.852Z" fill="#000116"/>
<path d="M112.495 50.3877H115.843C116.239 50.3877 116.615 50.421 116.977 50.4944C117.34 50.5677 117.662 50.6944 117.95 50.8878C118.232 51.0746 118.46 51.328 118.635 51.6481C118.803 51.9681 118.89 52.3816 118.89 52.8751C118.89 53.3685 118.803 53.782 118.635 54.1021C118.467 54.4222 118.239 54.6756 117.95 54.8623C117.668 55.049 117.34 55.1824 116.977 55.2558C116.615 55.3291 116.239 55.3624 115.843 55.3624H113.36V58.4167H112.495V50.3877ZM113.36 51.1212V54.6356H115.796C116.058 54.6356 116.32 54.6156 116.581 54.5756C116.843 54.5355 117.078 54.4555 117.293 54.3288C117.507 54.2021 117.675 54.0221 117.809 53.7953C117.937 53.5686 118.004 53.2619 118.004 52.8751C118.004 52.4883 117.937 52.1882 117.809 51.9548C117.675 51.7281 117.507 51.548 117.293 51.428C117.078 51.308 116.843 51.2213 116.581 51.1813C116.32 51.1412 116.058 51.1212 115.796 51.1212H113.36Z" fill="#000116"/>
</svg>
