<svg width="700" height="668" viewBox="0 0 700 668" fill="none" xmlns="http://www.w3.org/2000/svg">
<g opacity="0.56">
<path d="M283.379 662C283.303 662.089 283.201 662.155 283.086 662.19C282.971 662.224 282.847 662.226 282.731 662.194L203.111 638.126C202.973 638.082 202.856 637.992 202.781 637.874C202.706 637.755 202.678 637.615 202.702 637.478C202.718 637.344 202.787 637.22 202.894 637.13C203.001 637.04 203.139 636.991 203.281 636.992H242.733C242.844 636.958 242.964 636.958 243.074 636.992L283.208 661.19C283.338 661.264 283.434 661.382 283.478 661.519C283.522 661.657 283.511 661.805 283.447 661.935L283.379 662ZM207.134 638.126L278.741 659.765L242.665 638.029L207.134 638.126Z" fill="#45A5FF"/>
<path d="M371.797 667.345C371.732 667.414 371.654 667.469 371.566 667.508C371.478 667.547 371.382 667.569 371.285 667.572L282.868 662.227C282.749 662.213 282.636 662.17 282.54 662.102C282.444 662.034 282.369 661.943 282.322 661.838C282.289 661.73 282.287 661.616 282.317 661.508C282.347 661.399 282.408 661.301 282.493 661.223L302.406 644.54C302.492 644.484 302.593 644.455 302.696 644.455C302.8 644.455 302.901 644.484 302.986 644.54L371.49 666.567C371.635 666.612 371.757 666.707 371.833 666.833C371.908 666.958 371.932 667.106 371.899 667.248L371.797 667.345ZM284.368 661.158L366.819 666.146L302.918 645.609L284.368 661.158Z" fill="#45A5FF"/>
<path d="M484.63 642.434C484.54 642.538 484.422 642.616 484.289 642.661L371.457 667.539C371.312 667.572 371.16 667.554 371.028 667.489C370.897 667.423 370.794 667.314 370.741 667.183C370.692 667.049 370.696 666.902 370.753 666.771C370.809 666.64 370.914 666.533 371.048 666.47L443.439 635.016C443.562 634.986 443.691 634.986 443.814 635.016L484.255 641.495C484.389 641.527 484.509 641.596 484.601 641.695C484.692 641.793 484.75 641.915 484.766 642.046C484.764 642.185 484.716 642.321 484.63 642.434ZM376.981 665.109L481.118 642.143L443.609 636.085L376.981 665.109Z" fill="#45A5FF"/>
<path d="M566.772 596.533C566.716 596.547 566.658 596.547 566.602 596.533L484.458 642.596C484.329 642.663 484.178 642.683 484.034 642.653C483.89 642.624 483.762 642.546 483.674 642.434C483.566 642.331 483.505 642.191 483.505 642.045C483.505 641.899 483.566 641.76 483.674 641.656L515.59 614.867H515.761L566.022 595.756C566.158 595.699 566.312 595.695 566.452 595.743C566.591 595.791 566.706 595.888 566.772 596.015C566.812 596.096 566.832 596.184 566.832 596.274C566.832 596.363 566.812 596.452 566.772 596.533ZM489.232 638.644L559.134 599.578L516.375 615.774L489.232 638.644Z" fill="#45A5FF"/>
<path d="M652.086 503.922L566.839 596.533C566.727 596.629 566.581 596.682 566.43 596.682C566.279 596.682 566.133 596.629 566.021 596.533C565.897 596.454 565.81 596.332 565.778 596.193C565.746 596.055 565.772 595.909 565.85 595.788L592.038 550.794C592.024 550.741 592.024 550.686 592.038 550.633L651.131 503.047C651.24 502.944 651.387 502.887 651.54 502.887C651.693 502.887 651.841 502.944 651.949 503.047C652.024 503.092 652.088 503.152 652.136 503.222C652.184 503.292 652.216 503.372 652.229 503.455C652.242 503.538 652.236 503.622 652.211 503.703C652.186 503.784 652.143 503.858 652.086 503.922ZM569.533 591.804L645.846 508.943L592.959 551.507L569.533 591.804Z" fill="#45A5FF"/>
<path d="M613.454 554.552L522.445 624.91C522.332 625.005 522.186 625.058 522.035 625.058C521.884 625.058 521.739 625.005 521.626 624.91C521.541 624.803 521.494 624.672 521.494 624.537C521.494 624.403 521.541 624.272 521.626 624.165L565.307 573.308C565.371 573.236 565.453 573.181 565.545 573.146L612.772 553.71C612.904 553.651 613.055 553.642 613.194 553.684C613.333 553.726 613.45 553.816 613.522 553.937C613.573 554.035 613.593 554.145 613.581 554.254C613.569 554.362 613.525 554.466 613.454 554.552ZM526.264 620.472L609.226 556.366L566.125 574.085L526.264 620.472Z" fill="#45A5FF"/>
<path d="M613.453 554.552C613.386 554.627 613.302 554.686 613.208 554.725C613.113 554.764 613.01 554.783 612.907 554.779C612.788 554.764 612.676 554.716 612.585 554.641C612.494 554.566 612.428 554.468 612.396 554.358L603.939 529.156C603.882 529.069 603.852 528.968 603.852 528.864C603.852 528.761 603.882 528.66 603.939 528.573L674.08 458.766C674.187 458.673 674.327 458.621 674.472 458.621C674.618 458.621 674.758 458.673 674.865 458.766C674.977 458.854 675.055 458.975 675.086 459.11C675.117 459.246 675.099 459.387 675.035 459.511L613.351 554.552H613.453ZM605.167 529.124L613.112 552.835L671.08 463.495L605.167 529.124Z" fill="#45A5FF"/>
<path d="M652.086 503.922C652.015 504.008 651.92 504.073 651.81 504.108C651.701 504.142 651.583 504.145 651.472 504.116C651.34 504.1 651.218 504.039 651.13 503.943C651.042 503.848 650.994 503.725 650.995 503.598L649.29 467.965C649.286 467.893 649.299 467.82 649.328 467.753C649.358 467.685 649.403 467.625 649.46 467.577L684.684 430.551C684.792 430.473 684.923 430.43 685.059 430.43C685.195 430.43 685.327 430.473 685.434 430.551C685.556 430.625 685.646 430.736 685.69 430.867C685.733 430.997 685.727 431.138 685.673 431.264L652.154 503.954C652.133 503.94 652.11 503.929 652.086 503.922ZM650.517 468.289L652.086 501.136L683.082 433.791L650.517 468.289Z" fill="#45A5FF"/>
<path d="M685.606 431.232C685.514 431.326 685.396 431.393 685.265 431.426C685.162 431.456 685.053 431.457 684.949 431.428C684.846 431.399 684.755 431.342 684.685 431.264L670.398 415.91C670.338 415.817 670.306 415.711 670.306 415.602C670.306 415.493 670.338 415.387 670.398 415.294L698.802 357.894C698.862 357.769 698.969 357.671 699.101 357.617C699.233 357.563 699.382 357.558 699.518 357.602C699.661 357.64 699.782 357.729 699.858 357.849C699.934 357.97 699.959 358.113 699.927 358.25L685.811 430.973C685.768 431.075 685.697 431.164 685.606 431.232ZM671.557 415.456L684.754 429.612L697.813 362.526L671.557 415.456Z" fill="#45A5FF"/>
<path d="M203.758 637.867C203.651 637.96 203.511 638.012 203.366 638.012C203.221 638.012 203.081 637.96 202.974 637.867L137.095 600.712C136.982 600.647 136.895 600.548 136.846 600.431C136.796 600.315 136.788 600.186 136.823 600.064C136.854 599.942 136.928 599.833 137.034 599.756C137.139 599.68 137.269 599.64 137.402 599.643H168.705C168.789 599.641 168.874 599.657 168.951 599.691C169.027 599.724 169.095 599.775 169.148 599.838L203.894 637.187C203.951 637.299 203.969 637.426 203.944 637.548C203.92 637.671 203.854 637.782 203.758 637.867ZM139.585 600.777L200.28 635.211L168.261 600.777H139.585Z" fill="#45A5FF"/>
<path d="M169.012 600.55C168.957 600.621 168.885 600.679 168.802 600.719C168.719 600.758 168.627 600.778 168.534 600.777H137.402C137.271 600.824 137.125 600.824 136.993 600.777L90.8578 560.933C90.7596 560.832 90.7051 560.699 90.7051 560.561C90.7051 560.423 90.7596 560.29 90.8578 560.188C90.9648 560.095 91.1047 560.043 91.25 560.043C91.3952 560.043 91.5352 560.095 91.6421 560.188L168.705 599.708C168.824 599.769 168.919 599.865 168.974 599.982C169.03 600.099 169.043 600.231 169.012 600.356V600.55ZM137.641 599.643H166.148L95.3248 563.136L137.641 599.643Z" fill="#45A5FF"/>
<path d="M318.74 664.138C318.673 664.222 318.585 664.287 318.483 664.327C318.381 664.367 318.269 664.38 318.16 664.364L240.756 651.99C240.623 651.97 240.5 651.907 240.408 651.814C240.315 651.72 240.258 651.6 240.245 651.472C240.239 651.342 240.28 651.214 240.36 651.108C240.441 651.002 240.556 650.925 240.688 650.889L276.969 640.296C277.044 640.266 277.125 640.251 277.207 640.251C277.289 640.251 277.371 640.266 277.446 640.296L318.74 663.296C318.86 663.363 318.952 663.467 319.001 663.59C319.051 663.714 319.055 663.85 319.012 663.976L318.74 664.138ZM243.45 651.181L315.057 662.615L276.935 641.365L243.45 651.181Z" fill="#45A5FF"/>
<path d="M91.7096 560.739C91.6584 560.806 91.592 560.861 91.5153 560.901C91.4385 560.94 91.3534 560.962 91.2664 560.966C91.1569 560.965 91.0495 560.938 90.954 560.887C90.8586 560.836 90.7784 560.763 90.7208 560.674L18.875 449.016C18.7744 448.909 18.7187 448.77 18.7188 448.627C18.7188 448.483 18.7744 448.345 18.875 448.238C18.982 448.145 19.1219 448.093 19.2672 448.093C19.4124 448.093 19.5524 448.145 19.6593 448.238L100.507 542.955C100.565 543.043 100.595 543.144 100.595 543.247C100.595 543.35 100.565 543.451 100.507 543.538L91.7096 560.642V560.739ZM24.6377 455.786L91.1982 559.217L99.3136 543.376L24.6377 455.786Z" fill="#45A5FF"/>
<path d="M50.5891 509.266C50.5031 509.367 50.3824 509.436 50.2481 509.461C50.1127 509.488 49.9716 509.47 49.8478 509.412C49.724 509.353 49.6247 509.256 49.5662 509.137L6.49964 409.464C6.44264 409.33 6.44284 409.181 6.50019 409.048C6.55755 408.915 6.6675 408.808 6.80653 408.751C6.86764 408.711 6.93702 408.685 7.00991 408.673C7.08279 408.662 7.15745 408.665 7.22875 408.684C7.30004 408.702 7.36627 408.735 7.42288 408.78C7.4795 408.826 7.52516 408.882 7.55671 408.945L49.5321 471.399C49.5614 471.494 49.5614 471.595 49.5321 471.69L50.6232 508.878C50.6656 509.006 50.6533 509.146 50.5891 509.266ZM10.1823 414.938L49.4298 505.638L48.4409 471.723L10.1823 414.938Z" fill="#45A5FF"/>
<path d="M19.8669 449.048C19.7967 449.128 19.7049 449.19 19.6013 449.225C19.4976 449.26 19.3859 449.268 19.2778 449.248C19.1697 449.228 19.0693 449.181 18.9869 449.112C18.9046 449.042 18.8435 448.953 18.8099 448.854L0.942221 380.634C0.869873 380.505 0.854377 380.354 0.89914 380.214C0.943903 380.075 1.04526 379.958 1.18092 379.889C1.31657 379.82 1.47541 379.805 1.62248 379.848C1.76956 379.89 1.89283 379.987 1.96518 380.116L23.686 403.471C23.7854 403.592 23.8447 403.739 23.8565 403.892L19.9692 448.756C19.9719 448.862 19.9357 448.965 19.8669 449.048ZM2.81764 382.61L19.2191 445.193L22.6289 404.054L2.81764 382.61Z" fill="#45A5FF"/>
<path d="M91.7107 560.739C91.6548 560.753 91.5962 560.753 91.5402 560.739C91.4333 560.832 91.2933 560.884 91.1481 560.884C91.0029 560.884 90.8629 560.832 90.756 560.739L49.6331 509.267C49.598 509.15 49.598 509.027 49.6331 508.91L48.5078 471.723C48.512 471.594 48.5611 471.47 48.6475 471.37C48.7339 471.271 48.8527 471.201 48.9852 471.172C49.1209 471.139 49.2647 471.153 49.3901 471.213C49.5155 471.272 49.6139 471.373 49.6672 471.496L91.7789 560.124C91.8338 560.221 91.8566 560.331 91.8444 560.441C91.8323 560.551 91.7857 560.655 91.7107 560.739ZM50.7924 508.716L88.5737 556.01L49.7013 474.541L50.7924 508.716Z" fill="#45A5FF"/>
<path d="M23.7181 404.216H23.5135C23.4091 404.287 23.2839 404.326 23.1554 404.326C23.027 404.326 22.9017 404.287 22.7974 404.216L1.0766 380.828C0.972926 380.735 0.911729 380.607 0.906107 380.472L0.019543 294.501C0.0186044 294.357 0.0738223 294.218 0.174561 294.11C0.275299 294.002 0.414427 293.934 0.56512 293.918C0.713903 293.899 0.864562 293.936 0.985395 294.02C1.10623 294.105 1.18781 294.231 1.21299 294.371L23.8204 403.665C23.8503 403.758 23.8566 403.857 23.8389 403.952C23.8211 404.048 23.7797 404.138 23.7181 404.216ZM2.09955 380.278L22.2177 401.884L1.28119 300.72L2.09955 380.278Z" fill="#45A5FF"/>
<path d="M1.11127 294.89C1.01198 294.972 0.884822 295.017 0.753232 295.017C0.621643 295.017 0.494482 294.972 0.395192 294.89C0.268144 294.845 0.162904 294.758 0.0998941 294.644C0.0368844 294.531 0.0206054 294.399 0.0542114 294.274L12.3638 237.975C12.3805 237.849 12.4453 237.733 12.5458 237.65C12.6464 237.566 12.7758 237.521 12.9094 237.522C13.0465 237.516 13.1815 237.555 13.2928 237.631C13.404 237.708 13.4851 237.817 13.5232 237.943L22.4229 267.971C22.4708 268.05 22.496 268.139 22.496 268.23C22.496 268.321 22.4708 268.41 22.4229 268.489L1.21356 294.728L1.11127 294.89ZM13.0117 240.664L1.62274 292.233L21.0589 268.165L13.0117 240.664Z" fill="#45A5FF"/>
<path d="M13.4212 238.623C13.3143 238.716 13.1743 238.768 13.0291 238.768C12.8839 238.768 12.7439 238.716 12.637 238.623C12.571 238.592 12.5122 238.549 12.4642 238.496C12.4162 238.443 12.38 238.382 12.3577 238.315C12.3354 238.248 12.3275 238.178 12.3345 238.109C12.3415 238.039 12.3631 237.972 12.3983 237.91L49.3611 159.292C49.421 159.168 49.5276 159.069 49.6599 159.015C49.7923 158.961 49.9411 158.956 50.0772 159.001C50.2189 159.032 50.3431 159.113 50.4252 159.227C50.5073 159.341 50.5413 159.48 50.5205 159.616L44.4168 196.933C44.4328 196.969 44.441 197.008 44.441 197.046C44.441 197.085 44.4328 197.124 44.4168 197.16L13.5235 238.591L13.4212 238.623ZM48.7133 163.698L15.9786 233.181L43.2575 196.609L48.7133 163.698Z" fill="#45A5FF"/>
<path d="M67.6042 162.273L32.1075 192.107C31.9963 192.194 31.8561 192.242 31.7115 192.241C31.567 192.24 31.4274 192.191 31.3173 192.102C31.2073 192.013 31.1339 191.89 31.11 191.754C31.0861 191.619 31.1133 191.48 31.1869 191.362L93.485 104.84C93.5685 104.722 93.6967 104.639 93.8429 104.609C93.989 104.579 94.1418 104.603 94.2693 104.678C94.3352 104.709 94.394 104.752 94.442 104.805C94.49 104.858 94.5262 104.919 94.5485 104.986C94.5708 105.052 94.5787 105.123 94.5717 105.192C94.5648 105.262 94.5431 105.329 94.508 105.39L67.7065 162.143L67.6042 162.273ZM34.9377 188.187L66.6494 161.69L90.5184 110.897L34.9377 188.187Z" fill="#45A5FF"/>
<path d="M112.955 98.523C112.888 98.6138 112.792 98.6819 112.682 98.7174L94.2004 105.682C94.0774 105.742 93.935 105.755 93.8021 105.719C93.6691 105.683 93.5556 105.6 93.4844 105.487C93.3929 105.383 93.3428 105.251 93.3428 105.115C93.3428 104.979 93.3929 104.847 93.4844 104.742L122.946 78.245C123.053 78.1662 123.185 78.1234 123.321 78.1234C123.456 78.1234 123.588 78.1662 123.696 78.245C123.814 78.329 123.896 78.4506 123.927 78.5873C123.958 78.7241 123.937 78.8671 123.866 78.99L112.921 98.4258L112.955 98.523ZM96.6555 103.544L112.034 97.7456L121.138 81.549L96.6555 103.544Z" fill="#45A5FF"/>
<path d="M101.703 113.294L50.5547 159.876C50.4461 159.978 50.2989 160.036 50.1456 160.036C49.9922 160.036 49.845 159.978 49.7364 159.876C49.6357 159.769 49.5801 159.63 49.5801 159.487C49.5801 159.343 49.6357 159.205 49.7364 159.098L93.4849 104.807C93.6169 104.689 93.7831 104.61 93.9623 104.581C94.1421 104.583 94.3137 104.653 94.4396 104.775L101.669 112.582C101.762 112.677 101.817 112.802 101.823 112.932C101.83 113.063 101.787 113.191 101.703 113.294ZM55.2945 153.948L100.509 113.1L94.0986 106.233L55.2945 153.948Z" fill="#45A5FF"/>
<path d="M207.202 29.6556L112.852 98.6527C112.737 98.7294 112.6 98.7705 112.46 98.7705C112.319 98.7705 112.182 98.7294 112.067 98.6527C111.984 98.5506 111.939 98.4253 111.939 98.2964C111.939 98.1674 111.984 98.0421 112.067 97.94L123.013 78.5042C123.013 78.5042 123.013 78.5042 123.218 78.2775L206.418 28.8781C206.551 28.8019 206.709 28.7763 206.861 28.8063C207.013 28.8364 207.147 28.9199 207.237 29.0401C207.292 29.1355 207.318 29.2437 207.312 29.3525C207.306 29.4613 207.268 29.5663 207.202 29.6556ZM114.318 96.126L196.632 35.9398L123.866 79.0873L114.318 96.126Z" fill="#45A5FF"/>
<path d="M294.871 5.13419H294.666L251.838 27.8093H251.566L206.862 29.5261C206.714 29.5354 206.567 29.4901 206.453 29.3997C206.339 29.3092 206.266 29.1806 206.249 29.0402C206.225 28.9037 206.253 28.7635 206.328 28.6448C206.403 28.5261 206.52 28.4366 206.658 28.3924L294.223 3.87086C294.363 3.83566 294.512 3.8489 294.643 3.90821C294.774 3.96752 294.879 4.06906 294.939 4.1948C295.007 4.25716 295.06 4.33285 295.093 4.41658C295.127 4.50032 295.141 4.59008 295.135 4.67957C295.128 4.76905 295.101 4.85612 295.056 4.93465C295.01 5.01318 294.947 5.08128 294.871 5.13419ZM251.361 27.0319L289.415 6.75384L211.568 28.5543L251.361 27.0319Z" fill="#45A5FF"/>
<path d="M349.428 1.05255C349.373 1.13271 349.288 1.19041 349.19 1.21452L320.717 14.6576C320.642 14.6898 320.561 14.7065 320.479 14.7065C320.396 14.7065 320.315 14.6898 320.24 14.6576L293.95 5.29604C293.818 5.25276 293.706 5.16826 293.632 5.05642C293.558 4.94458 293.525 4.81204 293.541 4.68057C293.556 4.54793 293.618 4.42412 293.717 4.3298C293.816 4.23549 293.947 4.17636 294.086 4.16228L348.883 0.113159C349.026 0.100402 349.169 0.135531 349.287 0.212454C349.405 0.289376 349.492 0.403233 349.531 0.534266C349.555 0.622459 349.559 0.71471 349.541 0.804346C349.523 0.893981 349.485 0.978759 349.428 1.05255ZM320.411 13.5239L346.019 1.50605L297.019 5.13407L320.411 13.5239Z" fill="#45A5FF"/>
<path d="M241.949 35.3566C241.868 35.4697 241.747 35.5505 241.608 35.5834L163.351 51.7799C163.208 51.7963 163.064 51.767 162.94 51.6966C162.817 51.6262 162.721 51.5187 162.669 51.3912C162.621 51.2572 162.625 51.111 162.681 50.9799C162.738 50.8487 162.843 50.7416 162.976 50.6785L257.6 10.2844C257.699 10.216 257.818 10.1791 257.941 10.1791C258.063 10.1791 258.183 10.216 258.282 10.2844C258.357 10.3835 258.397 10.5025 258.397 10.6246C258.397 10.7466 258.357 10.8656 258.282 10.9647L241.983 35.3566H241.949ZM168.705 49.5448L241.028 34.482L256.168 12.1956L168.705 49.5448Z" fill="#45A5FF"/>
<path d="M437.811 11.7424C437.751 11.806 437.677 11.8564 437.595 11.89C437.512 11.9235 437.423 11.9395 437.333 11.9368L320.58 14.7226C320.447 14.7261 320.317 14.6862 320.211 14.6096C320.106 14.5329 320.031 14.4242 320 14.3015C319.967 14.1718 319.978 14.0354 320.034 13.9127C320.089 13.7899 320.185 13.6877 320.307 13.6212L348.813 0.210527C348.924 0.175918 349.044 0.175918 349.154 0.210527L437.402 10.8678C437.478 10.8758 437.552 10.8982 437.619 10.9336C437.686 10.969 437.745 11.0167 437.793 11.0739C437.84 11.1312 437.875 11.1969 437.896 11.2672C437.917 11.3374 437.922 11.4109 437.913 11.4833C437.9 11.5759 437.865 11.6646 437.811 11.7424ZM323.274 13.524L429.388 10.9974L349.188 1.2795L323.274 13.524Z" fill="#45A5FF"/>
<path d="M504.439 35.1624C504.365 35.2356 504.274 35.2914 504.174 35.3251C504.073 35.3589 503.965 35.3697 503.859 35.3568L456.121 29.8823C455.993 29.8621 455.874 29.8056 455.78 29.7204L436.958 11.7746C436.869 11.6751 436.82 11.5488 436.82 11.4183C436.82 11.2878 436.869 11.1615 436.958 11.062C437.024 10.9438 437.135 10.8542 437.268 10.812C437.402 10.7697 437.547 10.7781 437.674 10.8352L504.303 34.2554C504.441 34.3064 504.556 34.4035 504.625 34.5286C504.694 34.6537 504.713 34.7983 504.678 34.9356L504.439 35.1624ZM456.394 28.6838L498.949 33.5427L439.686 12.6816L456.394 28.6838Z" fill="#45A5FF"/>
<path d="M545.871 58.032C545.81 58.1131 545.727 58.1771 545.631 58.217C545.535 58.2569 545.429 58.2714 545.325 58.2587L518.626 55.0194C518.46 54.9844 518.315 54.892 518.217 54.7603L503.452 35.3245C503.356 35.2282 503.303 35.1007 503.303 34.9682C503.303 34.8356 503.356 34.7081 503.452 34.6118C503.551 34.5298 503.679 34.4846 503.81 34.4846C503.942 34.4846 504.069 34.5298 504.168 34.6118L545.632 57.2869C545.744 57.3613 545.83 57.4659 545.879 57.5872C545.927 57.7085 545.936 57.8409 545.905 57.9672L545.871 58.032ZM519.035 53.9181L542.495 56.7687L506.078 36.7174L519.035 53.9181Z" fill="#45A5FF"/>
<path d="M624.57 127.223C624.462 127.326 624.315 127.384 624.161 127.384C624.008 127.384 623.861 127.326 623.752 127.223L518.353 54.7925C518.248 54.7215 518.171 54.6193 518.134 54.5019C518.097 54.3846 518.102 54.2589 518.149 54.1447C518.2 54.0257 518.292 53.9262 518.409 53.8618C518.526 53.7974 518.662 53.7715 518.796 53.7883L545.462 57.0276C545.59 57.0479 545.709 57.1043 545.803 57.1896L624.502 126.446C624.56 126.493 624.608 126.55 624.643 126.614C624.678 126.679 624.7 126.749 624.706 126.821C624.712 126.893 624.704 126.966 624.68 127.035C624.657 127.104 624.62 127.168 624.57 127.223ZM520.979 55.2136L616.455 120.842L545.121 58.0318L520.979 55.2136Z" fill="#45A5FF"/>
<path d="M641.311 148.959C641.202 149.062 641.055 149.12 640.902 149.12C640.748 149.12 640.601 149.062 640.493 148.959L613.214 128.713L587.026 89.615C586.946 89.4889 586.919 89.3387 586.95 89.1944C586.982 89.0502 587.07 88.9227 587.197 88.8376C587.309 88.7419 587.455 88.6891 587.606 88.6891C587.757 88.6891 587.902 88.7419 588.015 88.8376L641.311 148.246C641.394 148.348 641.439 148.474 641.439 148.603C641.439 148.732 641.394 148.857 641.311 148.959ZM614.032 127.968L636.469 144.651L592.482 95.7697L614.032 127.968Z" fill="#45A5FF"/>
<path d="M664.568 218.669C664.508 218.743 664.431 218.802 664.342 218.841C664.253 218.881 664.155 218.899 664.057 218.896C663.934 218.894 663.816 218.855 663.718 218.785C663.619 218.716 663.547 218.618 663.511 218.507L640.256 148.732C640.223 148.594 640.239 148.45 640.3 148.321C640.362 148.193 640.466 148.087 640.597 148.02C640.738 147.962 640.897 147.956 641.042 148.004C641.188 148.052 641.308 148.15 641.381 148.279L672.513 202.699C672.565 202.777 672.592 202.866 672.592 202.958C672.592 203.05 672.565 203.14 672.513 203.217L664.637 218.507L664.568 218.669ZM643.325 154.109L664.193 216.758L671.32 203.023L643.325 154.109Z" fill="#45A5FF"/>
<path d="M693.824 268.781H693.585C693.447 268.835 693.294 268.841 693.151 268.8C693.008 268.759 692.884 268.672 692.801 268.554L663.579 218.442C663.537 218.361 663.515 218.273 663.515 218.183C663.515 218.093 663.537 218.004 663.579 217.924L671.489 202.602C671.544 202.503 671.628 202.423 671.732 202.371C671.835 202.319 671.953 202.298 672.069 202.31C672.187 202.314 672.301 202.353 672.393 202.424C672.485 202.494 672.551 202.59 672.581 202.699L693.824 268.262C693.866 268.343 693.888 268.432 693.888 268.522C693.888 268.611 693.866 268.7 693.824 268.781ZM664.772 218.312L691.028 263.306L671.865 204.578L664.772 218.312Z" fill="#45A5FF"/>
<path d="M587.879 89.6148C587.806 89.7079 587.705 89.7767 587.588 89.8116C587.472 89.8465 587.347 89.8457 587.231 89.8092L535.231 72.8353C535.146 72.8141 535.067 72.7736 535.001 72.7172C534.936 72.6608 534.886 72.5901 534.856 72.5113C534.814 72.4308 534.792 72.3421 534.792 72.2522C534.792 72.1623 534.814 72.0736 534.856 71.993L544.813 57.2866C544.857 57.2176 544.916 57.1586 544.987 57.1138C545.058 57.069 545.138 57.0395 545.222 57.0275C545.297 56.9972 545.379 56.9816 545.461 56.9816C545.543 56.9816 545.624 56.9972 545.699 57.0275L587.777 88.805C587.863 88.9121 587.909 89.043 587.909 89.1775C587.909 89.3121 587.863 89.4429 587.777 89.55L587.879 89.6148ZM536.356 71.993L584.299 87.6389L545.529 58.4851L536.356 71.993Z" fill="#45A5FF"/>
<path d="M699.723 358.509C699.672 358.566 699.609 358.613 699.539 358.646C699.469 358.68 699.392 358.699 699.313 358.704C699.239 358.718 699.163 358.717 699.089 358.701C699.015 358.685 698.945 358.655 698.884 358.612C698.823 358.57 698.772 358.516 698.735 358.453C698.697 358.391 698.674 358.322 698.665 358.25L681.002 274.028C680.982 273.905 681.004 273.778 681.066 273.667C681.127 273.556 681.224 273.467 681.343 273.413L693.073 267.906C693.158 267.866 693.251 267.845 693.346 267.845C693.441 267.845 693.534 267.866 693.619 267.906C693.711 267.944 693.79 268.008 693.845 268.089C693.899 268.169 693.927 268.264 693.926 268.36L699.825 358.088C699.849 358.236 699.812 358.387 699.723 358.509ZM682.298 274.288L698.086 349.569L692.801 269.234L682.298 274.288Z" fill="#45A5FF"/>
<path d="M22.3202 268.586C22.2656 268.658 22.1937 268.715 22.1107 268.755C22.0276 268.794 21.9357 268.814 21.8429 268.813C21.7101 268.817 21.58 268.777 21.4745 268.7C21.369 268.623 21.2944 268.515 21.2632 268.392L12.3635 238.364C12.3217 238.289 12.2998 238.205 12.2998 238.121C12.2998 238.036 12.3217 237.952 12.3635 237.878L43.2909 196.447C43.377 196.342 43.4966 196.266 43.6319 196.231C43.7671 196.196 43.9107 196.204 44.041 196.253C44.1592 196.323 44.2519 196.425 44.3068 196.547C44.3617 196.669 44.376 196.803 44.3479 196.933L22.4225 268.586H22.3202ZM13.591 238.299L21.8429 266.157L42.302 199.881L13.591 238.299Z" fill="#45A5FF"/>
<path d="M23.7182 404.216C23.6042 404.34 23.4467 404.421 23.2749 404.443C23.1265 404.452 22.9801 404.407 22.8658 404.316C22.7516 404.226 22.6783 404.097 22.6611 403.957L0.0537747 294.663C0.0205384 294.53 0.0405168 294.39 0.109837 294.27C0.179158 294.15 0.292864 294.059 0.428855 294.015C0.569834 293.969 0.723738 293.973 0.861799 294.026C0.99986 294.08 1.11263 294.18 1.17903 294.306L30.2651 353.262C30.2973 353.368 30.2973 353.48 30.2651 353.586L23.7864 403.924C23.7769 404.024 23.754 404.122 23.7182 404.216ZM2.16788 299.003L23.1044 400.232L29.1058 353.618L2.16788 299.003Z" fill="#45A5FF"/>
<path d="M30.197 353.877C30.1237 353.976 30.0143 354.045 29.8901 354.072C29.7498 354.101 29.6034 354.085 29.4738 354.026C29.3442 353.967 29.2387 353.869 29.174 353.748L0.0878987 294.792C0.0304542 294.705 0 294.604 0 294.501C0 294.398 0.0304542 294.297 0.0878987 294.209L21.2972 267.939C21.3779 267.855 21.4802 267.793 21.5939 267.759C21.7075 267.725 21.8286 267.72 21.9451 267.744C22.066 267.777 22.1733 267.844 22.2526 267.937C22.3319 268.03 22.3793 268.143 22.3884 268.263L30.2652 353.456C30.2931 353.6 30.269 353.748 30.197 353.877ZM1.31545 294.501L28.9012 350.346L21.3995 269.817L1.31545 294.501Z" fill="#45A5FF"/>
<path d="M49.3622 472.079L49.1576 472.241C49.0205 472.302 48.8646 472.312 48.7198 472.27C48.5751 472.229 48.4517 472.137 48.3734 472.014L6.43211 409.561C6.39005 409.48 6.36816 409.391 6.36816 409.302C6.36816 409.212 6.39005 409.123 6.43211 409.042C6.46237 408.964 6.51232 408.893 6.57765 408.836C6.64298 408.78 6.72175 408.74 6.8072 408.718L22.9699 403.309C23.1239 403.265 23.2894 403.278 23.4343 403.343C23.5792 403.409 23.6932 403.524 23.7542 403.665L49.5327 471.69C49.5324 471.836 49.471 471.976 49.3622 472.079ZM7.96655 409.528L46.6344 467.091L22.7653 404.572L7.96655 409.528Z" fill="#45A5FF"/>
<path d="M169.011 600.55C168.929 600.659 168.807 600.736 168.668 600.766C168.53 600.796 168.385 600.777 168.261 600.712L90.9595 560.901C90.8215 560.826 90.7195 560.703 90.6749 560.558C90.6304 560.413 90.6469 560.257 90.7208 560.124L99.4842 543.052C99.5202 542.971 99.5761 542.9 99.6473 542.843C99.7185 542.787 99.8029 542.748 99.8934 542.729C100.069 542.666 100.263 542.666 100.439 542.729L168.943 599.643C169.044 599.75 169.099 599.888 169.099 600.032C169.099 600.175 169.044 600.314 168.943 600.42L169.011 600.55ZM92.0507 560.124L164.067 597.214L100.234 544.219L92.0507 560.124Z" fill="#45A5FF"/>
<path d="M243.21 637.867C243.155 637.939 243.084 637.996 243 638.036C242.917 638.075 242.826 638.095 242.733 638.094H203.281C203.189 638.089 203.1 638.066 203.018 638.027C202.936 637.988 202.863 637.934 202.803 637.867L168.091 600.583C168.002 600.483 167.953 600.357 167.953 600.227C167.953 600.096 168.002 599.97 168.091 599.87C168.173 599.761 168.295 599.684 168.434 599.654C168.572 599.624 168.717 599.643 168.841 599.708L243.074 636.96C243.188 637.016 243.278 637.108 243.328 637.221C243.378 637.333 243.385 637.459 243.346 637.576C243.356 637.632 243.348 637.689 243.324 637.741C243.3 637.792 243.26 637.836 243.21 637.867ZM203.553 637.057H240.346L171.16 602.235L203.553 637.057Z" fill="#45A5FF"/>
<path d="M371.796 667.344C371.715 667.437 371.607 667.504 371.486 667.539C371.365 667.573 371.235 667.573 371.114 667.539L302.61 645.511C302.465 645.467 302.343 645.372 302.267 645.246C302.192 645.121 302.168 644.973 302.201 644.831C302.233 644.694 302.317 644.573 302.436 644.49C302.555 644.406 302.701 644.367 302.849 644.378L377.866 650.306C377.96 650.302 378.054 650.322 378.137 650.363C378.221 650.404 378.292 650.465 378.344 650.54C378.395 650.615 378.426 650.702 378.431 650.791C378.437 650.881 378.419 650.97 378.377 651.051L372.001 667.247C371.976 667.277 371.945 667.3 371.91 667.317C371.874 667.334 371.836 667.343 371.796 667.344ZM307.623 645.9L370.944 666.275L376.843 651.375L307.623 645.9Z" fill="#45A5FF"/>
<path d="M444.187 635.858C444.136 635.949 444.051 636.018 443.949 636.053L371.557 667.506C371.462 667.568 371.349 667.6 371.234 667.6C371.118 667.6 371.005 667.568 370.91 667.506C370.818 667.433 370.752 667.335 370.721 667.224C370.691 667.114 370.697 666.998 370.739 666.891L377.115 650.694C377.212 650.528 377.37 650.401 377.559 650.338L443.574 635.016C443.645 634.991 443.721 634.981 443.797 634.986C443.873 634.99 443.947 635.01 444.015 635.044C444.082 635.077 444.142 635.124 444.189 635.18C444.236 635.237 444.271 635.303 444.29 635.373C444.311 635.456 444.313 635.542 444.296 635.626C444.278 635.71 444.241 635.79 444.187 635.858ZM372.376 665.887L437.675 637.51L378.138 651.342L372.376 665.887Z" fill="#45A5FF"/>
<path d="M516.511 615.645L484.561 642.434C484.461 642.516 484.334 642.562 484.203 642.562C484.071 642.562 483.944 642.516 483.845 642.434C483.742 642.361 483.664 642.26 483.621 642.145C483.579 642.03 483.573 641.905 483.606 641.787L491.244 619.435C491.276 619.34 491.334 619.254 491.412 619.186C491.489 619.118 491.584 619.07 491.687 619.047L516 614.609C516.116 614.596 516.235 614.615 516.341 614.664C516.447 614.713 516.535 614.79 516.596 614.885C516.657 614.981 516.688 615.091 516.685 615.203C516.682 615.315 516.645 615.423 516.579 615.516L516.511 615.645ZM485.379 640.296L513.988 616.261L492.199 620.245L485.379 640.296Z" fill="#45A5FF"/>
<path d="M484.629 642.434C484.56 642.515 484.471 642.579 484.37 642.619C484.268 642.658 484.158 642.673 484.049 642.661L443.608 636.182C443.475 636.161 443.352 636.099 443.26 636.006C443.167 635.912 443.11 635.792 443.097 635.664C443.089 635.538 443.125 635.413 443.199 635.308C443.273 635.202 443.38 635.123 443.506 635.081L491.585 619.306C491.675 619.247 491.782 619.216 491.892 619.216C492.001 619.216 492.108 619.247 492.199 619.306C492.256 619.393 492.287 619.494 492.287 619.597C492.287 619.7 492.256 619.801 492.199 619.889L484.595 642.24L484.629 642.434ZM446.131 635.34L483.64 641.462L490.732 620.634L446.131 635.34Z" fill="#45A5FF"/>
<path d="M274.411 42.5481C274.319 42.6421 274.201 42.7095 274.07 42.7424C273.995 42.7746 273.914 42.7913 273.832 42.7913C273.749 42.7913 273.668 42.7746 273.593 42.7424L251.122 28.1656C251.034 28.1104 250.964 28.0321 250.922 27.9401C250.879 27.8481 250.866 27.7463 250.883 27.6473C250.882 27.5513 250.91 27.4571 250.965 27.3764C251.019 27.2957 251.098 27.2321 251.19 27.1938L294.018 4.51866C294.122 4.44747 294.248 4.40918 294.376 4.40918C294.505 4.40918 294.63 4.44747 294.734 4.51866C294.814 4.61567 294.858 4.73544 294.858 4.85879C294.858 4.98213 294.814 5.10191 294.734 5.19891L274.275 42.6129L274.411 42.5481ZM252.622 27.6473L273.695 41.3495L292.825 6.2031L252.622 27.6473Z" fill="#45A5FF"/>
<path d="M321.058 14.4958C321.002 14.5095 320.944 14.5095 320.888 14.4958L274.207 42.5481C274.102 42.6193 273.977 42.6576 273.849 42.6576C273.72 42.6576 273.595 42.6193 273.491 42.5481C273.42 42.4473 273.383 42.329 273.383 42.208C273.383 42.087 273.42 41.9687 273.491 41.8678L293.95 4.45391C294.016 4.32702 294.129 4.22744 294.267 4.17378C294.405 4.12013 294.559 4.11607 294.7 4.16238L320.99 13.5564C321.093 13.5881 321.183 13.6482 321.25 13.729C321.317 13.8097 321.357 13.9075 321.365 14.0099C321.38 14.1119 321.357 14.2156 321.301 14.3039C321.246 14.3922 321.16 14.4599 321.058 14.4958ZM275.434 40.4102L319.251 14.107L294.564 5.32853L275.434 40.4102Z" fill="#45A5FF"/>
<path d="M437.812 11.7422C437.718 11.818 437.615 11.8832 437.505 11.9366L356.487 33.9962C356.418 34.0278 356.342 34.0442 356.265 34.0442C356.188 34.0442 356.113 34.0278 356.043 33.9962L320.274 14.5604C320.161 14.4948 320.074 14.3963 320.024 14.2795C319.975 14.1628 319.967 14.0341 320.001 13.9126C320.031 13.7953 320.101 13.6906 320.199 13.6145C320.298 13.5384 320.42 13.4952 320.547 13.4915L437.3 10.7057C437.449 10.6964 437.595 10.7417 437.709 10.8321C437.824 10.9225 437.897 11.0512 437.914 11.1916C437.937 11.2852 437.94 11.3822 437.922 11.4768C437.905 11.5715 437.867 11.6617 437.812 11.7422ZM356.419 32.8301L432.629 12.0662L322.763 14.6576L356.419 32.8301Z" fill="#45A5FF"/>
<path d="M456.601 29.6555C456.549 29.7225 456.483 29.7777 456.406 29.8169C456.329 29.8562 456.244 29.8785 456.157 29.8822L356.248 34.0285C356.1 34.0378 355.954 33.9925 355.839 33.9021C355.725 33.8116 355.652 33.683 355.635 33.5426C355.613 33.4019 355.645 33.2583 355.727 33.1389C355.809 33.0196 355.933 32.9328 356.078 32.8948L437.062 10.8351C437.15 10.7868 437.25 10.7614 437.352 10.7614C437.454 10.7614 437.554 10.7868 437.642 10.8351L456.566 28.878C456.623 28.9716 456.653 29.0777 456.653 29.1858C456.653 29.2938 456.623 29.3999 456.566 29.4935L456.601 29.6555ZM361.397 32.668L454.759 28.878L437.13 12.1309L361.397 32.668Z" fill="#45A5FF"/>
<path d="M519.171 54.7925C519.096 54.8916 518.986 54.9621 518.861 54.9917C518.737 55.0214 518.605 55.0082 518.489 54.9545L455.884 29.8499C455.756 29.7884 455.653 29.6883 455.591 29.5651C455.53 29.442 455.513 29.3029 455.543 29.1696C455.582 29.0386 455.669 28.9248 455.787 28.8478C455.905 28.7709 456.048 28.7358 456.191 28.7485L503.929 34.223C504.095 34.258 504.24 34.3504 504.338 34.4821L519.103 53.9179C519.173 53.9679 519.231 54.0314 519.272 54.1043C519.314 54.1772 519.339 54.2577 519.346 54.3405C519.352 54.4233 519.34 54.5065 519.31 54.5844C519.28 54.6624 519.232 54.7333 519.171 54.7925ZM460.317 30.4654L516.989 53.1405L503.622 35.3567L460.317 30.4654Z" fill="#45A5FF"/>
<path d="M639.027 179.894C638.975 179.975 638.902 180.041 638.816 180.087C638.729 180.133 638.632 180.158 638.533 180.158C638.433 180.158 638.336 180.133 638.249 180.087C638.163 180.041 638.09 179.975 638.038 179.894L613.044 128.746C612.991 128.63 612.979 128.501 613.01 128.379C613.041 128.256 613.112 128.146 613.214 128.066C613.322 127.987 613.454 127.944 613.589 127.944C613.725 127.944 613.857 127.987 613.965 128.066L641.243 148.279C641.319 148.337 641.38 148.412 641.421 148.496C641.463 148.58 641.483 148.672 641.482 148.765L639.266 179.57C639.257 179.639 639.23 179.704 639.189 179.761C639.147 179.817 639.092 179.863 639.027 179.894ZM615.158 130.268L638.106 177.27L640.186 148.862L615.158 130.268Z" fill="#45A5FF"/>
<path d="M664.566 218.669C664.487 218.683 664.406 218.683 664.328 218.669C664.199 218.73 664.052 218.745 663.913 218.709C663.775 218.673 663.655 218.589 663.577 218.474L638.072 179.603C638.041 179.497 638.041 179.385 638.072 179.279L640.356 148.343C640.356 148.211 640.409 148.084 640.504 147.988C640.599 147.892 640.729 147.833 640.868 147.825C641.006 147.81 641.146 147.841 641.263 147.912C641.381 147.982 641.47 148.089 641.516 148.214L664.771 217.924C664.838 218.05 664.854 218.196 664.816 218.333C664.779 218.47 664.69 218.589 664.566 218.669ZM639.265 179.376L662.145 214.198L641.209 151.647L639.265 179.376Z" fill="#45A5FF"/>
<path d="M693.824 268.781C693.745 268.796 693.664 268.796 693.585 268.781L681.855 274.255C681.782 274.295 681.7 274.316 681.616 274.316C681.532 274.316 681.45 274.295 681.378 274.255C681.292 274.221 681.217 274.168 681.157 274.1C681.098 274.033 681.057 273.952 681.037 273.866L663.51 218.28C663.479 218.147 663.496 218.008 663.558 217.885C663.62 217.761 663.723 217.661 663.851 217.6C663.988 217.551 664.139 217.55 664.276 217.598C664.414 217.645 664.529 217.738 664.601 217.859L693.824 268.133C693.857 268.204 693.875 268.281 693.875 268.36C693.875 268.438 693.857 268.515 693.824 268.586C693.838 268.65 693.838 268.717 693.824 268.781ZM681.991 273.089L692.494 268.165L666.272 223.236L681.991 273.089Z" fill="#45A5FF"/>
<path d="M699.722 358.509C699.621 358.573 699.503 358.608 699.381 358.608C699.26 358.608 699.141 358.573 699.04 358.509L676.467 342.086C676.381 342.036 676.313 341.964 676.271 341.877C676.228 341.791 676.213 341.695 676.228 341.6L681.173 273.769C681.181 273.629 681.246 273.497 681.354 273.401C681.462 273.304 681.604 273.251 681.752 273.251C681.896 273.241 682.038 273.282 682.151 273.365C682.264 273.449 682.341 273.57 682.366 273.705L699.995 357.926C700.01 358.038 699.992 358.151 699.944 358.254C699.896 358.357 699.819 358.445 699.722 358.509ZM677.285 341.471L698.324 356.76L681.889 278.304L677.285 341.471Z" fill="#45A5FF"/>
<path d="M671.319 415.91C671.248 415.988 671.158 416.047 671.056 416.081C670.954 416.115 670.845 416.123 670.739 416.104C670.609 416.082 670.491 416.019 670.404 415.925C670.318 415.831 670.267 415.711 670.261 415.586L668.557 383.452C668.546 383.361 668.558 383.269 668.594 383.185C668.63 383.1 668.687 383.025 668.761 382.966L698.836 357.732C698.941 357.648 699.074 357.601 699.211 357.601C699.349 357.601 699.482 357.648 699.586 357.732C699.694 357.808 699.773 357.916 699.81 358.039C699.847 358.162 699.84 358.293 699.791 358.412L671.387 415.813C671.372 415.85 671.349 415.883 671.319 415.91ZM669.75 383.517L671.319 413.092L697.472 360.291L669.75 383.517Z" fill="#45A5FF"/>
<path d="M699.723 358.509L669.648 383.776C669.549 383.844 669.429 383.881 669.307 383.881C669.184 383.881 669.065 383.844 668.966 383.776C668.856 383.722 668.767 383.637 668.712 383.532C668.656 383.427 668.638 383.308 668.659 383.193L676.16 341.503C676.175 341.406 676.218 341.316 676.284 341.241C676.35 341.167 676.438 341.112 676.535 341.082C676.621 341.026 676.722 340.996 676.825 340.996C676.929 340.996 677.03 341.026 677.115 341.082L699.723 357.505C699.789 357.556 699.842 357.62 699.877 357.693C699.913 357.766 699.93 357.846 699.927 357.926C699.954 358.032 699.948 358.143 699.912 358.246C699.876 358.349 699.81 358.44 699.723 358.509ZM669.954 381.962L698.222 358.25L677.013 342.831L669.954 381.962Z" fill="#45A5FF"/>
<path d="M685.607 431.232L650.383 468.387C650.279 468.471 650.146 468.517 650.008 468.517C649.871 468.517 649.738 468.471 649.633 468.387C649.506 468.318 649.408 468.209 649.358 468.078C649.308 467.947 649.309 467.804 649.36 467.674L670.331 415.197C670.369 415.105 670.428 415.021 670.505 414.954C670.582 414.886 670.674 414.837 670.774 414.809C670.88 414.79 670.99 414.798 671.092 414.832C671.193 414.866 671.284 414.925 671.354 415.003L685.607 430.357C685.678 430.409 685.735 430.475 685.775 430.551C685.814 430.626 685.835 430.71 685.835 430.794C685.835 430.879 685.814 430.963 685.775 431.038C685.735 431.114 685.678 431.18 685.607 431.232ZM651.509 465.406L684.209 430.876L670.979 416.623L651.509 465.406Z" fill="#45A5FF"/>
<path d="M675.137 459.511L605.03 529.35C604.918 529.446 604.772 529.498 604.621 529.498C604.47 529.498 604.325 529.446 604.212 529.35C604.104 529.247 604.043 529.107 604.043 528.961C604.043 528.816 604.104 528.676 604.212 528.573L649.495 467.706C649.568 467.607 649.678 467.538 649.802 467.512L674.523 458.636C674.648 458.583 674.788 458.574 674.919 458.61C675.05 458.645 675.163 458.723 675.239 458.83C675.291 458.942 675.309 459.064 675.291 459.185C675.273 459.305 675.22 459.418 675.137 459.511ZM609.736 522.936L672.375 460.58L650.279 468.516L609.736 522.936Z" fill="#45A5FF"/>
<path d="M613.455 554.552C613.39 554.623 613.308 554.679 613.216 554.714L565.989 574.15C565.882 574.228 565.75 574.271 565.614 574.271C565.478 574.271 565.347 574.228 565.239 574.15C565.173 574.041 565.139 573.918 565.139 573.793C565.139 573.668 565.173 573.545 565.239 573.437L604.009 528.799C604.079 528.721 604.17 528.662 604.272 528.628C604.373 528.594 604.483 528.586 604.589 528.605C604.697 528.626 604.797 528.673 604.881 528.741C604.964 528.809 605.028 528.896 605.066 528.994L613.523 554.228C613.532 554.34 613.508 554.452 613.455 554.552ZM567.66 572.141L611.988 553.872L604.043 530.16L567.66 572.141Z" fill="#45A5FF"/>
<path d="M566.229 573.955L522.514 624.91C522.45 624.985 522.365 625.043 522.269 625.077C522.173 625.111 522.07 625.12 521.969 625.104L491.689 620.407C491.569 620.382 491.458 620.327 491.368 620.247C491.278 620.167 491.212 620.066 491.178 619.954C491.159 619.842 491.174 619.727 491.223 619.623C491.271 619.52 491.35 619.432 491.451 619.37L565.41 573.081C565.532 573.009 565.676 572.979 565.818 572.997C565.96 573.015 566.09 573.079 566.188 573.179C566.285 573.279 566.342 573.408 566.349 573.544C566.357 573.68 566.314 573.814 566.229 573.923V573.955ZM521.901 623.841L562.819 576.126L493.394 619.403L521.901 623.841Z" fill="#45A5FF"/>
<path d="M101.701 113.294C101.654 113.365 101.589 113.423 101.511 113.463C101.433 113.503 101.346 113.523 101.258 113.521C101.168 113.526 101.078 113.511 100.995 113.477C100.912 113.444 100.839 113.392 100.781 113.327L93.6882 105.552C93.6485 105.471 93.6279 105.383 93.6279 105.293C93.6279 105.204 93.6485 105.115 93.6882 105.034C93.7115 104.945 93.758 104.862 93.8235 104.794C93.8891 104.726 93.9715 104.675 94.0632 104.645L112.545 97.6484C112.671 97.6069 112.807 97.6033 112.935 97.6381C113.063 97.6728 113.177 97.7443 113.261 97.8428C113.341 97.9398 113.385 98.0595 113.385 98.1829C113.385 98.3062 113.341 98.426 113.261 98.523L102.008 113.294H101.701ZM94.8816 105.39L101.088 112.031L110.737 99.43L94.8816 105.39Z" fill="#45A5FF"/>
<path d="M241.949 35.3569H241.744L112.749 98.6852C112.645 98.7697 112.512 98.816 112.374 98.816C112.237 98.816 112.104 98.7697 111.999 98.6852C111.947 98.6369 111.905 98.579 111.876 98.515C111.848 98.451 111.833 98.3822 111.833 98.3127C111.833 98.2432 111.848 98.1744 111.876 98.1104C111.905 98.0464 111.947 97.9885 111.999 97.9402L162.806 50.8731C162.905 50.8384 163.014 50.8384 163.113 50.8731L241.335 34.6766C241.48 34.6435 241.632 34.6614 241.764 34.727C241.895 34.7925 241.998 34.9012 242.051 35.0329C242.054 35.1484 242.018 35.2617 241.949 35.3569ZM115.784 95.9642L237.107 36.523L163.522 51.7801L115.784 95.9642Z" fill="#45A5FF"/>
<path d="M277.821 641.106C277.748 641.205 277.638 641.274 277.514 641.3L241.233 651.893C241.174 651.917 241.11 651.929 241.046 651.929C240.981 651.929 240.917 651.917 240.858 651.893L203.35 638.029C203.214 637.984 203.1 637.893 203.031 637.773C202.961 637.654 202.941 637.514 202.975 637.381C203.006 637.249 203.084 637.132 203.196 637.05C203.308 636.967 203.447 636.924 203.588 636.927L277.514 640.166C277.654 640.181 277.784 640.24 277.883 640.334C277.983 640.428 278.045 640.552 278.06 640.685C278.052 640.767 278.026 640.846 277.985 640.918C277.944 640.991 277.888 641.054 277.821 641.106ZM241.097 650.824L273.866 641.268L207.066 638.32L241.097 650.824Z" fill="#45A5FF"/>
<path d="M444.187 635.858C444.107 635.971 443.985 636.052 443.846 636.085L377.831 651.407C377.712 651.435 377.586 651.429 377.47 651.388C377.355 651.348 377.255 651.275 377.183 651.18C377.111 651.086 377.072 650.972 377.072 650.856C377.072 650.74 377.111 650.626 377.183 650.532L406.235 614.479C406.318 614.369 406.44 614.292 406.578 614.262C406.716 614.233 406.861 614.252 406.985 614.317L443.948 635.016C444.048 635.077 444.128 635.165 444.176 635.269C444.224 635.372 444.24 635.487 444.221 635.599C444.245 635.686 444.232 635.779 444.187 635.858ZM379.195 649.917L442.141 635.307L406.917 615.58L379.195 649.917Z" fill="#45A5FF"/>
<path d="M566.228 573.955H566.058L492.098 620.083C491.988 620.17 491.849 620.218 491.706 620.218C491.562 620.218 491.424 620.17 491.313 620.083C491.222 619.978 491.172 619.847 491.172 619.711C491.172 619.575 491.222 619.443 491.313 619.338L536.971 568.125C537.042 568.047 537.132 567.988 537.234 567.954C537.336 567.92 537.445 567.911 537.551 567.93L565.853 573.048C565.972 573.067 566.083 573.121 566.168 573.202C566.254 573.284 566.311 573.388 566.33 573.502C566.349 573.58 566.35 573.661 566.332 573.739C566.314 573.818 566.279 573.892 566.228 573.955ZM494.928 617.103L564.25 573.891L537.756 569.097L494.928 617.103Z" fill="#45A5FF"/>
<path d="M169.013 600.55C168.906 600.629 168.774 600.671 168.638 600.671C168.503 600.671 168.371 600.629 168.263 600.55L99.6229 543.733C99.5263 543.648 99.4609 543.536 99.4365 543.413C99.412 543.29 99.4298 543.163 99.4871 543.051C99.5444 542.938 99.6382 542.846 99.7547 542.788C99.8713 542.73 100.004 542.709 100.134 542.728L152.237 551.248C152.34 551.271 152.435 551.319 152.512 551.387C152.59 551.455 152.648 551.541 152.68 551.637L169.116 600.032C169.143 600.12 169.148 600.212 169.13 600.302C169.112 600.392 169.072 600.477 169.013 600.55ZM102.044 544.218L167.309 598.412L151.657 552.317L102.044 544.218Z" fill="#45A5FF"/>
<path d="M49.361 472.079C49.3081 472.142 49.2405 472.192 49.1635 472.226C49.0866 472.26 49.0024 472.276 48.9177 472.274C48.7881 472.288 48.657 472.261 48.5456 472.197C48.4342 472.132 48.3491 472.034 48.3039 471.917L22.5254 403.892C22.468 403.804 22.4375 403.703 22.4375 403.6C22.4375 403.497 22.468 403.396 22.5254 403.309C22.6123 403.257 22.7127 403.23 22.8152 403.23C22.9178 403.23 23.0182 403.257 23.1051 403.309L65.3191 412.638C65.471 412.682 65.6029 412.774 65.6942 412.897C65.7436 413.034 65.7436 413.182 65.6942 413.318L49.2587 471.852L49.361 472.079ZM24.1962 404.637L48.9518 469.812L64.7054 413.61L24.1962 404.637Z" fill="#45A5FF"/>
<path d="M152.578 552.155C152.52 552.239 152.438 552.305 152.341 552.345C152.244 552.386 152.137 552.398 152.033 552.382L99.9301 543.927C99.7646 543.892 99.6187 543.8 99.5209 543.668L48.373 472.112C48.2923 472.003 48.249 471.873 48.249 471.739C48.249 471.606 48.2923 471.476 48.373 471.367C48.4832 471.28 48.6219 471.232 48.7652 471.232C48.9084 471.232 49.0471 471.28 49.1573 471.367L152.51 551.378C152.582 551.472 152.621 551.585 152.621 551.701C152.621 551.818 152.582 551.931 152.51 552.025L152.578 552.155ZM100.51 542.761L150.123 550.859L51.817 474.639L100.51 542.761Z" fill="#45A5FF"/>
<path d="M71.1501 273.575C71.0815 273.646 70.9964 273.7 70.9016 273.734C70.8069 273.767 70.7051 273.78 70.6045 273.769L21.7754 268.846C21.6913 268.833 21.6111 268.804 21.5404 268.759C21.4697 268.714 21.4102 268.655 21.3662 268.586C21.2998 268.431 21.2998 268.256 21.3662 268.1L43.2575 196.674C43.2951 196.557 43.3725 196.456 43.4774 196.385C43.5823 196.315 43.7088 196.28 43.8371 196.285C43.9654 196.28 44.092 196.315 44.1969 196.385C44.3018 196.456 44.3792 196.557 44.4168 196.674L71.2524 273.057C71.2725 273.145 71.2738 273.237 71.2563 273.326C71.2387 273.415 71.2026 273.499 71.1501 273.575ZM22.6278 267.809L69.8203 272.571L43.8712 198.747L22.6278 267.809Z" fill="#45A5FF"/>
<path d="M65.4219 194.957C65.28 195.013 65.1206 195.013 64.9787 194.957L31.6984 192.042C31.5804 192.038 31.4667 191.998 31.3744 191.928C31.2822 191.858 31.2164 191.762 31.1869 191.653C31.1523 191.551 31.15 191.441 31.1803 191.337C31.2106 191.234 31.2722 191.141 31.3574 191.07L66.82 161.301C66.9049 161.219 67.0148 161.164 67.1341 161.144C67.2535 161.124 67.3764 161.141 67.4856 161.191C67.5947 161.241 67.6846 161.322 67.7425 161.423C67.8005 161.524 67.8237 161.64 67.8088 161.754L65.6265 194.439C65.6403 194.534 65.6288 194.632 65.5931 194.722C65.5574 194.813 65.4986 194.893 65.4219 194.957ZM33.1306 191.232L64.399 193.985L66.4449 163.277L33.1306 191.232Z" fill="#45A5FF"/>
<path d="M241.915 35.0652L148.69 118.639C148.585 118.71 148.46 118.749 148.332 118.749C148.203 118.749 148.078 118.71 147.974 118.639L112.17 98.6203C112.077 98.5655 112 98.4893 111.946 98.3987C111.893 98.308 111.864 98.2059 111.863 98.102C111.87 97.9996 111.905 97.9008 111.965 97.8155C112.025 97.7302 112.107 97.6614 112.204 97.6161L241.165 34.1582C241.293 34.0838 241.445 34.0592 241.592 34.0894C241.738 34.1195 241.866 34.2022 241.949 34.3201C242.036 34.4285 242.08 34.5624 242.074 34.6985C242.068 34.8346 242.012 34.9643 241.915 35.0652ZM148.246 117.505L237.926 37.1059L113.705 98.2315L148.246 117.505Z" fill="#45A5FF"/>
<path d="M255.69 81.1929C255.632 81.269 255.555 81.3298 255.465 81.3694C255.376 81.4091 255.277 81.4264 255.179 81.4197C255.053 81.411 254.934 81.366 254.836 81.2907C254.739 81.2154 254.668 81.1134 254.633 80.9986L240.994 35.1301C240.946 35.0454 240.921 34.9508 240.921 34.8547C240.921 34.7587 240.946 34.6641 240.994 34.5794C241.085 34.5429 241.184 34.524 241.283 34.524C241.383 34.524 241.482 34.5429 241.573 34.5794L274.001 41.803C274.137 41.7689 274.282 41.7803 274.41 41.8354C274.477 41.9913 274.477 42.1655 274.41 42.3213L255.724 80.9662C255.738 80.9832 255.747 81.0026 255.753 81.0232C255.759 81.0438 255.76 81.0652 255.757 81.0863C255.753 81.1073 255.746 81.1276 255.735 81.1459C255.723 81.1642 255.708 81.1802 255.69 81.1929ZM242.323 35.8427L255.349 79.2817L273.046 42.6776L242.323 35.8427Z" fill="#45A5FF"/>
<path d="M313.898 85.9547C313.812 86.0409 313.707 86.1073 313.591 86.1491C313.492 86.2031 313.381 86.2316 313.267 86.2316C313.153 86.2316 313.041 86.2031 312.943 86.1491L273.457 42.5481C273.396 42.4025 273.396 42.2403 273.457 42.0946C273.494 41.9373 273.591 41.7987 273.729 41.7059L320.41 13.6535C320.511 13.6052 320.622 13.58 320.734 13.58C320.847 13.58 320.958 13.6052 321.058 13.6535C321.156 13.7097 321.234 13.7919 321.282 13.8898C321.331 13.9878 321.348 14.0971 321.331 14.2042L314.17 85.6632C314.156 85.7303 314.123 85.7926 314.075 85.8438C314.027 85.895 313.966 85.9333 313.898 85.9547ZM274.821 42.3214L312.943 84.2379L319.763 15.2408L274.821 42.3214Z" fill="#45A5FF"/>
<path d="M356.794 33.8021L313.864 85.9548C313.794 86.0594 313.686 86.1366 313.561 86.1722C313.436 86.2079 313.301 86.1997 313.182 86.1492C313.06 86.1063 312.956 86.0254 312.888 85.9196C312.82 85.8138 312.791 85.6892 312.807 85.5661L319.968 14.1071C319.977 14.0095 320.013 13.9161 320.073 13.8364C320.133 13.7566 320.214 13.6936 320.309 13.6536C320.397 13.6053 320.497 13.5798 320.598 13.5798C320.7 13.5798 320.8 13.6053 320.888 13.6536L356.624 33.0894C356.704 33.1254 356.775 33.1797 356.828 33.2475C356.882 33.3153 356.917 33.3944 356.931 33.4781C356.929 33.5984 356.88 33.7139 356.794 33.8021ZM314.205 83.7197L355.43 33.6077L321.093 15.0789L314.205 83.7197Z" fill="#45A5FF"/>
<path d="M456.599 29.6556L423.08 68.9807C422.975 69.0651 422.842 69.1115 422.705 69.1115C422.568 69.1115 422.435 69.0651 422.33 68.9807L356.042 33.9314C355.921 33.8814 355.824 33.7914 355.767 33.6783C355.711 33.5652 355.7 33.4365 355.735 33.316C355.77 33.1925 355.845 33.0826 355.949 33.0013C356.053 32.92 356.181 32.8715 356.315 32.8625L456.121 28.8781C456.233 28.8677 456.345 28.89 456.443 28.9422C456.54 28.9943 456.619 29.0738 456.667 29.1697C456.691 29.2508 456.698 29.3358 456.686 29.4193C456.674 29.5029 456.645 29.5833 456.599 29.6556ZM422.5 67.8793L454.86 29.9471L358.497 33.9314L422.5 67.8793Z" fill="#45A5FF"/>
<path d="M519.17 54.7927L480.127 80.7071C480.049 80.7468 479.961 80.7675 479.872 80.7675C479.783 80.7675 479.695 80.7468 479.616 80.7071C479.525 80.7656 479.419 80.7969 479.309 80.7969C479.2 80.7969 479.093 80.7656 479.002 80.7071L455.577 29.5261C455.512 29.4352 455.478 29.328 455.478 29.2184C455.478 29.1087 455.512 29.0016 455.577 28.9106C455.672 28.8494 455.785 28.8167 455.9 28.8167C456.016 28.8167 456.129 28.8494 456.224 28.9106L518.795 53.9505C518.894 53.9887 518.98 54.0506 519.046 54.1301C519.112 54.2096 519.155 54.304 519.17 54.404C519.223 54.5286 519.223 54.668 519.17 54.7927ZM479.957 79.6381L517.465 54.5659L457.281 30.4979L479.957 79.6381Z" fill="#45A5FF"/>
<path d="M614.068 128.713C614.001 128.804 613.905 128.872 613.795 128.908L564.249 145.914C564.1 145.956 563.94 145.943 563.8 145.877C563.661 145.811 563.553 145.697 563.499 145.558L534.822 72.5116C534.776 72.3973 534.771 72.2716 534.808 72.1543C534.845 72.0369 534.922 71.9347 535.027 71.8637C535.129 71.7875 535.255 71.7461 535.385 71.7461C535.515 71.7461 535.641 71.7875 535.743 71.8637L613.931 127.904C614.013 127.97 614.075 128.056 614.111 128.153C614.147 128.25 614.156 128.354 614.136 128.454C614.149 128.546 614.125 128.639 614.068 128.713ZM564.454 144.651L612.192 128.195L536.698 73.9368L564.454 144.651Z" fill="#45A5FF"/>
<path d="M639.026 179.894C638.927 179.963 638.808 180 638.685 180C638.563 180 638.443 179.963 638.344 179.894L563.805 145.882C563.701 145.83 563.616 145.75 563.562 145.652C563.507 145.553 563.485 145.441 563.498 145.331C563.494 145.222 563.529 145.114 563.597 145.026C563.665 144.938 563.762 144.874 563.873 144.845L613.384 127.839C613.525 127.792 613.679 127.797 613.817 127.85C613.955 127.904 614.068 128.003 614.134 128.13L639.265 179.279C639.28 179.392 639.266 179.507 639.225 179.614C639.183 179.721 639.115 179.817 639.026 179.894ZM565.646 145.493L637.253 178.372L613.214 129.167L565.646 145.493Z" fill="#45A5FF"/>
<path d="M664.568 218.669L594.086 264.019C593.975 264.089 593.844 264.126 593.711 264.126C593.578 264.126 593.447 264.089 593.336 264.019C593.253 263.917 593.208 263.792 593.208 263.663C593.208 263.534 593.253 263.408 593.336 263.306L638.312 179.246C638.349 179.147 638.419 179.062 638.511 179.003C638.603 178.945 638.713 178.917 638.823 178.923C638.925 178.922 639.024 178.946 639.113 178.991C639.203 179.036 639.279 179.102 639.335 179.182L664.875 218.053C664.898 218.173 664.881 218.298 664.826 218.408C664.771 218.518 664.68 218.61 664.568 218.669ZM595.177 261.881L663.374 218.15L638.721 180.704L595.177 261.881Z" fill="#45A5FF"/>
<path d="M682.094 274.255C682.025 274.326 681.94 274.38 681.846 274.414C681.751 274.448 681.649 274.46 681.548 274.45L593.574 264.149C593.456 264.13 593.347 264.079 593.259 264.002C593.172 263.925 593.11 263.825 593.081 263.715C593.052 263.605 593.057 263.489 593.096 263.382C593.136 263.275 593.207 263.181 593.301 263.112L663.783 217.762C663.868 217.722 663.961 217.701 664.056 217.701C664.151 217.701 664.244 217.722 664.329 217.762C664.413 217.794 664.49 217.843 664.554 217.904C664.619 217.965 664.67 218.038 664.704 218.118L682.23 273.705C682.251 273.8 682.249 273.899 682.225 273.994C682.202 274.089 682.157 274.178 682.094 274.255ZM595.279 263.242L680.764 273.251L663.715 219.219L595.279 263.242Z" fill="#45A5FF"/>
<path d="M677.116 342.086C677.116 342.086 677.116 342.086 677.116 342.248C677.026 342.288 676.927 342.309 676.826 342.309C676.726 342.309 676.627 342.288 676.537 342.248L641.313 325.274C641.233 325.246 641.162 325.198 641.108 325.136C641.054 325.073 641.019 324.998 641.006 324.918C640.939 324.762 640.939 324.588 641.006 324.432L681.208 273.575C681.283 273.475 681.39 273.402 681.514 273.366C681.637 273.331 681.77 273.336 681.89 273.38C682.013 273.423 682.116 273.504 682.184 273.61C682.252 273.716 682.281 273.84 682.265 273.963L677.321 341.762C677.292 341.889 677.22 342.003 677.116 342.086ZM642.336 324.594L676.127 340.79L680.867 275.777L642.336 324.594Z" fill="#45A5FF"/>
<path d="M669.614 383.744C669.614 383.744 669.614 383.744 669.409 383.938L623.683 404.637C623.564 404.7 623.424 404.718 623.292 404.688C623.159 404.658 623.043 404.582 622.967 404.475C622.894 404.369 622.854 404.245 622.854 404.119C622.854 403.992 622.894 403.868 622.967 403.762L676.195 341.406C676.283 341.318 676.397 341.258 676.522 341.235C676.647 341.211 676.777 341.225 676.893 341.275C677.01 341.325 677.107 341.408 677.171 341.513C677.235 341.618 677.263 341.739 677.252 341.859L669.75 383.549C669.721 383.623 669.674 383.69 669.614 383.744ZM625.627 402.499L668.693 383.063L675.752 343.835L625.627 402.499Z" fill="#45A5FF"/>
<path d="M605.168 529.318C605.092 529.425 604.978 529.503 604.847 529.539C604.716 529.574 604.576 529.565 604.452 529.512C604.33 529.459 604.229 529.371 604.161 529.261C604.094 529.151 604.065 529.024 604.077 528.897L612.499 473.375C612.512 473.256 612.566 473.144 612.652 473.056C612.738 472.968 612.852 472.91 612.977 472.889L649.974 467.48C650.091 467.461 650.212 467.476 650.321 467.522C650.43 467.568 650.523 467.644 650.587 467.739C650.655 467.835 650.691 467.947 650.691 468.063C650.691 468.178 650.655 468.291 650.587 468.387L605.168 529.318ZM613.625 473.958L605.645 526.726L648.746 468.808L613.625 473.958Z" fill="#45A5FF"/>
<path d="M650.382 468.387C650.327 468.458 650.255 468.516 650.172 468.555C650.089 468.595 649.997 468.615 649.904 468.613C649.781 468.616 649.66 468.583 649.557 468.52C649.454 468.456 649.373 468.365 649.325 468.257L622.864 404.313C622.807 404.226 622.776 404.125 622.776 404.022C622.776 403.919 622.807 403.818 622.864 403.73C622.943 403.654 623.04 403.597 623.147 403.563C623.253 403.53 623.367 403.52 623.478 403.536L670.909 415.003C670.993 415.015 671.073 415.049 671.139 415.1C671.205 415.151 671.255 415.218 671.284 415.294C671.318 415.366 671.336 415.443 671.336 415.521C671.336 415.599 671.318 415.677 671.284 415.748L650.314 468.257C650.349 468.293 650.373 468.338 650.382 468.387ZM624.433 404.929L649.87 466.475L670.057 415.942L624.433 404.929Z" fill="#45A5FF"/>
<path d="M492.232 620.083C492.204 620.132 492.165 620.175 492.118 620.209C492.071 620.242 492.017 620.266 491.959 620.278L443.914 636.053C443.795 636.085 443.668 636.081 443.551 636.043C443.433 636.004 443.331 635.933 443.257 635.838C443.183 635.744 443.142 635.63 443.137 635.512C443.133 635.394 443.166 635.278 443.232 635.178L468.363 602.235C468.465 602.113 468.611 602.032 468.772 602.008C468.842 601.979 468.918 601.963 468.994 601.963C469.07 601.963 469.146 601.979 469.216 602.008L492.13 619.144C492.215 619.209 492.282 619.294 492.324 619.39C492.366 619.486 492.381 619.591 492.369 619.695C492.369 619.835 492.321 619.971 492.232 620.083ZM445.312 634.401L490.527 619.533L468.977 603.336L445.312 634.401Z" fill="#45A5FF"/>
<path d="M243.211 637.867C243.129 637.976 243.007 638.053 242.868 638.083C242.73 638.113 242.585 638.094 242.461 638.029L168.262 600.777C168.131 600.72 168.027 600.619 167.971 600.493C167.914 600.367 167.909 600.226 167.955 600.097C168.007 599.969 168.103 599.861 168.226 599.791C168.35 599.721 168.494 599.691 168.637 599.708L259.067 614.285C259.169 614.298 259.264 614.339 259.343 614.402C259.421 614.465 259.479 614.548 259.51 614.641C259.562 614.719 259.589 614.808 259.589 614.9C259.589 614.992 259.562 615.082 259.51 615.159L243.279 637.834L243.211 637.867ZM172.116 601.36L242.563 636.701L257.942 615.192L172.116 601.36Z" fill="#45A5FF"/>
<path d="M303.259 645.317C303.189 645.395 303.098 645.454 302.996 645.488C302.895 645.523 302.785 645.531 302.679 645.512L277.105 641.398C277.023 641.394 276.942 641.372 276.871 641.332C276.8 641.293 276.74 641.237 276.696 641.171L258.453 615.192C258.37 615.09 258.325 614.964 258.325 614.836C258.325 614.707 258.37 614.581 258.453 614.479C258.558 614.395 258.691 614.348 258.828 614.348C258.966 614.348 259.099 614.395 259.203 614.479L303.156 644.346C303.263 644.43 303.34 644.544 303.376 644.672C303.413 644.799 303.407 644.934 303.361 645.058L303.259 645.317ZM277.548 640.329L300.36 643.989L261.317 617.103L277.548 640.329Z" fill="#45A5FF"/>
<path d="M378.173 651.213C378.106 651.287 378.022 651.347 377.928 651.386C377.833 651.425 377.73 651.444 377.627 651.44L302.61 645.512C302.471 645.512 302.338 645.462 302.236 645.372C302.135 645.281 302.074 645.158 302.065 645.026C302.043 644.894 302.072 644.758 302.147 644.645C302.223 644.531 302.339 644.448 302.474 644.41L406.441 614.285C406.565 614.244 406.7 614.244 406.823 614.285C406.947 614.326 407.053 614.406 407.123 614.512C407.195 614.606 407.234 614.719 407.234 614.836C407.234 614.952 407.195 615.065 407.123 615.16L378.071 651.213H378.173ZM305.952 644.734L377.559 650.371L405.281 616.002L305.952 644.734Z" fill="#45A5FF"/>
<path d="M169.011 600.55C168.958 600.624 168.887 600.683 168.803 600.723C168.72 600.763 168.627 600.781 168.533 600.777C168.405 600.782 168.278 600.747 168.173 600.677C168.069 600.606 167.991 600.505 167.954 600.388L151.654 551.993C151.608 551.879 151.603 551.753 151.64 551.636C151.677 551.519 151.754 551.416 151.859 551.345L198.063 517.559C198.167 517.488 198.292 517.45 198.421 517.45C198.549 517.45 198.674 517.488 198.779 517.559C198.879 517.634 198.953 517.736 198.99 517.852C199.027 517.968 199.024 518.092 198.983 518.207L169.215 600.421L169.011 600.55ZM152.814 551.961L168.704 598.412L197.278 519.6L152.814 551.961Z" fill="#45A5FF"/>
<path d="M259.442 615.192C259.375 615.276 259.287 615.341 259.185 615.381C259.083 615.421 258.971 615.434 258.862 615.419L168.433 600.842C168.296 600.814 168.173 600.746 168.081 600.647C167.989 600.548 167.933 600.423 167.921 600.291C167.918 600.156 167.963 600.025 168.05 599.919C168.137 599.812 168.26 599.738 168.398 599.708L287.914 577.033C288.032 577.005 288.157 577.015 288.268 577.062C288.379 577.109 288.471 577.19 288.528 577.292C288.595 577.388 288.631 577.501 288.631 577.616C288.631 577.731 288.595 577.844 288.528 577.94L259.442 615.192ZM171.842 600.226L258.692 614.22L286.618 578.361L171.842 600.226Z" fill="#45A5FF"/>
<path d="M303.259 645.317C303.158 645.381 303.04 645.415 302.918 645.415C302.797 645.415 302.678 645.381 302.577 645.317L258.624 615.192C258.514 615.083 258.452 614.938 258.452 614.787C258.452 614.636 258.514 614.49 258.624 614.382L287.676 577.065C287.742 576.973 287.836 576.901 287.946 576.861C288.056 576.82 288.176 576.812 288.29 576.838C288.408 576.861 288.515 576.916 288.6 576.997C288.685 577.078 288.743 577.18 288.767 577.292L303.532 644.766C303.538 644.872 303.516 644.978 303.468 645.074C303.42 645.17 303.349 645.254 303.259 645.317ZM259.818 614.673L301.895 643.633L287.71 578.847L259.818 614.673Z" fill="#45A5FF"/>
<path d="M444.188 635.858C444.104 635.976 443.976 636.059 443.83 636.089C443.684 636.119 443.531 636.095 443.404 636.02L406.441 615.192C406.341 615.13 406.262 615.042 406.213 614.939C406.165 614.835 406.149 614.72 406.168 614.609C406.186 614.491 406.241 614.381 406.327 614.295C406.412 614.208 406.523 614.148 406.645 614.123L468.773 602.008C468.891 601.989 469.012 602.004 469.121 602.05C469.23 602.096 469.322 602.172 469.387 602.267C469.459 602.361 469.498 602.474 469.498 602.591C469.498 602.707 469.459 602.82 469.387 602.915L444.256 635.858H444.188ZM408.419 615.192L443.54 634.627L467.409 603.303L408.419 615.192Z" fill="#45A5FF"/>
<path d="M605.168 529.318L566.398 573.923C566.332 574.007 566.243 574.072 566.141 574.112C566.039 574.152 565.928 574.165 565.818 574.15L537.517 569.032C537.394 569.006 537.283 568.946 537.198 568.859C537.112 568.773 537.057 568.663 537.039 568.546C537.02 568.434 537.036 568.319 537.084 568.215C537.133 568.112 537.212 568.024 537.312 567.963L604.384 528.475C604.491 528.382 604.631 528.33 604.776 528.33C604.921 528.33 605.061 528.382 605.168 528.475C605.233 528.527 605.285 528.592 605.32 528.664C605.356 528.737 605.374 528.816 605.374 528.897C605.374 528.977 605.356 529.056 605.32 529.129C605.285 529.202 605.233 529.266 605.168 529.318ZM565.511 573.081L601.758 531.294L539.085 568.189L565.511 573.081Z" fill="#45A5FF"/>
<path d="M407.397 615.191C407.322 615.283 407.23 615.36 407.124 615.418L303.123 645.544C302.967 645.589 302.801 645.589 302.646 645.544C302.507 645.451 302.41 645.312 302.373 645.155L287.608 577.68C287.588 577.579 287.597 577.476 287.633 577.379C287.669 577.282 287.731 577.196 287.813 577.13C287.901 577.081 288.001 577.056 288.103 577.056C288.204 577.056 288.304 577.081 288.392 577.13L407.124 614.511C407.246 614.547 407.353 614.62 407.427 614.72C407.501 614.82 407.539 614.94 407.533 615.062C407.499 615.115 407.452 615.159 407.397 615.191ZM303.43 644.345L404.941 614.932L289.006 578.458L303.43 644.345Z" fill="#45A5FF"/>
<path d="M30.1975 353.877C30.1274 353.955 30.0369 354.014 29.9352 354.048C29.8334 354.082 29.7239 354.09 29.6179 354.071C29.4881 354.05 29.3702 353.986 29.2834 353.892C29.1966 353.798 29.1462 353.678 29.1405 353.553L21.2637 268.36C21.2482 268.276 21.2558 268.191 21.2857 268.111C21.3156 268.032 21.3668 267.961 21.4342 267.906C21.494 267.844 21.5687 267.797 21.6519 267.769C21.735 267.741 21.8242 267.732 21.9116 267.744L70.7408 272.668C70.8331 272.681 70.9211 272.714 70.9979 272.765C71.0747 272.815 71.1384 272.882 71.1841 272.959C71.2261 273.04 71.248 273.129 71.248 273.219C71.248 273.308 71.2261 273.397 71.1841 273.478L30.2657 353.78L30.1975 353.877ZM22.5254 268.943L30.1293 351.415L69.7519 273.672L22.5254 268.943Z" fill="#45A5FF"/>
<path d="M152.575 552.155C152.462 552.236 152.325 552.28 152.183 552.28C152.041 552.28 151.904 552.236 151.791 552.155L48.6427 472.177C48.5486 472.104 48.4789 472.008 48.4426 471.898C48.4062 471.789 48.4046 471.671 48.4381 471.561L64.8736 413.027C64.8996 412.919 64.959 412.822 65.0441 412.747C65.1292 412.672 65.2362 412.622 65.351 412.606C65.4718 412.595 65.5933 412.616 65.7018 412.668C65.8103 412.72 65.9014 412.799 65.9648 412.897L152.643 551.507C152.701 551.609 152.725 551.725 152.713 551.841C152.701 551.956 152.653 552.066 152.575 552.155ZM49.6997 471.496L149.847 549.24L65.6579 414.646L49.6997 471.496Z" fill="#45A5FF"/>
<path d="M288.494 577.81C288.411 577.921 288.291 578.001 288.153 578.037L168.808 600.712C168.707 600.728 168.603 600.719 168.507 600.685C168.412 600.651 168.327 600.593 168.262 600.518C168.214 600.433 168.189 600.338 168.189 600.242C168.189 600.146 168.214 600.052 168.262 599.967L198.064 517.754C198.093 517.67 198.141 517.594 198.207 517.532C198.272 517.47 198.352 517.424 198.439 517.397C198.518 517.357 198.606 517.337 198.695 517.337C198.784 517.337 198.872 517.357 198.951 517.397L288.698 576.871C288.787 576.941 288.855 577.031 288.897 577.133C288.939 577.235 288.952 577.345 288.937 577.454C288.838 577.618 288.681 577.744 288.494 577.81ZM169.456 599.449L286.55 577.162L198.61 518.855L169.456 599.449Z" fill="#45A5FF"/>
<path d="M148.758 118.574H148.588L67.4329 162.434C67.3122 162.491 67.1754 162.508 67.0435 162.483C66.9116 162.458 66.792 162.393 66.7029 162.297C66.6138 162.202 66.5603 162.081 66.5505 161.953C66.5407 161.826 66.5752 161.699 66.6487 161.592L100.747 112.646C100.809 112.557 100.896 112.485 100.999 112.439C101.101 112.394 101.215 112.376 101.327 112.387L148.247 117.667C148.372 117.68 148.49 117.731 148.582 117.813C148.675 117.894 148.736 118.003 148.758 118.121C148.792 118.192 148.809 118.269 148.809 118.348C148.809 118.426 148.792 118.503 148.758 118.574ZM69.0356 160.264L146.371 118.574L101.532 113.553L69.0356 160.264Z" fill="#45A5FF"/>
<path d="M564.556 145.719C564.454 145.796 564.328 145.837 564.198 145.837C564.069 145.837 563.943 145.796 563.84 145.719L479.446 80.9334C479.352 80.8614 479.283 80.7646 479.246 80.6551C479.21 80.5456 479.208 80.4283 479.242 80.318C479.274 80.2164 479.335 80.1257 479.42 80.0568C479.505 79.9879 479.609 79.9436 479.719 79.9293L535.47 71.7986C535.609 71.784 535.748 71.8145 535.866 71.8851C535.984 71.9558 536.073 72.0623 536.118 72.1873L564.795 145.234C564.802 145.327 564.784 145.421 564.742 145.506C564.7 145.591 564.637 145.665 564.556 145.719ZM481.117 80.7067L562.749 143.549L535.027 72.9324L481.117 80.7067Z" fill="#45A5FF"/>
<path d="M594.086 263.954C594.025 264.035 593.942 264.099 593.846 264.139C593.75 264.179 593.644 264.194 593.54 264.181C593.413 264.174 593.292 264.125 593.198 264.042C593.105 263.96 593.045 263.848 593.029 263.728L563.5 145.493C563.477 145.388 563.486 145.279 563.524 145.178C563.563 145.078 563.63 144.989 563.718 144.922C563.806 144.855 563.912 144.813 564.023 144.799C564.135 144.785 564.249 144.801 564.352 144.845L638.823 179.02C638.966 179.086 639.076 179.202 639.13 179.344C639.164 179.415 639.182 179.492 639.182 179.571C639.182 179.649 639.164 179.726 639.13 179.797L594.154 264.019L594.086 263.954ZM564.966 146.4L593.813 262.108L637.766 179.959L564.966 146.4Z" fill="#45A5FF"/>
<path d="M537.891 568.837L492.233 620.083C492.125 620.186 491.977 620.244 491.824 620.244C491.671 620.244 491.523 620.186 491.415 620.083L468.466 602.915C468.39 602.858 468.331 602.784 468.295 602.698C468.259 602.613 468.248 602.52 468.262 602.429C468.268 602.335 468.299 602.244 468.353 602.164C468.407 602.085 468.481 602.02 468.569 601.975L537.141 567.898C537.259 567.804 537.411 567.757 537.564 567.769C537.718 567.782 537.86 567.851 537.959 567.963C538.059 568.075 538.108 568.219 538.095 568.365C538.082 568.511 538.009 568.646 537.891 568.74V568.837ZM491.688 618.949L534.993 570.36L469.933 602.753L491.688 618.949Z" fill="#45A5FF"/>
<path d="M605.167 529.318C605.106 529.399 605.023 529.463 604.927 529.503C604.831 529.543 604.726 529.557 604.622 529.545L535.231 521.867C535.108 521.862 534.991 521.818 534.898 521.741C534.805 521.665 534.742 521.561 534.719 521.446C534.69 521.333 534.696 521.213 534.739 521.104C534.782 520.994 534.858 520.899 534.958 520.831L612.737 472.986C612.838 472.922 612.957 472.888 613.078 472.888C613.199 472.888 613.318 472.922 613.419 472.986C613.51 473.047 613.581 473.131 613.623 473.228C613.666 473.326 613.678 473.433 613.658 473.537L605.167 529.059C605.201 529.142 605.201 529.234 605.167 529.318ZM536.97 520.928L604.11 528.346L611.987 474.606L536.97 520.928Z" fill="#45A5FF"/>
<path d="M605.167 529.318L538.095 568.837C538.001 568.885 537.895 568.91 537.788 568.91C537.681 568.91 537.576 568.885 537.481 568.837C537.393 568.785 537.319 568.714 537.265 568.63C537.212 568.545 537.181 568.45 537.174 568.351L534.515 521.252C534.509 521.166 534.525 521.081 534.561 521.002C534.596 520.923 534.65 520.853 534.719 520.798C534.873 520.74 535.043 520.74 535.197 520.798L604.587 528.475C604.711 528.492 604.826 528.545 604.918 528.626C605.009 528.707 605.072 528.813 605.099 528.929C605.171 529.046 605.196 529.184 605.167 529.318ZM537.993 567.477L602.78 529.35L535.776 521.964L537.993 567.477Z" fill="#45A5FF"/>
<path d="M469.318 602.915C469.236 603.026 469.115 603.106 468.977 603.141L406.884 615.386C406.78 615.399 406.676 615.391 406.576 615.363C406.476 615.335 406.383 615.288 406.304 615.224C406.253 615.134 406.227 615.034 406.227 614.932C406.227 614.831 406.253 614.73 406.304 614.641L427.138 550.6C427.176 550.502 427.24 550.415 427.324 550.347C427.407 550.279 427.508 550.232 427.615 550.211C427.725 550.188 427.839 550.197 427.943 550.238C428.047 550.278 428.135 550.348 428.195 550.438L469.42 602.267C469.471 602.35 469.498 602.445 469.498 602.542C469.498 602.639 469.471 602.734 469.42 602.817L469.318 602.915ZM407.634 614.058L467.784 602.234L427.854 551.993L407.634 614.058Z" fill="#45A5FF"/>
<path d="M255.692 81.1928L255.419 81.3871L148.486 118.769C148.353 118.816 148.208 118.815 148.076 118.768C147.944 118.72 147.835 118.628 147.77 118.51C147.681 118.41 147.632 118.284 147.632 118.153C147.632 118.023 147.681 117.896 147.77 117.797L240.961 34.5792C241.05 34.5339 241.15 34.5101 241.251 34.5101C241.352 34.5101 241.452 34.5339 241.541 34.5792C241.638 34.6149 241.726 34.6714 241.797 34.7445C241.868 34.8175 241.92 34.905 241.95 35.0003L255.589 80.8365C255.663 80.9416 255.699 81.0666 255.692 81.1928ZM150.838 116.825L254.498 80.5773L241.166 36.1341L150.838 116.825Z" fill="#45A5FF"/>
<path d="M148.757 118.574L65.3861 195.022C65.2837 195.082 65.1656 195.114 65.0451 195.114C64.9247 195.114 64.8066 195.082 64.7042 195.022C64.5907 194.979 64.4955 194.902 64.4337 194.802C64.3719 194.703 64.3471 194.586 64.3632 194.471L66.4091 161.884C66.415 161.79 66.4464 161.698 66.5001 161.619C66.5539 161.54 66.6282 161.475 66.716 161.43L147.973 117.732C148.024 117.682 148.085 117.642 148.152 117.615C148.219 117.588 148.292 117.574 148.365 117.574C148.438 117.574 148.511 117.588 148.578 117.615C148.645 117.642 148.706 117.682 148.757 117.732C148.822 117.784 148.874 117.848 148.909 117.921C148.945 117.994 148.963 118.073 148.963 118.153C148.963 118.233 148.945 118.313 148.909 118.385C148.874 118.458 148.822 118.523 148.757 118.574ZM65.6589 193.078L144.427 120.842L67.7389 162.273L65.6589 193.078Z" fill="#45A5FF"/>
<path d="M480.163 80.707C480.09 80.7904 479.994 80.8529 479.885 80.8872C479.777 80.9215 479.661 80.9264 479.549 80.9013L422.502 69.1103C422.403 69.0902 422.311 69.0472 422.234 68.9851C422.156 68.9229 422.096 68.8435 422.059 68.7539C422.008 68.6702 421.981 68.5753 421.981 68.4786C421.981 68.3819 422.008 68.287 422.059 68.2033L455.68 28.8781C455.743 28.8001 455.827 28.7404 455.924 28.706C456.02 28.6716 456.125 28.6639 456.226 28.6838C456.323 28.6979 456.414 28.735 456.491 28.7916C456.569 28.8482 456.63 28.9226 456.669 29.0077L480.231 80.1239C480.279 80.2173 480.298 80.3216 480.286 80.4248C480.274 80.5279 480.231 80.6258 480.163 80.707ZM423.696 68.2033L478.663 79.5408L455.987 30.3358L423.696 68.2033Z" fill="#45A5FF"/>
<path d="M564.556 145.72C564.485 145.806 564.389 145.871 564.28 145.906C564.171 145.94 564.053 145.943 563.942 145.914L419.875 116.112C419.758 116.089 419.65 116.034 419.565 115.954C419.48 115.873 419.422 115.771 419.398 115.659C419.377 115.543 419.396 115.424 419.451 115.32C419.506 115.215 419.595 115.129 419.705 115.076L479.377 79.9294C479.478 79.8654 479.597 79.8312 479.718 79.8312C479.84 79.8312 479.958 79.8654 480.059 79.9294L564.453 144.715C564.569 144.794 564.65 144.91 564.681 145.041C564.712 145.172 564.692 145.31 564.624 145.428L564.556 145.72ZM421.58 115.303L561.725 144.294L479.65 81.128L421.58 115.303Z" fill="#45A5FF"/>
<path d="M288.496 577.81C288.428 577.823 288.358 577.823 288.291 577.81C288.197 577.858 288.091 577.884 287.984 577.884C287.877 577.884 287.772 577.858 287.677 577.81L197.964 518.466C197.872 518.415 197.796 518.341 197.743 518.253C197.69 518.165 197.662 518.065 197.662 517.964C197.662 517.863 197.69 517.763 197.743 517.675C197.796 517.587 197.872 517.513 197.964 517.462L298.759 479.53C298.847 479.481 298.947 479.456 299.049 479.456C299.151 479.456 299.251 479.481 299.339 479.53C299.427 479.585 299.497 479.663 299.539 479.755C299.582 479.847 299.595 479.949 299.578 480.048L288.496 577.421C288.542 577.547 288.542 577.684 288.496 577.81ZM199.566 518.013L287.541 576.32L298.282 480.955L199.566 518.013Z" fill="#45A5FF"/>
<path d="M152.577 552.155C152.503 552.254 152.394 552.323 152.27 552.349C152.142 552.382 152.006 552.374 151.883 552.327C151.76 552.281 151.657 552.197 151.588 552.09L64.9091 413.48C64.8522 413.387 64.8223 413.281 64.8223 413.173C64.8223 413.065 64.8522 412.958 64.9091 412.865C64.9781 412.776 65.0725 412.707 65.1812 412.667C65.2899 412.627 65.4084 412.617 65.5228 412.638L147.973 426.243C148.109 426.271 148.233 426.339 148.325 426.438C148.417 426.537 148.473 426.662 148.485 426.794L152.679 551.799C152.695 551.925 152.659 552.053 152.577 552.155ZM66.614 413.966L151.451 549.596L147.325 427.312L66.614 413.966Z" fill="#45A5FF"/>
<path d="M65.9317 413.545C65.8563 413.626 65.7599 413.686 65.6522 413.72C65.5445 413.754 65.4292 413.761 65.318 413.74L23.1039 404.41C23.0317 404.399 22.9626 404.373 22.9009 404.336C22.8392 404.298 22.7861 404.249 22.7447 404.192C22.7034 404.135 22.6746 404.07 22.6601 404.002C22.6457 403.933 22.6458 403.863 22.6606 403.795L29.1393 353.456C29.1464 353.335 29.198 353.22 29.2853 353.131C29.3725 353.042 29.4898 352.985 29.6167 352.97C29.7397 352.945 29.8677 352.957 29.9836 353.003C30.0995 353.049 30.1976 353.128 30.2646 353.229L65.9658 412.897C66.0263 412.99 66.0583 413.096 66.0583 413.205C66.0583 413.314 66.0263 413.42 65.9658 413.513L65.9317 413.545ZM23.8882 403.406L64.2268 412.347L30.1282 355.303L23.8882 403.406Z" fill="#45A5FF"/>
<path d="M677.116 342.086L623.888 404.443C623.811 404.55 623.695 404.626 623.563 404.656C623.43 404.686 623.291 404.667 623.172 404.605C623.053 404.55 622.955 404.461 622.894 404.35C622.832 404.24 622.81 404.113 622.831 403.989L640.835 324.659C640.848 324.575 640.884 324.496 640.937 324.428C640.991 324.36 641.061 324.306 641.142 324.27C641.317 324.205 641.512 324.205 641.687 324.27L676.775 341.212C676.857 341.25 676.93 341.304 676.989 341.371C677.048 341.438 677.091 341.516 677.116 341.6C677.157 341.675 677.179 341.758 677.179 341.843C677.179 341.928 677.157 342.011 677.116 342.086ZM624.535 401.884L675.683 341.924L641.789 325.728L624.535 401.884Z" fill="#45A5FF"/>
<path d="M641.891 325.145C641.765 325.267 641.593 325.337 641.414 325.339C641.32 325.347 641.225 325.33 641.141 325.29C641.057 325.25 640.986 325.188 640.936 325.112L593.198 263.954C593.131 263.858 593.095 263.746 593.095 263.63C593.095 263.515 593.131 263.402 593.198 263.306C593.266 263.214 593.359 263.141 593.467 263.095C593.575 263.05 593.694 263.033 593.812 263.047L681.82 273.348C681.925 273.366 682.022 273.408 682.106 273.47C682.189 273.532 682.255 273.613 682.298 273.705C682.349 273.788 682.375 273.883 682.375 273.98C682.375 274.077 682.349 274.172 682.298 274.255L642.096 325.112L641.891 325.145ZM594.937 264.343L641.448 323.817L680.525 274.352L594.937 264.343Z" fill="#45A5FF"/>
<path d="M423.081 68.9806C423.039 69.0385 422.983 69.0862 422.918 69.1199C422.853 69.1536 422.78 69.1725 422.706 69.175L313.591 86.1813C313.469 86.2011 313.344 86.1835 313.234 86.1311C313.123 86.0787 313.033 85.9941 312.977 85.8898C312.912 85.7989 312.878 85.6917 312.878 85.5821C312.878 85.4724 312.912 85.3653 312.977 85.2743L355.873 33.0892C355.974 32.998 356.108 32.9473 356.248 32.9473C356.388 32.9473 356.522 32.998 356.623 33.0892L422.911 68.2356C423.017 68.301 423.102 68.3932 423.156 68.5019C423.21 68.6106 423.232 68.7315 423.218 68.8511C423.177 68.8982 423.131 68.9416 423.081 68.9806ZM314.818 84.8208L420.831 68.3328L356.487 34.1905L314.818 84.8208Z" fill="#45A5FF"/>
<path d="M480.161 80.7071H479.991L420.318 115.854C420.224 115.902 420.118 115.927 420.011 115.927C419.904 115.927 419.799 115.902 419.704 115.854C419.609 115.801 419.53 115.726 419.476 115.634C419.422 115.543 419.395 115.44 419.398 115.335L422.023 68.3978C422.021 68.314 422.042 68.2312 422.084 68.1574C422.126 68.0836 422.187 68.0213 422.262 67.9767C422.334 67.9368 422.417 67.9159 422.501 67.9159C422.584 67.9159 422.667 67.9368 422.739 67.9767L479.82 79.7677C479.936 79.788 480.041 79.843 480.121 79.9247C480.201 80.0064 480.251 80.1104 480.264 80.2212C480.288 80.3042 480.291 80.3913 480.273 80.4757C480.255 80.5601 480.217 80.6393 480.161 80.7071ZM420.659 114.493L478.115 80.7071L423.183 69.3372L420.659 114.493Z" fill="#45A5FF"/>
<path d="M71.1494 273.575C71.1071 273.636 71.0519 273.687 70.9872 273.726C70.9226 273.765 70.85 273.791 70.7743 273.802C70.6299 273.832 70.4788 273.808 70.352 273.736C70.2253 273.664 70.1324 273.548 70.0923 273.413L43.2567 197.03C43.222 196.954 43.2041 196.871 43.2041 196.787C43.2041 196.704 43.222 196.621 43.2567 196.544C43.302 196.47 43.3663 196.407 43.4437 196.361C43.5211 196.316 43.6092 196.29 43.7 196.285L64.807 194.018C64.9623 193.971 65.1291 193.971 65.2844 194.018C65.405 194.129 65.4778 194.279 65.489 194.439L71.1835 273.057C71.2263 273.138 71.2457 273.229 71.2397 273.32C71.2337 273.411 71.2025 273.499 71.1494 273.575ZM44.6547 197.322L69.8195 268.813L64.3978 195.216L44.6547 197.322Z" fill="#45A5FF"/>
<path d="M167.785 198.261C167.727 198.327 167.653 198.378 167.57 198.412C167.488 198.446 167.397 198.461 167.307 198.456L65.0117 195.216C64.8922 195.222 64.7741 195.19 64.6755 195.126C64.577 195.061 64.5034 194.968 64.4661 194.86C64.4016 194.769 64.3672 194.662 64.3672 194.552C64.3672 194.443 64.4016 194.335 64.4661 194.244L147.871 117.797C147.959 117.749 148.059 117.723 148.161 117.723C148.263 117.723 148.363 117.749 148.451 117.797C148.552 117.828 148.642 117.883 148.714 117.956C148.785 118.03 148.836 118.12 148.86 118.218L167.887 197.905C167.892 198.031 167.857 198.155 167.785 198.261ZM66.4098 194.082L166.591 197.322L147.94 119.352L66.4098 194.082Z" fill="#45A5FF"/>
<path d="M124.07 298.291L30.0606 354.007C29.9562 354.078 29.831 354.116 29.7025 354.116C29.5741 354.116 29.4488 354.078 29.3445 354.007C29.2643 353.91 29.2207 353.79 29.2207 353.667C29.2207 353.543 29.2643 353.424 29.3445 353.327L70.2628 273.057C70.3325 272.921 70.4547 272.817 70.6038 272.765C70.6788 272.733 70.7602 272.716 70.8425 272.716C70.9248 272.716 71.0062 272.733 71.0812 272.765L124.002 297.449C124.099 297.494 124.181 297.563 124.241 297.648C124.301 297.734 124.336 297.832 124.343 297.935C124.328 298.009 124.296 298.08 124.249 298.142C124.201 298.203 124.141 298.254 124.07 298.291ZM31.1858 351.999L122.365 297.999L70.9448 273.996L31.1858 351.999Z" fill="#45A5FF"/>
<path d="M650.383 468.387C650.281 468.509 650.135 468.59 649.974 468.613L613.011 474.023C612.931 474.06 612.844 474.079 612.755 474.079C612.666 474.079 612.579 474.06 612.499 474.023C612.432 473.961 612.381 473.885 612.351 473.8C612.321 473.715 612.314 473.625 612.329 473.537L622.831 404.184C622.853 404.057 622.918 403.94 623.017 403.853C623.116 403.765 623.242 403.71 623.377 403.698C623.507 403.676 623.641 403.701 623.754 403.766C623.867 403.832 623.951 403.934 623.991 404.054L650.451 467.998C650.493 468.073 650.515 468.156 650.515 468.241C650.515 468.326 650.493 468.409 650.451 468.484L650.383 468.387ZM613.625 472.662L649.053 467.512L623.718 406.224L613.625 472.662Z" fill="#45A5FF"/>
<path d="M641.891 325.144C641.813 325.159 641.731 325.159 641.653 325.144L561.691 361.23C561.593 361.284 561.481 361.313 561.367 361.313C561.254 361.313 561.142 361.284 561.044 361.23C560.959 361.152 560.898 361.054 560.868 360.945C560.838 360.837 560.84 360.722 560.873 360.615L593.028 263.436C593.06 263.334 593.122 263.243 593.206 263.175C593.291 263.106 593.395 263.061 593.505 263.047C593.614 263.035 593.725 263.05 593.826 263.089C593.927 263.129 594.017 263.192 594.085 263.274L641.823 324.432C641.886 324.588 641.886 324.761 641.823 324.918L641.891 325.144ZM562.442 359.805L640.493 324.561L593.812 264.861L562.442 359.805Z" fill="#45A5FF"/>
<path d="M564.558 145.72L436.108 238.04C436.016 238.094 435.91 238.123 435.802 238.123C435.693 238.123 435.587 238.094 435.495 238.04C435.396 238.002 435.31 237.94 435.244 237.86C435.178 237.781 435.135 237.686 435.12 237.586L419.502 115.465C419.499 115.375 419.515 115.285 419.551 115.201C419.586 115.118 419.639 115.042 419.707 114.979C419.79 114.933 419.884 114.909 419.98 114.909C420.076 114.909 420.17 114.933 420.253 114.979L564.251 144.813C564.361 144.831 564.463 144.882 564.543 144.957C564.622 145.032 564.675 145.129 564.694 145.234C564.709 145.319 564.704 145.407 564.681 145.491C564.657 145.574 564.615 145.653 564.558 145.72ZM436.108 236.615L562.682 145.655L420.696 116.339L436.108 236.615Z" fill="#45A5FF"/>
<path d="M266.602 178.631C266.52 178.742 266.399 178.822 266.261 178.858L167.375 198.488C167.258 198.506 167.137 198.491 167.028 198.445C166.919 198.399 166.826 198.324 166.762 198.229C166.694 198.133 166.658 198.02 166.658 197.905C166.658 197.79 166.694 197.677 166.762 197.581L254.702 80.5127C254.774 80.4176 254.874 80.3451 254.989 80.3046C255.105 80.2642 255.23 80.2577 255.35 80.286C255.466 80.3168 255.569 80.3793 255.648 80.4657C255.727 80.552 255.777 80.6585 255.793 80.7719L266.705 178.242C266.72 178.31 266.719 178.381 266.701 178.448C266.683 178.516 266.65 178.578 266.602 178.631ZM168.705 197.063L265.477 177.886L254.804 82.4563L168.705 197.063Z" fill="#45A5FF"/>
<path d="M266.603 178.631C266.545 178.715 266.462 178.781 266.366 178.821C266.269 178.862 266.162 178.874 266.057 178.858C265.926 178.832 265.807 178.769 265.715 178.676C265.623 178.583 265.564 178.466 265.546 178.34L254.634 80.9013C254.595 80.8315 254.575 80.7536 254.575 80.6746C254.575 80.5956 254.595 80.5177 254.634 80.4478C254.69 80.381 254.764 80.3303 254.849 80.3017C254.933 80.273 255.024 80.2676 255.112 80.2859L313.284 85.0476C313.383 85.0533 313.479 85.0831 313.563 85.1341C313.646 85.1852 313.715 85.2558 313.761 85.3392C313.813 85.4168 313.84 85.5066 313.84 85.5983C313.84 85.69 313.813 85.7799 313.761 85.8575L266.671 178.534L266.603 178.631ZM255.896 81.452L266.535 176.202L312.5 86.0842L255.896 81.452Z" fill="#45A5FF"/>
<path d="M124.07 298.291C124.042 298.34 124.003 298.383 123.956 298.416C123.909 298.45 123.855 298.473 123.798 298.485C123.654 298.532 123.498 298.532 123.354 298.485L70.3991 273.769C70.3095 273.732 70.2313 273.674 70.1717 273.601C70.112 273.527 70.073 273.44 70.0581 273.348C70.0541 273.25 70.0735 273.153 70.1148 273.063C70.1561 272.973 70.2184 272.894 70.2968 272.83L166.932 197.484C167.034 197.408 167.16 197.366 167.29 197.366C167.42 197.366 167.546 197.408 167.648 197.484C167.756 197.56 167.835 197.668 167.872 197.791C167.909 197.914 167.902 198.045 167.853 198.164L124.173 298.161L124.07 298.291ZM71.7631 273.122L123.286 297.157L165.807 199.978L71.7631 273.122Z" fill="#45A5FF"/>
<path d="M148.247 427.312C148.176 427.379 148.09 427.429 147.995 427.457C147.9 427.485 147.799 427.491 147.701 427.474L65.2506 413.837C65.1565 413.829 65.0661 413.798 64.9884 413.747C64.9107 413.695 64.8483 413.626 64.8073 413.545C64.7558 413.468 64.7285 413.378 64.7285 413.286C64.7285 413.194 64.7558 413.104 64.8073 413.027L122.775 297.805C122.836 297.695 122.93 297.605 123.046 297.548C123.162 297.49 123.293 297.467 123.423 297.481C123.501 297.431 123.59 297.397 123.684 297.383C123.777 297.369 123.873 297.374 123.964 297.399C124.055 297.424 124.139 297.467 124.211 297.526C124.282 297.585 124.339 297.658 124.378 297.74L148.69 426.632C148.721 426.778 148.693 426.929 148.61 427.056C148.528 427.182 148.398 427.274 148.247 427.312ZM66.41 412.768L147.224 426.114L123.355 299.781L66.41 412.768Z" fill="#45A5FF"/>
<path d="M299.577 480.437C299.48 480.51 299.36 480.55 299.236 480.55C299.112 480.55 298.992 480.51 298.895 480.437L147.702 427.312C147.603 427.274 147.517 427.212 147.451 427.133C147.385 427.053 147.343 426.959 147.327 426.859C147.311 426.755 147.325 426.649 147.367 426.552C147.409 426.455 147.477 426.371 147.565 426.308L222.582 377.038C222.7 376.94 222.852 376.886 223.009 376.886C223.165 376.886 223.317 376.94 223.435 377.038L299.748 479.562C299.814 479.664 299.849 479.782 299.849 479.902C299.849 480.022 299.814 480.14 299.748 480.242L299.577 480.437ZM149.202 426.664L297.497 478.882L222.48 378.463L149.202 426.664Z" fill="#45A5FF"/>
<path d="M537.892 568.837C537.728 568.9 537.544 568.9 537.38 568.837L427.583 551.118C427.447 551.095 427.325 551.027 427.238 550.926C427.15 550.825 427.103 550.698 427.105 550.568C427.098 550.441 427.134 550.316 427.208 550.211C427.281 550.106 427.389 550.026 427.515 549.985L535.028 520.539C535.106 520.5 535.194 520.479 535.283 520.479C535.372 520.479 535.46 520.5 535.539 520.539C535.677 520.656 535.763 520.818 535.778 520.993L538.096 568.157C538.159 568.274 538.173 568.409 538.135 568.535C538.097 568.662 538.01 568.77 537.892 568.837ZM430.311 550.632L536.801 567.801L534.55 522.062L430.311 550.632Z" fill="#45A5FF"/>
<path d="M594.086 263.954L507.919 320.059C507.806 320.155 507.661 320.207 507.51 320.207C507.359 320.207 507.213 320.155 507.101 320.059L435.289 238.007C435.221 237.912 435.186 237.799 435.186 237.683C435.186 237.568 435.221 237.455 435.289 237.36C435.35 237.261 435.442 237.183 435.552 237.137C435.662 237.091 435.785 237.078 435.903 237.1L593.882 263.015C593.999 263.038 594.107 263.093 594.192 263.174C594.277 263.254 594.335 263.357 594.359 263.468C594.362 263.565 594.339 263.661 594.291 263.746C594.243 263.831 594.172 263.903 594.086 263.954ZM507.544 319.022L592.04 263.954L437.13 238.558L507.544 319.022Z" fill="#45A5FF"/>
<path d="M613.386 473.796C613.319 473.887 613.224 473.955 613.113 473.991C613.025 474.039 612.925 474.064 612.823 474.064C612.722 474.064 612.622 474.039 612.533 473.991L524.559 405.965C524.471 405.889 524.408 405.791 524.378 405.682C524.347 405.572 524.351 405.457 524.389 405.35C524.425 405.239 524.497 405.141 524.595 405.071C524.693 405.001 524.812 404.963 524.934 404.961L623.411 403.665C623.501 403.663 623.59 403.679 623.672 403.712C623.755 403.746 623.829 403.796 623.888 403.86C623.92 403.931 623.937 404.009 623.937 404.086C623.937 404.164 623.92 404.241 623.888 404.313L613.352 473.667C613.372 473.707 613.383 473.751 613.386 473.796ZM526.741 405.965L612.602 472.371L622.831 404.67L526.741 405.965Z" fill="#45A5FF"/>
<path d="M535.605 521.673C535.511 521.721 535.405 521.746 535.298 521.746C535.191 521.746 535.086 521.721 534.992 521.673L415.135 464.856C415.042 464.806 414.963 464.736 414.904 464.651C414.844 464.567 414.807 464.47 414.794 464.37C414.788 464.265 414.813 464.16 414.867 464.068C414.922 463.976 415.003 463.901 415.101 463.851L524.796 404.734C524.884 404.686 524.984 404.66 525.086 404.66C525.188 404.66 525.288 404.686 525.376 404.734C525.464 404.778 525.538 404.843 525.592 404.923C525.645 405.002 525.677 405.093 525.683 405.188L535.912 521.09C535.924 521.205 535.901 521.32 535.847 521.423C535.792 521.526 535.709 521.613 535.605 521.673ZM416.567 464.467L534.446 520.345L524.421 406.354L416.567 464.467Z" fill="#45A5FF"/>
<path d="M367.399 235.837C367.332 235.928 367.236 235.996 367.126 236.031L216.444 287.277C216.336 287.321 216.216 287.332 216.1 287.31C215.985 287.288 215.879 287.232 215.797 287.151C215.716 287.07 215.662 286.968 215.644 286.857C215.625 286.746 215.643 286.633 215.694 286.532L265.751 178.048C265.787 177.976 265.84 177.913 265.905 177.863C265.969 177.813 266.045 177.776 266.126 177.756C266.29 177.693 266.473 177.693 266.637 177.756L367.399 234.962C367.496 235.018 367.574 235.101 367.622 235.199C367.671 235.296 367.688 235.406 367.671 235.513C367.663 235.586 367.633 235.655 367.584 235.712C367.536 235.77 367.472 235.813 367.399 235.837ZM217.16 285.754L365.523 235.351L266.433 179.117L217.16 285.754Z" fill="#45A5FF"/>
<path d="M415.75 464.855C415.657 464.971 415.524 465.051 415.375 465.082L299.201 480.631C299.091 480.646 298.98 480.633 298.878 480.593C298.776 480.553 298.687 480.488 298.621 480.404C298.564 480.31 298.534 480.204 298.534 480.096C298.534 479.988 298.564 479.882 298.621 479.789L376.229 350.702C376.285 350.607 376.371 350.53 376.475 350.484C376.579 350.437 376.696 350.423 376.809 350.443C376.927 350.447 377.041 350.486 377.133 350.557C377.225 350.627 377.291 350.723 377.321 350.832L415.886 464.208C415.952 464.363 415.952 464.538 415.886 464.693L415.75 464.855ZM300.258 479.335L414.488 464.046L376.707 352.419L300.258 479.335Z" fill="#45A5FF"/>
<path d="M377.185 351.35C377.12 351.434 377.03 351.498 376.926 351.532C376.823 351.567 376.711 351.571 376.605 351.545C376.477 351.526 376.358 351.468 376.266 351.381C376.174 351.294 376.114 351.181 376.094 351.059L366.478 235.545C366.473 235.463 366.485 235.38 366.514 235.302C366.544 235.224 366.589 235.153 366.648 235.092C366.792 235.047 366.947 235.047 367.091 235.092L435.834 237.262C435.932 237.273 436.026 237.305 436.108 237.356C436.191 237.406 436.261 237.474 436.312 237.554C436.354 237.64 436.376 237.734 436.376 237.829C436.376 237.924 436.354 238.018 436.312 238.104L377.389 351.48L377.185 351.35ZM367.569 236.193L377.116 348.986L434.675 238.234L367.569 236.193Z" fill="#45A5FF"/>
</g>
<path d="M506.283 385.558H519.514L472.185 281.544H448.316V284.783C450.401 284.642 452.487 285.03 454.362 285.906C456.238 286.783 457.834 288.117 458.989 289.772L415.24 385.558H428.3L467.377 300.04L506.283 385.558Z" fill="white"/>
<path d="M265.443 385.558H278.708L231.14 281.544H207.271V284.783C209.361 284.639 211.453 285.026 213.334 285.902C215.216 286.779 216.818 288.114 217.978 289.772L174.195 385.558H187.289L226.366 300.04L265.443 385.558Z" fill="white"/>
<path d="M377.968 281.544V284.783C390.175 284.783 391.062 295.57 391.096 297.967V385.655H403.985V281.544H377.968Z" fill="white"/>
<path d="M611.646 281.544V365.766L540.96 281.544H517.807V284.783C520.994 284.603 524.129 285.613 526.543 287.598C528.957 289.583 530.46 292.386 530.73 295.408V385.622H540.96V301.174L611.612 385.558H621.841V281.544H611.646Z" fill="white"/>
<path d="M302.68 385.557H289.791V297.74C289.791 295.537 288.87 284.588 276.595 284.588V281.349H337.972C346.056 281.338 353.857 284.177 359.863 289.318C362.831 291.912 365.175 295.084 366.735 298.617C368.294 302.15 369.032 305.961 368.9 309.79C369.044 313.713 368.341 317.622 366.834 321.277C365.327 324.932 363.047 328.255 360.136 331.04C354.34 336.579 345.406 339.365 333.608 339.365H302.646V385.525L302.68 385.557ZM302.68 292.33V328.74H334.085C339.756 329.095 345.351 327.354 349.702 323.881C351.601 322.033 353.071 319.827 354.017 317.405C354.963 314.984 355.363 312.4 355.192 309.823C355.344 307.406 354.924 304.987 353.962 302.744C353 300.502 351.521 298.493 349.634 296.865C344.799 293.624 338.929 292.078 333.028 292.492L302.68 292.33Z" fill="white"/>
<path d="M169.32 349.569C165.024 330.814 139.211 329.259 122.878 324.724L119.843 323.946C111.25 321.841 102.453 318.601 103.407 308.43C104.771 287.018 149.816 285.139 155.681 305.417H168.297C162.739 278.564 119.979 276.037 101.021 289.221C98.2112 291.168 95.8334 293.622 94.0232 296.443C92.2129 299.263 91.0056 302.395 90.4704 305.659C89.9352 308.924 90.0826 312.256 90.904 315.466C91.7255 318.676 93.205 321.701 95.2579 324.367C95.5989 324.821 95.9398 325.274 96.3149 325.695C107.158 337.13 128.47 337.713 144.053 342.572C151.316 344.451 157.897 349.601 157.692 357.343C155.783 381.282 105.078 379.824 101.327 357.117V348.921H78.0381V352.161C80.087 352.017 82.1388 352.399 83.9799 353.265C85.821 354.131 87.3841 355.45 88.5064 357.084C93.2461 398.806 178.936 393.397 169.32 349.569Z" fill="white"/>
<path d="M281.402 410.5C283.729 410.569 286.03 410.984 288.221 411.731C289.167 412.051 290.08 412.452 290.949 412.93C292.488 413.765 293.818 414.907 294.848 416.277C295.878 417.647 296.584 419.212 296.916 420.866H293.507C293.23 419.919 292.792 419.022 292.211 418.21C291.717 417.506 291.133 416.864 290.472 416.299C289.865 415.783 289.189 415.347 288.46 415.003C287.789 414.676 287.093 414.394 286.38 414.161C284.72 413.64 282.979 413.388 281.231 413.416C279.367 413.297 277.497 413.543 275.737 414.14C273.978 414.736 272.366 415.669 271.001 416.882C268.745 419.773 267.527 423.276 267.527 426.875C267.527 430.474 268.745 433.977 271.001 436.868C272.35 438.102 273.96 439.05 275.724 439.647C277.487 440.245 279.365 440.479 281.231 440.334C283.093 440.351 284.945 440.089 286.721 439.557C288.248 439.078 289.662 438.318 290.881 437.322C292.022 436.356 292.939 435.176 293.575 433.856C294.231 432.434 294.59 430.905 294.632 429.353H281.231V426.405H298.28C298.28 426.924 298.28 427.442 298.28 427.96C298.332 428.726 298.332 429.494 298.28 430.26C298.173 431.192 297.979 432.114 297.701 433.013C297.39 434.019 296.955 434.987 296.405 435.896C295.064 438.236 293.007 440.134 290.506 441.338C287.669 442.669 284.53 443.315 281.367 443.217C278.885 443.274 276.412 442.901 274.07 442.116C272.028 441.456 270.173 440.359 268.647 438.91C267.122 437.461 265.968 435.699 265.273 433.758C263.738 429.274 263.738 424.443 265.273 419.959C265.974 418.026 267.132 416.271 268.656 414.828C270.181 413.385 272.033 412.293 274.07 411.634C276.412 410.849 278.885 410.476 281.367 410.533L281.402 410.5Z" fill="white"/>
<path d="M308.101 443.055H304.486V410.662H318.74C320.319 410.656 321.895 410.797 323.445 411.083C324.908 411.345 326.3 411.885 327.537 412.671C328.755 413.431 329.742 414.481 330.401 415.715C331.158 417.266 331.52 418.964 331.458 420.672C331.499 422.047 331.28 423.419 330.81 424.721C330.416 425.767 329.801 426.726 329.003 427.539C328.222 428.31 327.297 428.936 326.275 429.385C325.183 429.836 324.039 430.162 322.865 430.357L332.277 442.958H328.185L319.012 430.681H308.169V442.958L308.101 443.055ZM308.101 413.707V427.83H318.33C319.471 427.823 320.61 427.748 321.74 427.604C322.789 427.456 323.796 427.115 324.707 426.6C325.621 426.083 326.374 425.345 326.889 424.462C327.428 423.298 327.707 422.04 327.707 420.769C327.707 419.497 327.428 418.24 326.889 417.076C326.374 416.192 325.621 415.454 324.707 414.938C323.792 414.438 322.785 414.108 321.74 413.966C320.613 413.793 319.472 413.706 318.33 413.707H308.101Z" fill="white"/>
<path d="M353.621 443.282H352.836C350.515 443.274 348.211 442.902 346.017 442.181C343.982 441.514 342.135 440.415 340.616 438.966C339.097 437.518 337.947 435.759 337.253 433.823C335.663 429.336 335.663 424.478 337.253 419.991C337.964 418.051 339.13 416.29 340.663 414.841C342.198 413.396 344.049 412.29 346.085 411.602C348.276 410.864 350.581 410.481 352.905 410.468H353.621C355.945 410.475 358.252 410.858 360.44 411.602C362.47 412.282 364.312 413.389 365.828 414.841C367.335 416.31 368.497 418.065 369.238 419.991C370.806 424.482 370.806 429.333 369.238 433.823C368.55 435.756 367.406 437.515 365.893 438.963C364.38 440.412 362.538 441.512 360.509 442.181C358.293 442.909 355.965 443.281 353.621 443.282ZM353.28 413.48C349.607 413.471 346.047 414.686 343.221 416.914C341.99 418.283 341.056 419.868 340.471 421.58C339.886 423.292 339.662 425.097 339.811 426.891C339.526 430.523 340.75 434.116 343.221 436.901C345.715 439.103 348.987 440.34 352.393 440.367H353.314C353.609 440.35 353.905 440.35 354.2 440.367C357.606 440.391 360.887 439.147 363.339 436.901C365.597 434.017 366.817 430.518 366.817 426.924C366.817 423.329 365.597 419.83 363.339 416.946C360.519 414.704 356.957 413.477 353.28 413.48Z" fill="white"/>
<path d="M376.707 410.759H380.39V427.312C380.382 429.102 380.53 430.89 380.833 432.657C381.064 434.134 381.622 435.547 382.47 436.803C383.308 437.987 384.494 438.91 385.88 439.46C389.325 440.723 393.141 440.723 396.587 439.46C397.906 438.878 399.028 437.958 399.826 436.803C400.674 435.547 401.232 434.134 401.463 432.657C401.764 430.901 401.912 429.124 401.906 427.345V410.857H405.589V427.701C405.631 429.88 405.39 432.056 404.872 434.18C404.456 435.974 403.642 437.663 402.486 439.136C401.328 440.575 399.785 441.694 398.019 442.375C393.61 443.878 388.788 443.878 384.379 442.375C382.638 441.682 381.121 440.565 379.981 439.136C378.822 437.66 377.998 435.973 377.559 434.18C377.042 432.056 376.801 429.88 376.843 427.701L376.707 410.759Z" fill="white"/>
<path d="M416.636 443.055H412.987V410.662H427.138C428.717 410.658 430.293 410.799 431.844 411.083C433.296 411.345 434.677 411.885 435.902 412.671C437.121 413.439 438.118 414.486 438.8 415.716C439.491 417.28 439.847 418.959 439.847 420.655C439.847 422.352 439.491 424.031 438.8 425.595C438.129 426.841 437.13 427.901 435.902 428.673C434.666 429.439 433.289 429.977 431.844 430.26C430.293 430.545 428.717 430.686 427.138 430.681H416.636V442.958V443.055ZM416.636 413.707V427.831H426.865C428.006 427.825 429.145 427.749 430.275 427.604C431.333 427.451 432.351 427.11 433.276 426.6C434.179 426.081 434.921 425.343 435.424 424.462C435.98 423.302 436.268 422.043 436.268 420.769C436.268 419.495 435.98 418.235 435.424 417.076C434.921 416.195 434.179 415.456 433.276 414.938C432.349 414.437 431.331 414.108 430.275 413.966C429.15 413.776 428.008 413.689 426.865 413.707H416.636Z" fill="white"/>
</svg>
