<?xml version="1.0" encoding="UTF-8"?><svg id="Black" xmlns="http://www.w3.org/2000/svg" viewBox="0 0 500 478.87"><defs><style>.cls-1{fill:#000006;}</style></defs><g id="logo_BG_White"><g id="ollorun"><path class="cls-1" d="M466.89,398.26c-7.27-6.66-15.95-10.09-25.84-10.09s-18.57,3.43-25.84,10.09c-7.07,6.66-10.7,16.76-10.7,30.48v46.43h19.38v-46.43c0-14.53,6.66-22,17.16-22s17.36,7.67,17.36,22v46.43h19.38v-46.43c0-13.53-3.63-23.82-10.9-30.48Z"/><path class="cls-1" d="M375.72,435.6c0,14.33-6.86,22-17.36,22s-17.16-7.47-17.16-22v-31.1l-19.38-15.32v46.42c0,13.73,3.63,24.02,10.7,30.69,7.27,6.66,15.95,9.89,25.84,9.89s18.57-3.43,25.84-10.09c7.27-6.66,10.9-16.96,10.9-30.48v-31.1l-19.38-15.32v46.42Z"/><path class="cls-1" d="M275.06,423.9v51.27h19.18v-51.27c0-10.7,4.84-16.15,14.53-16.15h3.63v-18.57h-4.64c-18.77,0-32.7,9.89-32.7,34.72Z"/><path class="cls-1" d="M221.64,388.17c-12.31,0-22.61,4.24-31.29,12.92-8.68,8.68-12.92,18.98-12.92,31.09s4.24,22.61,12.92,31.29c8.68,8.48,18.97,12.72,31.29,12.72s22.41-4.24,31.09-12.72c8.68-8.68,12.92-18.98,12.92-31.29s-4.24-22.41-12.92-31.09c-8.68-8.68-18.98-12.92-31.09-12.92Zm17.56,62.38c-4.64,4.64-10.5,7.06-17.56,7.06s-12.92-2.42-17.76-7.06c-4.64-4.85-7.06-10.9-7.06-18.37s2.42-13.53,7.06-18.17c4.84-4.84,10.7-7.27,17.76-7.27s12.92,2.42,17.56,7.27c4.84,4.64,7.27,10.7,7.27,18.17s-2.42,13.52-7.27,18.37Z"/><polygon class="cls-1" points="148.63 475.17 168.01 475.17 168.01 355.24 148.63 339.92 148.63 475.17"/><polygon class="cls-1" points="119.84 475.17 139.22 475.17 139.22 355.24 119.84 339.92 119.84 475.17"/><path class="cls-1" d="M66.42,388.17c-12.31,0-22.61,4.24-31.29,12.92-8.68,8.68-12.92,18.98-12.92,31.09s4.24,22.61,12.92,31.29c8.68,8.48,18.97,12.72,31.29,12.72s22.41-4.24,31.09-12.72c8.68-8.68,12.92-18.98,12.92-31.29s-4.24-22.41-12.92-31.09c-8.68-8.68-18.98-12.92-31.09-12.92Zm17.56,62.38c-4.64,4.64-10.5,7.06-17.56,7.06s-12.92-2.42-17.76-7.06c-4.64-4.85-7.06-10.9-7.06-18.37s2.42-13.53,7.06-18.17c4.84-4.84,10.7-7.27,17.76-7.27s12.92,2.42,17.56,7.27c4.84,4.64,7.27,10.7,7.27,18.17s-2.42,13.52-7.27,18.37Z"/></g><g id="_2"><path class="cls-1" d="M242.68,346.2c-1.85-20.54-26.82-35.15-52.17-46.62-15.79-7.14-31.72-13.07-42.31-18.45-2.92-1.47-5.99-3.02-9.19-4.62-32.41-16.27-77.76-39.3-103.82-69.98-33.03-38.93-29.2-75.38,6.99-60.73-23.04-12.68-35.1-7.35-38.78,5.64-8.8,30.96,22.62,69.94,44.26,89.51,32.07,28.85,63.44,42.31,96.82,55.77,4.12,1.66,8.26,3.32,12.45,5.01,7.72,3.12,15.57,6.33,23.57,9.83,15.69,6.89,45.76,19.05,49.6,36.96,3.68,17.03-19.31,27.8-31.01,13.62,15.12,23.61,45.76,8.28,43.59-15.94Z"/><path class="cls-1" d="M496.61,151.4c-3.73-12.94-15.74-18.33-38.83-5.59,36.19-14.65,40.07,21.74,6.99,60.73-26.1,30.73-71.57,53.79-103.99,70.07-3.14,1.57-6.16,3.09-9.02,4.53-10.54,5.36-26.35,11.24-42.05,18.33-25.42,11.47-50.52,26.08-52.37,46.69-2.23,24.28,28.42,39.6,43.54,16-11.65,14.13-34.69,3.42-31.01-13.62,3.88-17.96,33.91-30.08,49.59-36.96,7.99-3.5,15.83-6.72,23.54-9.84,4.14-1.67,8.24-3.32,12.31-4.96,33.48-13.51,64.89-26.95,96.99-55.82,21.69-19.62,53.06-58.55,44.31-89.56Z"/></g><g id="_1"><path class="cls-1" d="M193.61,293.7c-1.92-1.05-3.83-2.1-5.71-3.15-18.14-10.07-34.2-19.65-48.38-28.73-1.84-1.18-3.66-2.35-5.44-3.51C18.49,182.88,34.85,144.25,65.37,162.37c-33.32-39.78-95.38,19.29,71.55,106.43,15.28,7.98,32.48,16.19,51.8,24.58,6.4,2.78,13.03,5.58,19.9,8.4-5.15-2.73-10.15-5.42-15.01-8.08Z"/><path class="cls-1" d="M434.6,162.37c30.58-18.17,46.95,20.51-68.88,96.04-1.78,1.16-3.6,2.33-5.44,3.51-14.07,8.99-29.98,18.49-47.93,28.46-1.88,1.04-3.79,2.09-5.71,3.15-4.93,2.7-10,5.43-15.23,8.2,6.95-2.85,13.64-5.68,20.11-8.5,19.13-8.32,36.2-16.46,51.36-24.37,167.2-87.21,105.09-146.33,71.72-106.49Z"/></g><g id="WH"><g id="_2-2"><polygon class="cls-1" points="181.72 1 141.84 1 141.84 89.71 181.72 227.27 181.72 1"/><polygon class="cls-1" points="358.16 1 318.28 1 318.28 227.27 358.16 89.71 358.16 1"/></g><g id="_1-2"><path class="cls-1" d="M181.72,246.1l-39.87-137.56L110.67,1h-40.08l68.93,254.24c.76,.49,1.55,.98,2.33,1.47,3.86,2.45,7.86,4.94,12,7.46,10.45,6.37,21.76,12.97,34.05,19.79,1.88,1.04,3.79,2.09,5.71,3.15l-11.89-41.01Z"/><path class="cls-1" d="M389.52,1l-31.36,108.18-39.87,137.55-11.65,40.2c1.92-1.05,3.83-2.11,5.71-3.15,17.95-9.97,33.86-19.46,47.93-28.46L429.22,1h-39.7Z"/></g></g><g id="Boule"><path class="cls-1" d="M222.55,103.71c4.4-4.38,5.73-4.97,7.76-2.96,1.35,1.33,4.47,.61,6.81-1.67,4.01-3.92,5.51-4.44,9.09-1.08,2.04,1.92,5.64,1.85,7.6,0,.82-.78,1.22-1.74,1.27-2.74,0,0,0,0,0,0,0-.02,0-.04,0-.06,0-.12,0-.24,0-.35,0-.05,0-.09,0-.14-.01-.16-.03-.33-.07-.49,0,0,0-.01,0-.02-.03-.16-.07-.31-.12-.47-.02-.05-.03-.1-.05-.15-.04-.11-.08-.22-.12-.33-.02-.06-.05-.11-.08-.17-.05-.1-.09-.2-.15-.3-.03-.06-.06-.12-.1-.17-.06-.1-.12-.19-.18-.28-.04-.05-.07-.11-.11-.16-.07-.1-.15-.2-.23-.29-.03-.04-.07-.08-.1-.13-.12-.14-.24-.27-.38-.4-.58-.54-1.24-.9-1.93-1.12-1.46-.46-3.05-.21-4.33,.73-.17,.12-.34,.24-.5,.39-.39,.37-.76,.69-1.1,.99-3.25,2.81-4.62,2.5-6.97,.3-.15-.14-.32-.25-.51-.33-.07-.03-.15-.03-.22-.05-.13-.04-.26-.08-.4-.09-.1,0-.2,0-.3,0-.13,0-.26,0-.41,.02-.11,.02-.24,.06-.35,.08-.14,.03-.28,.06-.42,.1-.13,.04-.26,.1-.39,.16-.15,.06-.29,.11-.44,.18-.13,.07-.27,.15-.4,.23-.15,.08-.3,.16-.45,.26-.13,.09-.27,.19-.4,.29-.15,.11-.3,.21-.45,.33-.13,.11-.27,.23-.4,.35-.13,.11-.25,.21-.38,.33,0,0,0,0,0,0-.05,.05-.1,.08-.14,.13-4.13,4.08-5.49,4.93-6.89,3.56-.44-.42-2.57,1.28-4.93,3.63-2.36,2.35-4.17,4.35-3.65,4.89,.52,.54,3.14-.65,5.53-3.03Z"/><path class="cls-1" d="M219.54,151.17c1.32-1.37,.57-4.55-1.7-6.85-1.12-1.14-2.41-1.81-3.58-2.06,0,0,0,0,0,0,0,0-.01,0-.02,0-.19-.04-.37-.05-.55-.06-.11,0-.22-.03-.32-.03-.18,0-.34,.03-.51,.05-.09,.01-.19,0-.28,.03-.17,.04-.33,.11-.48,.17-.06,.03-.14,.04-.2,.07-.21,.11-.39,.25-.55,.42-.21,.23-.35,.49-.44,.79-.4,1.41,.64,3.47,2.48,5.32,.03,.03,.06,.06,.09,.09,4.18,4.22,4.35,5.98,3.51,6.86-.85,.89,1.3,2.59,3.66,4.94,2.36,2.35,4.38,4.15,4.91,3.63,.53-.52-.66-3.17-3.04-5.56-4.38-4.39-4.98-5.74-3-7.81Z"/><path class="cls-1" d="M216.74,135.18c1.84-1.97,1.91-5.55,0-7.6-3.18-3.4-2.96-5,1.1-9.16,4.28-4.39,5.89-4.69,9.09-1.39,1.92,1.98,5.53,1.68,7.98-.78,4.52-4.53,6.4-4.65,10.63-.51,2.42,2.37,6.53,2.31,8.9,0,.88-.86,1.4-1.9,1.58-3,0,0,0,0,0,0,0,0,0-.01,0-.02,.04-.21,.06-.43,.07-.65,0-.05,0-.11,0-.16,0-.16,0-.33-.01-.49,0-.07-.01-.14-.02-.21-.02-.15-.04-.31-.07-.46-.01-.06-.02-.13-.04-.19-.04-.2-.1-.39-.16-.59,0-.02,0-.03-.01-.05-.07-.21-.16-.42-.25-.62-.03-.06-.06-.11-.09-.17-.07-.14-.15-.29-.24-.43-.04-.07-.08-.13-.12-.2-.09-.13-.18-.26-.28-.39-.04-.06-.09-.11-.13-.17-.15-.18-.3-.35-.48-.52-.15-.14-.3-.28-.46-.4-.32-.25-.65-.46-1-.64-.17-.09-.35-.17-.53-.24-1.55-.61-3.29-.55-4.8,.16-.59,.28-1.15,.65-1.64,1.13-.27,.26-.52,.5-.77,.72-.08,.07-.15,.14-.23,.21-3.23,2.9-5.07,3.21-7.68,1.11-.15-.12-.3-.25-.46-.39-.07-.07-.15-.12-.22-.19-.22-.2-.44-.41-.68-.64-.01-.01-.03-.03-.04-.04-.9-.9-2.17-1.21-3.51-1-.24,.04-.48,.09-.72,.16-.22,.06-.45,.14-.67,.23-.93,.38-1.84,.98-2.66,1.8-.76,.76-1.42,1.39-2.03,1.92-2.19,1.89-3.57,2.31-4.99,1.51-.51-.29-1.02-.72-1.58-1.3-1.15-1.2-3.87-.1-6.13,2.18-2.26,2.28-3.2,4.89-2.04,6.13,2.56,2.74,2.32,4.31-1.33,8.15-1.82,1.91-1.87,4.79,0,6.77,1.87,1.97,4.86,2.39,6.7,.42Z"/><path class="cls-1" d="M266.66,161.44s0,0,0,0c-.15,.04-.31,.1-.47,.15-.16,.05-.32,.09-.48,.15-.18,.07-.36,.17-.54,.25-.14,.07-.29,.13-.43,.21-.21,.12-.41,.26-.62,.4-.11,.08-.23,.14-.33,.22-.31,.23-.62,.49-.91,.78-2.7,2.65-4.3,3.65-6.03,3.15-.43-.12-.86-.33-1.32-.63-.11-.08-.23-.17-.35-.26-.07-.05-.13-.09-.2-.14-.06-.05-.12-.1-.18-.15-.32-.26-.65-.55-1.01-.89-.46-.43-.99-.75-1.56-.99-.07-.03-.13-.07-.19-.09-1.95-.72-4.31-.36-5.84,1.08-3.39,3.2-4.95,2.98-9.09-1.08-.58-.57-1.22-1.04-1.87-1.4-1.59-.88-3.23-1.11-4.3-.67-.24,.1-.46,.23-.64,.4-.29,.29-.45,.66-.5,1.07,0,.03-.01,.06-.01,.1h0c-.03,.5,.09,1.08,.34,1.68,.44,1.06,1.27,2.23,2.34,3.3l.08,.08s0,0,0,0c2.24,2.19,4.77,3.06,5.97,1.92,2.7-2.58,4.24-2.35,8.08,1.29,1.9,1.8,4.86,1.8,6.76,0,3.83-3.63,5.37-3.86,8.07-1.29,1.22,1.16,3.8,.24,6.06-2,2.26-2.24,3.44-4.9,2.18-6.15-.64-.63-1.76-.78-3.02-.49Z"/><path class="cls-1" d="M289.95,127.99c-2.72-2.85-3.55-4.45-2.74-6.21,.04-.09,.1-.19,.15-.29,.03-.06,.06-.12,.1-.18,.06-.1,.13-.2,.2-.3,.04-.06,.07-.11,.12-.17,.08-.11,.18-.23,.28-.35,.04-.05,.07-.09,.11-.14,.14-.17,.29-.34,.46-.51,.29-.31,.45-.71,.5-1.16,.03-.34-.03-.72-.12-1.12-.1-.4-.24-.81-.46-1.24-.01-.02-.03-.05-.04-.07-.44-.84-1.08-1.71-1.91-2.55-.43-.43-.86-.82-1.3-1.16-.29-.23-.59-.43-.88-.62-.35-.22-.7-.4-1.04-.55-1.19-.52-2.26-.54-2.92,.15-.16,.17-.28,.36-.38,.59-.03,.07-.04,.15-.06,.22-.06,.17-.11,.33-.14,.52,0,0,0,.02,0,.03,0,0,0,0,0,0-.21,1.56,.57,3.79,2.27,5.53,4.06,4.18,3.66,6.43,1.11,9.15-2.55,2.72-1.85,5.63,0,7.6,1.84,1.97,4.81,1.55,6.7-.42,1.89-1.97,1.84-4.85,0-6.77Z"/><path class="cls-1" d="M226.82,151.56c.06,.1,.11,.19,.17,.29,0,.01,.02,.03,.03,.04,.18,.27,.38,.54,.6,.8,.17,.2,.35,.4,.54,.59,.27,.27,.55,.51,.83,.73,.04,.03,.07,.06,.11,.09,.05,.04,.11,.07,.16,.11,.11,.08,.22,.16,.33,.23,.02,.01,.05,.03,.07,.04,.14,.09,.29,.18,.43,.26,0,0,.01,0,.02,0,.5,.27,1.02,.47,1.52,.6,.03,0,.05,.01,.08,.02,.22,.05,.45,.09,.67,.12,.25,.03,.49,.05,.73,.04,.01,0,.02,0,.03,0,.98-.03,1.87-.37,2.55-1.05,3.72-3.68,5.59-3.55,10.08,.77,2.34,2.25,6.06,2.28,8.43,0,2.38-2.28,2.61-5.97,.23-8.27-2.38-2.31-6.48-2.35-8.9,0-4.24,4.12-6.12,4.02-10.63-.5-4.52-4.53-4.63-6.42-.52-10.66,2.34-2.41,2.3-6.49,0-8.87-.59-.61-1.27-1.04-1.99-1.32,0,0,0,0,0,0-.02,0-.04,0-.06-.02-.22-.08-.43-.14-.66-.19-.06-.01-.11-.03-.17-.04-.24-.05-.49-.08-.73-.1-.02,0-.04,0-.05,0-.23-.01-.46,0-.69,.01-.06,0-.12,0-.18,.02-.25,.03-.49,.06-.73,.12-.01,0-.03,0-.04,.01-.23,.06-.45,.13-.68,.22-.06,.02-.12,.05-.18,.07-.23,.1-.46,.21-.69,.33,0,0-.02,.01-.03,.02-.21,.12-.42,.27-.62,.42-.05,.04-.11,.08-.16,.12-.21,.17-.41,.34-.6,.54-.14,.15-.28,.3-.4,.46-1.49,1.9-1.69,4.45-.63,6.52,.27,.52,.61,1,1.03,1.44,.28,.29,.54,.56,.78,.83,.08,.09,.14,.17,.22,.25,.16,.18,.32,.36,.46,.53,.08,.1,.15,.19,.23,.29,.12,.15,.24,.29,.34,.44,.07,.1,.14,.19,.2,.29,.09,.13,.19,.27,.27,.39,1.62,2.55,1.01,4.31-1.71,7.09-1.34,1.38-1.35,3.6-.25,5.64,0,0,0,0,0,0,.04,.07,.09,.14,.13,.22Z"/><path class="cls-1" d="M265.04,107.37c-.23,.28-.48,.56-.77,.84-.29,.29-.53,.58-.74,.88-.83,1.2-.98,2.46-.65,3.7,.05,.17,.1,.34,.17,.51,.39,1.02,1.1,2.02,2.02,2.94,0,0,0,0,0,0,.27,.27,.56,.51,.86,.72,.08,.06,.17,.12,.25,.17,.25,.17,.5,.32,.77,.45,.06,.03,.12,.07,.19,.1,.32,.15,.64,.26,.96,.36,.08,.02,.16,.04,.24,.06,.26,.06,.52,.11,.78,.14,.08,0,.17,.02,.25,.03,.32,.02,.64,.03,.95,0,.04,0,.08-.01,.12-.02,.19-.02,.38-.05,.56-.09-.01,0-.02-.01-.03-.02,.79-.19,1.51-.54,2.07-1.11,1.86-1.92,1.2-5.21-1.21-7.63-4.45-4.46-4.79-6.08-2.16-8.67,2.03-2,3.37-1.4,7.76,2.98,2.38,2.37,5.01,3.57,5.53,3.03,.52-.54-1.27-2.54-3.65-4.89-2.38-2.35-4.48-4.06-4.92-3.64-1.3,1.25-2.62,.66-6.9-3.56-.32-.32-.65-.61-.99-.87,0,0,0,0,0,0-.22-.18-.44-.34-.66-.49-.02-.02-.04-.03-.07-.05-.27-.18-.53-.33-.79-.47-.08-.04-.16-.08-.24-.11-.18-.09-.36-.17-.53-.23-.09-.04-.19-.06-.28-.09-.16-.05-.31-.09-.46-.12-.09-.02-.18-.03-.27-.04-.15-.02-.29-.02-.43-.02-.08,0-.16,0-.24,.01-.14,.02-.28,.06-.41,.1-.06,.02-.13,.03-.19,.06-.18,.08-.36,.19-.51,.33-1.31,1.23-.82,4.19,1.43,6.41,3.87,3.81,4.03,6.03,2.17,8.29Z"/><path class="cls-1" d="M253.16,125.72c-1.54-.85-3.36-1.04-5.02-.55-1.01,.3-1.96,.84-2.75,1.63,0,0,0,0,0,0-.19,.19-.35,.39-.51,.59-.05,.06-.09,.13-.14,.19-.11,.16-.22,.32-.32,.48-.04,.06-.08,.13-.11,.19-.12,.22-.24,.45-.33,.69,0,.01,0,.02-.01,.03-.09,.22-.16,.45-.23,.69-.02,.07-.04,.15-.05,.22-.04,.18-.08,.37-.1,.55-.01,.07-.02,.14-.03,.21-.03,.25-.05,.5-.05,.75,0,.02,0,.04,0,.07,0,.23,.02,.46,.05,.68,0,.07,.02,.15,.03,.22,.03,.19,.07,.37,.11,.56,.01,.04,.01,.09,.03,.13,0,0,0,0,0-.01,.28,1.07,.84,2.08,1.67,2.92,2.53,2.52,6.69,2.53,9.21,0,4.63-4.66,6.63-4.68,11-.15,2.26,2.34,5.97,2.15,8.25-.23,.83-.87,1.35-1.91,1.58-3,0,0,0,0,0,0,0-.02,0-.03,0-.05,0-.04,.01-.09,.02-.13,.05-.3,.08-.6,.08-.9,0-.07,0-.14,0-.21,0-.33-.03-.65-.09-.98-.01-.07-.03-.13-.04-.19-.06-.3-.15-.59-.25-.87-.02-.05-.03-.09-.05-.14-.13-.31-.29-.61-.47-.91-.04-.07-.08-.13-.13-.19-.2-.29-.41-.58-.67-.85-.43-.45-.9-.81-1.41-1.1-.85-.48-1.78-.74-2.72-.78-1.5-.05-2.99,.49-4.12,1.65-4.38,4.53-6.37,4.52-11-.15-.44-.44-.92-.8-1.44-1.08Z"/><path class="cls-1" d="M289.15,144.34c0-.11,0-.21-.02-.31,0-.04-.01-.09-.02-.13-.01-.08-.03-.17-.06-.24-.01-.04-.03-.09-.04-.13-.03-.08-.07-.16-.11-.23-.02-.03-.04-.07-.06-.1-.07-.1-.14-.21-.23-.3-.14-.15-.31-.27-.49-.37-.05-.03-.11-.05-.16-.08-.15-.07-.3-.12-.47-.17-.06-.01-.11-.03-.17-.04-.22-.04-.45-.07-.69-.07-.05,0-.1,0-.15,0-.2,0-.41,.03-.63,.07-.08,.01-.16,.03-.24,.05-.21,.05-.43,.11-.65,.19-.06,.02-.11,.03-.17,.06-.24,.09-.48,.2-.72,.32,0,0,0,0,.01,0-.68,.35-1.35,.83-1.96,1.45-3.67,3.74-5.38,4.5-7.8,2.57-.14-.11-.28-.23-.43-.36-.07-.06-.13-.11-.2-.18-.21-.2-.43-.41-.66-.64-1.93-1.98-5.52-1.67-7.97,.78-2.45,2.45-2.69,6.13-.79,8,.12,.12,.25,.23,.38,.33,.04,.03,.08,.05,.12,.08,.1,.07,.19,.13,.29,.19,.05,.03,.11,.05,.16,.08,.09,.04,.18,.09,.27,.13,.06,.03,.13,.04,.19,.07,.09,.03,.17,.06,.26,.08,.07,.02,.14,.03,.21,.04,.09,.02,.17,.04,.26,.05,.07,.01,.15,.01,.23,.02,.09,0,.17,.02,.26,.02,.08,0,.16,0,.24,0,.09,0,.18,0,.27-.01,.08,0,.16-.02,.24-.03,.09-.01,.18-.02,.27-.04,.02,0,.04,0,.06,0,0,0,0,0,0,0,1.31-.25,2.68-1,3.85-2.18,4.44-4.45,6.04-4.79,8.6-2.13,1.99,2.07,.38,4.42-3,7.81-3.38,3.39-3.56,5.03-3.03,5.56,.54,.53,2.54-1.27,4.91-3.63,2.37-2.36,4.09-4.5,3.65-4.95-1.28-1.32-.68-2.67,3.61-6.95,.86-.86,1.55-1.77,1.99-2.64,0,0,0,0,0,0,.02-.03,.03-.07,.05-.1,.06-.12,.11-.23,.16-.35,.02-.05,.04-.11,.06-.16,.04-.1,.08-.21,.11-.31,.02-.05,.03-.11,.05-.16,.03-.11,.06-.22,.08-.33,0-.04,.02-.08,.02-.12,.02-.14,.04-.28,.04-.42,0-.03,0-.05,0-.08Z"/></g></g></svg>