<?xml version="1.0" encoding="UTF-8"?><svg id="Calque_2" xmlns="http://www.w3.org/2000/svg" viewBox="0 0 1417.32 1417.32"><defs><style>.cls-1{fill:#020204;}.cls-2{fill:#c6c6c6;}</style></defs><path class="cls-2" d="M942.74,301.37c-10.39-18.22,156.39-57.65,187.45-77.33-138.57,4.55-252.35-12.11-252.35-12.11-3.82-1.64-32.72-31.63-52.36-38.18-1.09-17.45,8.73-37.63-32.72-15.27-222.1-28.65-422.68,134.83-385.04,389.41,4.43,23.33,6.54,13.08,4.36,58.89-2.18,45.81,26,107.08,47.63,130.71,20.05,21.91,17.09,29.81,19.27,46.18,2.18,16.36,36.72,89.44,89.81,99.26,.73,5.09,9.09,26.54,25.45,34.54,1.82,32.36,17.45,38.54,24.36,38.54,0,0,2.57,10.71,8.9,22.8-162.87-11.66-226.06,210.02-86.12,287.48,120.51,61.45,267.21,5.81,311.38-154.48,18.23-72.95,20.19-171.37-38.89-222.66-2.92-16.53-14.61-84.51-12.78-102.54,4.44-33.73,7.46-95.99-19.23-134.56-69.45-100.35-65.83-116.94-53.45-104.71,56.72,55.99,97.08,56.72,100.9,131.11,3.09,60.23,43.18,56.5,70.95,37.96,27.77-18.54,24.6-7.91,43.04-16.91,37.52-18.3,53.63-33.2,46.36-58.36-92.81-176.58,27.05-157.84-46.9-339.77Z"/><g><g><path class="cls-1" d="M425.85,594.25c-8.63,74.45,255.52,118.84,282.51,183.25-36.36-26.18-90.53-51.27-106.89-47.45-16.36,3.82,22.36,22.91,22.36,22.91,0,0-77.45-14.18-139.62-60-33.26-28.9-32.72,14.19-21.81,27.82,10.91,13.63,40.9,58.9,184.89,93.81-25.09,.55-85.08-7.09-139.07-37.09,43.45,93.7,203.75,54.23,292.58,104.03,1.23-35.54-18.03-59.57-20.98-63.13-110.72-145.29-263.1-125.16-353.95-224.16Z"/><path class="cls-1" d="M507.66,802.95c26.91,79.26,144.61,88.72,223.2,92.35,4.41,3.64-94.48,16-146.84-13.09,12.68,76.06,185.18-12.43,232.33,119.98-41.82-82.91-156.66-58.26-209.79-80.72,2.18,17.45,14.54,24,21.82,25.45-.51,3.54,6.54,21.8,14.18,34.09,136.74,21.17,171.45,216.01,51.19,283.36,141.5-48.5,179.66-210.91,134.21-325.31-47.45-111.74-241.21-36.29-320.29-136.12Z"/><path class="cls-1" d="M936.88,474.26c9.27-8.36,20.18-56.72,13.09-92.17-15.12-75.63-50.35-88.6-28.36-98.71,38.19-17.57,99.1-37.08,138.08-46.83-108.69-2.06-185.53-5.53-190.99-11.53-14.18-15.82-44.72-39.27-47.99-37.63-3.27,1.64-13.09,62.17-16.36,63.81-3.27,1.64,0-38.18-6.54-36s-29.45,55.63-28.91,50.72c.55-4.91,12.54-67.63,17.45-82.9,4.91-15.27-6.54-3.82-11.45,0s-68.72,46.9-77.99,41.45c15.82-10.36,57.81-41.45,71.45-52.36,0,0-24.2-2.16-59.82,1.27-124.92,12.01-233.43,94.64-275.5,212.88-41.32,116.13-9.65,240.43,156.25,286.52-176.7-80.72-166.5-224.15-149.51-271.5-39.48,228.62,189.36,227.06,344.34,395.5,9.62-42.36,2.78-64.55,2.78-64.55-6.54,22.91-19.63,31.63-24.54,27.81,26.2-46.14,22.87-79.95-19.63-137.98-61.33-69.71-84.05-181.2-25.64-253.06-19.09,80.72-17.45,139.07,87.81,228.52,0,0,25.13,21.08,31.81,47.27,4.73,18.54,9.09,56.72,9.09,56.72,8.19,23.27,52.7,1.09,61.08-7.2-1.64-4.08-21.27-25.89-16.36-29.16,4.91-3.27,7.14-8.18,7.14-8.18,0,0,11.95,27.81,20.68,30.54,8.73,2.73,41.99-8.91,52.36-31.63,10.36-22.72-38.17-60.47-33.81-181.61Zm-466.85,21.82c-20.2-65.21-5.09-85.38,20.27-78.12-23.44-97.14,58.57-222.45,230.48-223.28,.22,0,.27,.31,.06,.36-122.44,27.18-262.19,107.63-194.12,283.54-27.65-45.44-51.24-50.84-51.24-32.13,4.31,86.83,64.61,150.23,95.62,178.38-16.55-6.4-75.71-46.83-101.08-128.75Zm131.44-22.91c-19.63-43.63-33.27-58.9-52.9-65.45-2.73,32.18,24.54,143.98,115.62,217.61-104.7-34.15-193.36-310.59-98.71-238.88,5.45-1.09,17.45-99.81,108.53-146.16-45.81,45.81-106.35,115.62-72.54,232.88Zm85.63,70.9c-12.54-11.45-28.26-32.31-28.26-32.31,0,0,3.53,36.93,45.71,93.94,65.92,89.1,.55,147.8-103.9-9.82,45.54,46.36,97.9,73.08,98.99,43.08-4.54-37.67-73.19-96.29-62.18-168.52,0,0,2.49,13.67,10.36,11.45-8.73-34.9-8.18-105.8,43.09-160.34-16.91,27.27-64.36,115.62-3.82,222.52Zm189.25-105.8c-4.91-4.91-18,13.09-10.36,0,7.64-13.09-32.72-79.08-32.72-79.08,16.36,19.63,50.72,52.9,52.36,47.99,1.64-4.91,3.82-25.63,4.91-19.63,1.64,18.54,6,12,7.09,33.81,1.09,21.82-16.36,21.82-21.27,16.91Z"/></g><circle class="cls-1" cx="615.12" cy="1132.42" r="134.5"/></g><path class="cls-2" d="M688.15,1162.81c-7.75-35.6-54.21-38.55-83.62-47.12-1.83-.53-3.66-1.03-5.5-1.5-15.45-3.98-31.3-10.15-29.62-29.38,2.46-40.66,83.62-44.21,94.17-5.76h22.69c-9.94-50.89-86.97-55.69-121.15-30.69-22.76,16.03-25.73,48.7-8.44,69.15,19.54,21.71,57.91,22.83,85.91,32.03,13.08,3.56,24.92,13.31,24.39,28.01-3.43,45.38-94.79,42.58-101.52-.47v-15.4h-41.75v6.1c9.96,0,15.66,4.27,18.92,9.3,8.48,79.17,162.59,68.92,145.53-14.27Z"/></svg>