<svg width="134" height="128" viewBox="0 0 134 128" fill="none" xmlns="http://www.w3.org/2000/svg">
<g clip-path="url(#clip0_1_1188)">
<path d="M125.127 106.453C123.179 104.673 120.852 103.756 118.202 103.756C115.551 103.756 113.225 104.673 111.277 106.453C109.382 108.233 108.409 110.933 108.409 114.6V127.011H113.603V114.6C113.603 110.717 115.388 108.72 118.202 108.72C121.016 108.72 122.854 110.77 122.854 114.6V127.011H128.048V114.6C128.048 110.984 127.075 108.233 125.127 106.453Z" fill="url(#paint0_linear_1_1188)"/>
<path d="M100.693 116.434C100.693 120.264 98.8545 122.315 96.0405 122.315C93.2265 122.315 91.4416 120.318 91.4416 116.434V108.121L86.2478 104.026V116.434C86.2478 120.104 87.2206 122.855 89.1154 124.637C91.0638 126.418 93.39 127.281 96.0405 127.281C98.691 127.281 101.017 126.364 102.966 124.584C104.914 122.804 105.887 120.051 105.887 116.437V108.124L100.693 104.029V116.437V116.434Z" fill="url(#paint1_linear_1_1188)"/>
<path d="M73.7161 113.307V127.011H78.8563V113.307C78.8563 110.447 80.1534 108.99 82.7503 108.99H83.7232V104.026H82.4797C77.4493 104.026 73.7161 106.67 73.7161 113.307Z" fill="url(#paint2_linear_1_1188)"/>
<path d="M59.4002 103.756C56.1011 103.756 53.3407 104.89 51.0144 107.21C48.6882 109.53 47.5519 112.283 47.5519 115.52C47.5519 118.757 48.6882 121.563 51.0144 123.884C53.3407 126.15 56.0984 127.284 59.4002 127.284C62.7019 127.284 65.406 126.15 67.7323 123.884C70.0585 121.563 71.1948 118.81 71.1948 115.52C71.1948 112.23 70.0585 109.53 67.7323 107.21C65.406 104.89 62.6456 103.756 59.4002 103.756ZM64.1062 120.43C62.8627 121.67 61.2922 122.317 59.4002 122.317C57.5081 122.317 55.9376 121.67 54.6405 120.43C53.397 119.134 52.7484 117.517 52.7484 115.52C52.7484 113.523 53.397 111.903 54.6405 110.663C55.9376 109.369 57.5081 108.72 59.4002 108.72C61.2922 108.72 62.8627 109.367 64.1062 110.663C65.4034 111.903 66.0546 113.523 66.0546 115.52C66.0546 117.517 65.406 119.134 64.1062 120.43Z" fill="url(#paint3_linear_1_1188)"/>
<path d="M39.8333 127.011H45.0271V94.9542L39.8333 90.8592V127.011Z" fill="url(#paint4_linear_1_1188)"/>
<path d="M32.1174 127.011H37.3113V94.9542L32.1174 90.8592V127.011Z" fill="url(#paint5_linear_1_1188)"/>
<path d="M17.8008 103.756C14.5017 103.756 11.7413 104.89 9.41507 107.21C7.08884 109.53 5.95251 112.283 5.95251 115.52C5.95251 118.757 7.08884 121.563 9.41507 123.884C11.7413 126.15 14.499 127.284 17.8008 127.284C21.1026 127.284 23.8067 126.15 26.1329 123.884C28.4592 121.563 29.5955 118.81 29.5955 115.52C29.5955 112.23 28.4592 109.53 26.1329 107.21C23.8067 104.89 21.0463 103.756 17.8008 103.756ZM22.5069 120.43C21.2634 121.67 19.6929 122.317 17.8008 122.317C15.9087 122.317 14.3382 121.67 13.0411 120.43C11.7976 119.134 11.149 117.517 11.149 115.52C11.149 113.523 11.7976 111.903 13.0411 110.663C14.3382 109.369 15.9087 108.72 17.8008 108.72C19.6929 108.72 21.2634 109.367 22.5069 110.663C23.804 111.903 24.4552 113.523 24.4552 115.52C24.4552 117.517 23.8067 119.134 22.5069 120.43Z" fill="url(#paint6_linear_1_1188)"/>
<path d="M65.0382 92.5379C64.5424 87.0476 57.8504 83.1424 51.0566 80.0766C46.8249 78.1681 42.5557 76.583 39.7175 75.145C38.935 74.752 38.1122 74.3377 37.2546 73.9101C28.5687 69.5611 16.4149 63.4053 9.43087 55.2047C0.578828 44.7988 1.60527 35.0559 11.3042 38.9718C5.12947 35.5825 1.89739 37.0072 0.911148 40.4793C-1.44725 48.7548 6.97331 59.174 12.7728 64.405C21.3676 72.1165 29.7747 75.7143 38.7206 79.3121C39.8247 79.7558 40.9343 80.1995 42.0572 80.6513C44.1261 81.4852 46.2299 82.3432 48.3739 83.2788C52.5789 85.1204 60.6376 88.3708 61.6668 93.158C62.653 97.7101 56.4917 100.589 53.3561 96.7986C57.4082 103.109 65.6197 99.0118 65.0382 92.5379Z" fill="url(#paint7_linear_1_1188)"/>
<path d="M133.092 40.4686C132.092 37.0098 128.873 35.569 122.685 38.9744C132.384 35.0585 133.424 44.7854 124.558 55.2073C117.564 63.4213 105.378 69.5851 96.6891 73.9367C95.8476 74.3564 95.0383 74.7626 94.2718 75.1476C91.4471 76.5803 87.21 78.152 83.0024 80.0471C76.1898 83.113 69.463 87.0182 68.9672 92.5271C68.3696 99.0171 76.5838 103.112 80.6359 96.8039C77.5137 100.581 71.339 97.718 72.3252 93.1633C73.3651 88.3627 81.4131 85.123 85.6154 83.284C87.7567 82.3485 89.8578 81.4878 91.9241 80.6538C93.0336 80.2075 94.1324 79.7664 95.2232 79.3281C104.196 75.7169 112.614 72.1244 121.216 64.4076C127.029 59.1633 135.437 48.7574 133.092 40.4686Z" fill="url(#paint8_linear_1_1188)"/>
<path d="M51.8872 78.5047C51.3727 78.2241 50.8608 77.9434 50.357 77.6628C45.4954 74.9711 41.1914 72.4104 37.3911 69.9834C36.898 69.6679 36.4103 69.3552 35.9332 69.0451C4.9551 48.883 9.33957 38.5574 17.5189 43.4008C8.58917 32.7677 -8.0429 48.5569 36.6943 71.8491C40.7894 73.9821 45.399 76.1766 50.5767 78.4192C52.2919 79.1623 54.0688 79.9107 55.9099 80.6645C54.5297 79.9348 53.1897 79.2158 51.8872 78.5047Z" fill="url(#paint9_linear_1_1188)"/>
<path d="M116.473 43.4008C124.668 38.544 129.055 48.883 98.013 69.0719C97.5359 69.382 97.0482 69.6947 96.5551 70.0101C92.7843 72.4131 88.5204 74.9524 83.7098 77.6173C83.206 77.8953 82.6941 78.176 82.1795 78.4593C80.8583 79.181 79.4995 79.9107 78.0979 80.6512C79.9605 79.8894 81.7534 79.1329 83.4874 78.3791C88.6142 76.1552 93.189 73.9794 97.2519 71.8651C142.061 48.5543 125.416 32.7517 116.473 43.4008Z" fill="url(#paint10_linear_1_1188)"/>
<path d="M48.7009 0.267273H38.0131V23.9791L48.7009 60.7483V0.267273Z" fill="url(#paint11_linear_1_1188)"/>
<path d="M95.9864 0.267273H85.2986V60.7483L95.9864 23.9791V0.267273Z" fill="url(#paint12_linear_1_1188)"/>
<path d="M48.7009 65.7815L38.0158 29.0123L29.6595 0.267273H18.9181L37.3913 68.2246C37.595 68.3556 37.8067 68.4865 38.0158 68.6175C39.0503 69.2724 40.1223 69.938 41.2318 70.6115C44.0324 72.3142 47.0634 74.0784 50.3572 75.9013C50.861 76.1793 51.3729 76.46 51.8874 76.7433L48.7009 65.7815Z" fill="url(#paint13_linear_1_1188)"/>
<path d="M104.392 0.267273L95.987 29.1833L85.3019 65.9499L82.1797 76.6952C82.6942 76.4145 83.2061 76.1312 83.71 75.8532C88.5206 73.1883 92.7844 70.6516 96.5552 68.246L115.031 0.267273H104.392Z" fill="url(#paint14_linear_1_1188)"/>
<path d="M59.6437 27.7212C60.8229 26.5505 61.1793 26.3928 61.7233 26.93C62.0851 27.2856 62.9213 27.0931 63.5484 26.4837C64.6231 25.4359 65.0251 25.2969 65.9845 26.195C66.5313 26.7082 67.4961 26.6895 68.0213 26.195C68.2411 25.9865 68.3483 25.7299 68.3617 25.4626C68.3617 25.4572 68.3617 25.4519 68.3617 25.4466C68.3617 25.4145 68.3617 25.3824 68.3617 25.353C68.3617 25.3396 68.3617 25.3289 68.3617 25.3156C68.359 25.2728 68.3537 25.2274 68.3429 25.1846C68.3429 25.1846 68.3429 25.1819 68.3429 25.1793C68.3349 25.1365 68.3242 25.0964 68.3108 25.0536C68.3054 25.0403 68.3027 25.0269 68.2974 25.0135C68.2867 24.9841 68.2759 24.9547 68.2652 24.9253C68.2599 24.9093 68.2518 24.8959 68.2438 24.8799C68.2304 24.8532 68.2197 24.8264 68.2036 24.7997C68.1955 24.7837 68.1875 24.7676 68.1768 24.7543C68.1607 24.7275 68.1446 24.7035 68.1285 24.6794C68.1178 24.6661 68.1098 24.65 68.0991 24.6366C68.0803 24.6099 68.0589 24.5832 68.0374 24.5591C68.0294 24.5484 68.0187 24.5377 68.0106 24.5244C67.9785 24.487 67.9463 24.4522 67.9088 24.4175C67.7533 24.2731 67.5765 24.1769 67.3915 24.1181C67.0003 23.9951 66.5741 24.062 66.2311 24.3132C66.1855 24.3453 66.14 24.3774 66.0971 24.4175C65.9926 24.5164 65.8934 24.6019 65.8023 24.6821C64.9313 25.4332 64.5641 25.3503 63.9343 24.7623C63.8941 24.7249 63.8486 24.6955 63.7977 24.6741C63.7789 24.6661 63.7575 24.6661 63.7387 24.6607C63.7039 24.65 63.669 24.6393 63.6315 24.6366C63.6047 24.6366 63.5779 24.6366 63.5511 24.6366C63.5163 24.6366 63.4814 24.6366 63.4412 24.642C63.4117 24.6473 63.3769 24.658 63.3474 24.6634C63.3099 24.6714 63.2724 24.6794 63.2349 24.6901C63.2 24.7008 63.1652 24.7168 63.1303 24.7329C63.0901 24.7489 63.0526 24.7623 63.0124 24.781C62.9776 24.7997 62.9401 24.8211 62.9052 24.8425C62.865 24.8639 62.8248 24.8852 62.7846 24.912C62.7498 24.936 62.7123 24.9627 62.6774 24.9895C62.6372 25.0189 62.597 25.0456 62.5568 25.0777C62.522 25.1071 62.4845 25.1392 62.4496 25.1712C62.4148 25.2006 62.3826 25.2274 62.3478 25.2594C62.3344 25.2728 62.321 25.2808 62.3103 25.2942C61.2034 26.3848 60.8389 26.612 60.4637 26.2458C60.3458 26.1335 59.775 26.5879 59.1425 27.2161C58.51 27.8442 58.0249 28.3788 58.1643 28.5231C58.3037 28.6675 59.0058 28.3494 59.6463 27.7132L59.6437 27.7212Z" fill="url(#paint15_linear_1_1188)"/>
<path d="M58.8368 40.4071C59.1905 40.0409 58.9895 39.1909 58.3812 38.5762C58.081 38.2714 57.7353 38.0923 57.4217 38.0255C57.4217 38.0255 57.419 38.0255 57.4164 38.0255C57.3654 38.0148 57.3172 38.0122 57.269 38.0095C57.2395 38.0095 57.21 38.0015 57.1832 38.0015C57.135 38.0015 57.0921 38.0095 57.0465 38.0148C57.0224 38.0175 56.9956 38.0148 56.9715 38.0228C56.9259 38.0335 56.883 38.0523 56.8428 38.0683C56.8268 38.0763 56.8053 38.079 56.7892 38.087C56.733 38.1164 56.6847 38.1538 56.6418 38.1993C56.5856 38.2607 56.548 38.3302 56.5239 38.4104C56.4167 38.7873 56.6954 39.3379 57.1886 39.8324C57.1966 39.8405 57.2046 39.8485 57.2127 39.8565C58.3329 40.9845 58.3785 41.4549 58.1534 41.6901C57.9256 41.928 58.5018 42.3824 59.1342 43.0106C59.7667 43.6387 60.3081 44.1199 60.4501 43.9809C60.5922 43.8419 60.2732 43.1335 59.6354 42.4947C58.4616 41.3213 58.3008 40.9604 58.8314 40.4071H58.8368Z" fill="url(#paint16_linear_1_1188)"/>
<path d="M58.0864 36.133C58.5795 35.6065 58.5983 34.6495 58.0864 34.1016C57.2341 33.1928 57.2931 32.7651 58.3812 31.6532C59.5282 30.4797 59.9597 30.3995 60.8173 31.2816C61.3318 31.8109 62.2993 31.7307 62.9559 31.0731C64.1673 29.8623 64.6711 29.8302 65.8048 30.9368C66.4533 31.5703 67.5548 31.5543 68.19 30.9368C68.4258 30.7069 68.5652 30.4289 68.6134 30.1349C68.6134 30.1349 68.6134 30.1322 68.6134 30.1296C68.6241 30.0734 68.6295 30.0146 68.6322 29.9558C68.6322 29.9425 68.6322 29.9264 68.6322 29.9131C68.6322 29.8703 68.6322 29.8248 68.6295 29.7821C68.6295 29.7634 68.6268 29.7447 68.6241 29.7259C68.6188 29.6859 68.6134 29.6431 68.6054 29.603C68.6027 29.587 68.6 29.5682 68.5946 29.5522C68.5839 29.4987 68.5678 29.448 68.5518 29.3945C68.5518 29.3892 68.5518 29.3865 68.5491 29.3811C68.5303 29.325 68.5062 29.2689 68.4821 29.2154C68.474 29.1994 68.466 29.186 68.458 29.17C68.4392 29.1325 68.4178 29.0925 68.3936 29.055C68.3829 29.0363 68.3722 29.0203 68.3615 29.0016C68.3374 28.9668 68.3133 28.9321 68.2865 28.8973C68.2757 28.8813 68.2623 28.8679 68.2516 28.8519C68.2114 28.8038 68.1712 28.7583 68.123 28.7129C68.0828 28.6755 68.0426 28.6381 67.9997 28.606C67.9139 28.5392 67.8255 28.483 67.7317 28.4349C67.6861 28.4109 67.6379 28.3895 67.5896 28.3708C67.1742 28.2077 66.7079 28.2237 66.3032 28.4135C66.1451 28.4884 65.995 28.5873 65.8637 28.7156C65.7914 28.7851 65.7244 28.8492 65.6574 28.908C65.6359 28.9267 65.6172 28.9454 65.5957 28.9642C64.7301 29.7393 64.237 29.8222 63.5375 29.2609C63.4973 29.2288 63.4571 29.194 63.4142 29.1566C63.3954 29.1379 63.374 29.1245 63.3552 29.1058C63.2963 29.0524 63.2373 28.9962 63.173 28.9348C63.1703 28.9321 63.165 28.9267 63.1623 28.9241C62.9211 28.6835 62.5807 28.6006 62.2216 28.6568C62.1573 28.6675 62.093 28.6808 62.0287 28.6995C61.9697 28.7156 61.9081 28.737 61.8491 28.761C61.5999 28.8626 61.356 29.023 61.1362 29.2421C60.9325 29.4453 60.7557 29.6137 60.5922 29.7553C60.0053 30.2605 59.6354 30.3728 59.2549 30.159C59.1182 30.0815 58.9815 29.9665 58.8314 29.8115C58.5232 29.4907 57.7943 29.7848 57.1886 30.3942C56.5829 31.0036 56.331 31.7013 56.6419 32.0327C57.3279 32.7651 57.2636 33.1848 56.2854 34.2112C55.7977 34.7217 55.7843 35.4915 56.2854 36.0208C56.7866 36.5473 57.5879 36.6596 58.081 36.133H58.0864Z" fill="url(#paint17_linear_1_1188)"/>
<path d="M71.4647 43.1523C71.4244 43.163 71.3816 43.179 71.3387 43.1924C71.2958 43.2057 71.2529 43.2164 71.21 43.2325C71.1618 43.2512 71.1136 43.2779 71.0653 43.2993C71.0278 43.318 70.9876 43.334 70.9501 43.3554C70.8938 43.3875 70.8402 43.4249 70.7839 43.4623C70.7544 43.4837 70.7223 43.4997 70.6955 43.5211C70.6124 43.5826 70.5293 43.6521 70.4516 43.7296C69.728 44.438 69.2992 44.7053 68.8356 44.5716C68.7203 44.5395 68.6051 44.4834 68.4818 44.4032C68.4523 44.3818 68.4202 44.3578 68.388 44.3337C68.3692 44.3203 68.3532 44.3097 68.3344 44.2963C68.3183 44.2829 68.3022 44.2696 68.2862 44.2562C68.2004 44.1867 68.112 44.1092 68.0155 44.0183C67.8922 43.9034 67.7502 43.8178 67.5974 43.7537C67.5786 43.7457 67.5626 43.735 67.5465 43.7296C67.0239 43.5372 66.3914 43.6334 65.9814 44.0183C65.0728 44.8736 64.6548 44.8148 63.5452 43.7296C63.3898 43.5773 63.2183 43.4516 63.0441 43.3554C62.618 43.1202 62.1784 43.0587 61.8917 43.1763C61.8274 43.203 61.7684 43.2378 61.7202 43.2832C61.6424 43.3608 61.5996 43.4597 61.5862 43.5692C61.5862 43.5773 61.5835 43.5853 61.5835 43.596C61.5754 43.7296 61.6076 43.8847 61.6746 44.045C61.7925 44.3284 62.015 44.6411 62.3017 44.9271L62.3232 44.9485C62.9235 45.5339 63.6015 45.7664 63.9231 45.4617C64.6467 44.7721 65.0595 44.8336 66.0886 45.8065C66.5978 46.2876 67.391 46.2876 67.9002 45.8065C68.9267 44.8362 69.3394 44.7747 70.063 45.4617C70.39 45.7718 71.0814 45.5259 71.6871 44.9271C72.2928 44.3284 72.609 43.6174 72.2713 43.2832C72.0998 43.1148 71.7996 43.0747 71.462 43.1523H71.4647Z" fill="url(#paint18_linear_1_1188)"/>
<path d="M77.7068 34.2112C76.9778 33.4494 76.7554 33.0217 76.9724 32.5513C76.9832 32.5272 76.9992 32.5005 77.0126 32.4737C77.0207 32.4577 77.0287 32.4417 77.0394 32.4256C77.0555 32.3989 77.0743 32.3722 77.093 32.3454C77.1038 32.3294 77.1118 32.316 77.1252 32.3C77.1466 32.2706 77.1734 32.2385 77.2002 32.2064C77.211 32.1931 77.219 32.1824 77.2297 32.169C77.2672 32.1236 77.3074 32.0781 77.353 32.0327C77.4307 31.9498 77.4736 31.8429 77.487 31.7226C77.495 31.6318 77.479 31.5302 77.4548 31.4233C77.428 31.3163 77.3905 31.2068 77.3316 31.0918C77.3289 31.0865 77.3235 31.0785 77.3208 31.0731C77.2029 30.8486 77.0314 30.616 76.809 30.3915C76.6937 30.2766 76.5785 30.1723 76.4606 30.0814C76.3828 30.02 76.3024 29.9665 76.2247 29.9157C76.1309 29.8569 76.0371 29.8088 75.946 29.7687C75.6271 29.6297 75.3403 29.6244 75.1634 29.8088C75.1206 29.8542 75.0884 29.905 75.0616 29.9665C75.0536 29.9852 75.0509 30.0066 75.0455 30.0253C75.0294 30.0707 75.016 30.1135 75.008 30.1643C75.008 30.1643 75.008 30.1696 75.008 30.1723C74.9517 30.5893 75.1608 31.1854 75.6164 31.6505C76.7044 32.7678 76.5972 33.3692 75.9138 34.0962C75.2304 34.8233 75.418 35.6011 75.9138 36.1277C76.407 36.6542 77.2029 36.542 77.7094 36.0154C78.216 35.4888 78.2026 34.719 77.7094 34.2058L77.7068 34.2112Z" fill="url(#paint19_linear_1_1188)"/>
<path d="M60.7879 40.5113C60.804 40.5381 60.8174 40.5621 60.8335 40.5889C60.8335 40.5915 60.8388 40.5969 60.8415 40.5996C60.8898 40.6717 60.9434 40.7439 61.0023 40.8134C61.0479 40.8669 61.0961 40.9203 61.147 40.9711C61.2194 41.0433 61.2944 41.1074 61.3695 41.1662C61.3802 41.1742 61.3882 41.1823 61.399 41.1903C61.4124 41.201 61.4284 41.209 61.4418 41.2197C61.4713 41.2411 61.5008 41.2625 61.5303 41.2812C61.5356 41.2838 61.5437 41.2892 61.549 41.2919C61.5866 41.3159 61.6268 41.34 61.6643 41.3614C61.6643 41.3614 61.667 41.3614 61.6696 41.3614C61.8036 41.4335 61.943 41.487 62.077 41.5217C62.085 41.5217 62.0904 41.5244 62.0984 41.5271C62.1574 41.5404 62.219 41.5511 62.278 41.5591C62.345 41.5672 62.4093 41.5725 62.4736 41.5698C62.4763 41.5698 62.479 41.5698 62.4817 41.5698C62.7443 41.5618 62.9828 41.4709 63.1651 41.2892C64.162 40.3055 64.6632 40.3403 65.8665 41.495C66.4936 42.0964 67.4906 42.1044 68.1258 41.495C68.7636 40.8856 68.8252 39.8992 68.1874 39.2845C67.5496 38.667 66.4508 38.6563 65.8022 39.2845C64.6659 40.3857 64.162 40.359 62.9534 39.1508C61.742 37.94 61.7125 37.4348 62.814 36.3014C63.4411 35.6573 63.4304 34.5667 62.814 33.9305C62.6559 33.7675 62.4736 33.6525 62.2807 33.5777C62.2753 33.5777 62.27 33.5777 62.2646 33.5723C62.2056 33.551 62.1494 33.5349 62.0877 33.5216C62.0716 33.5189 62.0582 33.5135 62.0422 33.5109C61.9778 33.4975 61.9108 33.4895 61.8465 33.4841C61.8412 33.4841 61.8358 33.4841 61.8331 33.4841C61.7715 33.4815 61.7098 33.4841 61.6482 33.4868C61.6321 33.4868 61.616 33.4868 61.6 33.4922C61.533 33.5002 61.4686 33.5082 61.4043 33.5242C61.4016 33.5242 61.3963 33.5242 61.3936 33.5269C61.332 33.5429 61.273 33.5617 61.2114 33.5857C61.1953 33.5911 61.1792 33.5991 61.1631 33.6044C61.1015 33.6312 61.0398 33.6606 60.9782 33.6926C60.9782 33.6926 60.9728 33.6953 60.9702 33.698C60.9139 33.7301 60.8576 33.7701 60.804 33.8102C60.7906 33.8209 60.7745 33.8316 60.7611 33.8423C60.7048 33.8878 60.6512 33.9332 60.6003 33.9867C60.5628 34.0268 60.5253 34.0668 60.4931 34.1096C60.0938 34.6175 60.0402 35.2991 60.3243 35.8524C60.3966 35.9914 60.4878 36.1197 60.6003 36.2373C60.6754 36.3148 60.745 36.387 60.8094 36.4591C60.8308 36.4832 60.8469 36.5046 60.8683 36.526C60.9112 36.5741 60.9541 36.6222 60.9916 36.6676C61.013 36.6944 61.0318 36.7184 61.0532 36.7452C61.0854 36.7852 61.1176 36.8227 61.1444 36.8628C61.1631 36.8895 61.1819 36.9135 61.198 36.9403C61.2221 36.975 61.2489 37.0124 61.2703 37.0445C61.7045 37.7261 61.541 38.1966 60.812 38.9396C60.4529 39.3085 60.4502 39.9019 60.745 40.4472C60.7558 40.4659 60.7692 40.4846 60.7799 40.506L60.7879 40.5113Z" fill="url(#paint20_linear_1_1188)"/>
<path d="M71.0306 28.6995C70.969 28.7744 70.902 28.8492 70.8242 28.9241C70.7465 29.0016 70.6822 29.0791 70.6259 29.1593C70.4035 29.48 70.3633 29.8168 70.4517 30.1483C70.4651 30.1937 70.4785 30.2392 70.4973 30.2846C70.6018 30.5572 70.7921 30.8245 71.0386 31.0705C71.111 31.1426 71.1887 31.2068 71.2691 31.2629C71.2906 31.2789 71.3147 31.295 71.3361 31.3083C71.4031 31.3538 71.4701 31.3939 71.5425 31.4286C71.5586 31.4367 71.5746 31.4473 71.5934 31.4554C71.6792 31.4955 71.7649 31.5249 71.8507 31.5516C71.8721 31.5569 71.8936 31.5623 71.915 31.5676C71.9847 31.5837 72.0544 31.597 72.124 31.605C72.1455 31.605 72.1696 31.6104 72.191 31.6131C72.2768 31.6184 72.3626 31.6211 72.4456 31.6131C72.4564 31.6131 72.4671 31.6104 72.4778 31.6077C72.5287 31.6024 72.5796 31.5944 72.6279 31.5837C72.6252 31.5837 72.6225 31.581 72.6198 31.5783C72.8316 31.5275 73.0245 31.434 73.1746 31.2816C73.6731 30.7684 73.4962 29.889 72.8503 29.2422C71.6577 28.05 71.5666 27.617 72.2714 26.9247C72.8155 26.3901 73.1746 26.5505 74.3511 27.7212C74.989 28.3547 75.6938 28.6755 75.8332 28.5311C75.9725 28.3868 75.4928 27.8522 74.855 27.2241C74.2171 26.5959 73.6543 26.1388 73.5364 26.2511C73.188 26.5852 72.8342 26.4275 71.6872 25.2995C71.6014 25.214 71.513 25.1365 71.4219 25.067C71.3629 25.0189 71.304 24.9761 71.245 24.936C71.2396 24.9307 71.2343 24.928 71.2262 24.9227C71.1539 24.8745 71.0842 24.8344 71.0145 24.797C70.9931 24.7863 70.9716 24.7756 70.9502 24.7676C70.902 24.7436 70.8537 24.7222 70.8082 24.7061C70.784 24.6954 70.7572 24.6901 70.7331 24.6821C70.6902 24.6687 70.65 24.658 70.6098 24.65C70.5857 24.6447 70.5616 24.642 70.5375 24.6393C70.4973 24.634 70.4598 24.634 70.4222 24.634C70.4008 24.634 70.3794 24.634 70.3579 24.6366C70.3204 24.642 70.2829 24.6527 70.248 24.6634C70.232 24.6687 70.2132 24.6714 70.1971 24.6794C70.1489 24.7008 70.1006 24.7302 70.0604 24.7676C69.7094 25.0964 69.8407 25.8876 70.4437 26.481C71.4808 27.4994 71.5237 28.0928 71.0252 28.6969L71.0306 28.6995Z" fill="url(#paint21_linear_1_1188)"/>
<path d="M67.8469 33.6045C67.4342 33.3773 66.9465 33.3265 66.5016 33.4574C66.2309 33.5376 65.9763 33.682 65.7646 33.8931C65.7137 33.9439 65.6708 33.9974 65.6279 34.0508C65.6145 34.0669 65.6038 34.0856 65.5904 34.1016C65.5609 34.1444 65.5314 34.1872 65.5046 34.2299C65.4939 34.246 65.4832 34.2647 65.4751 34.2807C65.443 34.3395 65.4108 34.401 65.3867 34.4652C65.3867 34.4678 65.3867 34.4705 65.384 34.4732C65.3599 34.532 65.3411 34.5935 65.3224 34.6576C65.317 34.6763 65.3117 34.6977 65.309 34.7164C65.2983 34.7645 65.2875 34.8153 65.2822 34.8634C65.2795 34.8821 65.2768 34.9008 65.2741 34.9196C65.2661 34.9864 65.2607 35.0532 65.2607 35.12C65.2607 35.1254 65.2607 35.1307 65.2607 35.1387C65.2607 35.2002 65.2661 35.2617 65.2741 35.3205C65.2741 35.3392 65.2795 35.3606 65.2822 35.3793C65.2902 35.4301 65.3009 35.4782 65.3117 35.529C65.3143 35.5397 65.3143 35.5531 65.3197 35.5637C65.3197 35.5637 65.3197 35.5637 65.3197 35.5611C65.3947 35.8471 65.5448 36.117 65.7673 36.3416C66.4453 37.0152 67.5602 37.0178 68.2355 36.3416C69.4764 35.096 70.0124 35.0906 71.1835 36.3015C71.7892 36.927 72.7835 36.8762 73.3945 36.24C73.617 36.0075 73.7563 35.7295 73.818 35.4381C73.818 35.4328 73.818 35.4301 73.818 35.4247C73.818 35.4141 73.8207 35.4007 73.8233 35.39C73.8367 35.3098 73.8448 35.2296 73.8448 35.1494C73.8448 35.1307 73.8448 35.112 73.8448 35.0933C73.8448 35.0051 73.8367 34.9196 73.8207 34.8314C73.818 34.8126 73.8126 34.7966 73.8099 34.7806C73.7939 34.7004 73.7697 34.6229 73.7429 34.548C73.7376 34.5347 73.7349 34.524 73.7295 34.5106C73.6947 34.4277 73.6518 34.3475 73.6036 34.2674C73.5929 34.2486 73.5821 34.2326 73.5687 34.2166C73.5151 34.1391 73.4589 34.0615 73.3892 33.9894C73.2739 33.8691 73.148 33.7729 73.0113 33.6953C72.7835 33.567 72.5343 33.4975 72.2823 33.4869C71.8803 33.4735 71.481 33.6178 71.1782 33.9279C70.0043 35.1387 69.471 35.1361 68.2302 33.8878C68.1123 33.7702 67.9836 33.674 67.8443 33.5991L67.8469 33.6045Z" fill="url(#paint22_linear_1_1188)"/>
<path d="M77.4923 38.5815C77.4923 38.5521 77.4923 38.5254 77.487 38.4986C77.487 38.4879 77.4843 38.4746 77.4816 38.4639C77.4789 38.4425 77.4736 38.4184 77.4655 38.3997C77.4629 38.389 77.4575 38.3757 77.4548 38.365C77.4468 38.3436 77.4361 38.3222 77.4253 38.3035C77.42 38.2955 77.4146 38.2848 77.4093 38.2768C77.3905 38.25 77.3717 38.2206 77.3476 38.1966C77.3101 38.1565 77.2645 38.1244 77.2163 38.0977C77.2029 38.0897 77.1868 38.0843 77.1734 38.0763C77.1332 38.0576 77.093 38.0442 77.0475 38.0309C77.0314 38.0282 77.018 38.0229 77.0019 38.0202C76.943 38.0095 76.8813 38.0015 76.817 38.0015C76.8036 38.0015 76.7902 38.0015 76.7768 38.0015C76.7232 38.0015 76.6669 38.0095 76.608 38.0202C76.5865 38.0229 76.5651 38.0282 76.5436 38.0335C76.4873 38.0469 76.4284 38.0629 76.3694 38.0843C76.3533 38.0897 76.34 38.0923 76.3239 38.1004C76.2596 38.1244 76.1952 38.1538 76.1309 38.1859C76.1309 38.1859 76.1309 38.1859 76.1336 38.1859C75.9513 38.2795 75.7718 38.4078 75.6083 38.5735C74.6247 39.5732 74.1665 39.7763 73.5179 39.2604C73.4804 39.231 73.4429 39.199 73.4027 39.1642C73.3839 39.1482 73.3678 39.1348 73.3491 39.1161C73.2928 39.0626 73.2338 39.0065 73.1722 38.945C72.6549 38.4158 71.6928 38.4986 71.0362 39.1535C70.3796 39.8084 70.3153 40.792 70.8245 41.2919C70.8567 41.324 70.8915 41.3534 70.9263 41.3801C70.9371 41.3881 70.9478 41.3935 70.9585 41.4015C70.9853 41.4202 71.0094 41.4362 71.0362 41.4523C71.0496 41.4603 71.0657 41.4656 71.0791 41.4736C71.1032 41.4843 71.1273 41.4977 71.1515 41.5084C71.1675 41.5164 71.1863 41.5191 71.2024 41.5271C71.2265 41.5351 71.2479 41.5431 71.2721 41.5485C71.2908 41.5538 71.3096 41.5565 71.3283 41.5592C71.3525 41.5645 71.3739 41.5699 71.398 41.5725C71.4168 41.5752 71.4382 41.5752 71.4597 41.5779C71.4838 41.5779 71.5052 41.5832 71.5293 41.5832C71.5508 41.5832 71.5722 41.5832 71.5937 41.5832C71.6178 41.5832 71.6419 41.5832 71.666 41.5806C71.6875 41.5806 71.7089 41.5752 71.7303 41.5725C71.7545 41.5699 71.7786 41.5672 71.8027 41.5618C71.8081 41.5618 71.8134 41.5618 71.8188 41.5618C72.1699 41.495 72.537 41.2946 72.8506 40.9791C74.0405 39.7897 74.4693 39.6988 75.1554 40.4098C75.6887 40.9631 75.2572 41.5913 74.3514 42.4974C73.4455 43.4035 73.3973 43.8419 73.5393 43.9835C73.6841 44.1252 74.2201 43.6441 74.8552 43.0133C75.4904 42.3824 75.9513 41.8104 75.8334 41.6901C75.4904 41.3373 75.6512 40.9765 76.8009 39.8324C77.0314 39.6026 77.2163 39.3593 77.3342 39.1268C77.3396 39.1188 77.3423 39.1081 77.3476 39.1001C77.3637 39.068 77.3771 39.0386 77.3905 39.0065C77.3959 38.9931 77.4012 38.9771 77.4066 38.9637C77.4173 38.937 77.428 38.9076 77.4361 38.8809C77.4414 38.8675 77.4441 38.8515 77.4495 38.8381C77.4575 38.8087 77.4656 38.7793 77.4709 38.7499C77.4709 38.7392 77.4763 38.7285 77.4763 38.7178C77.4816 38.6804 77.487 38.643 77.487 38.6056C77.487 38.5975 77.487 38.5922 77.487 38.5842L77.4923 38.5815Z" fill="url(#paint23_linear_1_1188)"/>
</g>
<defs>
<linearGradient id="paint0_linear_1_1188" x1="118.229" y1="127.011" x2="118.229" y2="103.756" gradientUnits="userSpaceOnUse">
<stop offset="0.04" stop-color="#C19859"/>
<stop offset="0.13" stop-color="#D0B07A"/>
<stop offset="0.34" stop-color="#F1E6C4"/>
<stop offset="0.43" stop-color="#FFFCE1"/>
<stop offset="0.44" stop-color="#FAF5D7"/>
<stop offset="0.45" stop-color="#D2BC8C"/>
<stop offset="0.46" stop-color="#B28F4F"/>
<stop offset="0.48" stop-color="#8D5B09"/>
<stop offset="0.49" stop-color="#885400"/>
<stop offset="0.52" stop-color="#8C5804"/>
<stop offset="0.54" stop-color="#986410"/>
<stop offset="0.57" stop-color="#AD7924"/>
<stop offset="0.59" stop-color="#C18C37"/>
<stop offset="0.61" stop-color="#CA9740"/>
<stop offset="0.68" stop-color="#E6BC5F"/>
<stop offset="0.73" stop-color="#F8D372"/>
<stop offset="0.76" stop-color="#FFDC7A"/>
<stop offset="0.88" stop-color="#D09F47"/>
<stop offset="0.92" stop-color="#C18C37"/>
</linearGradient>
<linearGradient id="paint1_linear_1_1188" x1="96.0673" y1="127.281" x2="96.0673" y2="104.026" gradientUnits="userSpaceOnUse">
<stop offset="0.04" stop-color="#C19859"/>
<stop offset="0.13" stop-color="#D0B07A"/>
<stop offset="0.34" stop-color="#F1E6C4"/>
<stop offset="0.43" stop-color="#FFFCE1"/>
<stop offset="0.44" stop-color="#FAF5D7"/>
<stop offset="0.45" stop-color="#D2BC8C"/>
<stop offset="0.46" stop-color="#B28F4F"/>
<stop offset="0.48" stop-color="#8D5B09"/>
<stop offset="0.49" stop-color="#885400"/>
<stop offset="0.52" stop-color="#8C5804"/>
<stop offset="0.54" stop-color="#986410"/>
<stop offset="0.57" stop-color="#AD7924"/>
<stop offset="0.59" stop-color="#C18C37"/>
<stop offset="0.61" stop-color="#CA9740"/>
<stop offset="0.68" stop-color="#E6BC5F"/>
<stop offset="0.73" stop-color="#F8D372"/>
<stop offset="0.76" stop-color="#FFDC7A"/>
<stop offset="0.88" stop-color="#D09F47"/>
<stop offset="0.92" stop-color="#C18C37"/>
</linearGradient>
<linearGradient id="paint2_linear_1_1188" x1="78.7196" y1="-7.08883e-05" x2="78.7196" y2="104.026" gradientUnits="userSpaceOnUse">
<stop offset="0.04" stop-color="#C19859"/>
<stop offset="0.13" stop-color="#D0B07A"/>
<stop offset="0.34" stop-color="#F1E6C4"/>
<stop offset="0.43" stop-color="#FFFCE1"/>
<stop offset="0.44" stop-color="#FAF5D7"/>
<stop offset="0.45" stop-color="#D2BC8C"/>
<stop offset="0.46" stop-color="#B28F4F"/>
<stop offset="0.48" stop-color="#8D5B09"/>
<stop offset="0.49" stop-color="#885400"/>
<stop offset="0.52" stop-color="#8C5804"/>
<stop offset="0.54" stop-color="#986410"/>
<stop offset="0.57" stop-color="#AD7924"/>
<stop offset="0.59" stop-color="#C18C37"/>
<stop offset="0.61" stop-color="#CA9740"/>
<stop offset="0.68" stop-color="#E6BC5F"/>
<stop offset="0.73" stop-color="#F8D372"/>
<stop offset="0.76" stop-color="#FFDC7A"/>
<stop offset="0.88" stop-color="#D09F47"/>
<stop offset="0.92" stop-color="#C18C37"/>
</linearGradient>
<linearGradient id="paint3_linear_1_1188" x1="59.3734" y1="127.281" x2="59.3734" y2="-2.31647e-05" gradientUnits="userSpaceOnUse">
<stop offset="0.04" stop-color="#C19859"/>
<stop offset="0.13" stop-color="#D0B07A"/>
<stop offset="0.34" stop-color="#F1E6C4"/>
<stop offset="0.43" stop-color="#FFFCE1"/>
<stop offset="0.44" stop-color="#FAF5D7"/>
<stop offset="0.45" stop-color="#D2BC8C"/>
<stop offset="0.46" stop-color="#B28F4F"/>
<stop offset="0.48" stop-color="#8D5B09"/>
<stop offset="0.49" stop-color="#885400"/>
<stop offset="0.52" stop-color="#8C5804"/>
<stop offset="0.54" stop-color="#986410"/>
<stop offset="0.57" stop-color="#AD7924"/>
<stop offset="0.59" stop-color="#C18C37"/>
<stop offset="0.61" stop-color="#CA9740"/>
<stop offset="0.68" stop-color="#E6BC5F"/>
<stop offset="0.73" stop-color="#F8D372"/>
<stop offset="0.76" stop-color="#FFDC7A"/>
<stop offset="0.88" stop-color="#D09F47"/>
<stop offset="0.92" stop-color="#C18C37"/>
</linearGradient>
<linearGradient id="paint4_linear_1_1188" x1="42.4302" y1="-3.35193e-05" x2="42.4302" y2="90.8592" gradientUnits="userSpaceOnUse">
<stop offset="0.04" stop-color="#C19859"/>
<stop offset="0.13" stop-color="#D0B07A"/>
<stop offset="0.34" stop-color="#F1E6C4"/>
<stop offset="0.43" stop-color="#FFFCE1"/>
<stop offset="0.44" stop-color="#FAF5D7"/>
<stop offset="0.45" stop-color="#D2BC8C"/>
<stop offset="0.46" stop-color="#B28F4F"/>
<stop offset="0.48" stop-color="#8D5B09"/>
<stop offset="0.49" stop-color="#885400"/>
<stop offset="0.52" stop-color="#8C5804"/>
<stop offset="0.54" stop-color="#986410"/>
<stop offset="0.57" stop-color="#AD7924"/>
<stop offset="0.59" stop-color="#C18C37"/>
<stop offset="0.61" stop-color="#CA9740"/>
<stop offset="0.68" stop-color="#E6BC5F"/>
<stop offset="0.73" stop-color="#F8D372"/>
<stop offset="0.76" stop-color="#FFDC7A"/>
<stop offset="0.88" stop-color="#D09F47"/>
<stop offset="0.92" stop-color="#C18C37"/>
</linearGradient>
<linearGradient id="paint5_linear_1_1188" x1="34.7144" y1="-3.35193e-05" x2="34.7144" y2="90.8592" gradientUnits="userSpaceOnUse">
<stop offset="0.04" stop-color="#C19859"/>
<stop offset="0.13" stop-color="#D0B07A"/>
<stop offset="0.34" stop-color="#F1E6C4"/>
<stop offset="0.43" stop-color="#FFFCE1"/>
<stop offset="0.44" stop-color="#FAF5D7"/>
<stop offset="0.45" stop-color="#D2BC8C"/>
<stop offset="0.46" stop-color="#B28F4F"/>
<stop offset="0.48" stop-color="#8D5B09"/>
<stop offset="0.49" stop-color="#885400"/>
<stop offset="0.52" stop-color="#8C5804"/>
<stop offset="0.54" stop-color="#986410"/>
<stop offset="0.57" stop-color="#AD7924"/>
<stop offset="0.59" stop-color="#C18C37"/>
<stop offset="0.61" stop-color="#CA9740"/>
<stop offset="0.68" stop-color="#E6BC5F"/>
<stop offset="0.73" stop-color="#F8D372"/>
<stop offset="0.76" stop-color="#FFDC7A"/>
<stop offset="0.88" stop-color="#D09F47"/>
<stop offset="0.92" stop-color="#C18C37"/>
</linearGradient>
<linearGradient id="paint6_linear_1_1188" x1="17.774" y1="127.281" x2="17.774" y2="-2.31647e-05" gradientUnits="userSpaceOnUse">
<stop offset="0.04" stop-color="#C19859"/>
<stop offset="0.13" stop-color="#D0B07A"/>
<stop offset="0.34" stop-color="#F1E6C4"/>
<stop offset="0.43" stop-color="#FFFCE1"/>
<stop offset="0.44" stop-color="#FAF5D7"/>
<stop offset="0.45" stop-color="#D2BC8C"/>
<stop offset="0.46" stop-color="#B28F4F"/>
<stop offset="0.48" stop-color="#8D5B09"/>
<stop offset="0.49" stop-color="#885400"/>
<stop offset="0.52" stop-color="#8C5804"/>
<stop offset="0.54" stop-color="#986410"/>
<stop offset="0.57" stop-color="#AD7924"/>
<stop offset="0.59" stop-color="#C18C37"/>
<stop offset="0.61" stop-color="#CA9740"/>
<stop offset="0.68" stop-color="#E6BC5F"/>
<stop offset="0.73" stop-color="#F8D372"/>
<stop offset="0.76" stop-color="#FFDC7A"/>
<stop offset="0.88" stop-color="#D09F47"/>
<stop offset="0.92" stop-color="#C18C37"/>
</linearGradient>
<linearGradient id="paint7_linear_1_1188" x1="0.503788" y1="68.492" x2="65.0677" y2="68.492" gradientUnits="userSpaceOnUse">
<stop offset="0.04" stop-color="#C19859"/>
<stop offset="0.13" stop-color="#D0B07A"/>
<stop offset="0.34" stop-color="#F1E6C4"/>
<stop offset="0.43" stop-color="#FFFCE1"/>
<stop offset="0.44" stop-color="#FAF5D7"/>
<stop offset="0.45" stop-color="#D2BC8C"/>
<stop offset="0.46" stop-color="#B28F4F"/>
<stop offset="0.48" stop-color="#8D5B09"/>
<stop offset="0.49" stop-color="#885400"/>
<stop offset="0.52" stop-color="#8C5804"/>
<stop offset="0.54" stop-color="#986410"/>
<stop offset="0.57" stop-color="#AD7924"/>
<stop offset="0.59" stop-color="#C18C37"/>
<stop offset="0.61" stop-color="#CA9740"/>
<stop offset="0.68" stop-color="#E6BC5F"/>
<stop offset="0.73" stop-color="#F8D372"/>
<stop offset="0.76" stop-color="#FFDC7A"/>
<stop offset="0.88" stop-color="#D09F47"/>
<stop offset="0.92" stop-color="#C18C37"/>
</linearGradient>
<linearGradient id="paint8_linear_1_1188" x1="68.935" y1="68.4892" x2="133.496" y2="68.4892" gradientUnits="userSpaceOnUse">
<stop offset="0.04" stop-color="#C19859"/>
<stop offset="0.13" stop-color="#D0B07A"/>
<stop offset="0.34" stop-color="#F1E6C4"/>
<stop offset="0.43" stop-color="#FFFCE1"/>
<stop offset="0.44" stop-color="#FAF5D7"/>
<stop offset="0.45" stop-color="#D2BC8C"/>
<stop offset="0.46" stop-color="#B28F4F"/>
<stop offset="0.48" stop-color="#8D5B09"/>
<stop offset="0.49" stop-color="#885400"/>
<stop offset="0.52" stop-color="#8C5804"/>
<stop offset="0.54" stop-color="#986410"/>
<stop offset="0.57" stop-color="#AD7924"/>
<stop offset="0.59" stop-color="#C18C37"/>
<stop offset="0.61" stop-color="#CA9740"/>
<stop offset="0.68" stop-color="#E6BC5F"/>
<stop offset="0.73" stop-color="#F8D372"/>
<stop offset="0.76" stop-color="#FFDC7A"/>
<stop offset="0.88" stop-color="#D09F47"/>
<stop offset="0.92" stop-color="#C18C37"/>
</linearGradient>
<linearGradient id="paint9_linear_1_1188" x1="6.97046" y1="60.342" x2="55.9073" y2="60.342" gradientUnits="userSpaceOnUse">
<stop offset="0.04" stop-color="#C19859"/>
<stop offset="0.13" stop-color="#D0B07A"/>
<stop offset="0.34" stop-color="#F1E6C4"/>
<stop offset="0.43" stop-color="#FFFCE1"/>
<stop offset="0.44" stop-color="#FAF5D7"/>
<stop offset="0.45" stop-color="#D2BC8C"/>
<stop offset="0.46" stop-color="#B28F4F"/>
<stop offset="0.48" stop-color="#8D5B09"/>
<stop offset="0.49" stop-color="#885400"/>
<stop offset="0.52" stop-color="#8C5804"/>
<stop offset="0.54" stop-color="#986410"/>
<stop offset="0.57" stop-color="#AD7924"/>
<stop offset="0.59" stop-color="#C18C37"/>
<stop offset="0.61" stop-color="#CA9740"/>
<stop offset="0.68" stop-color="#E6BC5F"/>
<stop offset="0.73" stop-color="#F8D372"/>
<stop offset="0.76" stop-color="#FFDC7A"/>
<stop offset="0.88" stop-color="#D09F47"/>
<stop offset="0.92" stop-color="#C18C37"/>
</linearGradient>
<linearGradient id="paint10_linear_1_1188" x1="78.0952" y1="60.3313" x2="127.032" y2="60.3313" gradientUnits="userSpaceOnUse">
<stop offset="0.04" stop-color="#C19859"/>
<stop offset="0.13" stop-color="#D0B07A"/>
<stop offset="0.34" stop-color="#F1E6C4"/>
<stop offset="0.43" stop-color="#FFFCE1"/>
<stop offset="0.44" stop-color="#FAF5D7"/>
<stop offset="0.45" stop-color="#D2BC8C"/>
<stop offset="0.46" stop-color="#B28F4F"/>
<stop offset="0.48" stop-color="#8D5B09"/>
<stop offset="0.49" stop-color="#885400"/>
<stop offset="0.52" stop-color="#8C5804"/>
<stop offset="0.54" stop-color="#986410"/>
<stop offset="0.57" stop-color="#AD7924"/>
<stop offset="0.59" stop-color="#C18C37"/>
<stop offset="0.61" stop-color="#CA9740"/>
<stop offset="0.68" stop-color="#E6BC5F"/>
<stop offset="0.73" stop-color="#F8D372"/>
<stop offset="0.76" stop-color="#FFDC7A"/>
<stop offset="0.88" stop-color="#D09F47"/>
<stop offset="0.92" stop-color="#C18C37"/>
</linearGradient>
<linearGradient id="paint11_linear_1_1188" x1="43.357" y1="60.7483" x2="43.357" y2="0.267273" gradientUnits="userSpaceOnUse">
<stop stop-color="#2D95F7"/>
<stop offset="0.08" stop-color="#30A7F2"/>
<stop offset="0.24" stop-color="#35C6EA"/>
<stop offset="0.4" stop-color="#39DDE3"/>
<stop offset="0.57" stop-color="#3CEEDF"/>
<stop offset="0.76" stop-color="#3EF8DC"/>
<stop offset="1" stop-color="#3FFCDC"/>
</linearGradient>
<linearGradient id="paint12_linear_1_1188" x1="90.6425" y1="-2.2961e-05" x2="90.6425" y2="-2.2961e-05" gradientUnits="userSpaceOnUse">
<stop stop-color="#2D95F7"/>
<stop offset="0.08" stop-color="#30A7F2"/>
<stop offset="0.24" stop-color="#35C6EA"/>
<stop offset="0.4" stop-color="#39DDE3"/>
<stop offset="0.57" stop-color="#3CEEDF"/>
<stop offset="0.76" stop-color="#3EF8DC"/>
<stop offset="1" stop-color="#3FFCDC"/>
</linearGradient>
<linearGradient id="paint13_linear_1_1188" x1="35.4028" y1="76.7433" x2="35.4028" y2="0.267273" gradientUnits="userSpaceOnUse">
<stop offset="0.04" stop-color="#C19859"/>
<stop offset="0.13" stop-color="#D0B07A"/>
<stop offset="0.34" stop-color="#F1E6C4"/>
<stop offset="0.43" stop-color="#FFFCE1"/>
<stop offset="0.44" stop-color="#FAF5D7"/>
<stop offset="0.45" stop-color="#D2BC8C"/>
<stop offset="0.46" stop-color="#B28F4F"/>
<stop offset="0.48" stop-color="#8D5B09"/>
<stop offset="0.49" stop-color="#885400"/>
<stop offset="0.52" stop-color="#8C5804"/>
<stop offset="0.54" stop-color="#986410"/>
<stop offset="0.57" stop-color="#AD7924"/>
<stop offset="0.59" stop-color="#C18C37"/>
<stop offset="0.61" stop-color="#CA9740"/>
<stop offset="0.68" stop-color="#E6BC5F"/>
<stop offset="0.73" stop-color="#F8D372"/>
<stop offset="0.76" stop-color="#FFDC7A"/>
<stop offset="0.88" stop-color="#D09F47"/>
<stop offset="0.92" stop-color="#C18C37"/>
</linearGradient>
<linearGradient id="paint14_linear_1_1188" x1="98.6054" y1="76.6979" x2="98.6054" y2="0.267273" gradientUnits="userSpaceOnUse">
<stop offset="0.04" stop-color="#C19859"/>
<stop offset="0.13" stop-color="#D0B07A"/>
<stop offset="0.34" stop-color="#F1E6C4"/>
<stop offset="0.43" stop-color="#FFFCE1"/>
<stop offset="0.44" stop-color="#FAF5D7"/>
<stop offset="0.45" stop-color="#D2BC8C"/>
<stop offset="0.46" stop-color="#B28F4F"/>
<stop offset="0.48" stop-color="#8D5B09"/>
<stop offset="0.49" stop-color="#885400"/>
<stop offset="0.52" stop-color="#8C5804"/>
<stop offset="0.54" stop-color="#986410"/>
<stop offset="0.57" stop-color="#AD7924"/>
<stop offset="0.59" stop-color="#C18C37"/>
<stop offset="0.61" stop-color="#CA9740"/>
<stop offset="0.68" stop-color="#E6BC5F"/>
<stop offset="0.73" stop-color="#F8D372"/>
<stop offset="0.76" stop-color="#FFDC7A"/>
<stop offset="0.88" stop-color="#D09F47"/>
<stop offset="0.92" stop-color="#C18C37"/>
</linearGradient>
<linearGradient id="paint15_linear_1_1188" x1="58.1375" y1="26.3126" x2="68.359" y2="26.3126" gradientUnits="userSpaceOnUse">
<stop stop-color="#2D95F7"/>
<stop offset="1" stop-color="#3FFCDC"/>
</linearGradient>
<linearGradient id="paint16_linear_1_1188" x1="56.5052" y1="41.0005" x2="60.4876" y2="41.0005" gradientUnits="userSpaceOnUse">
<stop stop-color="#2D95F7"/>
<stop offset="1" stop-color="#3FFCDC"/>
</linearGradient>
<linearGradient id="paint17_linear_1_1188" x1="55.9209" y1="32.3695" x2="68.6375" y2="32.3695" gradientUnits="userSpaceOnUse">
<stop offset="0.04" stop-color="#C19859"/>
<stop offset="0.13" stop-color="#D0B07A"/>
<stop offset="0.34" stop-color="#F1E6C4"/>
<stop offset="0.43" stop-color="#FFFCE1"/>
<stop offset="0.44" stop-color="#FAF5D7"/>
<stop offset="0.45" stop-color="#D2BC8C"/>
<stop offset="0.46" stop-color="#B28F4F"/>
<stop offset="0.48" stop-color="#8D5B09"/>
<stop offset="0.49" stop-color="#885400"/>
<stop offset="0.52" stop-color="#8C5804"/>
<stop offset="0.54" stop-color="#986410"/>
<stop offset="0.57" stop-color="#AD7924"/>
<stop offset="0.59" stop-color="#C18C37"/>
<stop offset="0.61" stop-color="#CA9740"/>
<stop offset="0.68" stop-color="#E6BC5F"/>
<stop offset="0.73" stop-color="#F8D372"/>
<stop offset="0.76" stop-color="#FFDC7A"/>
<stop offset="0.88" stop-color="#D09F47"/>
<stop offset="0.92" stop-color="#C18C37"/>
</linearGradient>
<linearGradient id="paint18_linear_1_1188" x1="61.5835" y1="44.6411" x2="72.4134" y2="44.6411" gradientUnits="userSpaceOnUse">
<stop offset="0.04" stop-color="#C19859"/>
<stop offset="0.13" stop-color="#D0B07A"/>
<stop offset="0.34" stop-color="#F1E6C4"/>
<stop offset="0.43" stop-color="#FFFCE1"/>
<stop offset="0.44" stop-color="#FAF5D7"/>
<stop offset="0.45" stop-color="#D2BC8C"/>
<stop offset="0.46" stop-color="#B28F4F"/>
<stop offset="0.48" stop-color="#8D5B09"/>
<stop offset="0.49" stop-color="#885400"/>
<stop offset="0.52" stop-color="#8C5804"/>
<stop offset="0.54" stop-color="#986410"/>
<stop offset="0.57" stop-color="#AD7924"/>
<stop offset="0.59" stop-color="#C18C37"/>
<stop offset="0.61" stop-color="#CA9740"/>
<stop offset="0.68" stop-color="#E6BC5F"/>
<stop offset="0.73" stop-color="#F8D372"/>
<stop offset="0.76" stop-color="#FFDC7A"/>
<stop offset="0.88" stop-color="#D09F47"/>
<stop offset="0.92" stop-color="#C18C37"/>
</linearGradient>
<linearGradient id="paint19_linear_1_1188" x1="76.5383" y1="36.4778" x2="76.5383" y2="29.6725" gradientUnits="userSpaceOnUse">
<stop offset="0.08" stop-color="#C18C37"/>
<stop offset="0.12" stop-color="#D09F47"/>
<stop offset="0.24" stop-color="#FFDC7A"/>
<stop offset="0.27" stop-color="#F8D372"/>
<stop offset="0.32" stop-color="#E6BC5F"/>
<stop offset="0.39" stop-color="#CA9740"/>
<stop offset="0.41" stop-color="#C18C37"/>
<stop offset="0.43" stop-color="#AD7924"/>
<stop offset="0.46" stop-color="#986410"/>
<stop offset="0.48" stop-color="#8C5804"/>
<stop offset="0.51" stop-color="#885400"/>
<stop offset="0.52" stop-color="#9B6F24"/>
<stop offset="0.54" stop-color="#B28F4F"/>
<stop offset="0.55" stop-color="#D2BC8C"/>
<stop offset="0.56" stop-color="#FAF5D7"/>
<stop offset="0.57" stop-color="#FFFCE1"/>
<stop offset="0.66" stop-color="#F1E6C4"/>
<stop offset="0.87" stop-color="#D0B07A"/>
<stop offset="0.96" stop-color="#C19859"/>
</linearGradient>
<linearGradient id="paint20_linear_1_1188" x1="60.1528" y1="37.7181" x2="68.6403" y2="37.7181" gradientUnits="userSpaceOnUse">
<stop stop-color="#2D95F7"/>
<stop offset="1" stop-color="#3FFCDC"/>
</linearGradient>
<linearGradient id="paint21_linear_1_1188" x1="69.8728" y1="28.1275" x2="75.86" y2="28.1275" gradientUnits="userSpaceOnUse">
<stop stop-color="#2D95F7"/>
<stop offset="1" stop-color="#3FFCDC"/>
</linearGradient>
<linearGradient id="paint22_linear_1_1188" x1="65.2554" y1="35.1174" x2="73.8475" y2="35.1174" gradientUnits="userSpaceOnUse">
<stop offset="0.04" stop-color="#C19859"/>
<stop offset="0.13" stop-color="#D0B07A"/>
<stop offset="0.34" stop-color="#F1E6C4"/>
<stop offset="0.43" stop-color="#FFFCE1"/>
<stop offset="0.44" stop-color="#FAF5D7"/>
<stop offset="0.45" stop-color="#D2BC8C"/>
<stop offset="0.46" stop-color="#B28F4F"/>
<stop offset="0.48" stop-color="#8D5B09"/>
<stop offset="0.49" stop-color="#885400"/>
<stop offset="0.52" stop-color="#8C5804"/>
<stop offset="0.54" stop-color="#986410"/>
<stop offset="0.57" stop-color="#AD7924"/>
<stop offset="0.59" stop-color="#C18C37"/>
<stop offset="0.61" stop-color="#CA9740"/>
<stop offset="0.68" stop-color="#E6BC5F"/>
<stop offset="0.73" stop-color="#F8D372"/>
<stop offset="0.76" stop-color="#FFDC7A"/>
<stop offset="0.88" stop-color="#D09F47"/>
<stop offset="0.92" stop-color="#C18C37"/>
</linearGradient>
<linearGradient id="paint23_linear_1_1188" x1="70.4922" y1="41.0005" x2="77.4923" y2="41.0005" gradientUnits="userSpaceOnUse">
<stop stop-color="#2D95F7"/>
<stop offset="1" stop-color="#3FFCDC"/>
</linearGradient>
<clipPath id="clip0_1_1188">
<rect width="134" height="128" fill="white"/>
</clipPath>
</defs>
</svg>
