<svg width="351" height="351" viewBox="0 0 351 351" fill="none" xmlns="http://www.w3.org/2000/svg">
<path d="M317.871 208.061C314.285 206.03 309.627 207.383 307.476 210.769C302.458 218.555 296.721 225.666 290.269 232.437L277.005 219.911C296.006 199.597 307.836 172.853 307.836 143.399C308.191 79.4131 253.342 27.6151 185.589 27.6151C154.4 27.6151 126.078 38.7872 104.569 56.7303L91.3052 44.2046C98.4745 38.1119 106.004 32.6945 114.249 27.9548C117.835 25.9239 118.91 21.5218 117.117 18.1381C114.967 14.7517 110.305 13.7363 106.722 15.4294C97.4019 20.5067 88.7973 26.9395 80.5525 33.7099L71.948 25.5841C69.0797 22.8754 64.0611 22.8754 61.1925 25.5841C58.3239 28.2928 58.3242 33.0322 61.1925 35.7412L69.797 43.8669C14.2269 102.095 15.6603 191.807 74.8133 247.673C103.494 274.758 140.418 288.976 178.06 290.67V322.154H155.116C150.815 322.154 147.587 325.2 147.587 329.264C147.587 333.326 150.813 336.375 155.116 336.375H216.421C220.722 336.375 223.95 333.329 223.95 329.264C223.95 325.202 220.724 322.154 216.421 322.154H193.477L193.474 290.667C228.606 288.974 263.381 276.448 290.985 252.411L299.59 260.536C301.023 261.89 302.816 262.567 304.966 262.567C306.759 262.567 308.91 261.89 310.343 260.536C313.211 257.828 313.211 253.088 310.343 250.379L301.38 241.916C308.549 234.468 315.362 226.004 320.738 217.202C322.891 214.493 321.458 210.094 317.872 208.063L317.871 208.061ZM279.872 191.133C279.154 191.133 278.439 191.133 278.079 191.471C274.853 192.149 269.116 181.314 269.474 179.621C269.832 177.927 271.267 162.015 273.06 160.662C274.853 159.309 278.796 147.797 280.59 146.106C282.383 144.753 288.834 142.044 290.628 143.397C290.985 143.735 291.703 143.735 292.778 143.735C292.418 161.34 287.759 177.252 279.872 191.133L279.872 191.133ZM273.417 85.8446C283.455 99.3853 289.909 115.298 292.06 132.225L289.191 133.578C289.191 133.578 284.89 138.996 282.379 136.965C279.511 134.934 277.003 131.547 277.003 129.517C277.003 127.486 278.078 122.746 279.154 122.746C280.586 122.746 283.097 118.007 283.097 118.007C283.097 118.007 277.003 114.283 277.003 113.605C277.003 112.927 276.645 108.865 272.342 106.494C268.041 104.463 264.455 100.402 264.097 97.3528C263.739 94.3064 268.041 90.242 269.473 88.889C270.191 88.2136 272.342 86.5204 273.417 85.845L273.417 85.8446ZM264.097 75.0098C260.153 74.6721 254.059 74.6721 251.548 76.363C248.323 78.734 246.53 80.7648 245.454 82.4557C244.379 84.1489 242.944 85.1643 241.153 85.1643C239.36 84.8266 230.758 76.0229 231.473 75.0073C231.831 73.6541 231.473 69.93 231.473 66.2056C231.473 62.4814 229.323 57.4039 227.887 54.3552C227.169 53.002 226.812 51.6465 226.454 50.2933C240.795 55.713 253.699 64.1769 264.097 75.0092L264.097 75.0098ZM135.038 56.389C136.114 56.7267 139.34 56.389 141.851 56.389C144.361 56.389 146.512 56.0513 147.945 56.389C149.02 56.389 150.095 56.7267 151.531 57.0668C154.399 57.7445 157.625 58.42 160.493 58.0822C164.437 57.4045 169.455 57.7445 175.55 58.76C176.983 59.0977 178.418 59.0977 179.493 59.0977C181.644 59.0977 183.795 59.0977 184.87 61.8064C186.303 62.4842 190.246 63.8373 190.246 65.5306C190.246 66.2083 190.246 66.8837 189.171 67.5615C188.096 68.2393 181.641 72.6388 179.133 73.3165C177.34 73.9943 169.095 79.0715 168.738 79.7495V85.5046C170.889 86.1823 175.907 88.2133 176.983 89.5664C177.34 89.9041 177.7 89.9041 178.416 89.9041C179.133 89.9041 179.849 89.9041 180.566 90.2418C180.924 90.5795 180.924 90.9196 180.924 91.595V92.2728C180.924 96.3346 181.281 97.6901 181.999 98.0278C182.357 97.6901 182.717 95.9969 182.717 95.3191C183.074 92.9481 183.792 90.5795 185.585 90.5795C186.303 90.5795 187.378 89.5641 188.096 87.8708C188.453 86.8554 188.453 86.5177 188.453 86.1776C187.021 85.1621 187.378 83.1312 189.171 80.0849C189.171 80.0849 189.529 79.7472 189.529 79.4072C190.604 77.3763 192.039 75.683 193.83 75.3453C194.188 75.3453 194.905 75.3453 195.623 76.0231C196.698 77.0386 198.491 78.7318 199.924 79.7472C200.999 80.425 201.717 81.1004 202.075 81.4405C202.792 81.7782 202.792 82.7936 202.792 83.8115C202.792 84.1492 202.792 84.8269 203.15 84.8269C204.583 84.1492 206.736 83.4738 208.169 83.8115C208.886 84.1492 209.244 84.4892 209.602 85.1646C209.959 85.8424 209.959 86.5178 210.319 87.5356C210.677 88.8888 211.395 91.5975 211.752 91.9375C212.828 92.9529 214.621 94.3085 215.696 95.9993C215.696 96.337 216.053 96.6771 216.414 97.0148C217.131 97.6926 217.846 98.708 217.489 99.7235C217.131 100.401 216.414 101.077 215.338 101.754C213.545 102.432 211.395 102.77 209.602 102.77C207.809 103.108 206.016 103.108 205.301 103.785C203.508 105.139 202.79 106.494 203.868 108.525C203.868 108.863 204.225 109.203 204.225 109.54C204.583 110.556 205.301 111.571 204.583 112.587C204.23 113.942 203.513 114.62 201.72 114.62C201.002 114.62 200.644 114.62 199.927 114.958C197.416 115.295 192.757 115.973 192.757 117.329C192.757 119.7 190.964 120.375 189.531 121.053C189.174 121.391 188.456 121.391 188.098 121.731C187.741 122.068 187.381 122.408 186.666 122.746C185.233 123.424 181.289 126.133 181.289 127.148C182.007 129.179 179.139 133.241 176.628 134.596C174.835 135.612 172.327 139.336 172.327 140.351V141.704C172.327 143.398 172.684 145.428 170.894 145.766C169.461 146.104 168.743 144.751 167.308 143.057C166.59 142.042 165.157 140.349 164.797 140.349C163.722 140.349 162.287 140.686 160.854 140.686C159.061 141.024 157.268 141.364 156.192 141.364C151.531 141.364 148.306 142.38 148.306 142.717C148.306 143.395 147.948 144.071 147.23 145.426C146.155 148.135 144.362 153.212 146.155 154.228C149.023 155.921 151.531 156.936 152.967 156.936C153.325 156.936 154.76 155.921 155.835 155.243C157.986 153.89 159.779 152.535 161.212 152.872C161.569 152.872 161.929 153.21 162.287 153.55C162.645 154.565 162.287 155.921 161.212 158.29C160.854 158.967 160.494 159.643 160.494 159.983C160.852 159.983 161.927 160.32 162.645 160.661C165.513 161.338 166.946 161.676 167.663 162.691C168.021 163.369 168.021 164.045 168.381 165.738C168.381 166.753 168.739 169.124 169.099 169.8C170.532 170.477 176.986 171.831 178.061 171.493C178.419 171.493 179.136 171.155 179.854 170.815C183.08 169.462 186.306 168.106 188.459 169.122C190.609 170.137 193.478 170.475 195.628 170.475C197.778 170.475 205.308 172.168 207.458 174.537C209.251 176.568 212.477 177.246 213.195 177.246C214.628 177.246 220.007 181.985 220.007 184.016C220.365 185.032 225.743 187.74 227.176 187.74C228.252 187.403 234.706 188.078 235.781 189.771L236.138 190.109C236.856 191.462 239.364 194.848 236.856 196.879C235.423 197.895 232.912 202.297 231.12 206.359C230.402 208.052 218.931 217.869 217.138 218.546C215.705 219.224 212.477 222.608 211.402 223.964C210.684 224.979 208.891 225.995 207.458 226.672C206.74 227.01 206.025 227.35 205.665 227.688C205.308 228.703 199.929 233.78 199.929 233.78L199.571 234.118C198.496 235.471 196.703 240.211 194.552 243.935C192.042 244.273 189.533 244.273 187.022 244.273C186.665 242.242 186.305 238.518 185.947 237.502C184.872 235.131 184.514 230.732 185.59 228.701C186.665 226.33 187.74 212.111 185.59 210.757C182.364 208.727 171.966 200.6 170.891 193.83C168.38 189.1 171.963 185.376 173.756 183.007C174.114 182.33 174.832 181.654 175.189 181.314C174.832 180.636 170.17 178.268 166.945 176.575C165.869 176.237 165.152 175.559 164.076 175.221C160.85 173.528 159.415 171.16 158.34 169.804C157.982 169.126 157.622 168.451 157.264 168.451C156.547 168.451 155.471 167.773 154.039 167.098C151.17 165.745 146.869 163.711 143.283 164.051C136.831 164.389 131.095 157.281 130.734 156.265C130.377 155.25 127.148 147.124 126.433 146.108C125 144.755 115.678 133.583 113.885 131.211C111.734 128.165 111.016 115.637 114.96 107.514C118.903 100.066 114.602 90.9242 114.602 90.5862V89.9108C114.96 85.5089 114.602 81.1091 114.245 80.4314C111.019 78.4005 109.583 77.7228 108.868 78.0605H108.511L108.153 77.7228C107.795 77.3851 107.435 76.7073 108.153 73.3209C114.605 66.8879 122.134 61.1331 130.379 56.3935C132.887 56.3887 134.323 56.051 135.038 56.3887L135.038 56.389ZM85.568 237.851C32.1514 187.409 30.7181 106.494 80.5491 54.3577L93.8129 66.8834C74.8126 87.1976 62.9822 113.942 62.9822 143.395C62.9822 207.043 117.832 259.179 185.588 259.179C216.776 259.179 245.099 248.007 266.608 230.064L279.872 242.59C224.665 289.65 138.983 287.959 85.5668 237.852L85.568 237.851Z" fill="black"/>
</svg>
