<svg width="293" height="323" viewBox="0 0 293 323" fill="none" xmlns="http://www.w3.org/2000/svg">
<path d="M288.871 194.061C285.285 192.03 280.627 193.383 278.476 196.769C273.458 204.555 267.721 211.666 261.269 218.437L248.005 205.911C267.006 185.597 278.836 158.853 278.836 129.399C279.191 65.4131 224.342 13.6151 156.589 13.6151C125.4 13.6151 97.078 24.7872 75.5689 42.7303L62.3052 30.2046C69.4745 24.1119 77.0042 18.6945 85.2489 13.9548C88.8349 11.9239 89.9101 7.52181 88.1172 4.13813C85.9666 0.751674 81.3051 -0.263731 77.7221 1.42944C68.4019 6.5067 59.7973 12.9395 51.5525 19.7099L42.948 11.5841C40.0797 8.8754 35.0611 8.8754 32.1925 11.5841C29.3239 14.2928 29.3242 19.0322 32.1925 21.7412L40.797 29.8669C-14.7731 88.0949 -13.3397 177.807 45.8133 233.673C74.4937 260.758 111.418 274.976 149.06 276.67V308.154H126.116C121.815 308.154 118.587 311.2 118.587 315.264C118.587 319.326 121.813 322.375 126.116 322.375H187.421C191.722 322.375 194.95 319.329 194.95 315.264C194.95 311.202 191.724 308.154 187.421 308.154H164.477L164.474 276.667C199.606 274.974 234.381 262.448 261.985 238.411L270.59 246.536C272.023 247.89 273.816 248.567 275.966 248.567C277.759 248.567 279.91 247.89 281.343 246.536C284.211 243.828 284.211 239.088 281.343 236.379L272.38 227.916C279.549 220.468 286.362 212.004 291.738 203.202C293.891 200.493 292.458 196.094 288.872 194.063L288.871 194.061ZM250.872 177.133C250.154 177.133 249.439 177.133 249.079 177.471C245.853 178.149 240.116 167.314 240.474 165.621C240.832 163.927 242.267 148.015 244.06 146.662C245.853 145.309 249.796 133.797 251.59 132.106C253.383 130.753 259.834 128.044 261.628 129.397C261.985 129.735 262.703 129.735 263.778 129.735C263.418 147.34 258.759 163.252 250.872 177.133L250.872 177.133ZM244.417 71.8446C254.455 85.3853 260.909 101.298 263.06 118.225L260.191 119.578C260.191 119.578 255.89 124.996 253.379 122.965C250.511 120.934 248.003 117.547 248.003 115.517C248.003 113.486 249.078 108.746 250.154 108.746C251.586 108.746 254.097 104.007 254.097 104.007C254.097 104.007 248.003 100.283 248.003 99.6049C248.003 98.9272 247.645 94.8654 243.342 92.4942C239.041 90.4633 235.455 86.4015 235.097 83.3528C234.739 80.3064 239.041 76.242 240.473 74.889C241.191 74.2136 243.342 72.5204 244.417 71.845L244.417 71.8446ZM235.097 61.0098C231.153 60.6721 225.059 60.6721 222.548 62.363C219.323 64.734 217.53 66.7648 216.454 68.4557C215.379 70.1489 213.944 71.1643 212.153 71.1643C210.36 70.8266 201.758 62.0229 202.473 61.0073C202.831 59.6541 202.473 55.93 202.473 52.2056C202.473 48.4814 200.323 43.4039 198.887 40.3552C198.169 39.002 197.812 37.6465 197.454 36.2933C211.795 41.713 224.699 50.1769 235.097 61.0092L235.097 61.0098ZM106.038 42.389C107.114 42.7267 110.34 42.389 112.851 42.389C115.361 42.389 117.512 42.0513 118.945 42.389C120.02 42.389 121.095 42.7267 122.531 43.0668C125.399 43.7445 128.625 44.42 131.493 44.0822C135.437 43.4045 140.455 43.7445 146.55 44.76C147.983 45.0977 149.418 45.0977 150.493 45.0977C152.644 45.0977 154.795 45.0977 155.87 47.8064C157.303 48.4842 161.246 49.8373 161.246 51.5306C161.246 52.2083 161.246 52.8837 160.171 53.5615C159.096 54.2393 152.641 58.6388 150.133 59.3165C148.34 59.9943 140.095 65.0715 139.738 65.7496V71.5046C141.889 72.1823 146.907 74.2133 147.983 75.5664C148.34 75.9041 148.7 75.9041 149.416 75.9041C150.133 75.9041 150.849 75.9041 151.566 76.2418C151.924 76.5795 151.924 76.9196 151.924 77.595V78.2728C151.924 82.3346 152.281 83.6901 152.999 84.0278C153.357 83.6901 153.717 81.9969 153.717 81.3191C154.074 78.9481 154.792 76.5795 156.585 76.5795C157.303 76.5795 158.378 75.5641 159.096 73.8708C159.453 72.8554 159.453 72.5177 159.453 72.1776C158.021 71.1621 158.378 69.1312 160.171 66.0849C160.171 66.0849 160.529 65.7472 160.529 65.4072C161.604 63.3762 163.039 61.683 164.83 61.3453C165.187 61.3453 165.905 61.3453 166.623 62.0231C167.698 63.0386 169.491 64.7318 170.924 65.7472C171.999 66.425 172.717 67.1004 173.075 67.4405C173.792 67.7782 173.792 68.7936 173.792 69.8115C173.792 70.1492 173.792 70.8269 174.15 70.8269C175.583 70.1492 177.736 69.4738 179.169 69.8115C179.886 70.1492 180.244 70.4892 180.602 71.1646C180.959 71.8424 180.959 72.5178 181.319 73.5356C181.677 74.8888 182.395 77.5975 182.752 77.9375C183.828 78.953 185.621 80.3085 186.696 81.9993C186.696 82.337 187.053 82.6771 187.414 83.0148C188.131 83.6926 188.846 84.708 188.489 85.7235C188.131 86.4013 187.414 87.0767 186.338 87.7544C184.545 88.4322 182.395 88.7699 180.602 88.7699C178.809 89.1076 177.016 89.1076 176.301 89.7854C174.508 91.1385 173.79 92.4941 174.868 94.5249C174.868 94.8626 175.225 95.2027 175.225 95.5404C175.583 96.5559 176.301 97.5713 175.583 98.5868C175.23 99.9423 174.513 100.62 172.72 100.62C172.002 100.62 171.644 100.62 170.927 100.958C168.416 101.295 163.757 101.973 163.757 103.329C163.757 105.7 161.964 106.375 160.531 107.053C160.174 107.391 159.456 107.391 159.098 107.731C158.741 108.068 158.381 108.408 157.666 108.746C156.233 109.424 152.289 112.133 152.289 113.148C153.007 115.179 150.139 119.241 147.628 120.596C145.835 121.612 143.327 125.336 143.327 126.351V127.704C143.327 129.398 143.684 131.428 141.894 131.766C140.461 132.104 139.743 130.751 138.308 129.057C137.59 128.042 136.157 126.349 135.797 126.349C134.722 126.349 133.287 126.686 131.854 126.686C130.061 127.024 128.268 127.364 127.192 127.364C122.531 127.364 119.306 128.38 119.306 128.717C119.306 129.395 118.948 130.071 118.23 131.426C117.155 134.135 115.362 139.212 117.155 140.228C120.023 141.921 122.531 142.936 123.967 142.936C124.325 142.936 125.76 141.921 126.835 141.243C128.986 139.89 130.779 138.535 132.212 138.872C132.569 138.872 132.929 139.21 133.287 139.55C133.645 140.565 133.287 141.921 132.212 144.29C131.854 144.967 131.494 145.643 131.494 145.983C131.852 145.983 132.927 146.32 133.645 146.661C136.513 147.338 137.946 147.676 138.663 148.691C139.021 149.369 139.021 150.045 139.381 151.738C139.381 152.753 139.739 155.124 140.099 155.8C141.532 156.477 147.986 157.831 149.061 157.493C149.419 157.493 150.136 157.155 150.854 156.815C154.08 155.462 157.306 154.106 159.459 155.122C161.609 156.137 164.478 156.475 166.628 156.475C168.778 156.475 176.308 158.168 178.458 160.537C180.251 162.568 183.477 163.246 184.195 163.246C185.628 163.246 191.007 167.985 191.007 170.016C191.365 171.032 196.743 173.74 198.176 173.74C199.252 173.403 205.706 174.078 206.781 175.771L207.138 176.109C207.856 177.462 210.364 180.848 207.856 182.879C206.423 183.895 203.912 188.297 202.12 192.359C201.402 194.052 189.931 203.869 188.138 204.546C186.705 205.224 183.477 208.608 182.402 209.964C181.684 210.979 179.891 211.995 178.458 212.672C177.74 213.01 177.025 213.35 176.665 213.688C176.308 214.703 170.929 219.78 170.929 219.78L170.571 220.118C169.496 221.471 167.703 226.211 165.552 229.935C163.041 230.273 160.533 230.273 158.022 230.273C157.665 228.242 157.305 224.518 156.947 223.502C155.872 221.131 155.514 216.732 156.59 214.701C157.665 212.33 158.74 198.111 156.59 196.757C153.364 194.727 142.966 186.6 141.891 179.83C139.38 175.1 142.963 171.376 144.756 169.007C145.114 168.33 145.832 167.654 146.189 167.314C145.832 166.636 141.17 164.268 137.945 162.575C136.869 162.237 136.152 161.559 135.076 161.221C131.85 159.528 130.415 157.16 129.34 155.804C128.982 155.126 128.622 154.451 128.264 154.451C127.547 154.451 126.471 153.773 125.039 153.098C122.17 151.745 117.869 149.711 114.283 150.051C107.831 150.389 102.095 143.281 101.734 142.265C101.377 141.25 98.1484 133.124 97.4332 132.108C96.0003 130.755 86.6777 119.583 84.8846 117.211C82.734 114.165 82.0163 101.637 85.9599 93.5137C89.9034 86.0656 85.6023 76.9242 85.6023 76.5862V75.9108C85.9599 71.509 85.6023 67.1091 85.2447 66.4314C82.0188 64.4005 80.5835 63.7228 79.8683 64.0605H79.5107L79.1531 63.7228C78.7955 63.3851 78.4354 62.7073 79.1531 59.3209C85.6047 52.8879 93.1344 47.1331 101.379 42.3935C103.887 42.3887 105.323 42.051 106.038 42.3887L106.038 42.389ZM56.568 223.851C3.15141 173.409 1.71806 92.4943 51.5491 40.3577L64.8129 52.8834C45.8126 73.1976 33.9822 99.9417 33.9822 129.395C33.9822 193.043 88.8321 245.179 156.588 245.179C187.776 245.179 216.099 234.007 237.608 216.064L250.872 228.59C195.665 275.65 109.983 273.959 56.5668 223.852L56.568 223.851Z" fill="#A97E2E"/>
</svg>
