<svg width="128" height="128" viewBox="0 0 128 128" fill="none" xmlns="http://www.w3.org/2000/svg">
<path d="M35.0821 117.544C30.9842 117.544 28.8533 114.605 28.8533 111.071C28.8533 107.537 30.9842 104.598 35.0821 104.598C39.18 104.598 41.2843 107.51 41.2843 111.071C41.2843 114.631 39.2067 117.544 35.0821 117.544ZM35.0821 104.949C33.0046 104.949 31.6017 106.188 31.6017 111.071C31.6017 115.954 33.0046 117.193 35.0821 117.193C37.1597 117.193 38.5053 115.954 38.5053 111.071C38.5053 106.188 37.1292 104.949 35.0821 104.949Z" fill="#000116"/>
<path d="M45.2869 116.976C49.3315 116.976 50.9516 115.626 51.329 113.202H51.6797L51.4357 117.3H42.2678L49.2514 105.193C45.6376 105.193 43.4534 105.867 43.0226 108.402H42.6719L42.8053 104.842H51.9732L45.2869 116.976Z" fill="#000116"/>
<path d="M63.6875 114.117C63.3902 115.386 61.9073 117.54 58.7243 117.54C55.3545 117.54 52.9529 114.734 52.9529 111.178C52.9529 107.186 55.4879 104.598 58.831 104.598C61.9607 104.598 64.1145 106.596 64.1145 110.827H55.4841C55.5908 114.467 57.2109 115.924 59.3418 116.141C60.9581 116.301 62.8756 115.306 63.3597 113.983L63.6837 114.117H63.6875ZM61.8006 110.476C61.8006 106.538 60.0471 104.949 58.7548 104.949C57.2185 104.949 55.4917 107.08 55.4917 110.476H61.8006Z" fill="#000116"/>
<path d="M75.8325 114.117C75.5352 115.386 74.0523 117.54 70.8693 117.54C67.4995 117.54 65.0979 114.734 65.0979 111.178C65.0979 107.186 67.6329 104.598 70.976 104.598C74.1057 104.598 76.2595 106.596 76.2595 110.827H67.6291C67.7358 114.467 69.3559 115.924 71.4868 116.141C73.1031 116.301 75.0206 115.306 75.5047 113.983L75.8287 114.117H75.8325ZM73.9456 110.476C73.9456 106.538 72.1921 104.949 70.8998 104.949C69.3636 104.949 67.6367 107.08 67.6367 110.476H73.9456Z" fill="#000116"/>
<path d="M84.9854 115.222C84.608 116.408 83.3958 117.54 81.829 117.54C79.862 117.54 78.6727 116.678 78.6727 113.415V105.189H77.2965L77.2432 104.838H78.6727V101.007L81.0171 100.63V104.838H84.2268L84.1467 105.189H81.0171V113.331C81.0171 115.489 81.7985 116.217 83.0679 116.217C83.8494 116.217 84.4974 115.649 84.7147 115.085L84.9854 115.218V115.222Z" fill="#000116"/>
<path d="M99.1469 104.842V105.166C98.2015 105.166 97.2866 105.41 95.697 109.481L91.5152 120.887C90.9777 122.45 90.2496 123.071 89.8684 123.395C89.491 123.692 88.7629 123.826 88.2521 123.582C87.524 123.258 87.2267 122.423 87.524 121.695C87.8747 120.967 88.7096 120.643 89.411 120.967C89.7884 121.127 90.0323 121.478 90.1391 121.828C90.2458 122.206 90.8138 121.828 91.1912 120.83L92.4034 117.406C89.1937 110.312 87.3601 106.538 87.3601 106.538C86.8226 105.299 85.8772 105.189 85.4731 105.162V104.838H91.0539V105.162C89.3004 105.162 90.2458 107.129 90.2458 107.129L93.5889 114.303L95.3691 109.394C95.3691 109.394 97.0693 105.132 93.9396 105.158V104.834H99.143L99.1469 104.842Z" fill="#000116"/>
<path d="M92.7044 88.5875C93.505 87.6917 94.1835 86.7044 94.721 85.6447C95.2204 84.5658 95.5939 83.4337 95.8455 82.2748C96.3259 79.9457 96.2839 77.5441 96.0171 75.1845C95.7236 72.8248 95.1556 70.4995 94.416 68.2313C93.6689 65.967 92.7807 63.7446 91.7781 61.5756C90.787 59.3989 89.6739 57.2756 88.454 55.2095C87.2418 53.1396 85.9343 51.123 84.5238 49.1789C83.1058 47.2386 81.5924 45.3745 80.018 43.56C78.4437 41.7454 76.7588 40.03 75.051 38.3451C73.3203 36.6831 71.5325 35.082 69.7103 33.5267C67.8729 31.9867 65.986 30.5076 64.0571 29.0933C62.1168 27.6905 60.1231 26.3639 58.0761 25.1288C56.029 23.8937 53.9362 22.7387 51.7748 21.7171C49.6248 20.6802 47.41 19.7768 45.1495 19.022C42.889 18.271 40.5674 17.6954 38.2078 17.3904C35.852 17.1122 33.4466 17.074 31.1174 17.5467C29.9548 17.7945 28.8264 18.1681 27.7476 18.6713C26.6879 19.2126 25.6968 19.8911 24.8086 20.6955L24.7476 20.6345C25.59 19.7653 26.5583 19.0258 27.618 18.4197C28.693 17.8517 29.8366 17.4057 31.0221 17.1122C33.397 16.5442 35.8672 16.4717 38.2879 16.7043C43.1367 17.2303 47.7988 18.8123 52.1789 20.867C56.5703 22.9331 60.6644 25.552 64.5489 28.4262C66.4854 29.8748 68.3533 31.4072 70.1678 33.0007C71.9785 34.5979 73.7053 36.2866 75.3941 38.0097C77.0713 39.7441 78.6762 41.5434 80.2544 43.3617C81.8135 45.1991 83.3078 47.0899 84.7564 49.015C87.6192 52.8842 90.3105 56.9173 92.4414 61.2668C94.5609 65.6087 96.1391 70.2746 96.6918 75.1159C96.8024 76.3281 96.8672 77.5479 96.7947 78.764C96.7604 79.9838 96.5622 81.1922 96.2992 82.3816C96.0095 83.5671 95.5596 84.7107 94.9917 85.7857C94.3855 86.8454 93.6422 87.8137 92.7692 88.6523L92.7083 88.5913L92.7044 88.5875Z" fill="url(#paint0_linear_1_525)"/>
<path d="M32.3718 88.6485C31.4988 87.8099 30.7555 86.8416 30.1494 85.7819C29.5814 84.7069 29.1278 83.5633 28.8419 82.3778C28.575 81.1884 28.3806 79.98 28.3463 78.7601C28.2739 77.5403 28.3387 76.3243 28.4492 75.112C29.002 70.2708 30.5763 65.6049 32.6996 61.263C34.8305 56.9135 37.518 52.8804 40.3847 49.0112C41.8332 47.0861 43.3275 45.1953 44.8867 43.3579C46.4648 41.5358 48.0697 39.7403 49.747 38.0058C51.4357 36.2828 53.1625 34.5941 54.9733 32.9969C56.7878 31.4034 58.6557 29.871 60.5922 28.4224C64.4766 25.552 68.5707 22.9293 72.9622 20.8632C77.3422 18.8085 82.0043 17.2265 86.8532 16.7005C89.2738 16.4641 91.744 16.5404 94.1189 17.1084C95.3044 17.3981 96.448 17.8479 97.523 18.4159C98.5828 19.0182 99.551 19.7615 100.393 20.6307L100.332 20.6917C99.4405 19.8873 98.4532 19.2088 97.3934 18.6675C96.3146 18.1643 95.1824 17.7907 94.0236 17.5429C91.6944 17.0664 89.2891 17.1084 86.9332 17.3866C84.5736 17.6916 82.2521 18.2672 79.9915 19.0182C77.731 19.773 75.5162 20.6764 73.3663 21.7133C71.2087 22.7349 69.112 23.8899 67.065 25.125C65.0179 26.3601 63.0242 27.6867 61.0839 29.0895C59.155 30.5076 57.2681 31.9829 55.4307 33.5229C53.6086 35.0782 51.8207 36.6793 50.0901 38.3413C48.3823 40.0262 46.7012 41.7416 45.123 43.5562C43.5486 45.3707 42.0314 47.2347 40.6172 49.1751C39.2067 51.1192 37.903 53.1396 36.687 55.2057C35.471 57.2718 34.354 59.3951 33.3629 61.5718C32.3604 63.7446 31.4722 65.9632 30.725 68.2275C29.9855 70.4919 29.4175 72.8172 29.1239 75.1807C28.8571 77.5365 28.8152 79.9419 29.2955 82.271C29.5471 83.4299 29.9168 84.562 30.42 85.6408C30.9575 86.7006 31.6361 87.6879 32.4366 88.5837L32.3756 88.6447L32.3718 88.6485Z" fill="url(#paint1_linear_1_525)"/>
<path d="M12.4272 50.8257C12.4081 49.6668 12.8198 48.527 13.445 47.5512C14.0701 46.5676 14.9164 45.7481 15.8008 45.0047C17.5924 43.5218 19.6586 42.4202 21.759 41.4557C25.9979 39.5688 30.4847 38.3299 34.9981 37.3426C37.2586 36.847 39.5382 36.4506 41.8293 36.1189C44.1165 35.7796 46.4151 35.5128 48.7176 35.3031C53.3225 34.8686 57.9465 34.678 62.5705 34.6551C67.1944 34.678 71.8184 34.8686 76.4233 35.3031C78.7258 35.5128 81.0245 35.7796 83.3117 36.1189C85.6027 36.4467 87.8823 36.847 90.1428 37.3387C94.66 38.3261 99.1468 39.565 103.382 41.4519C105.482 42.4164 107.548 43.518 109.34 45.0009C110.228 45.7443 111.071 46.56 111.696 47.5473C112.321 48.5232 112.729 49.6592 112.71 50.8219C112.691 49.6592 112.249 48.5499 111.601 47.6121C110.96 46.6591 110.106 45.8701 109.214 45.1572C107.411 43.7353 105.338 42.6946 103.233 41.7874C99.0019 39.9881 94.5266 38.814 90.0246 37.9029C80.994 36.1189 71.7689 35.3946 62.5667 35.4022C53.3644 35.3946 44.1393 36.1189 35.1087 37.9029C30.6029 38.814 26.1276 39.9881 21.9 41.7912C19.7958 42.6985 17.722 43.7391 15.919 45.161C15.0269 45.8739 14.1731 46.663 13.5326 47.616C12.8846 48.5575 12.4424 49.6668 12.4233 50.8257H12.4272Z" fill="url(#paint2_linear_1_525)"/>
<path d="M29.4211 33.2828L39.0465 41.0593L39.0808 28.5444L29.4211 33.2828Z" fill="#EAC654"/>
<path d="M29.2268 49.9947L39.0466 41.0593L25.7502 41.3986L29.2268 49.9947Z" fill="#C8992E"/>
<path d="M39.3935 45.0963L39.0466 41.0593L29.2268 49.9947L39.3935 45.0963Z" fill="#F9DF7B"/>
<path d="M25.7502 41.3986L39.0466 41.0593L29.4212 33.2828L25.7502 41.3986Z" fill="#B57E10"/>
<path d="M44.879 51.55L43.5143 47.1585L38.1165 53.5703L44.879 51.55Z" fill="#C8992E"/>
<path d="M43.5143 47.1586L39.3935 45.0963L38.1165 53.5704L43.5143 47.1586Z" fill="#B57E10"/>
<path d="M38.1164 53.5704L39.3935 45.0963L29.2268 49.9947L38.1164 53.5704Z" fill="#EAC654"/>
<path d="M48.161 46.4228L43.5142 47.1585L44.8789 51.55L48.161 46.4228Z" fill="#F9DF7B"/>
<path d="M48.8397 38.5662L49.1294 29.8062L42.8281 38.1393L48.8397 38.5662Z" fill="#B57E10"/>
<path d="M57.0507 35.7949L49.1293 29.8062L48.8396 38.5662L57.0507 35.7949Z" fill="#EAC654"/>
<path d="M49.1293 29.8062L39.0808 28.5444L42.828 38.1393L49.1293 29.8062Z" fill="#C8992E"/>
<path d="M62.0521 47.5283L61.1068 42.9424L55.6975 47.5283H62.0521Z" fill="#EAC654"/>
<path d="M39.0809 28.5444L39.0466 41.0593L42.8282 38.1393L39.0809 28.5444Z" fill="#F9DF7B"/>
<path d="M55.6974 47.5283L61.1067 42.9424L54.5081 42.8624L55.6974 47.5283Z" fill="#B57E10"/>
<path d="M61.1067 42.9425L57.0507 35.7949L54.5081 42.8624L61.1067 42.9425Z" fill="#C8992E"/>
<path d="M54.5081 42.8624L57.0507 35.7949L48.8396 38.5663L54.5081 42.8624Z" fill="#F9DF7B"/>
<path d="M55.6975 47.5283L59.4714 51.043L62.0521 47.5283H55.6975Z" fill="#F9DF7B"/>
<path d="M59.4714 51.043L62.0522 54.8169V47.5283L59.4714 51.043Z" fill="#C8992E"/>
<path d="M62.6354 83.4299V72.4132L54.531 69.394L62.6354 83.4299Z" fill="#EAC654"/>
<path d="M54.531 69.394L62.6354 72.4131V59.4523L54.531 69.394Z" fill="#F9DF7B"/>
<path d="M62.6353 83.4299V72.4132L70.7434 69.394L62.6353 83.4299Z" fill="#B57E10"/>
<path d="M70.7434 69.394L62.6353 72.4131V59.4523L70.7434 69.394Z" fill="#C8992E"/>
<path d="M43.8118 59.0063L49.465 57.4929L47.0787 62.9098L43.8118 59.0063Z" fill="#EAC654"/>
<path d="M46.9299 51.7444L49.4649 57.4929L43.7773 54.794L46.9299 51.7444Z" fill="#C8992E"/>
<path d="M50.3874 55.8118L49.4649 57.4929L46.9299 51.7444L50.3874 55.8118Z" fill="#F9DF7B"/>
<path d="M43.7773 54.794L49.4649 57.4929L43.8117 59.0063L43.7773 54.794Z" fill="#B57E10"/>
<path d="M53.9973 54.0697L52.564 55.7089L51.4585 51.9007L53.9973 54.0697Z" fill="#C8992E"/>
<path d="M52.5641 55.7089L50.3875 55.8118L51.4586 51.9007L52.5641 55.7089Z" fill="#B57E10"/>
<path d="M51.4586 51.9007L50.3874 55.8118L46.9299 51.7444L51.4586 51.9007Z" fill="#EAC654"/>
<path d="M54.4357 56.9173L52.564 55.7089L53.9973 54.0697L54.4357 56.9173Z" fill="#F9DF7B"/>
<path d="M53.2235 60.4472L51.6681 64.2897L50.5398 59.4789L53.2235 60.4472Z" fill="#B57E10"/>
<path d="M56.2426 63.2185L51.6682 64.2897L53.2235 60.4472L56.2426 63.2185Z" fill="#EAC654"/>
<path d="M51.6683 64.2897L47.0786 62.9098L50.5399 59.4789L51.6683 64.2897Z" fill="#C8992E"/>
<path d="M60.6533 59.1054L59.3648 60.9047L57.9048 57.8856L60.6533 59.1054Z" fill="#EAC654"/>
<path d="M47.0786 62.9098L49.4649 57.4929L50.5399 59.479L47.0786 62.9098Z" fill="#F9DF7B"/>
<path d="M57.9047 57.8856L59.3647 60.9047L56.498 59.6772L57.9047 57.8856Z" fill="#B57E10"/>
<path d="M59.3647 60.9047L56.2427 63.2185L56.4981 59.6772L59.3647 60.9047Z" fill="#C8992E"/>
<path d="M56.4982 59.6772L56.2428 63.2185L53.2236 60.4472L56.4982 59.6772Z" fill="#F9DF7B"/>
<path d="M57.9048 57.8855L60.2111 57.0888L60.6533 59.1054L57.9048 57.8855Z" fill="#F9DF7B"/>
<path d="M60.2109 57.0888L62.0521 55.949L60.6531 59.1054L60.2109 57.0888Z" fill="#C8992E"/>
<path d="M81.463 59.0063L75.8098 57.4929L78.1961 62.9098L81.463 59.0063Z" fill="#EAC654"/>
<path d="M78.3448 51.7444L75.8098 57.4929L81.4973 54.794L78.3448 51.7444Z" fill="#C8992E"/>
<path d="M74.8872 55.8118L75.8097 57.4929L78.3447 51.7444L74.8872 55.8118Z" fill="#F9DF7B"/>
<path d="M81.4973 54.794L75.8098 57.4929L81.463 59.0063L81.4973 54.794Z" fill="#B57E10"/>
<path d="M71.2771 54.0697L72.7066 55.7089L73.8159 51.9007L71.2771 54.0697Z" fill="#C8992E"/>
<path d="M72.7068 55.7089L74.8873 55.8118L73.8161 51.9007L72.7068 55.7089Z" fill="#B57E10"/>
<path d="M73.8159 51.9007L74.8871 55.8118L78.3446 51.7444L73.8159 51.9007Z" fill="#EAC654"/>
<path d="M70.8389 56.9173L72.7068 55.7089L71.2772 54.0697L70.8389 56.9173Z" fill="#F9DF7B"/>
<path d="M72.051 60.4472L73.6063 64.2897L74.7347 59.4789L72.051 60.4472Z" fill="#B57E10"/>
<path d="M69.032 63.2185L73.6064 64.2897L72.0511 60.4472L69.032 63.2185Z" fill="#EAC654"/>
<path d="M73.6064 64.2897L78.1961 62.9098L74.7348 59.4789L73.6064 64.2897Z" fill="#C8992E"/>
<path d="M64.6213 59.1054L65.906 60.9047L67.3698 57.8856L64.6213 59.1054Z" fill="#EAC654"/>
<path d="M78.1959 62.9098L75.8096 57.4929L74.7346 59.479L78.1959 62.9098Z" fill="#F9DF7B"/>
<path d="M67.3698 57.8856L65.906 60.9047L68.7765 59.6772L67.3698 57.8856Z" fill="#B57E10"/>
<path d="M65.906 60.9047L69.0319 63.2185L68.7765 59.6772L65.906 60.9047Z" fill="#C8992E"/>
<path d="M68.7766 59.6772L69.032 63.2185L72.0511 60.4472L68.7766 59.6772Z" fill="#F9DF7B"/>
<path d="M67.3698 57.8855L65.0635 57.0888L64.6213 59.1054L67.3698 57.8855Z" fill="#F9DF7B"/>
<path d="M65.0636 57.0888L63.2224 55.949L64.6214 59.1054L65.0636 57.0888Z" fill="#C8992E"/>
<path d="M95.8533 33.2828L86.2241 41.0593L86.1936 28.5444L95.8533 33.2828Z" fill="#EAC654"/>
<path d="M96.0477 49.9947L86.2241 41.0593L99.5243 41.3986L96.0477 49.9947Z" fill="#C8992E"/>
<path d="M85.8811 45.0963L86.2242 41.0593L96.0478 49.9947L85.8811 45.0963Z" fill="#F9DF7B"/>
<path d="M99.5243 41.3986L86.2241 41.0593L95.8533 33.2828L99.5243 41.3986Z" fill="#B57E10"/>
<path d="M80.3955 51.55L81.7602 47.1585L87.158 53.5703L80.3955 51.55Z" fill="#C8992E"/>
<path d="M81.7603 47.1586L85.881 45.0963L87.1581 53.5704L81.7603 47.1586Z" fill="#B57E10"/>
<path d="M87.1581 53.5704L85.8811 45.0963L96.0478 49.9947L87.1581 53.5704Z" fill="#EAC654"/>
<path d="M77.1135 46.4228L81.7604 47.1585L80.3957 51.55L77.1135 46.4228Z" fill="#F9DF7B"/>
<path d="M76.435 38.5662L76.1453 29.8062L82.4465 38.1393L76.435 38.5662Z" fill="#B57E10"/>
<path d="M68.2239 35.7949L76.1453 29.8062L76.435 38.5662L68.2239 35.7949Z" fill="#EAC654"/>
<path d="M76.1453 29.8062L86.1937 28.5444L82.4465 38.1393L76.1453 29.8062Z" fill="#C8992E"/>
<path d="M63.2224 47.5283L64.1678 42.9424L69.577 47.5283H63.2224Z" fill="#EAC654"/>
<path d="M86.1937 28.5444L86.2242 41.0593L82.4465 38.1393L86.1937 28.5444Z" fill="#F9DF7B"/>
<path d="M69.577 47.5283L64.1677 42.9424L70.7625 42.8624L69.577 47.5283Z" fill="#B57E10"/>
<path d="M64.1677 42.9425L68.2237 35.7949L70.7625 42.8624L64.1677 42.9425Z" fill="#C8992E"/>
<path d="M70.7627 42.8624L68.2239 35.7949L76.435 38.5663L70.7627 42.8624Z" fill="#F9DF7B"/>
<path d="M69.577 47.5283L65.8031 51.043L63.2224 47.5283H69.577Z" fill="#F9DF7B"/>
<path d="M65.8031 51.043L63.2224 54.8169V47.5283L65.8031 51.043Z" fill="#C8992E"/>
<path d="M50.8828 10.8834L62.6353 43.3351V14.5391L50.8828 10.8834Z" fill="#B57E10"/>
<path d="M74.3915 10.8834L62.6353 43.3351V14.5391L74.3915 10.8834Z" fill="#EAC654"/>
<path d="M50.8828 10.8833L62.6353 14.5391V4.29236C58.1028 4.29236 53.5665 6.48808 50.8828 10.8833Z" fill="#C8992E"/>
<path d="M62.6353 4.29236V14.5391L74.3877 10.8833C71.704 6.48808 67.1677 4.29236 62.6353 4.29236Z" fill="#F9DF7B"/>
<path d="M112.714 50.8257C112.733 51.9845 112.321 53.1243 111.696 54.1002C111.071 55.0837 110.225 55.9033 109.34 56.6466C107.549 58.1295 105.482 59.2312 103.382 60.1956C99.1431 62.0826 94.6563 63.3215 90.1429 64.3088C87.8824 64.8044 85.6028 65.2008 83.3118 65.5325C81.0246 65.8717 78.7259 66.1386 76.4234 66.3482C71.8185 66.7828 67.1945 66.9696 62.5706 66.9963C57.9466 66.9734 53.3226 66.7828 48.7177 66.3482C46.4152 66.1386 44.1166 65.8717 41.8294 65.5325C39.5383 65.2046 37.2587 64.8044 34.9982 64.3126C30.481 63.3291 25.9942 62.0864 21.7591 60.1994C19.6587 59.235 17.5925 58.1333 15.8009 56.6504C14.9127 55.9071 14.0702 55.0913 13.4451 54.104C12.8199 53.1281 12.412 51.9922 12.4311 50.8295C12.4501 51.9922 12.8923 53.1015 13.5404 54.0392C14.1808 54.9922 15.0347 55.7813 15.9267 56.4942C17.7298 57.916 19.8035 58.9567 21.9077 59.864C26.1391 61.6633 30.6144 62.8374 35.1164 63.7484C44.1471 65.5325 53.3722 66.2567 62.5744 66.2491C71.7766 66.2567 81.0017 65.5325 90.0323 63.7484C94.5382 62.8374 99.0135 61.6633 103.241 59.8602C105.345 58.9529 107.419 57.9122 109.222 56.4903C110.114 55.7775 110.968 54.9884 111.608 54.0354C112.256 53.0938 112.699 51.9845 112.718 50.8257H112.714Z" fill="url(#paint3_linear_1_525)"/>
<path d="M100.393 20.6268C101.266 21.4655 102.01 22.4337 102.616 23.4935C103.184 24.5685 103.637 25.7121 103.923 26.8976C104.19 28.087 104.384 29.2954 104.419 30.5152C104.491 31.7351 104.426 32.9511 104.316 34.1633C103.763 39.0046 102.189 43.6705 100.065 48.0124C97.9345 52.3619 95.247 56.395 92.3804 60.2642C90.9318 62.1893 89.4375 64.08 87.8784 65.9174C86.3002 67.7396 84.6954 69.535 83.0181 71.2695C81.3294 72.9925 79.6025 74.6813 77.7918 76.2785C75.9773 77.8719 74.1094 79.4044 72.1729 80.8529C68.2884 83.7234 64.1943 86.346 59.8029 88.4122C55.4229 90.4668 50.7608 92.0488 45.9119 92.5749C43.4912 92.8112 41.0211 92.735 38.6462 92.167C37.4606 91.8773 36.317 91.4275 35.242 90.8595C34.1823 90.2572 33.214 89.5138 32.3716 88.6447L32.4326 88.5837C33.3246 89.388 34.3119 90.0666 35.3716 90.6079C36.4504 91.1111 37.5826 91.4846 38.7415 91.7324C41.0706 92.2089 43.476 92.167 45.8318 91.8887C48.1915 91.5838 50.513 91.0081 52.7735 90.2572C55.034 89.5024 57.2488 88.5989 59.3988 87.5621C61.5564 86.5405 63.653 85.3854 65.7001 84.1503C67.7471 82.9152 69.7408 81.5886 71.6811 80.1858C73.61 78.7677 75.497 77.2925 77.3344 75.7524C79.1565 74.1971 80.9443 72.5961 82.675 70.934C84.3828 69.2491 86.0639 67.5337 87.6421 65.7192C89.2164 63.9047 90.7336 62.0406 92.1479 60.1003C93.5583 58.1562 94.862 56.1358 96.0781 54.0697C97.2941 52.0036 98.411 49.8803 99.4021 47.7036C100.405 45.5308 101.293 43.3122 102.04 41.0478C102.78 38.7835 103.348 36.4581 103.641 34.0947C103.908 31.7389 103.95 29.3335 103.47 27.0043C103.218 25.8455 102.848 24.7133 102.345 23.6345C101.808 22.5748 101.129 21.5875 100.328 20.6916L100.389 20.6306L100.393 20.6268Z" fill="url(#paint4_linear_1_525)"/>
<path d="M24.8123 20.6916C24.0118 21.5875 23.3333 22.5748 22.7958 23.6345C22.2964 24.7133 21.9228 25.8455 21.6712 27.0043C21.1909 29.3335 21.2328 31.7351 21.4997 34.0947C21.7932 36.4543 22.3612 38.7797 23.1007 41.0478C23.8479 43.3122 24.7361 45.5346 25.7386 47.7036C26.7298 49.8803 27.8429 52.0036 29.0627 54.0697C30.275 56.1396 31.5825 58.1562 32.9929 60.1003C34.411 62.0406 35.9244 63.9047 37.4987 65.7192C39.0731 67.5337 40.758 69.2491 42.4658 70.9341C44.1964 72.5961 45.9843 74.1972 47.8064 75.7525C49.6438 77.2925 51.5308 78.7716 53.4597 80.1858C55.4 81.5887 57.3937 82.9152 59.4407 84.1503C61.4878 85.3854 63.5806 86.5405 65.742 87.5621C67.892 88.599 70.1068 89.5024 72.3673 90.2572C74.6278 91.0082 76.9493 91.5838 79.309 91.8887C81.6648 92.167 84.0702 92.2051 86.3993 91.7324C87.562 91.4847 88.6904 91.1111 89.7691 90.6079C90.8289 90.0666 91.82 89.3881 92.7082 88.5837L92.7692 88.6447C91.9268 89.5138 90.9585 90.2534 89.8988 90.8595C88.8238 91.4275 87.6802 91.8773 86.4946 92.167C84.1197 92.735 81.6495 92.8074 79.2289 92.5749C74.38 92.0488 69.7179 90.4669 65.3379 88.4122C60.9465 86.3461 56.8524 83.7272 52.9679 80.8529C51.0314 79.4044 49.1635 77.8719 47.349 76.2785C45.5383 74.6813 43.8114 72.9926 42.1227 71.2695C40.4454 69.5351 38.8406 67.7358 37.2624 65.9174C35.7033 64.08 34.209 62.1893 32.7604 60.2642C29.8976 56.395 27.2063 52.3619 25.0754 48.0124C22.9559 43.6705 21.3777 39.0046 20.825 34.1633C20.7144 32.9511 20.6496 31.7312 20.722 30.5152C20.7563 29.2954 20.9546 28.087 21.2176 26.8976C21.5073 25.7121 21.9571 24.5685 22.5251 23.4935C23.1312 22.4337 23.8746 21.4655 24.7475 20.6268L24.8085 20.6878L24.8123 20.6916Z" fill="url(#paint5_linear_1_525)"/>
<path d="M24.7782 23.5202C26.3572 23.5202 27.6372 22.2401 27.6372 20.6611C27.6372 19.0821 26.3572 17.8021 24.7782 17.8021C23.1992 17.8021 21.9192 19.0821 21.9192 20.6611C21.9192 22.2401 23.1992 23.5202 24.7782 23.5202Z" fill="url(#paint6_linear_1_525)"/>
<path d="M32.4059 91.4771C33.9849 91.4771 35.2649 90.197 35.2649 88.618C35.2649 87.0391 33.9849 85.759 32.4059 85.759C30.8269 85.759 29.5469 87.0391 29.5469 88.618C29.5469 90.197 30.8269 91.4771 32.4059 91.4771Z" fill="url(#paint7_linear_1_525)"/>
<path d="M112.714 53.6847C114.293 53.6847 115.573 52.4047 115.573 50.8257C115.573 49.2467 114.293 47.9667 112.714 47.9667C111.135 47.9667 109.855 49.2467 109.855 50.8257C109.855 52.4047 111.135 53.6847 112.714 53.6847Z" fill="url(#paint8_linear_1_525)"/>
<defs>
<linearGradient id="paint0_linear_1_525" x1="58.7584" y1="54.6377" x2="75.5351" y2="37.861" gradientUnits="userSpaceOnUse">
<stop stop-color="#B57E10"/>
<stop offset="1" stop-color="#F9DF7B"/>
</linearGradient>
<linearGradient id="paint1_linear_1_525" x1="66.3826" y1="54.6377" x2="49.6059" y2="37.861" gradientUnits="userSpaceOnUse">
<stop stop-color="#B57E10"/>
<stop offset="1" stop-color="#F9DF7B"/>
</linearGradient>
<linearGradient id="paint2_linear_1_525" x1="62.5705" y1="50.8257" x2="62.5705" y2="34.6627" gradientUnits="userSpaceOnUse">
<stop stop-color="#F9DF7B"/>
<stop offset="1" stop-color="#B57E10"/>
</linearGradient>
<linearGradient id="paint3_linear_1_525" x1="62.5706" y1="66.9886" x2="62.5706" y2="50.8257" gradientUnits="userSpaceOnUse">
<stop stop-color="#B57E10"/>
<stop offset="1" stop-color="#F9DF7B"/>
</linearGradient>
<linearGradient id="paint4_linear_1_525" x1="83.1591" y1="71.4144" x2="66.3824" y2="54.6377" gradientUnits="userSpaceOnUse">
<stop stop-color="#F9DF7B"/>
<stop offset="1" stop-color="#B57E10"/>
</linearGradient>
<linearGradient id="paint5_linear_1_525" x1="41.9817" y1="71.4144" x2="58.7584" y2="54.6377" gradientUnits="userSpaceOnUse">
<stop stop-color="#F9DF7B"/>
<stop offset="1" stop-color="#B57E10"/>
</linearGradient>
<linearGradient id="paint6_linear_1_525" x1="21.9192" y1="20.6611" x2="27.6372" y2="20.6611" gradientUnits="userSpaceOnUse">
<stop stop-color="#B57E10"/>
<stop offset="1" stop-color="#F9DF7B"/>
</linearGradient>
<linearGradient id="paint7_linear_1_525" x1="29.5469" y1="88.618" x2="35.2649" y2="88.618" gradientUnits="userSpaceOnUse">
<stop stop-color="#B57E10"/>
<stop offset="1" stop-color="#F9DF7B"/>
</linearGradient>
<linearGradient id="paint8_linear_1_525" x1="109.855" y1="50.8257" x2="115.573" y2="50.8257" gradientUnits="userSpaceOnUse">
<stop stop-color="#B57E10"/>
<stop offset="1" stop-color="#F9DF7B"/>
</linearGradient>
</defs>
</svg>
