<svg width="64" height="64" viewBox="0 0 64 64" fill="none" xmlns="http://www.w3.org/2000/svg">
<g clip-path="url(#clip0_1_45)">
<mask id="mask0_1_45" style="mask-type:alpha" maskUnits="userSpaceOnUse" x="0" y="0" width="64" height="64">
<path d="M0.0600586 64V0.0400391H64.0001V64H0.0600586Z" fill="white"/>
</mask>
<g mask="url(#mask0_1_45)">
<path fill-rule="evenodd" clip-rule="evenodd" d="M64 32C64 49.673 49.673 64 32 64C14.327 64 0 49.673 0 32C0 14.327 14.327 0 32 0C49.673 0 64 14.327 64 32Z" fill="#4900FF"/>
</g>
<path fill-rule="evenodd" clip-rule="evenodd" d="M19.7413 47.047C19.2353 47.047 18.7373 46.817 18.4063 46.377C18.1308 46.0135 18.008 45.5569 18.0638 45.1043C18.1196 44.6517 18.3498 44.2386 18.7053 43.953C23.9663 39.774 25.4063 35.681 25.6613 32.872C24.9153 33.291 24.0753 33.555 23.1653 33.555C20.3273 33.555 18.0293 31.203 18.0293 28.301C18.0293 25.399 20.3303 23.047 23.1653 23.047C23.8063 23.047 24.3953 23.212 24.9573 23.435L24.9393 23.394C24.9393 23.394 25.1873 23.483 25.5323 23.672L25.5843 23.693L25.6123 23.713C25.8493 23.847 26.1213 24.026 26.4243 24.28C26.5533 24.39 26.6623 24.517 26.7803 24.637C28.0463 25.877 29.4373 28.243 29.0673 32.751C28.8513 36.275 27.2373 41.549 20.7763 46.683C20.4663 46.927 20.1043 47.047 19.7413 47.047M36.6433 47.044C36.384 47.0437 36.1284 46.983 35.8967 46.8667C35.6649 46.7504 35.4635 46.5817 35.3083 46.374C35.0329 46.0104 34.9102 45.5537 34.9663 45.1011C35.0223 44.6485 35.2526 44.2355 35.6083 43.95C40.8693 39.77 42.3093 35.677 42.5633 32.868C41.8073 33.3125 40.9473 33.5495 40.0703 33.555C37.2323 33.555 34.9353 31.203 34.9353 28.301C34.9353 25.399 37.2323 23.047 40.0703 23.047C40.7123 23.047 41.3013 23.212 41.8623 23.435L41.8413 23.394C41.8413 23.394 42.0893 23.483 42.4343 23.672L42.4863 23.693L42.5143 23.713C42.7513 23.847 43.0233 24.026 43.3273 24.28C43.4563 24.39 43.5643 24.517 43.6823 24.637C44.9483 25.877 46.3353 28.243 45.9703 32.748C45.7533 36.271 44.1393 41.546 37.6793 46.68C37.3846 46.9142 37.0197 47.0424 36.6433 47.044" fill="#B3B2A4"/>
<path fill-rule="evenodd" clip-rule="evenodd" d="M23.1653 31.555C20.3273 31.555 18.0293 29.203 18.0293 26.301C18.0293 23.399 20.3303 21.047 23.1653 21.047C23.8063 21.047 24.3953 21.212 24.9573 21.435L24.9393 21.394C24.9393 21.394 25.1873 21.483 25.5323 21.672L25.5843 21.693L25.6123 21.713C25.8493 21.847 26.1213 22.026 26.4243 22.28C26.5533 22.39 26.6623 22.517 26.7803 22.637C28.0463 23.877 29.4373 26.243 29.0673 30.751C28.8513 34.275 27.2373 39.549 20.7763 44.683C20.602 44.8219 20.4015 44.9243 20.1868 44.9842C19.9721 45.0441 19.7476 45.0602 19.5265 45.0317C19.3055 45.0032 19.0924 44.9305 18.9 44.818C18.7075 44.7056 18.5397 44.5556 18.4063 44.377C18.1308 44.0135 18.008 43.5569 18.0638 43.1043C18.1196 42.6517 18.3498 42.2386 18.7053 41.953C23.9663 37.774 25.4063 33.681 25.6613 30.872C24.9153 31.291 24.0753 31.555 23.1653 31.555ZM45.9703 30.748C45.7533 34.271 44.1393 39.546 37.6793 44.68C37.3846 44.9142 37.0197 45.0424 36.6433 45.044C36.384 45.0437 36.1284 44.983 35.8967 44.8667C35.6649 44.7504 35.4635 44.5817 35.3083 44.374C35.0329 44.0104 34.9102 43.5537 34.9663 43.1011C35.0223 42.6485 35.2526 42.2355 35.6083 41.95C40.8693 37.77 42.3093 33.677 42.5633 30.868C41.8073 31.3125 40.9473 31.5495 40.0703 31.555C37.2323 31.555 34.9353 29.203 34.9353 26.301C34.9353 23.399 37.2323 21.047 40.0703 21.047C40.7123 21.047 41.3013 21.212 41.8623 21.435L41.8413 21.394C41.8413 21.394 42.0893 21.483 42.4343 21.672L42.4863 21.693L42.5143 21.713C42.7513 21.847 43.0233 22.026 43.3273 22.28C43.4563 22.39 43.5643 22.517 43.6823 22.637C44.9483 23.877 46.3353 26.243 45.9703 30.748Z" fill="white"/>
</g>
<defs>
<clipPath id="clip0_1_45">
<rect width="64" height="64" fill="white"/>
</clipPath>
</defs>
</svg>
