<?xml version="1.0" encoding="UTF-8"?><svg id="Calque_1" xmlns="http://www.w3.org/2000/svg" viewBox="0 0 910.04 316.1"><defs><style>.cls-1{font-family:Bronova-Regular, Bronova;font-size:60px;}.cls-1,.cls-2{fill:#000116;}</style></defs><g><path class="cls-2" d="M680.37,196.64h19.09l-68.52-157.85h-34.39v4.97c8.12,0,12.76,3.48,15.42,7.59l-63.07,145.29h18.84l56.31-129.72,56.31,129.72Z"/><path class="cls-2" d="M333.24,196.64h19.09L283.81,38.8h-34.39v4.97c8.12,0,12.76,3.48,15.42,7.59l-63.07,145.29h18.84l56.31-129.72,56.31,129.72Z"/><path class="cls-2" d="M495.37,38.66v4.97c17.59,0,18.89,16.33,18.96,19.94V196.64h18.57V38.66h-37.53Z"/><path class="cls-2" d="M832.14,38.66V166.81l-101.88-128.07v-.08h-.07s0,0,0,0h-33.28v4.98c13.81,0,17.59,10.05,18.62,16.14V196.64h14.74V68.63l101.83,128.01,.05-.04v.04h14.74V38.66h-14.74Z"/><path class="cls-2" d="M469.33,50.68c-8.7-8.03-19.8-12.04-33.3-12.04h-86.69v4.99c17.57,0,18.93,16.26,19.01,19.96V196.64h18.59V126.59h44.57c17.1,0,29.86-4.2,38.26-12.6,8.41-8.4,12.61-19.15,12.61-32.26s-4.35-23.02-13.04-31.05Zm-14.66,52.37c-5.25,4.94-12.76,7.4-22.53,7.4h-45.22V55.21h43.71c21.27,0,31.9,8.84,31.9,26.52,0,9.28-2.62,16.39-7.87,21.32Z"/><path class="cls-2" d="M194.72,141.95c-6.2-28.47-43.37-30.84-66.89-37.69-1.46-.43-2.93-.82-4.4-1.2-12.36-3.18-25.04-8.12-23.69-23.51,1.97-32.53,66.89-35.37,75.33-4.61h18.15c-7.95-40.71-69.57-44.55-96.92-24.55-18.21,12.83-20.59,38.95-6.75,55.32,15.63,17.37,46.33,18.26,68.72,25.62,10.47,2.85,19.93,10.64,19.51,22.41-2.74,36.3-75.82,34.06-81.21-.38v-12.32H63.17v4.88c7.97,0,12.53,3.42,15.13,7.44,6.78,63.33,130.07,55.13,116.42-11.42Z"/></g><text class="cls-1" transform="translate(324.43 283.84)"><tspan x="0" y="0">CAPITAL</tspan></text></svg>